<?xml version="1.0" encoding="utf-8"?>
<!-- Generator: Adobe Illustrator 18.1.1, SVG Export Plug-In . SVG Version: 6.00 Build 0)  -->
<svg version="1.1" id="Capa_1" xmlns="http://www.w3.org/2000/svg" xmlns:xlink="http://www.w3.org/1999/xlink" x="0px" y="0px"
	 viewBox="0 0 100 100" enable-background="new 0 0 100 100" xml:space="preserve">
<g>
	<circle fill="#FFA200" cx="50" cy="50.2" r="40.4"/>
	<circle fill="#2B5F9C" cx="50" cy="49.9" r="35.4"/>
	<g>
		<path fill="#FFFFFF" d="M68.3,56.9c-0.3-0.6-0.7-1-1.2-1.3l-8.6-4.5c-0.2-0.1-0.4-0.1-0.6,0c-2.4,1.8-5.3,2.8-8.2,2.8
			c-3,0-5.8-1-8.2-2.8c-0.2-0.1-0.4-0.1-0.6,0l-8.6,4.5c-0.6,0.3-1,0.8-1.2,1.3l-3.9,8.8c3.7,4.4,12.9,7.5,23.5,7.5
			c9.5,0,17.8-2.5,22.2-6.1L68.3,56.9z"/>
		<path fill="#FFFFFF" d="M60,36.6c-0.1-2.2-0.9-4.4-2.3-6c-5.5-6.1-10.6-4.6-14-2.3c-0.1,0.1-0.2,0.1-0.3,0.2
			c-2.6,1.9-4.1,5.2-4,8.6c0.3,10.2,7,13.9,9.6,15c0.6,0.3,1.3,0.3,1.9,0c2.4-1.1,4.2-2.5,5.5-4.1C59.5,44.3,60.1,39.7,60,36.6z"/>
	</g>
</g>
</svg>
