<?xml version="1.0" encoding="utf-8"?>
<!-- Generator: Adobe Illustrator 18.1.1, SVG Export Plug-In . SVG Version: 6.00 Build 0)  -->
<svg version="1.1" id="Capa_1" xmlns="http://www.w3.org/2000/svg" xmlns:xlink="http://www.w3.org/1999/xlink" x="0px" y="0px"
	 viewBox="0 0 50 50" enable-background="new 0 0 50 50" xml:space="preserve">
<g>
	<circle fill="#2B5F9C" cx="25" cy="24.5" r="17.8"/>
	<g>
		<path fill="#FFFFFF" d="M32.2,21.3h-0.4v-2c0-3.7-2.9-6.8-6.6-6.8c-0.1,0-0.3,0-0.4,0c-3.7,0.1-6.6,3.1-6.6,6.8v2h-0.4
			c-0.7,0-1.2,0.7-1.2,1.5v10c0,0.8,0.5,1.5,1.2,1.5h14.4c0.7,0,1.2-0.7,1.2-1.5v-10C33.4,21.9,32.9,21.3,32.2,21.3z M26.4,27.8v3
			c0,0.3-0.3,0.6-0.6,0.6h-1.4c-0.3,0-0.6-0.3-0.6-0.6v-3c-0.3-0.3-0.5-0.8-0.5-1.3c0-1,0.7-1.8,1.7-1.8c0.1,0,0.3,0,0.4,0
			c0.9,0,1.7,0.9,1.7,1.8C26.9,27,26.7,27.4,26.4,27.8z M29,21.3h-3.8h-0.4H21v-2c0-2.2,1.8-4,4-4s4,1.8,4,4L29,21.3L29,21.3z"/>
	</g>
</g>
</svg>
