<?xml version="1.0" encoding="utf-8"?>
<!-- Generator: Adobe Illustrator 18.1.1, SVG Export Plug-In . SVG Version: 6.00 Build 0)  -->
<svg version="1.1" id="Capa_1" xmlns="http://www.w3.org/2000/svg" xmlns:xlink="http://www.w3.org/1999/xlink" x="0px" y="0px"
	 viewBox="0 0 50 50" enable-background="new 0 0 50 50" xml:space="preserve">
<g>
	<circle fill="#2B5F9C" cx="25.4" cy="25.5" r="17.8"/>
	<g>
		<path fill="#FFFFFF" d="M34.3,27.4c-0.1-0.3-0.3-0.5-0.6-0.6l-3.9-2c-0.1,0-0.2,0-0.3,0c-1.1,0.8-2.4,1.3-3.7,1.3
			c-1.3,0-2.6-0.4-3.7-1.3c-0.1-0.1-0.2-0.1-0.3,0l-3.9,2c-0.3,0.1-0.5,0.3-0.6,0.6l-1.8,4c1.7,2,5.8,3.4,10.7,3.4
			c4.3,0,8.1-1.1,10.1-2.8L34.3,27.4z"/>
		<path fill="#FFFFFF" d="M30.5,18.2c0-1-0.4-2-1.1-2.7c-2.5-2.8-4.8-2.1-6.4-1c0,0-0.1,0.1-0.1,0.1c-1.2,0.9-1.9,2.4-1.8,3.9
			c0.1,4.6,3.2,6.3,4.4,6.8c0.3,0.1,0.6,0.1,0.9,0c1.1-0.5,1.9-1.1,2.5-1.8C30.3,21.7,30.6,19.6,30.5,18.2z"/>
	</g>
</g>
</svg>
