<?xml version="1.0" encoding="utf-8"?>
<!-- Generator: Adobe Illustrator 19.2.1, SVG Export Plug-In . SVG Version: 6.00 Build 0)  -->
<svg version="1.1" id="Capa_1" xmlns="http://www.w3.org/2000/svg" xmlns:xlink="http://www.w3.org/1999/xlink" x="0px" y="0px"
	 viewBox="0 0 212.9 133.8" style="enable-background:new 0 0 212.9 133.8;" xml:space="preserve">
<style type="text/css">
	.st0{fill:#FFFFFF;}
</style>
<g>
	<path class="st0" d="M13.6,35c-1.5,0.7-3.2,1.3-5.2,1.3c-3.7,0-5.2-2.1-5.2-5.9V14.7c0-0.3,0-0.5-0.3-0.5H0v-2.1
		c3-0.5,3.8-1.7,4.3-6.4h2.1v5.4c0,0.3,0,0.5,0.3,0.5h5.7v2.7H6.4v15.1c0,3,0.5,4.2,2.8,4.2c1.3,0,2.5-0.4,3.6-0.9L13.6,35z"/>
	<path class="st0" d="M15.5,23.6c0-7.4,2.7-12.5,9.9-12.5c7.2,0,9.3,5.1,9.3,12.2c0,7.9-2.5,13.1-9.7,13.1
		C17.7,36.3,15.5,31,15.5,23.6 M31.3,23.6c0-6.5-1.7-9.7-6.1-9.7c-4.5,0-6.5,3.3-6.5,9.8c0,6.5,1.8,10.1,6.3,10.1
		C29.5,33.7,31.3,30.3,31.3,23.6"/>
	<path class="st0" d="M53.4,35.8L53.1,33L53,33c-1.8,2.1-4.3,3.4-7.1,3.4c-5.1,0-7.6-3.5-7.6-12.1c0-10,3.6-13.2,8.4-13.2
		c2.4,0,4.2,0.7,6.1,2.5V3.8c0-0.5-0.1-0.8-0.5-0.9L49.9,2l0.3-2H56v32.4c0,0.8,0,0.9,0.6,0.9l2,0.3v2.1H53.4z M52.8,17
		c-1.9-2-3.5-3.2-5.8-3.2c-3.9,0-5.4,3.5-5.4,10.3c0,7.4,1.9,9.3,5,9.3c2.3,0,4.7-1.4,6.3-3.6V17z"/>
	<path class="st0" d="M61.5,23.6c0-7.4,2.7-12.5,9.9-12.5c7.2,0,9.3,5.1,9.3,12.2c0,7.9-2.5,13.1-9.7,13.1
		C63.8,36.3,61.5,31,61.5,23.6 M77.4,23.6c0-6.5-1.7-9.7-6.1-9.7c-4.5,0-6.5,3.3-6.5,9.8c0,6.5,1.8,10.1,6.3,10.1
		C75.6,33.7,77.4,30.3,77.4,23.6"/>
	<path class="st0" d="M0,80.2v-5.1l3-0.4c0.7-0.1,0.8-0.3,0.8-1.1V47.2c0-0.8-0.1-1-0.8-1.2l-3-0.4v-5.1h17.5
		c8.1,0,10.5,4.3,10.5,9.7c0,5.2-2.9,8.1-5.8,9.2v0.2c5.4,0.7,7.7,4.1,7.7,9.6c0,8.1-5.7,11-13.1,11H0z M14,56.7
		c3.1,0,4.6-0.7,4.6-4.7c0-4.2-2.1-4.3-4-4.3h-1v9H14z M15,73.2c3,0,4.7-1.1,4.7-5.2c0-4.1-1.8-4.8-4.2-4.8h-1.8v10H15z"/>
	<path class="st0" d="M55.6,47.2c0-0.8-0.1-1-0.8-1.1l-3-0.4v-5.2h16v5.2l-3.2,0.4c-0.7,0.1-0.7,0.2-0.7,1v18.3
		c0,11-5.1,15.5-14.2,15.5c-10.6,0-14.5-4.8-14.5-15.7v-18c0-0.8-0.1-1-0.8-1.1l-3-0.4v-5.2h17.7v5.2L46,46.1
		c-0.7,0.1-0.8,0.3-0.8,1.1v17.6c0,4.5,0.2,8.2,4.8,8.2c4.5,0,5.5-2.6,5.5-8.1V47.2z"/>
	<path class="st0" d="M87.7,53l-0.4-4.3c-0.1-0.8-0.2-0.9-0.7-1c-0.9-0.3-2.1-0.3-2.8-0.3c-3,0-4.2,1.3-4.2,3.6
		c0,7,16.5,2.5,16.5,16.9c0,9.3-6.4,13-14.4,13c-4.3,0-10.1-1.3-12.2-2.4V66.8h7.2l1,5.4c0.1,0.6,0.3,0.7,0.8,0.9
		c0.8,0.2,2.2,0.3,3.2,0.3c3.5,0,4.8-1.5,4.8-3.7c0-7.8-16.5-2.3-16.5-17.7c0-8,5.8-12.2,14-12.2c4.2,0,8.4,1.2,11,2.4v11.5L87.7,53
		z"/>
	<path class="st0" d="M127.5,77.8c-3,2-8,3.1-12.2,3.1c-12.6,0-17-7.7-17-20.6c0-11.7,5.4-20.4,18.1-20.4c3.7,0,8.2,1.2,11,3.2V55
		l-7.1-0.6l-0.7-5.5c-0.1-0.6-0.3-0.8-0.8-0.9c-0.7-0.2-1.7-0.4-2.6-0.4c-5.2,0-7.6,4.1-7.6,12.7c0,8.9,2.2,13,7.3,13
		c1,0,2.2-0.2,3-0.4c0.8-0.2,0.9-0.3,1.1-1.7l0.6-4.7h6.9V77.8z"/>
	<g>
		<path class="st0" d="M160.9,70.5c-2.4,0-3.8-1.4-3.8-3.7c0-2.3,1.4-3.7,3.8-3.7c2.4,0,3.8,1.4,3.8,3.7
			C164.7,69.1,163.3,70.5,160.9,70.5"/>
		<path class="st0" d="M160.9,69.2c-1.7,0-2.5-0.8-2.5-2.4c0-1.6,0.8-2.4,2.5-2.4c1.7,0,2.5,0.9,2.5,2.4
			C163.4,68.4,162.6,69.2,160.9,69.2"/>
		<path class="st0" d="M176.6,67.7c-1.3,0.9-3.3,1.6-5.2,1.6c-4.9,0-6.7-3.2-6.7-7.4c0-5.2,2.5-7.9,6.8-7.9c2,0,3.9,0.7,4.9,1.4v4.8
			l-3.5-0.1l-0.3-1.8c0-0.2-0.1-0.4-0.3-0.5c-0.3-0.1-0.5-0.2-0.8-0.2c-0.8,0-1.6,0.9-1.6,3.8c0,3.5,1.2,4.2,2.4,4.2
			c1.2,0,2.5-0.5,3.1-0.8L176.6,67.7z"/>
		<path class="st0" d="M177.3,61.5c0-4.5,1.9-7.6,6.9-7.6c5,0,6.6,3.1,6.6,7.4c0,4.8-1.8,7.9-6.8,7.9
			C178.9,69.2,177.3,66.1,177.3,61.5 M185.6,61.5c0-3.1-0.5-4-1.5-4s-1.6,0.8-1.6,4c0,3.2,0.5,4.2,1.6,4.2
			C185,65.7,185.6,64.8,185.6,61.5"/>
		<path class="st0" d="M206.7,68.9v-9.4c0-1-0.2-1.4-0.9-1.4c-0.3,0-0.6,0.1-1,0.4v7.1c0,0.4,0,0.5,0.4,0.6l0.7,0.2v2.6h-6v-9.4
			c0-1-0.2-1.4-0.8-1.4c-0.3,0-0.8,0.1-1.1,0.4v7.1c0,0.4,0.1,0.4,0.4,0.6l0.7,0.2v2.6h-7.3v-2.6l0.9-0.1c0.3-0.1,0.4-0.2,0.4-0.6
			v-7.4c0-0.3-0.1-0.5-0.3-0.6l-1.2-0.5l0.3-2.7h5.2l0.2,1.3h0.2c0.7-0.7,2-1.6,3.8-1.6c1.4,0,2.4,0.6,3,1.6
			c0.6-0.6,2.1-1.6,3.8-1.6c2.5,0,3.7,1.6,3.7,4.5v7.1c0,0.4,0,0.5,0.4,0.6l0.9,0.2v2.6H206.7z"/>
		<path class="st0" d="M151.1,78c-9.5-5.2-13-17.2-7.9-26.7c5.2-9.5,17.2-13,26.7-7.9c3.4,1.9,6,4.6,7.8,7.8h9.2
			c-2.2-6.3-6.7-11.7-13-15.2c-13.6-7.4-30.7-2.4-38.1,11.2c-6.7,12.4-3.2,27.5,7.7,35.8l-2.2,4l-5.7,1.7l-18.8,34.5l1.7,5.7
			l8.6,4.7l5.7-1.7l18.8-34.5l-1.7-5.7l2.3-4.2c12.5,3.9,26.4-1.5,32.9-13.4c0.4-0.7,0.7-1.4,1-2.1h-9.7
			C170.8,80.2,159.9,82.9,151.1,78"/>
	</g>
</g>
</svg>
