<?xml version="1.0" encoding="utf-8"?>
<!-- Generator: Adobe Illustrator 19.0.0, SVG Export Plug-In . SVG Version: 6.00 Build 0)  -->
<svg version="1.1" id="Capa_1" xmlns="http://www.w3.org/2000/svg" xmlns:xlink="http://www.w3.org/1999/xlink" x="0px" y="0px"
	 viewBox="0 0 236 38" style="enable-background:new 0 0 236 38;" xml:space="preserve">
<style type="text/css">
	.st0{fill:#FFA200;}
	.st1{fill:#FFFFFF;}
	.st2{fill:none;stroke:#FFFFFF;stroke-width:1.141;stroke-miterlimit:10;}
	.st3{font-family:'MyriadPro-Regular';}
	.st4{font-size:11.2639px;}
</style>
<g id="XMLID_3_">
	<g id="XMLID_12_">
		<path id="XMLID_21_" class="st0" d="M136.6,29.8c0.1-1.2,0.1-2.9,0.1-4.4V4.8h3.3v10.7h0.1c1.2-1.9,3.3-3.1,6.2-3.1
			c4.5,0,7.7,3.5,7.6,8.7c0,6.1-4.1,9.1-8.1,9.1c-2.6,0-4.7-1-6.1-3.2h-0.1l-0.1,2.8H136.6z M140,23c0,0.4,0.1,0.8,0.1,1.1
			c0.6,2.2,2.5,3.6,4.9,3.6c3.4,0,5.5-2.6,5.5-6.6c0-3.4-1.9-6.3-5.4-6.3c-2.2,0-4.3,1.4-5,3.8c-0.1,0.4-0.2,0.8-0.2,1.3V23z"/>
		<path id="XMLID_24_" class="st0" d="M173.1,25.1c0,1.8,0,3.3,0.1,4.7h-2.9l-0.2-2.8h-0.1c-0.9,1.4-2.8,3.2-6,3.2
			c-2.8,0-6.2-1.5-6.2-7.5v-10h3.3v9.5c0,3.2,1,5.4,4,5.4c2.2,0,3.7-1.4,4.3-2.8c0.2-0.5,0.3-1,0.3-1.6V12.7h3.3V25.1z"/>
		<path id="XMLID_26_" class="st0" d="M178.1,26.6c1,0.6,2.7,1.2,4.3,1.2c2.4,0,3.5-1.1,3.5-2.5c0-1.5-0.9-2.3-3.4-3.1
			c-3.3-1.1-4.8-2.8-4.8-4.8c0-2.8,2.4-5,6.2-5c1.8,0,3.4,0.5,4.4,1.1l-0.8,2.3c-0.7-0.4-2-1-3.7-1c-1.9,0-3,1.1-3,2.3
			c0,1.4,1.1,2,3.4,2.9c3.1,1.1,4.7,2.6,4.7,5.1c0,3-2.5,5.1-6.8,5.1c-2,0-3.8-0.5-5.1-1.2L178.1,26.6z"/>
		<path id="XMLID_29_" class="st0" d="M206.3,29.2c-0.9,0.4-2.8,1-5.2,1c-5.5,0-9-3.5-9-8.7c0-5.3,3.8-9.1,9.7-9.1
			c1.9,0,3.7,0.5,4.6,0.9l-0.7,2.4c-0.8-0.4-2-0.8-3.8-0.8c-4.1,0-6.4,2.9-6.4,6.5c0,4,2.7,6.4,6.3,6.4c1.9,0,3.1-0.5,4-0.8
			L206.3,29.2z"/>
		<path id="XMLID_32_" class="st0" d="M226.3,21.1c0,6.3-4.6,9.1-9,9.1c-4.9,0-8.7-3.4-8.7-8.8c0-5.7,4-9.1,9-9.1
			C222.7,12.3,226.3,15.9,226.3,21.1z M211.9,21.3c0,3.7,2.3,6.6,5.5,6.6c3.1,0,5.5-2.8,5.5-6.6c0-2.9-1.5-6.6-5.4-6.6
			S211.9,18.1,211.9,21.3z"/>
	</g>
	<g id="XMLID_11_">
		<polygon id="XMLID_6_" class="st1" points="106.2,34.3 107.7,35.6 114.7,28.8 113.3,27.5 		"/>
		<g id="XMLID_31_">
			<path id="XMLID_5_" class="st2" d="M113.8,11.6c5-4.7,13.1-4.7,18.1,0s5,12.4,0,17.1c-5,4.7-13.1,4.7-18.1,0
				S108.8,16.4,113.8,11.6z"/>
		</g>
		<path id="XMLID_4_" class="st1" d="M106,36.3l-1.1-1c-0.8-0.7-0.8-1.9,0-2.6l3.1-2.9c0.8-0.7,2-0.7,2.8,0l1.1,1
			c0.8,0.7,0.8,1.9,0,2.6l-3.1,2.9C108,37,106.8,37,106,36.3z"/>
		<text id="XMLID_28_" transform="matrix(1.0598 0 0 1 116.3667 24.7434)" class="st1 st3 st4">CV</text>
	</g>
	<g id="XMLID_1_">
		<path id="XMLID_2_" class="st0" d="M16.6,21.1c0.1,4.2,2.9,5.9,6.2,5.9c2.4,0,3.8-0.4,5-0.9l0.6,2.2c-1.2,0.5-3.1,1.1-6,1.1
			c-5.6,0-8.9-3.5-8.9-8.6c0-5.1,3.2-9.2,8.5-9.2c5.9,0,7.5,4.9,7.5,8c0,0.6-0.1,1.1-0.1,1.4H16.6z M26.2,18.8c0-2-0.9-5-4.6-5
			c-3.3,0-4.8,2.9-5,5H26.2z"/>
		<path id="XMLID_9_" class="st0" d="M33.4,16.6c0-1.8,0-3.2-0.1-4.6h2.9l0.1,2.8h0.1c1-1.6,2.7-3.1,5.7-3.1c2.5,0,4.3,1.4,5.1,3.4
			h0.1c0.6-1,1.3-1.7,2-2.2c1.1-0.8,2.3-1.2,4-1.2c2.4,0,5.9,1.5,5.9,7.4v10h-3.2v-9.7c0-3.3-1.3-5.3-3.9-5.3
			c-1.9,0-3.3,1.3-3.9,2.8c-0.1,0.4-0.3,1-0.3,1.6V29h-3.2V18.8c0-2.7-1.3-4.7-3.8-4.7c-2.1,0-3.5,1.6-4.1,3.1
			c-0.2,0.5-0.3,1-0.3,1.5V29h-3.2V16.6z"/>
		<path id="XMLID_13_" class="st0" d="M64.6,17.5c0-2.2-0.1-3.9-0.1-5.6h3l0.1,2.9h0.1c1.3-2.1,3.5-3.3,6.4-3.3
			c4.4,0,7.7,3.5,7.7,8.7c0,6.1-4,9.2-8.2,9.2c-2.4,0-4.5-1-5.6-2.7h-0.1V36h-3.3V17.5z M67.9,22.1c0,0.5,0.1,0.9,0.1,1.3
			c0.6,2.2,2.6,3.6,4.9,3.6c3.5,0,5.5-2.7,5.5-6.6c0-3.4-1.9-6.3-5.4-6.3c-2.2,0-4.3,1.5-5,3.8c-0.1,0.4-0.2,0.8-0.2,1.3V22.1z"/>
		<path id="XMLID_16_" class="st0" d="M85.9,4h3.3v25h-3.3V4z"/>
		<path id="XMLID_18_" class="st0" d="M96.5,21.1c0.1,4.2,2.9,5.9,6.2,5.9c2.4,0,3.8-0.4,5-0.9l0.6,2.2c-1.2,0.5-3.1,1.1-6,1.1
			c-5.6,0-8.9-3.5-8.9-8.6c0-5.1,3.2-9.2,8.5-9.2c5.9,0,7.5,4.9,7.5,8c0,0.6-0.1,1.1-0.1,1.4H96.5z M106.2,18.8c0-2-0.9-5-4.6-5
			c-3.3,0-4.8,2.9-5,5H106.2z"/>
	</g>
</g>
</svg>
