<?xml version="1.0" encoding="utf-8"?>
<!-- Generator: Adobe Illustrator 16.0.0, SVG Export Plug-In . SVG Version: 6.00 Build 0)  -->
<!DOCTYPE svg PUBLIC "-//W3C//DTD SVG 1.1//EN" "http://www.w3.org/Graphics/SVG/1.1/DTD/svg11.dtd">
<svg version="1.1" id="Layer_x5F_1_x5F_1" xmlns="http://www.w3.org/2000/svg" xmlns:xlink="http://www.w3.org/1999/xlink" x="0px"
	 y="0px" width="69.094px" height="10.59px" viewBox="0 0 69.094 10.59" enable-background="new 0 0 69.094 10.59"
	 xml:space="preserve">
<path fill-rule="evenodd" clip-rule="evenodd" d="M5.011,6.522c0,0-0.314-1.004-0.521-1.926c-0.098-0.438-0.384-1.69-0.384-1.69
	S3.831,4.035,3.65,4.748C3.473,5.436,3.349,5.89,3.143,6.522H5.011z M5.204,0.805l3.007,9.577H6.152L5.479,8.115H2.677l-0.672,2.267
	H0l3.13-9.577H5.204z"/>
<path fill-rule="evenodd" clip-rule="evenodd" d="M11.468,5.297h1.002c0.783,0,1.017-0.096,1.277-0.492
	c0.165-0.263,0.234-0.536,0.234-0.991c0-0.892-0.481-1.43-1.291-1.43h-1.224V5.297z M12.059,0.831c1.623,0,2.115,0.167,2.65,0.468
	c0.894,0.495,1.373,1.373,1.373,2.474c0,1.265-0.603,2.282-1.646,2.776c-0.44,0.206-0.852,0.316-1.909,0.316h-1.059v3.517H9.546
	V0.831H12.059z"/>
<path d="M38.392,0.831v6.282c0,0.59,0.054,0.935,0.163,1.141c0.221,0.425,0.674,0.659,1.306,0.659c0.837,0,1.373-0.412,1.455-1.115
	c0.028-0.203,0.028-0.343,0.028-0.85V0.831h1.95v6.432c0,0.908-0.015,1.086-0.152,1.499c-0.248,0.754-1.18,1.8-3.241,1.8
	c-1.456,0-2.527-0.44-3.063-1.277c-0.314-0.495-0.412-0.881-0.412-1.801V0.831H38.392z"/>
<path d="M50.67,2.879c-0.864-0.521-1.51-0.728-2.224-0.728c-0.783,0-1.332,0.454-1.332,1.101c0,0.494,0.26,0.739,1.057,0.961
	l1.154,0.316c1.566,0.425,2.417,1.43,2.417,2.844c0,1.937-1.566,3.217-3.941,3.217c-1.084,0-2.293-0.316-3.254-0.865l0.714-1.499
	c0.894,0.466,1.661,0.768,2.623,0.768c1.1,0,1.677-0.451,1.677-1.304c0-0.618-0.399-1.002-1.252-1.236l-1.056-0.288
	c-0.948-0.263-1.538-0.634-1.881-1.211c-0.262-0.425-0.399-0.919-0.399-1.455c0-1.746,1.401-2.955,3.421-2.955
	c1.167,0,2.347,0.356,3.184,0.962L50.67,2.879z"/>
<path fill="#00ACEC" d="M25.793,4.302c-0.477,0-0.924-0.126-1.31-0.346v6.426h2.623V3.956h-0.004
	C26.715,4.176,26.269,4.302,25.793,4.302z"/>
<circle fill="#00ACEC" cx="25.793" cy="1.634" r="1.633"/>
<polygon points="23.136,0.831 23.136,2.425 20.804,2.425 20.804,10.382 18.854,10.382 18.854,2.425 16.518,2.425 16.518,0.831 "/>
<polygon points="35.071,0.831 35.069,2.425 32.737,2.425 32.737,10.382 30.787,10.382 30.787,2.425 28.453,2.425 28.453,0.831 "/>
<rect x="52.175" y="8.835" fill-rule="evenodd" clip-rule="evenodd" fill="#00ACEC" width="1.302" height="1.519"/>
<path fill-rule="evenodd" clip-rule="evenodd" fill="#00ACEC" d="M56.958,10.329c0.102-0.017,0.212-0.041,0.334-0.073
	c0.095-0.024,0.187-0.055,0.28-0.094l0.243-0.1V9.052h-0.152c-0.042,0.041-0.091,0.085-0.15,0.133s-0.126,0.095-0.204,0.139
	c-0.081,0.048-0.18,0.084-0.291,0.115c-0.115,0.034-0.247,0.047-0.397,0.047c-0.295,0-0.531-0.095-0.709-0.29
	c-0.178-0.193-0.267-0.488-0.267-0.885c0-0.367,0.083-0.662,0.252-0.881c0.165-0.218,0.399-0.33,0.705-0.33
	c0.135,0,0.256,0.018,0.365,0.048s0.204,0.067,0.292,0.108c0.081,0.043,0.156,0.091,0.226,0.139c0.069,0.05,0.13,0.098,0.178,0.139
	h0.152v-1c-0.221-0.104-0.438-0.182-0.655-0.229c-0.217-0.048-0.43-0.071-0.642-0.071c-0.289,0-0.564,0.041-0.829,0.119
	s-0.49,0.195-0.688,0.357c-0.204,0.17-0.362,0.387-0.481,0.648c-0.117,0.265-0.176,0.58-0.176,0.953c0,0.349,0.054,0.65,0.163,0.908
	c0.108,0.256,0.26,0.467,0.458,0.636s0.428,0.295,0.699,0.377c0.267,0.081,0.562,0.122,0.887,0.122
	C56.719,10.354,56.856,10.347,56.958,10.329z"/>
<path fill-rule="evenodd" clip-rule="evenodd" fill="#00ACEC" d="M61.014,8.883c-0.037,0.139-0.091,0.258-0.163,0.355
	c-0.061,0.08-0.139,0.146-0.236,0.187c-0.102,0.041-0.202,0.061-0.295,0.061c-0.12,0-0.228-0.02-0.323-0.061
	c-0.093-0.041-0.176-0.108-0.237-0.197c-0.065-0.087-0.115-0.204-0.152-0.352C59.567,8.73,59.55,8.54,59.55,8.304
	c0-0.238,0.02-0.434,0.061-0.59s0.095-0.282,0.167-0.373c0.072-0.092,0.147-0.156,0.236-0.191c0.089-0.032,0.187-0.05,0.295-0.05
	c0.115,0,0.217,0.02,0.306,0.059c0.087,0.039,0.169,0.104,0.241,0.199c0.067,0.094,0.117,0.217,0.154,0.369
	c0.039,0.156,0.058,0.345,0.058,0.577C61.068,8.551,61.049,8.744,61.014,8.883z M61.828,6.785c-0.36-0.366-0.868-0.553-1.518-0.553
	c-0.651,0-1.159,0.182-1.519,0.549c-0.362,0.366-0.542,0.871-0.542,1.516c0,0.636,0.18,1.142,0.542,1.508
	c0.36,0.366,0.868,0.549,1.519,0.549c0.655,0,1.163-0.183,1.522-0.549c0.358-0.366,0.538-0.872,0.538-1.508
	C62.37,7.655,62.188,7.149,61.828,6.785z"/>
<path fill-rule="evenodd" clip-rule="evenodd" fill="#00ACEC" d="M69.094,10.354V7.744c0-0.284-0.03-0.519-0.084-0.694
	c-0.054-0.178-0.139-0.334-0.247-0.462c-0.106-0.115-0.23-0.204-0.377-0.265c-0.146-0.061-0.311-0.091-0.495-0.091
	c-0.219,0-0.436,0.061-0.646,0.18c-0.21,0.121-0.438,0.291-0.674,0.514c-0.098-0.229-0.241-0.403-0.423-0.518
	c-0.184-0.115-0.397-0.176-0.642-0.176c-0.226,0-0.43,0.05-0.609,0.145c-0.18,0.098-0.369,0.234-0.573,0.408V6.232h-1.301v4.121
	h1.301V7.553c0.089-0.061,0.176-0.117,0.271-0.164c0.091-0.048,0.187-0.072,0.285-0.072c0.125,0,0.223,0.02,0.294,0.059
	c0.072,0.039,0.126,0.1,0.161,0.185c0.033,0.087,0.054,0.195,0.061,0.33c0.007,0.136,0.013,0.299,0.013,0.492v1.972h1.302V7.553
	c0.102-0.073,0.199-0.134,0.289-0.176c0.087-0.041,0.175-0.061,0.267-0.061c0.13,0,0.228,0.02,0.299,0.059
	c0.072,0.039,0.126,0.1,0.158,0.185c0.035,0.087,0.054,0.195,0.061,0.325c0.006,0.137,0.011,0.3,0.011,0.497v1.972H69.094z"/>
</svg>
