<?xml version="1.0" encoding="utf-8"?>
<!-- Generator: Adobe Illustrator 18.1.1, SVG Export Plug-In . SVG Version: 6.00 Build 0)  -->
<svg version="1.1" id="Layer_1" xmlns="http://www.w3.org/2000/svg" xmlns:xlink="http://www.w3.org/1999/xlink" x="0px" y="0px"
	 viewBox="143.5 0 128 128" enable-background="new 143.5 0 128 128" xml:space="preserve">
<g>
	<g>
		<path fill="#FFA200" d="M243,63.4c0-20.2-16.8-36.4-37.3-35.6c-18.3,0.9-33.1,15.9-33.8,34.4c-0.6,17.5,11.5,32.3,27.9,35.8
			l2.4,3.7c2.3,4,8.1,4,10.4,0l2.4-3.7C231.1,94.7,243,80.5,243,63.4z"/>
	</g>
	<defs>
		<filter id="Adobe_OpacityMaskFilter" filterUnits="userSpaceOnUse" x="171.8" y="27.8" width="71.1" height="77">
			<feColorMatrix  type="matrix" values="1 0 0 0 0  0 1 0 0 0  0 0 1 0 0  0 0 0 1 0"/>
		</filter>
	</defs>
	<mask maskUnits="userSpaceOnUse" x="171.8" y="27.8" width="71.1" height="77" id="SVGID_4_">
		<g filter="url(#Adobe_OpacityMaskFilter)">
			
				<image overflow="visible" enable-background="new    " width="56" height="59" xlink:href="1EFCC1DC3B7959A3.jpg"  transform="matrix(1.4222 0 0 1.4222 167.5341 24.1778)">
			</image>
		</g>
	</mask>
	<g opacity="0.4" mask="url(#SVGID_4_)">
		<path d="M242.9,63.4c0-20.2-16.8-36.4-37.3-35.6c-18.3,0.9-33.1,15.9-33.8,34.4c-0.6,17.5,11.5,32.3,27.9,35.8l2.4,3.7
			c2.3,4,8.1,4,10.4,0l2.4-3.7C231,94.7,242.9,80.5,242.9,63.4z"/>
	</g>
</g>
<g>
	<g>
		<path fill="#FFFFFF" d="M238.5,63.6c0,17.1-13.8,31-31,31c-17.1,0-31-13.8-31-31s13.9-30.9,31-30.9S238.5,46.5,238.5,63.6z"/>
	</g>
	<defs>
		<filter id="Adobe_OpacityMaskFilter_1_" filterUnits="userSpaceOnUse" x="176.5" y="32.7" width="62" height="61.9">
			<feColorMatrix  type="matrix" values="1 0 0 0 0  0 1 0 0 0  0 0 1 0 0  0 0 0 1 0"/>
		</filter>
	</defs>
	<mask maskUnits="userSpaceOnUse" x="176.5" y="32.7" width="62" height="61.9" id="SVGID_1_">
		<g filter="url(#Adobe_OpacityMaskFilter_1_)">
			
				<image overflow="visible" enable-background="new    " width="48" height="49" xlink:href="1EFCC1DC3B7959A1.jpg"  transform="matrix(1.4222 0 0 1.4222 173.3555 28.4444)">
			</image>
		</g>
	</mask>
	<g opacity="0.3" mask="url(#SVGID_1_)">
		<path d="M238.5,63.6c0,17.1-13.8,31-31,31c-17.1,0-31-13.8-31-31s13.9-30.9,31-30.9S238.5,46.5,238.5,63.6z"/>
	</g>
</g>
<g>
	<g>
		<g>
			<path fill="#FFA200" d="M205.9,83.9c-3.1,0-6.4,0-9.5,0c0,0-0.1,0.4-0.3,0.3c-1.4-0.6-2.3-1.4-2.3-3c0-1,0-2,0-3.1
				c0-9.1,0-15.8,0-24.9c0-1.1,0.3-2,1.3-2.7c0.7-0.6,1.4-0.7,2.3-0.7h2c0,0,0.9,0,0.9,1c0,1-0.9,1.1-0.9,1.1h-1.8
				c-0.9,0-1.4,0.7-1.4,1.6c0,10.2,0,17.6,0,27.9c0,0.9,0.4,0.6,1.3,0.6c2.8,0,5.7-0.9,8.7-0.9h2.7c2.8,0,5.7,0.9,8.7,0.9
				c0.9,0,1.3,0,1.3-0.9c0-10.2,0-17.5,0-27.7c0-0.9-0.6-1.6-1.4-1.4h-1.8c0,0-0.9-0.1-0.9-1.1c0-1,0.9-1,0.9-1h2
				c0.9,0,1.6,0.1,2.3,0.7c0.9,0.7,1.3,1.7,1.3,2.8c0,9.1,0,15.8,0,25c0,1,0,2.1,0,3.1c0,1.6-0.9,2.3-2.3,2.7
				c-0.1,0-0.3-0.3-0.3-0.3c-3.1,0-6.4,0-9.5,0H205.9z"/>
			<g>
				<path fill="#FFA200" d="M216,59.7c0,0.9-0.7,1.4-1.4,1.4h-14.2c-0.9,0-1.4-0.7-1.4-1.4v-1.4c0-0.9,0.7-1.4,1.4-1.4h14.2
					c0.9,0,1.4,0.7,1.4,1.4V59.7z"/>
				<g>
					<path fill="#FFA200" d="M216,74.2c0,0.6-0.4,1.1-1.1,1.1h-0.7c-0.6,0-1.1-0.4-1.1-1.1v-3.6c0-0.6,0.4-1.1,1.1-1.1h0.7
						c0.6,0,1.1,0.4,1.1,1.1V74.2z"/>
					<path fill="#FFA200" d="M199.7,70.4c0,0.6-0.4,1.1-1.1,1.1l0,0c-0.6,0-1.1-0.4-1.1-1.1l0,0c0-0.6,0.4-1.1,1.1-1.1l0,0
						C199.1,69.3,199.7,69.8,199.7,70.4L199.7,70.4z"/>
					<path fill="#FFA200" d="M204.1,70.4c0,0.6-0.4,1.1-1.1,1.1l0,0c-0.6,0-1.1-0.4-1.1-1.1l0,0c0-0.6,0.4-1.1,1.1-1.1l0,0
						C203.5,69.3,204.1,69.8,204.1,70.4L204.1,70.4z"/>
					<path fill="#FFA200" d="M209.6,70.4c0,0.6-0.4,1.1-1.1,1.1l0,0c-0.6,0-1.1-0.4-1.1-1.1l0,0c0-0.6,0.4-1.1,1.1-1.1l0,0
						C209.1,69.3,209.6,69.8,209.6,70.4L209.6,70.4z"/>
					<path fill="#FFA200" d="M199.7,63.9c0,0.6-0.4,1.1-1.1,1.1l0,0c-0.6,0-1.1-0.4-1.1-1.1l0,0c0-0.6,0.4-1.1,1.1-1.1l0,0
						C199.1,62.7,199.7,63.1,199.7,63.9L199.7,63.9z"/>
					<path fill="#FFA200" d="M209.6,74.8c0,0.6-0.4,1.1-1.1,1.1l0,0c-0.6,0-1.1-0.4-1.1-1.1l0,0c0-0.6,0.4-1.1,1.1-1.1l0,0
						C209.1,73.7,209.6,74.2,209.6,74.8L209.6,74.8z"/>
					<path fill="#FFA200" d="M204.1,63.9c0,0.6-0.4,1.1-1.1,1.1l0,0c-0.6,0-1.1-0.4-1.1-1.1l0,0c0-0.6,0.4-1.1,1.1-1.1l0,0
						C203.5,62.7,204.1,63.1,204.1,63.9L204.1,63.9z"/>
					<path fill="#FFA200" d="M209.6,63.9c0,0.6-0.4,1.1-1.1,1.1l0,0c-0.6,0-1.1-0.4-1.1-1.1l0,0c0-0.6,0.4-1.1,1.1-1.1l0,0
						C209.1,62.7,209.6,63.1,209.6,63.9L209.6,63.9z"/>
					<path fill="#FFA200" d="M199.7,74.8c0,0.6-0.4,1.1-1.1,1.1l0,0c-0.6,0-1.1-0.4-1.1-1.1l0,0c0-0.6,0.4-1.1,1.1-1.1l0,0
						C199.1,73.7,199.7,74.2,199.7,74.8L199.7,74.8z"/>
					<path fill="#FFA200" d="M204.1,74.8c0,0.6-0.4,1.1-1.1,1.1l0,0c-0.6,0-1.1-0.4-1.1-1.1l0,0c0-0.6,0.4-1.1,1.1-1.1l0,0
						C203.5,73.7,204.1,74.2,204.1,74.8L204.1,74.8z"/>
					<path fill="#FFA200" d="M216.2,63.9c0,0.6-0.4,1.1-1.1,1.1l0,0c-0.6,0-1.1-0.4-1.1-1.1l0,0c0-0.6,0.4-1.1,1.1-1.1l0,0
						C215.7,62.7,216.2,63.1,216.2,63.9L216.2,63.9z"/>
				</g>
			</g>
			<g>
				<path fill="#FFA200" d="M212.8,54.8c-4,0-8,0-11.9,0c-0.1-0.1-0.3-0.1-0.4-0.3c-0.1-0.1-0.1-0.4-0.1-0.6c0-5.1,0-8.1,0-13.2
					c0-0.1,0-0.3,0-0.4c0-0.3,0.1-0.4,0.4-0.6c0,0,0.1,0,0.1-0.1c2.7,0,5.4,0,8.1,0c0.1,0,0.4,0.1,0.6,0.1c0.3,0.1,0.6,0.4,0.9,0.6
					c0.7,0.7,1.6,1.4,2.3,2.1c0.4,0.4,0.7,0.9,0.7,1.4c0,4,0,5.8,0,9.8c0,0.1,0,0.1,0,0.3c0,0.3-0.1,0.4-0.4,0.6
					C212.9,54.8,212.8,54.8,212.8,54.8z M201.7,48.1c0,2.1,0,2,0,4.1c0,0.1,0,0.1,0,0.3c0.1,0.3,0.4,0.6,0.7,0.6c1.4,0,2.8,0,4.3,0
					s2.8,0,4.3,0c0.1,0,0.3,0,0.4-0.1c0.3-0.1,0.3-0.4,0.3-0.7c0-2,0-1.8,0-3.8c0-1.3,0-2.6,0-3.8c0-0.6-0.3-0.9-0.9-0.9
					c-0.4,0-0.7,0-1.1,0s-0.7-0.3-0.7-0.7c0-0.4,0-0.7,0-1.1s-0.3-0.7-0.7-0.7c-2,0-3.8,0-5.8,0c-0.1,0-0.3,0-0.4,0.1
					c-0.3,0.1-0.4,0.4-0.4,0.7C201.7,43.9,201.7,46.1,201.7,48.1z"/>
			</g>
			<path fill="#FFA200" d="M214.2,55.3h-14.8c-0.3,0-0.6-0.3-0.6-0.6v-0.1c0-0.3,0.3-0.6,0.6-0.6h14.8c0.3,0,0.6,0.3,0.6,0.6v0.1
				C214.7,55,214.5,55.3,214.2,55.3z"/>
		</g>
	</g>
</g>
</svg>
