<?xml version="1.0" encoding="utf-8"?>
<!-- Generator: Adobe Illustrator 18.1.1, SVG Export Plug-In . SVG Version: 6.00 Build 0)  -->
<svg version="1.1" id="Layer_1" xmlns="http://www.w3.org/2000/svg" xmlns:xlink="http://www.w3.org/1999/xlink" x="0px" y="0px"
	 viewBox="150.2 0 128 128" enable-background="new 150.2 0 128 128" xml:space="preserve">
<g>
	<g>
		<path fill="#FFA200" d="M250.4,64.3c0-20.5-17.1-37-37.8-36.1C193.9,29,178.8,44.2,178.1,63c-0.6,17.8,11.8,32.9,28.4,36.6
			l2.4,3.7c2.3,4.1,8.2,4.1,10.5,0l2.4-3.7C238.1,96,250.4,81.5,250.4,64.3z"/>
	</g>
	<defs>
		<filter id="Adobe_OpacityMaskFilter" filterUnits="userSpaceOnUse" x="178.2" y="28.1" width="72.3" height="78.2">
			<feColorMatrix  type="matrix" values="1 0 0 0 0  0 1 0 0 0  0 0 1 0 0  0 0 0 1 0"/>
		</filter>
	</defs>
	<mask maskUnits="userSpaceOnUse" x="178.2" y="28.1" width="72.3" height="78.2" id="SVGID_4_">
		<g filter="url(#Adobe_OpacityMaskFilter)">
			
				<image overflow="visible" enable-background="new    " width="56" height="60" xlink:href="D2B438F8A6C7D33C.jpg"  transform="matrix(1.4222 0 0 1.4222 174.2625 24.2415)">
			</image>
		</g>
	</mask>
	<g opacity="0.4" mask="url(#SVGID_4_)">
		<path d="M250.5,64.3c0-20.5-17.1-37-37.8-36.1C194,29,178.9,44.2,178.2,63c-0.6,17.8,11.8,32.9,28.4,36.6l2.4,3.7
			c2.3,4.1,8.2,4.1,10.5,0l2.4-3.7C238.2,96,250.5,81.5,250.5,64.3z"/>
	</g>
</g>
<g>
	<g>
		<path fill="#FFFFFF" d="M245.7,64.4c0,17.4-14.1,31.4-31.4,31.4s-31.4-14.1-31.4-31.4S196.9,33,214.2,33S245.7,47.1,245.7,64.4z"
			/>
	</g>
	<defs>
		<filter id="Adobe_OpacityMaskFilter_1_" filterUnits="userSpaceOnUse" x="182.8" y="33" width="62.9" height="62.9">
			<feColorMatrix  type="matrix" values="1 0 0 0 0  0 1 0 0 0  0 0 1 0 0  0 0 0 1 0"/>
		</filter>
	</defs>
	<mask maskUnits="userSpaceOnUse" x="182.8" y="33" width="62.9" height="62.9" id="SVGID_1_">
		<g filter="url(#Adobe_OpacityMaskFilter_1_)">
			
				<image overflow="visible" enable-background="new    " width="49" height="49" xlink:href="D2B438F8A6C7D33D.jpg"  transform="matrix(1.4222 0 0 1.4222 179.8644 29.9304)">
			</image>
		</g>
	</mask>
	<g opacity="0.3" mask="url(#SVGID_1_)">
		<path d="M245.7,64.4c0,17.4-14.1,31.4-31.4,31.4s-31.4-14.1-31.4-31.4S196.9,33,214.2,33S245.7,47.1,245.7,64.4z"/>
	</g>
</g>
<g>
	<g>
		<path fill="#FFA200" d="M222.1,68c2.7,0.7,5.1,1.7,7.4,3.3c1.8,1.3,3.3,2.8,4,5.1c0.1,0.6,0.3,1.3,0.3,2c0,0.7-0.4,1.1-1,1.4
			c-1.1,0.9-2.6,1.3-4,1.6c-3,0.7-6.1,1-9.2,1.3c-3.1,0.1-6.3,0.3-9.4,0c-3.6-0.1-7-0.4-10.4-1.3c-1.1-0.3-2.3-0.6-3.3-1.1
			c-2-1.1-2-1.7-1.6-3.8c0.4-1.6,1.3-2.8,2.4-4c1.4-1.3,3-2.3,4.7-3.1c0.3-0.1,0.6-0.1,0.7,0.1c1.1,1.1,2.4,2,3.8,2.7
			c1.1,0.6,2.3,1,3.6,1.3c0.3,0,0.4,0.1,0.6,0.4c1,1.7,3,2.4,4.8,1.7c1.7-0.6,2.7-2.6,2.4-4.3c-0.3-1.6-1.1-2.6-2.7-3
			c-1.4-0.4-2.8-0.1-3.8,0.9c-0.3,0.3-0.6,0.3-0.9,0.1c-2.4-0.7-4.4-2.1-5.8-4.1c-2.4-3.1-3.1-6.7-2.3-10.4c1-4.3,3.7-7.3,7.8-8.7
			c3.6-1.3,7-0.9,10.2,1.1c3.4,2.1,5.3,5.1,5.7,9.1c0.3,2-0.1,4-0.7,6c-0.7,2-1.7,3.7-3.1,5.3C222.4,67.7,222.2,67.8,222.1,68z"/>
		<path fill="#FFA200" d="M228.9,57.7c0.1,0,0.4-0.1,0.4-0.3l0,0c-0.1-2.8-0.9-5.4-2.4-7.7c-2.4-3.7-6-6-10.4-6.7
			c-1.8-0.3-3.7-0.3-5.4,0.1c-3.1,0.7-5.7,2.1-7.8,4.6c-3.4,3.7-4.6,8.1-3.7,13.1c0.6,2.8,1.8,5.3,3.8,7.3c2.1,2.1,4.6,3.7,7.5,4.3
			c0.6,0.1,0.9,0.3,1.1,0.9c0.6,1.3,2.3,1.8,3.4,1.1c1.3-0.7,1.7-2.4,0.9-3.7c-0.9-1.1-2.4-1.4-3.6-0.6c-0.3,0.3-0.6,0.6-0.7,0.9
			c0,0.1-0.1,0.1-0.3,0.1c-6.7-1.4-11.1-7.1-11-13.5c0.1-6.8,5.1-12.5,11.8-13.4c3.4-0.4,6.5,0.3,9.4,2.1c4,2.7,6,6.4,6.3,11.1
			c0,0.1,0.1,0.3,0.3,0.3L228.9,57.7z"/>
	</g>
</g>
</svg>
