<?xml version="1.0" encoding="utf-8"?>
<!-- Generator: Adobe Illustrator 18.1.1, SVG Export Plug-In . SVG Version: 6.00 Build 0)  -->
<svg version="1.1" id="Capa_1" xmlns="http://www.w3.org/2000/svg" xmlns:xlink="http://www.w3.org/1999/xlink" x="0px" y="0px"
	 viewBox="0 0 140 140" enable-background="new 0 0 140 140" xml:space="preserve">
<g>
	<g>
		<g>
			<g>
				<path fill="#FFA200" d="M109.3,66.6c0-22.3-18.5-40.3-41.1-39.3c-20.3,1-36.9,17.7-37.4,38c-0.7,19.5,12.8,35.9,30.9,39.8
					l2.6,4.1c2.5,4.4,8.9,4.4,11.5,0l2.6-4.1C96,101.1,109.3,85.5,109.3,66.6z"/>
			</g>
			<defs>
				<filter id="Adobe_OpacityMaskFilter" filterUnits="userSpaceOnUse" x="30.7" y="27.3" width="78.6" height="85.2">
					<feColorMatrix  type="matrix" values="1 0 0 0 0  0 1 0 0 0  0 0 1 0 0  0 0 0 1 0"/>
				</filter>
			</defs>
			<mask maskUnits="userSpaceOnUse" x="30.7" y="27.3" width="78.6" height="85.2" id="SVGID_3_">
				<g filter="url(#Adobe_OpacityMaskFilter)">
				</g>
			</mask>
			<g opacity="0.4" mask="url(#SVGID_3_)">
				<path d="M109.3,66.6c0-22.3-18.5-40.3-41.1-39.3c-20.3,1-36.9,17.7-37.4,38c-0.7,19.5,12.8,35.9,30.9,39.8l2.6,4.1
					c2.5,4.4,8.9,4.4,11.5,0l2.6-4.1C96,101.1,109.3,85.5,109.3,66.6z"/>
			</g>
		</g>
		<g>
			<g>
				<path fill="#FFFFFF" d="M104.1,66.7c0,18.9-15.3,34.1-34.1,34.1S35.8,85.6,35.8,66.7S51,32.6,69.9,32.6S104.1,47.9,104.1,66.7z"
					/>
			</g>
			<defs>
				<filter id="Adobe_OpacityMaskFilter_1_" filterUnits="userSpaceOnUse" x="35.8" y="32.6" width="68.4" height="68.2">
					<feColorMatrix  type="matrix" values="1 0 0 0 0  0 1 0 0 0  0 0 1 0 0  0 0 0 1 0"/>
				</filter>
			</defs>
			<mask maskUnits="userSpaceOnUse" x="35.8" y="32.6" width="68.4" height="68.2" id="SVGID_2_">
				<g filter="url(#Adobe_OpacityMaskFilter_1_)">
				</g>
			</mask>
			<g opacity="0.3" mask="url(#SVGID_2_)">
				<path d="M104.1,66.7c0,18.9-15.3,34.1-34.1,34.1S35.8,85.6,35.8,66.7S51,32.6,69.9,32.6S104.1,47.9,104.1,66.7z"/>
			</g>
		</g>
	</g>
	<g>
		<g>
			<path fill="#FFA200" d="M94.9,63.9c-0.1,0.7-0.2,1.5-0.3,2.2c-0.7,4.2-2.5,7.9-5.5,11.1c-2.1,2.3-4.7,4.1-7.6,5.3
				c-0.1,0-0.2,0.1-0.3,0.1c0-1,0-1.9,0-2.9c0-0.1,0.2-0.3,0.3-0.3c1.8-0.9,3.5-2.1,4.9-3.5c0,0,0.1-0.1,0.2-0.2
				c-1.1-0.5-2.1-0.9-3.2-1.3c-0.6,1.5-1.2,2.9-2.2,4.2c-0.1-0.4-0.2-0.8-0.3-1.2c-0.1-0.2-0.2-0.5-0.3-0.7c-0.5-0.5-0.3-0.9,0-1.4
				c0.3-0.4,0.4-0.9,0.7-1.5c-0.8-0.2-1.6-0.3-2.4-0.5c-0.5-0.1-0.9-0.1-1.4-0.2c-0.1,0-0.2,0-0.3-0.1c-0.7-0.7-1.4-1.5-2.2-2.2
				c2.3,0.1,4.6,0.4,6.9,1c0.8-2.7,1.2-5.4,1.3-8.2c-3,0-5.9,0-9,0c0,2.2,0,4.3,0,6.6c-0.2-0.2-0.3-0.3-0.4-0.4
				c-0.5-0.4-0.9-0.8-1.5-1.2c-0.2-0.1-0.3-0.3-0.3-0.5c0-1.4,0-2.8,0-4.2c0-0.1,0-0.3,0-0.5c-3,0-6,0-9,0c0,0.6,0.1,1.1,0.1,1.7
				c-0.7,0-1.4,0-2.1,0c0-0.6-0.1-1.1-0.1-1.7c-2.2,0-4.4,0-6.7,0c0.1,0.6,0.1,1.1,0.2,1.7c-0.9,0-1.9,0-2.9,0c0-1-0.1-1.9-0.1-2.9
				c0.1-7,3-12.8,8.5-17.1c3.4-2.7,7.3-4.1,11.6-4.4c6.2-0.4,11.6,1.5,16.2,5.7c3.5,3.2,5.7,7.2,6.6,11.8c0.2,0.8,0.2,1.7,0.3,2.5
				c0,0.1,0,0.2,0.1,0.3C94.9,62.1,94.9,63,94.9,63.9z M72.2,61.5c0-2.4,0-4.8,0-7.2c-1.3-0.1-2.6-0.2-3.8-0.3
				c-1.3-0.2-2.5-0.4-3.8-0.7c-0.7,1.7-1.5,7-1.2,8.2C66.2,61.5,69.2,61.5,72.2,61.5z M83.3,61.5c-0.1-2.8-0.5-5.5-1.3-8.2
				c-2.5,0.6-5.1,1-7.6,1c0,2.4,0,4.8,0,7.2C77.3,61.5,80.3,61.5,83.3,61.5z M85.4,63.6c-0.1,3-0.5,6-1.3,8.8c1.4,0.6,2.7,1.1,4,1.7
				c2.4-3.1,3.7-6.6,4-10.5C89.8,63.6,87.6,63.6,85.4,63.6z M62.4,52.7c-1.4-0.6-2.7-1.1-4-1.7c-2.4,3.1-3.7,6.6-4,10.5
				c2.2,0,4.4,0,6.7,0C61.2,58.5,61.6,55.5,62.4,52.7z M84.1,52.7c0.3,1.4,0.6,2.9,0.8,4.4c0.2,1.5,0.3,3,0.5,4.5c2.2,0,4.4,0,6.6,0
				c-0.3-3.9-1.6-7.4-4-10.5C86.7,51.5,85.4,52.1,84.1,52.7z M72.2,52.1c0-2.8,0-5.6,0-8.3c-0.7,0-1.4,0.1-2,0.5
				c-1.7,1.1-2.9,2.7-3.8,4.5c-0.4,0.8-0.8,1.6-1.1,2.4C67.5,51.8,69.8,52,72.2,52.1z M74.3,52.1c2.3-0.1,4.6-0.3,6.9-0.9
				c-0.9-2.2-2-4.3-3.8-5.9c-0.9-0.8-1.8-1.6-3.2-1.5C74.3,46.5,74.3,49.3,74.3,52.1z M80.3,45.1c1.4,1.7,2.3,3.6,3.1,5.6
				c1.1-0.5,2.1-0.9,3.2-1.3C84.8,47.5,82.7,46.1,80.3,45.1z M63.1,50.7c0.8-2,1.7-3.8,3-5.5c-2.3,0.9-4.4,2.3-6.2,4.1
				C61,49.8,62,50.2,63.1,50.7z"/>
			<path fill="#FFA200" d="M45.1,80.1c0-0.1,0-0.2,0-0.4c0-3.5,0-6.9,0-10.4c0-1.2,0.6-1.8,1.8-1.8c6.1,0,12.3,0,18.4,0
				c1.2,0,1.8,0.6,1.8,1.8c0,0.3,0,0.6,0,1c0.5,0,0.9,0,1.4,0c0.6,0,1.1,0,1.7,0c0.7,0,1.3,0.2,1.8,0.7c1.7,1.7,3.4,3.3,5.1,5
				c0.4,0.4,0.7,0.7,1.1,1.1c0.6,0.6,0.9,1.3,0.9,2.1c0,0.3,0,0.5,0,0.8C67.8,80.1,56.5,80.1,45.1,80.1z M72.5,77.6
				c0.9,0,1.8,0,2.8,0c0.2,0,0.4-0.1,0.6-0.2c-0.1-0.2-0.2-0.4-0.3-0.5c-1.4-1.3-2.8-2.7-4.2-4c-0.5-0.5-0.9-0.7-1.6-0.6
				c-0.1,0-0.1,0-0.2,0c-0.4,0-0.5,0.1-0.5,0.5c0,1.5,0,2.9,0,4.4c0,0.4,0.2,0.5,0.5,0.5C70.6,77.6,71.6,77.6,72.5,77.6z"/>
			<path fill="#FFA200" d="M57.9,86.3c-0.2-1.2-0.8-2.2-1.8-2.9c-0.8-0.6-1.6-0.9-2.5-0.9c-1.1,0-2.2,0.3-3,1.1
				c-0.9,0.7-1.4,1.7-1.6,2.8c-0.8,0-1.6,0-2.3,0c-0.8,0-1.4-0.7-1.5-1.5c0-1.2,0-2.5,0-3.8c11.3,0,22.6,0,34,0c0,0.1,0,0.3,0,0.4
				c0,1,0,2,0,3.1c0,1.1-0.7,1.8-1.8,1.8c-0.5,0-1,0-1.6,0c-0.2-1.4-0.9-2.4-2.1-3.2c-0.8-0.5-1.6-0.7-2.5-0.7
				c-2.1,0.1-3.5,1.3-4.4,3.8C63.8,86.3,60.8,86.3,57.9,86.3z"/>
			<path fill="#FFA200" d="M53.4,90.4c-1.9,0-3.4-1.6-3.4-3.4c0-1.8,1.6-3.4,3.4-3.4c1.9,0,3.4,1.6,3.4,3.4
				C56.8,88.8,55.3,90.4,53.4,90.4z M55.1,86.9c0-0.9-0.8-1.7-1.7-1.7c-0.9,0-1.7,0.8-1.7,1.7c0,0.9,0.8,1.7,1.7,1.7
				C54.3,88.7,55.1,87.9,55.1,86.9z"/>
			<path fill="#FFA200" d="M74.6,87c0,1.9-1.6,3.4-3.4,3.4c-1.9,0-3.4-1.6-3.4-3.4c0-1.8,1.6-3.4,3.4-3.4
				C73.1,83.6,74.6,85.1,74.6,87z M71.2,88.7c0.9,0,1.7-0.8,1.7-1.7c0-0.9-0.8-1.7-1.7-1.7c-0.9,0-1.7,0.8-1.7,1.7
				C69.6,87.9,70.3,88.7,71.2,88.7z"/>
		</g>
		<g>
			<path fill="#FFA200" d="M94.9,63.9c-0.1,0.7-0.2,1.5-0.3,2.2c-0.7,4.2-2.5,7.9-5.5,11.1c-2.1,2.3-4.7,4.1-7.6,5.3
				c-0.1,0-0.2,0.1-0.3,0.1c0-1,0-1.9,0-2.9c0-0.1,0.2-0.3,0.3-0.3c1.8-0.9,3.5-2.1,4.9-3.5c0,0,0.1-0.1,0.2-0.2
				c-1.1-0.5-2.1-0.9-3.2-1.3c-0.6,1.5-1.2,2.9-2.2,4.2c-0.1-0.4-0.2-0.8-0.3-1.2c-0.1-0.2-0.2-0.5-0.3-0.7c-0.5-0.5-0.3-0.9,0-1.4
				c0.3-0.4,0.4-0.9,0.7-1.5c-0.8-0.2-1.6-0.3-2.4-0.5c-0.5-0.1-0.9-0.1-1.4-0.2c-0.1,0-0.2,0-0.3-0.1c-0.7-0.7-1.4-1.5-2.2-2.2
				c2.3,0.1,4.6,0.4,6.9,1c0.8-2.7,1.2-5.4,1.3-8.2c-3,0-5.9,0-9,0c0,2.2,0,4.3,0,6.6c-0.2-0.2-0.3-0.3-0.4-0.4
				c-0.5-0.4-0.9-0.8-1.5-1.2c-0.2-0.1-0.3-0.3-0.3-0.5c0-1.4,0-2.8,0-4.2c0-0.1,0-0.3,0-0.5c-3,0-6,0-9,0c0,0.6,0.1,1.1,0.1,1.7
				c-0.7,0-1.4,0-2.1,0c0-0.6-0.1-1.1-0.1-1.7c-2.2,0-4.4,0-6.7,0c0.1,0.6,0.1,1.1,0.2,1.7c-0.9,0-1.9,0-2.9,0c0-1-0.1-1.9-0.1-2.9
				c0.1-7,3-12.8,8.5-17.1c3.4-2.7,7.3-4.1,11.6-4.4c6.2-0.4,11.6,1.5,16.2,5.7c3.5,3.2,5.7,7.2,6.6,11.8c0.2,0.8,0.2,1.7,0.3,2.5
				c0,0.1,0,0.2,0.1,0.3C94.9,62.2,94.9,63,94.9,63.9z M72.2,61.5c0-2.4,0-4.8,0-7.2c-1.3-0.1-2.6-0.2-3.8-0.3
				c-1.3-0.2-2.5-0.4-3.8-0.7c-0.7,1.7-1.5,7-1.2,8.2C66.2,61.5,69.2,61.5,72.2,61.5z M83.3,61.5c-0.1-2.8-0.5-5.5-1.3-8.2
				c-2.5,0.6-5.1,1-7.6,1c0,2.4,0,4.8,0,7.2C77.3,61.5,80.3,61.5,83.3,61.5z M85.4,63.7c-0.1,3-0.5,6-1.3,8.8c1.4,0.6,2.7,1.1,4,1.7
				c2.4-3.1,3.7-6.6,4-10.5C89.8,63.7,87.6,63.7,85.4,63.7z M62.4,52.7c-1.4-0.6-2.7-1.1-4-1.7c-2.4,3.1-3.7,6.6-4,10.5
				c2.2,0,4.4,0,6.7,0C61.2,58.5,61.6,55.6,62.4,52.7z M84.1,52.7c0.3,1.4,0.6,2.9,0.8,4.4c0.2,1.5,0.3,3,0.5,4.5c2.2,0,4.4,0,6.6,0
				c-0.3-3.9-1.6-7.4-4-10.5C86.7,51.6,85.4,52.1,84.1,52.7z M72.2,52.1c0-2.8,0-5.6,0-8.3c-0.7,0-1.4,0.1-2,0.5
				c-1.7,1.1-2.9,2.7-3.8,4.5c-0.4,0.8-0.8,1.6-1.1,2.4C67.5,51.8,69.8,52.1,72.2,52.1z M74.3,52.1c2.3-0.1,4.6-0.3,6.9-0.9
				c-0.9-2.2-2-4.3-3.8-5.9c-0.9-0.8-1.8-1.6-3.2-1.5C74.3,46.5,74.3,49.3,74.3,52.1z M80.3,45.1c1.4,1.7,2.3,3.6,3.1,5.6
				c1.1-0.5,2.1-0.9,3.2-1.3C84.8,47.5,82.7,46.1,80.3,45.1z M63.1,50.7c0.8-2,1.7-3.8,3-5.5c-2.3,0.9-4.4,2.3-6.2,4.1
				C61,49.8,62,50.2,63.1,50.7z"/>
			<path fill="#FFA200" d="M45.1,80.1c0-0.1,0-0.2,0-0.4c0-3.5,0-6.9,0-10.4c0-1.2,0.6-1.8,1.8-1.8c6.1,0,12.3,0,18.4,0
				c1.2,0,1.8,0.6,1.8,1.8c0,0.3,0,0.6,0,1c0.5,0,0.9,0,1.4,0c0.6,0,1.1,0,1.7,0c0.7,0,1.3,0.2,1.8,0.7c1.7,1.7,3.4,3.3,5.1,5
				c0.4,0.4,0.7,0.7,1.1,1.1c0.6,0.6,0.9,1.3,0.9,2.1c0,0.3,0,0.5,0,0.8C67.8,80.1,56.4,80.1,45.1,80.1z M72.5,77.6
				c0.9,0,1.8,0,2.8,0c0.2,0,0.4-0.1,0.6-0.2c-0.1-0.2-0.2-0.4-0.3-0.5c-1.4-1.3-2.8-2.7-4.2-4c-0.5-0.5-0.9-0.7-1.6-0.6
				c-0.1,0-0.1,0-0.2,0c-0.4,0-0.5,0.1-0.5,0.5c0,1.5,0,2.9,0,4.4c0,0.4,0.2,0.5,0.5,0.5C70.6,77.6,71.6,77.6,72.5,77.6z"/>
			<path fill="#FFA200" d="M57.9,86.3c-0.2-1.2-0.8-2.2-1.8-2.9c-0.8-0.6-1.6-0.9-2.5-0.9c-1.1,0-2.2,0.3-3,1.1
				c-0.9,0.7-1.4,1.7-1.6,2.8c-0.8,0-1.6,0-2.3,0c-0.8,0-1.4-0.7-1.5-1.5c0-1.2,0-2.5,0-3.8c11.3,0,22.6,0,34,0c0,0.1,0,0.3,0,0.4
				c0,1,0,2,0,3.1c0,1.1-0.7,1.8-1.8,1.8c-0.5,0-1,0-1.6,0c-0.2-1.4-0.9-2.4-2.1-3.2c-0.8-0.5-1.6-0.7-2.5-0.7
				c-2.1,0.1-3.5,1.3-4.4,3.8C63.8,86.3,60.8,86.3,57.9,86.3z"/>
			<path fill="#FFA200" d="M53.4,90.4c-1.9,0-3.4-1.6-3.4-3.4c0-1.8,1.6-3.4,3.4-3.4c1.9,0,3.4,1.6,3.4,3.4
				C56.8,88.8,55.3,90.4,53.4,90.4z M55.1,87c0-0.9-0.8-1.7-1.7-1.7c-0.9,0-1.7,0.8-1.7,1.7c0,0.9,0.8,1.7,1.7,1.7
				C54.3,88.7,55.1,87.9,55.1,87z"/>
			<path fill="#FFA200" d="M74.6,87c0,1.9-1.6,3.4-3.4,3.4c-1.9,0-3.4-1.6-3.4-3.4c0-1.8,1.6-3.4,3.4-3.4
				C73.1,83.6,74.6,85.1,74.6,87z M71.2,88.7c0.9,0,1.7-0.8,1.7-1.7c0-0.9-0.8-1.7-1.7-1.7c-0.9,0-1.7,0.8-1.7,1.7
				C69.6,87.9,70.3,88.7,71.2,88.7z"/>
		</g>
	</g>
</g>
</svg>
