<?xml version="1.0" encoding="utf-8"?>
<!-- Generator: Adobe Illustrator 18.1.1, SVG Export Plug-In . SVG Version: 6.00 Build 0)  -->
<svg version="1.1" id="Layer_1" xmlns="http://www.w3.org/2000/svg" xmlns:xlink="http://www.w3.org/1999/xlink" x="0px" y="0px"
	 viewBox="142.2 0 128 128" enable-background="new 142.2 0 128 128" xml:space="preserve">
<g>
	<g>
		<g>
			<g>
				<path fill="#FFA200" d="M242.1,62.9c0-20.3-16.9-36.7-37.5-35.8c-18.5,0.9-33.6,16.1-34.1,34.6c-0.6,17.8,11.7,32.7,28.2,36.3
					l2.4,3.7c2.3,4,8.1,4,10.5,0l2.4-3.7C230,94.3,242.1,80.1,242.1,62.9z"/>
			</g>
			<defs>
				<filter id="Adobe_OpacityMaskFilter" filterUnits="userSpaceOnUse" x="170.4" y="27" width="71.7" height="77.5">
					<feColorMatrix  type="matrix" values="1 0 0 0 0  0 1 0 0 0  0 0 1 0 0  0 0 0 1 0"/>
				</filter>
			</defs>
			<mask maskUnits="userSpaceOnUse" x="170.4" y="27" width="71.7" height="77.5" id="SVGID_4_">
				<g filter="url(#Adobe_OpacityMaskFilter)">
					
						<image overflow="visible" enable-background="new    " width="56" height="60" xlink:href="60E224802206F2EB.jpg"  transform="matrix(1.4222 0 0 1.4222 166.4278 22.7556)">
					</image>
				</g>
			</mask>
			<g opacity="0.4" mask="url(#SVGID_4_)">
				<path d="M242.1,62.9c0-20.3-16.9-36.7-37.5-35.8c-18.5,0.9-33.6,16.1-34.1,34.6c-0.6,17.8,11.7,32.7,28.2,36.3l2.4,3.7
					c2.3,4,8.1,4,10.5,0l2.4-3.7C230,94.3,242.1,80.1,242.1,62.9z"/>
			</g>
		</g>
		<g>
			<g>
				<path fill="#FFFFFF" d="M237.4,63c0,17.2-13.9,31.1-31.1,31.1S175.1,80.2,175.1,63s13.9-31.1,31.1-31.1S237.4,45.8,237.4,63z"/>
			</g>
			<defs>
				<filter id="Adobe_OpacityMaskFilter_1_" filterUnits="userSpaceOnUse" x="175.1" y="31.9" width="62.3" height="62.3">
					<feColorMatrix  type="matrix" values="1 0 0 0 0  0 1 0 0 0  0 0 1 0 0  0 0 0 1 0"/>
				</filter>
			</defs>
			<mask maskUnits="userSpaceOnUse" x="175.1" y="31.9" width="62.3" height="62.3" id="SVGID_1_">
				<g filter="url(#Adobe_OpacityMaskFilter_1_)">
					
						<image overflow="visible" enable-background="new    " width="48" height="49" xlink:href="60E224802206F2E9.jpg"  transform="matrix(1.4222 0 0 1.4222 172.1167 28.4444)">
					</image>
				</g>
			</mask>
			<g opacity="0.3" mask="url(#SVGID_1_)">
				<path d="M237.4,63c0,17.2-13.9,31.1-31.1,31.1S175.1,80.2,175.1,63s13.9-31.1,31.1-31.1S237.4,45.8,237.4,63z"/>
			</g>
		</g>
	</g>
	<g>
		<g>
			<path fill="#FFA200" d="M226.9,75.4c-0.3,0.9-1,1-1.8,1c-8.4,0-16.6,0-25,0c-0.9,0-1.3-0.3-1.6-0.9c-0.1-0.3,0-0.4,0-0.7
				c0-0.4,0-0.9,0-1.1c0-0.9,0.6-1.3,1.3-1.3c0.4,0,0.9,0,1.3,0c0.9,0,1.4-0.4,1.6-1.3c0.1-1,0.6-1.4,1.7-1.4c5.7,0,11.2,0,16.9,0
				c1,0,1.7,0.6,1.7,1.4c0,0.7,0.6,1.3,1.4,1.3c0.4,0,0.9,0,1.3,0c0.7,0,1.1,0.3,1.4,0.9c0,0,0,0.1,0.1,0.1
				C226.9,74,226.9,74.7,226.9,75.4z"/>
			<path fill="#FFA200" d="M189.6,76.2c0.3,0.3,0.9,0.3,1.1,0c0.6-0.6,1.3-1.3,1.6-1.6c0.7-0.7,1-1.1,0.7-1.7
				c-0.1-0.4,0-0.9,0.3-1.1c4.1-4.1,8.2-8.2,12.4-12.4c0.4-0.4,1.3-0.4,1.7,0l0,0c0.4,0.6,1.3,0.6,1.7,0c1.8-1.8,3.6-3.6,5.4-5.4
				c0.6-0.6,0.6-1.4,0-2c-1.6-1.6-3.3-3.3-4.8-4.8c-0.6-0.6-1.4-0.6-1.8,0l-5.5,5.5c-0.4,0.4-0.4,1.3,0,1.7l0,0
				c0.4,0.4,0.4,1.1,0,1.7c-4.1,4.1-8.1,8.1-12.2,12.2c-0.3,0.3-0.9,0.4-1.3,0.3s-0.9,0-1.4,0.6c-0.7,0.7-1.3,1.1-1.8,1.8
				c-0.3,0.3-0.3,0.7,0,1L189.6,76.2z"/>
			<path fill="#FFA200" d="M208.8,63c0-0.7,0.3-1.3,0.7-1.7c2.1-2,4.1-4.1,6.3-6.1c0.9-0.9,2.1-0.9,3,0c0.4,0.4,0.9,0.9,1.1,1.1
				c0.9,0.9,0.9,2,0,2.8c-2,2-4.1,4.1-6.1,6.1c-1,1-2.1,0.9-3,0c-0.4-0.4-0.9-0.9-1.3-1.4C209,63.7,209,63.3,208.8,63z"/>
			<path fill="#FFA200" d="M199.4,53.3c-0.6,0-1.1-0.1-1.4-0.6c-0.4-0.4-0.9-0.9-1.3-1.3c-0.9-1-0.9-2,0-3c1.4-1.4,2.8-2.8,4.3-4.3
				c0.6-0.6,1.3-1.3,1.8-1.8c1-1,2.1-1,3.1,0c0.3,0.3,0.7,0.7,1,1c1,0.9,1,2.1,0,3.1c-1.8,1.8-3.7,3.7-5.5,5.5
				c-0.4,0.4-0.7,0.9-1.3,1.1C200,53.3,199.7,53.3,199.4,53.3z"/>
		</g>
	</g>
</g>
</svg>
