<?xml version="1.0" encoding="utf-8"?>
<!-- Generator: Adobe Illustrator 18.1.1, SVG Export Plug-In . SVG Version: 6.00 Build 0)  -->
<svg version="1.1" id="Layer_1" xmlns="http://www.w3.org/2000/svg" xmlns:xlink="http://www.w3.org/1999/xlink" x="0px" y="0px"
	 viewBox="149.8 0 128 128" enable-background="new 149.8 0 128 128" xml:space="preserve">
<g>
	<g>
		<g>
			<path fill="#FFA200" d="M249.3,63.3c0-20.2-16.8-36.4-37.3-35.6c-18.3,0.9-33.1,15.9-33.8,34.3c-0.6,17.6,11.5,32.4,27.9,36
				l2.4,3.7c2.3,4,8.1,4,10.4,0l2.4-3.7C237.4,94.6,249.3,80.4,249.3,63.3z"/>
		</g>
		<defs>
			<filter id="Adobe_OpacityMaskFilter" filterUnits="userSpaceOnUse" x="178.2" y="27.7" width="71.1" height="77">
				<feColorMatrix  type="matrix" values="1 0 0 0 0  0 1 0 0 0  0 0 1 0 0  0 0 0 1 0"/>
			</filter>
		</defs>
		<mask maskUnits="userSpaceOnUse" x="178.2" y="27.7" width="71.1" height="77" id="SVGID_4_">
			<g filter="url(#Adobe_OpacityMaskFilter)">
				
					<image overflow="visible" enable-background="new    " width="56" height="59" xlink:href="8B0F20126CC5CCB5.jpg"  transform="matrix(1.4222 0 0 1.4222 173.9278 24.1778)">
				</image>
			</g>
		</mask>
		<g opacity="0.4" mask="url(#SVGID_4_)">
			<path d="M249.3,63.3c0-20.2-16.8-36.4-37.3-35.6c-18.3,0.9-33.1,15.9-33.8,34.3c-0.6,17.6,11.5,32.4,27.9,36l2.4,3.7
				c2.3,4,8.1,4,10.4,0l2.4-3.7C237.4,94.6,249.3,80.4,249.3,63.3z"/>
		</g>
	</g>
	<g>
		<g>
			<path fill="#FFFFFF" d="M244.8,63.4c0,17.1-13.8,31-31,31c-17.1,0-31-13.8-31-31s13.9-30.9,31-30.9S244.8,46.4,244.8,63.4z"/>
		</g>
		<defs>
			<filter id="Adobe_OpacityMaskFilter_1_" filterUnits="userSpaceOnUse" x="182.7" y="32.6" width="62" height="61.9">
				<feColorMatrix  type="matrix" values="1 0 0 0 0  0 1 0 0 0  0 0 1 0 0  0 0 0 1 0"/>
			</filter>
		</defs>
		<mask maskUnits="userSpaceOnUse" x="182.7" y="32.6" width="62" height="61.9" id="SVGID_1_">
			<g filter="url(#Adobe_OpacityMaskFilter_1_)">
				
					<image overflow="visible" enable-background="new    " width="48" height="49" xlink:href="8B0F20126CC5CCB7.jpg"  transform="matrix(1.4222 0 0 1.4222 179.6167 28.4444)">
				</image>
			</g>
		</mask>
		<g opacity="0.3" mask="url(#SVGID_1_)">
			<path d="M244.8,63.4c0,17.1-13.8,31-31,31c-17.1,0-31-13.8-31-31s13.9-30.9,31-30.9S244.8,46.4,244.8,63.4z"/>
		</g>
	</g>
</g>
<g>
	<g>
		<path fill="#FFA200" d="M230.7,51.6c-0.7-2.6-3-6.1-7.7-6.1c-0.3,0-0.6-0.4-1.1-1.3c-1.1-1.7-3-4.4-7.8-4.4h-0.3
			c-4.8,0-6.7,2.7-7.8,4.4c-0.7,1-1,1.3-1.3,1.3c-4.8,0-7,3.4-7.7,6.1c-0.1,0.7,0.1,1.4,0.6,1.6l0.7,0.1c0.3,0.1,0.7-0.1,0.9-0.7
			c0.4-1.3,1.7-3.8,5.5-3.8c1.3,0,2.1-1.1,2.8-2.1c1-1.6,2.4-3.4,6.3-3.4c4,0,5.3,1.8,6.3,3.4c0.7,1,1.6,2.1,2.8,2.1
			c3.8,0,5.1,2.6,5.5,3.8c0.1,0.4,0.4,0.7,0.9,0.7l0.7-0.1C230.5,53,230.8,52.3,230.7,51.6z"/>
		<path fill="#FFA200" d="M231.5,52.6H196c-2.3,0-4.1,2.6-4,5l1.7,19.6c0.1,2.1,1.8,5.3,4,5.3h1.1c0.6,1.4,2.6,3.8,5,3.8
			c2.4,0,4.3-2.4,5-3.8h9.5c0.6,1.4,2.6,3.8,5,3.8c2.4,0,4.3-2.4,5-3.8h1.8c2,0,3.8-2.8,4-5l1.7-19.6
			C235.7,55.5,233.8,52.6,231.5,52.6z M203.8,81.9c-0.9,0-1.6-0.7-1.6-1.7c0-1,0.7-1.7,1.6-1.7s1.6,0.7,1.6,1.7
			C205.4,81.2,204.6,81.9,203.8,81.9z M223.1,81.9c-0.9,0-1.6-0.7-1.6-1.7c0-1,0.7-1.7,1.6-1.7c0.9,0,1.6,0.7,1.6,1.7
			C224.7,81.2,224.1,81.9,223.1,81.9z M230.4,75.5c-0.1,1.4-1.1,2.4-2.4,2.7c-0.7-2-2.6-3.6-4.8-3.6s-4.1,2-4.8,3.4h-9.7
			c-0.7-1.4-2.6-3.4-4.8-3.4c-2.1,0-4,1.4-4.7,3.3c-1-0.4-1.8-1.3-2-2.6l-1.4-14.6c-0.1-1.8,1.3-4,3.3-4h29.4c2,0,3.4,2.1,3.3,4
			L230.4,75.5z"/>
	</g>
</g>
</svg>
