<?xml version="1.0" encoding="utf-8"?>
<!-- Generator: Adobe Illustrator 18.1.1, SVG Export Plug-In . SVG Version: 6.00 Build 0)  -->
<svg version="1.1" id="Capa_1" xmlns="http://www.w3.org/2000/svg" xmlns:xlink="http://www.w3.org/1999/xlink" x="0px" y="0px"
	 viewBox="0 0 140 140" enable-background="new 0 0 140 140" xml:space="preserve">
<g>
	<g>
		<g>
			<g>
				<path fill="#FFA200" d="M109.3,65.8c0-22.3-18.5-40.3-41.1-39.3c-20.3,1-36.9,17.7-37.4,38c-0.7,19.5,12.8,35.9,30.9,39.8
					l2.6,4.1c2.5,4.4,8.9,4.4,11.5,0l2.6-4.1C96,100.3,109.3,84.7,109.3,65.8z"/>
			</g>
			<defs>
				<filter id="Adobe_OpacityMaskFilter" filterUnits="userSpaceOnUse" x="30.7" y="26.5" width="78.6" height="85.2">
					<feColorMatrix  type="matrix" values="1 0 0 0 0  0 1 0 0 0  0 0 1 0 0  0 0 0 1 0"/>
				</filter>
			</defs>
			<mask maskUnits="userSpaceOnUse" x="30.7" y="26.5" width="78.6" height="85.2" id="SVGID_8_">
				<g filter="url(#Adobe_OpacityMaskFilter)">
				</g>
			</mask>
			<g opacity="0.4" mask="url(#SVGID_8_)">
				<path d="M109.3,65.8c0-22.3-18.5-40.3-41.1-39.3c-20.3,1-36.9,17.7-37.4,38c-0.7,19.5,12.8,35.9,30.9,39.8l2.6,4.1
					c2.5,4.4,8.9,4.4,11.5,0l2.6-4.1C96,100.3,109.3,84.7,109.3,65.8z"/>
			</g>
		</g>
		<g>
			<g>
				<path fill="#FFFFFF" d="M104.1,65.9c0,18.9-15.3,34.1-34.1,34.1S35.8,84.8,35.8,65.9S51,31.8,69.9,31.8S104.1,47,104.1,65.9z"/>
			</g>
			<defs>
				<filter id="Adobe_OpacityMaskFilter_1_" filterUnits="userSpaceOnUse" x="35.8" y="31.8" width="68.4" height="68.2">
					<feColorMatrix  type="matrix" values="1 0 0 0 0  0 1 0 0 0  0 0 1 0 0  0 0 0 1 0"/>
				</filter>
			</defs>
			<mask maskUnits="userSpaceOnUse" x="35.8" y="31.8" width="68.4" height="68.2" id="SVGID_7_">
				<g filter="url(#Adobe_OpacityMaskFilter_1_)">
				</g>
			</mask>
			<g opacity="0.3" mask="url(#SVGID_7_)">
				<path d="M104.1,65.9c0,18.9-15.3,34.1-34.1,34.1S35.8,84.8,35.8,65.9S51,31.8,69.9,31.8S104.1,47,104.1,65.9z"/>
			</g>
		</g>
	</g>
	<path fill="#FFA200" d="M70,61.1C69.9,61.1,69.9,61.1,70,61.1C70,61.1,70,61.1,70,61.1C70,61.1,70,61.1,70,61.1z"/>
	<path fill="#FFA200" d="M69.5,61.1C69.5,61.1,69.6,61.1,69.5,61.1C69.6,61.1,69.6,61.1,69.5,61.1C69.5,61.1,69.5,61.1,69.5,61.1z"
		/>
	<path fill="#FFA200" d="M69.8,68.1c0.1,0,0.1,0.1,0.2,0.2c0.1,0.1,0.2,0.2,0.3,0.2c-0.1-0.1-0.2-0.1-0.3-0.2
		C69.9,68.2,69.8,68.1,69.8,68.1z"/>
	<g>
		<path fill="#FFA200" d="M62.7,76.5c0.5-1.6-0.6-2.1-1.6-2.8c-6.2-4.1-8.7-12.1-6.2-19.1c2.6-7.1,9.5-11.5,16.9-10.8
			c11.9,1.1,18.7,13.8,13,24.2c-1.2,2.3-2.9,4.2-5.1,5.6c-1,0.7-2.2,1.2-1.6,2.7C76.9,76.7,64.9,76.8,62.7,76.5z M59,60
			c0,3.1,1,5.6,3,7.8c0.6,0.7,1.3,1.2,2.1,0.4c0.7-0.7,0.4-1.4-0.2-2c-3.2-3.8-3.2-8.2,0-12c0.6-0.7,0.9-1.4,0.1-2
			c-0.8-0.7-1.4-0.3-2,0.3C60,54.6,59,57.2,59,60z"/>
		<path fill="#FFA200" d="M62.9,89.2c-0.4-1.9-0.1-3.7-0.2-5.9c3.8,2,7.4,3.8,11,5.7c0,0.1,0,0.1-0.1,0.2
			C70.1,89.2,66.5,89.2,62.9,89.2z"/>
		<path fill="#FFA200" d="M63.9,91.9c4.4,0,8.6,0,13,0c-1.5,2.3-3.5,3.6-6.1,3.7C67.8,95.7,65.6,94.4,63.9,91.9z"/>
		<path fill="#FFA200" d="M77.9,88.3c-5.1-2.7-10.1-5.2-15.1-7.8c0-0.4,0-0.7,0-1.2c0.7-0.4,1.3-0.2,2,0.1c4.1,2.1,8.3,4.2,12.4,6.2
			C78.5,86.3,77.9,87.2,77.9,88.3z"/>
		<path fill="#FFA200" d="M77.9,79.2c0,1.3,0,2.5,0,4c-1.3-0.7-2.6-1.3-3.8-1.9c-1.3-0.6-2.5-1.3-4.1-2.1
			C72.8,79.2,75.3,79.2,77.9,79.2z"/>
		<path fill="#FFA200" d="M59,74.1c0,0.4-0.2,0.7-0.4,0.9c-0.8,0.8-1.6,1.6-2.4,2.4c-0.6,0.6-1.2,0.7-1.8,0.1
			c-0.6-0.6-0.5-1.2,0-1.8c0.8-0.8,1.6-1.7,2.5-2.5c0.4-0.4,0.9-0.5,1.4-0.2C58.7,73.2,59,73.6,59,74.1z"/>
		<path fill="#FFA200" d="M86.8,43.8c0,0.4-0.2,0.7-0.5,1c-0.8,0.8-1.5,1.5-2.3,2.3c-0.6,0.6-1.3,0.7-1.9,0.1
			c-0.6-0.6-0.4-1.3,0.1-1.8c0.8-0.8,1.6-1.6,2.4-2.4c0.4-0.4,0.9-0.5,1.4-0.3C86.5,42.8,86.7,43.3,86.8,43.8z"/>
		<path fill="#FFA200" d="M59,46.3c-0.1,0.6-0.3,1-0.8,1.2c-0.5,0.2-1,0.2-1.3-0.2c-0.9-0.9-1.8-1.7-2.6-2.7c-0.4-0.5-0.4-1-0.1-1.5
			c0.4-0.5,1-0.7,1.5-0.4c1.2,0.9,2.3,2,3.2,3.2C59,45.9,59,46.1,59,46.3z"/>
		<path fill="#FFA200" d="M82.7,72.9c0.6-0.1,0.9,0.1,1.1,0.3c0.9,0.9,1.8,1.7,2.7,2.7c0.5,0.5,0.5,1.2,0,1.7
			c-0.5,0.5-1.2,0.5-1.7,0c-0.9-0.8-1.7-1.7-2.6-2.6c-0.3-0.4-0.5-0.8-0.2-1.3C82.1,73.1,82.4,72.9,82.7,72.9z"/>
		<path fill="#FFA200" d="M49.3,59c0.7,0,2-0.3,2,1.2c0,1.5-1.3,1.2-2.3,1.3c-0.5,0-0.9,0-1.4,0c-0.8,0-1.2-0.5-1.2-1.2
			c0-0.7,0.4-1.2,1.2-1.2C48.1,58.9,48.5,59,49.3,59z"/>
		<path fill="#FFA200" d="M91.9,59c0.4,0,0.8,0,1.2,0c0.8,0,1.2,0.5,1.3,1.2c0,0.8-0.5,1.3-1.3,1.3c-0.8,0-1.6,0-2.5,0
			c-0.8,0-1.3-0.4-1.3-1.2c0-0.8,0.5-1.3,1.3-1.3C91.1,58.9,91.5,59,91.9,59z"/>
	</g>
</g>
</svg>
