<?xml version="1.0" encoding="utf-8"?>
<!-- Generator: Adobe Illustrator 18.1.1, SVG Export Plug-In . SVG Version: 6.00 Build 0)  -->
<svg version="1.1" id="Layer_1" xmlns="http://www.w3.org/2000/svg" xmlns:xlink="http://www.w3.org/1999/xlink" x="0px" y="0px"
	 viewBox="143.5 0 128 128" enable-background="new 143.5 0 128 128" xml:space="preserve">
<g>
	<g>
		<g>
			<path fill="#FFA200" d="M243.6,65.6c0-20.5-17.1-37-37.8-36.1c-18.6,0.9-33.7,16.1-34.4,34.8c-0.6,17.8,11.8,32.9,28.3,36.6
				l2.4,3.7c2.3,4.1,8.2,4.1,10.5,0l2.4-3.7C231.4,97.3,243.6,82.9,243.6,65.6z"/>
		</g>
		<defs>
			<filter id="Adobe_OpacityMaskFilter" filterUnits="userSpaceOnUse" x="171.3" y="29.4" width="72.3" height="78.2">
				<feColorMatrix  type="matrix" values="1 0 0 0 0  0 1 0 0 0  0 0 1 0 0  0 0 0 1 0"/>
			</filter>
		</defs>
		<mask maskUnits="userSpaceOnUse" x="171.3" y="29.4" width="72.3" height="78.2" id="SVGID_4_">
			<g filter="url(#Adobe_OpacityMaskFilter)">
				
					<image overflow="visible" enable-background="new    " width="56" height="60" xlink:href="3EC6972ED814464E.jpg"  transform="matrix(1.4222 0 0 1.4222 167.4172 25.5363)">
				</image>
			</g>
		</mask>
		<g opacity="0.4" mask="url(#SVGID_4_)">
			<path d="M243.6,65.6c0-20.5-17.1-37-37.8-36.1c-18.6,0.9-33.7,16.1-34.4,34.8c-0.6,17.8,11.8,32.9,28.3,36.6l2.4,3.7
				c2.3,4.1,8.2,4.1,10.5,0l2.4-3.7C231.4,97.3,243.6,82.9,243.6,65.6z"/>
		</g>
	</g>
	<g>
		<g>
			<path fill="#FFFFFF" d="M238.9,65.7c0,17.4-14.1,31.4-31.4,31.4S176,83.1,176,65.7s14.1-31.3,31.4-31.3S238.9,48.5,238.9,65.7z"
				/>
		</g>
		<defs>
			<filter id="Adobe_OpacityMaskFilter_1_" filterUnits="userSpaceOnUse" x="176" y="34.4" width="62.9" height="62.7">
				<feColorMatrix  type="matrix" values="1 0 0 0 0  0 1 0 0 0  0 0 1 0 0  0 0 0 1 0"/>
			</filter>
		</defs>
		<mask maskUnits="userSpaceOnUse" x="176" y="34.4" width="62.9" height="62.7" id="SVGID_1_">
			<g filter="url(#Adobe_OpacityMaskFilter_1_)">
				
					<image overflow="visible" enable-background="new    " width="49" height="49" xlink:href="3EC6972ED8144652.jpg"  transform="matrix(1.4222 0 0 1.4222 173.0871 31.2252)">
				</image>
			</g>
		</mask>
		<g opacity="0.3" mask="url(#SVGID_1_)">
			<path d="M238.9,65.7c0,17.4-14.1,31.4-31.4,31.4S176,83.1,176,65.7s14.1-31.3,31.4-31.3S238.9,48.5,238.9,65.7z"/>
		</g>
	</g>
</g>
<g>
	<g>
		<g>
			<path fill="#FFA200" d="M209.7,69.8L209.7,69.8c0,0.7-0.6,1.4-1.3,1.6l-3.8,1c-0.9,0.3-1.4,1-1.4,1.8v9.5l0,0h11.5
				c2,0,3.8-1.3,4.3-3.3l2-7.5c0.7-2.7-0.9-5.3-3.6-6l-2.7-0.7c-0.4-0.1-0.9-0.6-0.9-1v-1.1c0-0.3-0.4-0.6-0.7-0.3
				c-1,0.7-1.8,1.1-2.8,1.6c-0.4,0.1-0.7,0.6-0.7,0.9v3.6 M205.2,70v-3.7c0-0.6-0.3-1-0.9-1.3c-0.9-0.3-1.7-0.7-2.6-1.3
				c-0.3-0.3-0.9,0-0.9,0.4v1c0,0.4-0.3,0.9-0.9,1l-2,0.7c-3,0.7-4.8,3.7-4.1,6.7l2,8c0.3,1.4,1.6,2.3,3.1,2.3h3.3l0,0v-11
				c0-0.6,0.4-1.1,1-1.3l0.6-0.1C204.6,71.4,205.2,70.8,205.2,70z M204.9,82.3c-0.4,0-0.9-0.4-0.9-0.9s0.4-0.9,0.9-0.9
				s0.9,0.4,0.9,0.9S205.3,82.3,204.9,82.3z M204.9,75.9c-0.4,0-0.9-0.4-0.9-0.9s0.4-0.9,0.9-0.9s0.9,0.4,0.9,0.9
				C205.8,75.7,205.3,75.9,204.9,75.9z M209.9,82.3c-0.4,0-0.9-0.4-0.9-0.9s0.4-0.9,0.9-0.9s0.9,0.4,0.9,0.9S210.3,82.3,209.9,82.3z
				 M209.9,75.9c-0.4,0-0.9-0.4-0.9-0.9s0.4-0.9,0.9-0.9s0.9,0.4,0.9,0.9C210.7,75.7,210.3,75.9,209.9,75.9z"/>
		</g>
		<path fill="#FFA200" d="M211.7,48.2c3.1,1.4,4.4,4.3,4.3,7.3c-1.7,0-3.4-0.4-4.7-1.3c-1.6-1-2.8-2.3-3.4-3.8
			c-0.1-0.1-0.3-0.3-0.4-0.3v-0.9L211.7,48.2L211.7,48.2z M207.3,64.7L207.3,64.7c4.7,0,8-4,8.5-8.2c-1.8,0-3.7-0.6-5.1-1.4
			c-1.4-0.9-2.7-2-3.4-3.4l0,0V64.7z M207.3,50.1h-0.1c-0.1,0-0.1,0.1-0.3,0.3c-0.6,1.4-2,2.8-3.7,3.7c-1.3,0.7-2.8,1.1-4.6,1.3
			c0-1.6,0.3-3.1,1-4.4l7.5-1.7v0.9H207.3z M207.3,51.6c-0.9,1.3-2.1,2.4-3.7,3.3c-1.4,0.7-3.1,1.3-4.8,1.4c0.6,4.3,3.8,8.4,8.5,8.4
			V51.6z"/>
		<path fill="#FFA200" d="M199.4,46.1l10.1-2.4c0.6-0.1,1,0.1,1.1,0.7l0.6,2.3c0.1,0.6-0.1,1-0.7,1.1l-10.1,2.3
			c-0.6,0.1-1-0.1-1.1-0.7l-0.6-2.3C198.7,46.6,198.9,46.2,199.4,46.1z"/>
	</g>
</g>
</svg>
