<?xml version="1.0" encoding="utf-8"?>
<!-- Generator: Adobe Illustrator 18.1.1, SVG Export Plug-In . SVG Version: 6.00 Build 0)  -->
<svg version="1.1" id="Capa_1" xmlns="http://www.w3.org/2000/svg" xmlns:xlink="http://www.w3.org/1999/xlink" x="0px" y="0px"
	 viewBox="0 0 140 140" enable-background="new 0 0 140 140" xml:space="preserve">
<g>
	<g>
		<g>
			<g>
				<path fill="#FFA200" d="M109.3,67.4c0-22.3-18.5-40.3-41.1-39.3c-20.3,1-36.9,17.7-37.4,38c-0.7,19.5,12.8,35.9,30.9,39.8
					l2.6,4.1c2.5,4.4,8.9,4.4,11.5,0l2.6-4.1C96,101.8,109.3,86.3,109.3,67.4z"/>
			</g>
			<defs>
				<filter id="Adobe_OpacityMaskFilter" filterUnits="userSpaceOnUse" x="30.7" y="28.1" width="78.6" height="85.2">
					<feColorMatrix  type="matrix" values="1 0 0 0 0  0 1 0 0 0  0 0 1 0 0  0 0 0 1 0"/>
				</filter>
			</defs>
			<mask maskUnits="userSpaceOnUse" x="30.7" y="28.1" width="78.6" height="85.2" id="SVGID_10_">
				<g filter="url(#Adobe_OpacityMaskFilter)">
				</g>
			</mask>
			<g opacity="0.4" mask="url(#SVGID_10_)">
				<path d="M109.3,67.4c0-22.3-18.5-40.3-41.1-39.3c-20.3,1-36.9,17.7-37.4,38c-0.7,19.5,12.8,35.9,30.9,39.8l2.6,4.1
					c2.5,4.4,8.9,4.4,11.5,0l2.6-4.1C96,101.8,109.3,86.3,109.3,67.4z"/>
			</g>
		</g>
		<g>
			<g>
				<path fill="#FFFFFF" d="M104.1,67.5c0,18.9-15.3,34.1-34.1,34.1S35.8,86.4,35.8,67.5S51,33.4,69.9,33.4S104.1,48.6,104.1,67.5z"
					/>
			</g>
			<defs>
				<filter id="Adobe_OpacityMaskFilter_1_" filterUnits="userSpaceOnUse" x="35.8" y="33.4" width="68.4" height="68.2">
					<feColorMatrix  type="matrix" values="1 0 0 0 0  0 1 0 0 0  0 0 1 0 0  0 0 0 1 0"/>
				</filter>
			</defs>
			<mask maskUnits="userSpaceOnUse" x="35.8" y="33.4" width="68.4" height="68.2" id="SVGID_9_">
				<g filter="url(#Adobe_OpacityMaskFilter_1_)">
				</g>
			</mask>
			<g opacity="0.3" mask="url(#SVGID_9_)">
				<path d="M104.1,67.5c0,18.9-15.3,34.1-34.1,34.1S35.8,86.4,35.8,67.5S51,33.4,69.9,33.4S104.1,48.6,104.1,67.5z"/>
			</g>
		</g>
	</g>
	<g>
		<path fill="#FFA200" d="M84.6,59.4C77,59.3,70.9,65.6,71,72.8c-0.1,7.3,5.9,13.3,13.1,13.4c7.4,0.1,13.6-5.9,13.6-13.4
			C97.8,65.5,91.8,59.6,84.6,59.4z M90.7,68.1c-1,2.1-2.1,4.1-3.1,6.2c-0.9,1.9-1.9,3.7-2.8,5.6c-0.6,1.2-1.9,1.6-2.9,0.9
			c-0.2-0.1-0.4-0.3-0.5-0.5c-1.2-1.6-2.4-3.1-3.6-4.7c-0.8-1.1-0.5-2.5,0.7-3.1c0.9-0.4,1.8-0.2,2.5,0.6c0.3,0.4,0.6,0.7,0.8,1.1
			c0.3,0.4,0.5,0.7,0.9,1.1c0.4-0.7,0.7-1.4,1.1-2.1c1.1-2.3,2.3-4.6,3.4-6.9c0.6-1.2,2-1.5,3-0.8C91,66.2,91.2,67.2,90.7,68.1z"/>
		<path opacity="0.24" fill="#FFA200" d="M90.2,65.6c-1.1-0.8-2.4-0.4-3,0.8c-1.2,2.3-2.3,4.6-3.4,6.9c-0.4,0.7-0.7,1.4-1.1,2.1
			c-0.3-0.4-0.6-0.7-0.9-1.1c-0.3-0.4-0.6-0.7-0.8-1.1c-0.6-0.8-1.6-1-2.5-0.6c-1.2,0.6-1.5,2-0.7,3.1c1.2,1.6,2.4,3.1,3.6,4.7
			c0.1,0.2,0.3,0.4,0.5,0.5c1.1,0.7,2.3,0.3,2.9-0.9c0.9-1.9,1.9-3.7,2.8-5.6c1-2.1,2.1-4.1,3.1-6.2C91.2,67.2,91,66.2,90.2,65.6z"
			/>
		<path fill="#FFA200" d="M63.6,60.5h-0.5c-1.8,0-3.3-1.5-3.3-3.3v-0.5c0-1.8,1.5-3.3,3.3-3.3h0.5c1.8,0,3.3,1.5,3.3,3.3v0.5
			C67,59,65.5,60.5,63.6,60.5z"/>
		<path fill="#FFA200" d="M63.6,70.6h-0.5c-1.8,0-3.3-1.5-3.3-3.3v-0.5c0-1.8,1.5-3.3,3.3-3.3h0.5c1.8,0,3.3,1.5,3.3,3.3v0.5
			C67,69.1,65.5,70.6,63.6,70.6z"/>
		<path fill="#FFA200" d="M63.6,81.2h-0.5c-1.8,0-3.3-1.5-3.3-3.3v-0.5c0-1.8,1.5-3.3,3.3-3.3h0.5c1.8,0,3.3,1.5,3.3,3.3v0.5
			C67,79.7,65.5,81.2,63.6,81.2z"/>
		<path fill="#FFA200" d="M85,43h-1.3h-8.6c0-3-2.2-4.9-4.9-4.9c-2.7,0-4.9,1.9-4.9,4.9H54.9h-1.3c-1,0-1.6-0.7-1.6,0.3v1.3V90v1.3
			c0,1,0.6,3.7,1.6,3.7h1.3H85c1,0,2-2.7,2-3.7V90c0-1-1-2-2-2H57V47h26v8.7c0,1-0.3,1.3,0.7,1.3H85c1,0,2-0.3,2-1.3V44.5v-1.3
			C87,42.3,86,43,85,43z"/>
	</g>
</g>
</svg>
