<?xml version="1.0" encoding="utf-8"?>
<!-- Generator: Adobe Illustrator 18.1.1, SVG Export Plug-In . SVG Version: 6.00 Build 0)  -->
<svg version="1.1" id="Layer_1" xmlns="http://www.w3.org/2000/svg" xmlns:xlink="http://www.w3.org/1999/xlink" x="0px" y="0px"
	 viewBox="142 0 128 128" enable-background="new 142 0 128 128" xml:space="preserve">
<g>
	<g>
		<g>
			<path fill="#FFA200" d="M241.6,63.3c0-20.2-16.8-36.4-37.3-35.6c-18.3,0.9-33.1,15.8-33.8,34.3c-0.6,17.6,11.5,32.4,27.9,36
				l2.4,3.7c2.3,4,8.1,4,10.4,0l2.4-3.7C229.6,94.4,241.6,80.2,241.6,63.3z"/>
		</g>
		<defs>
			<filter id="Adobe_OpacityMaskFilter" filterUnits="userSpaceOnUse" x="170.5" y="27.7" width="71.1" height="77">
				<feColorMatrix  type="matrix" values="1 0 0 0 0  0 1 0 0 0  0 0 1 0 0  0 0 0 1 0"/>
			</filter>
		</defs>
		<mask maskUnits="userSpaceOnUse" x="170.5" y="27.7" width="71.1" height="77" id="SVGID_4_">
			<g filter="url(#Adobe_OpacityMaskFilter)">
				
					<image overflow="visible" enable-background="new    " width="56" height="59" xlink:href="D505F0F7541F932A.jpg"  transform="matrix(1.4222 0 0 1.4222 166.2585 24.1778)">
				</image>
			</g>
		</mask>
		<g opacity="0.4" mask="url(#SVGID_4_)">
			<path d="M241.6,63.3c0-20.2-16.8-36.4-37.3-35.6C186,28.6,171.2,43.5,170.5,62C170,79.6,182,94.4,198.4,98l2.4,3.7
				c2.3,4,8.1,4,10.4,0l2.4-3.7C229.7,94.4,241.6,80.2,241.6,63.3z"/>
		</g>
	</g>
	<g>
		<g>
			<path fill="#FFFFFF" d="M237,63.4c0,17.1-13.8,31-31,31c-17.1,0-31-13.8-31-31s13.9-31,31-31S237,46.2,237,63.4z"/>
		</g>
		<defs>
			<filter id="Adobe_OpacityMaskFilter_1_" filterUnits="userSpaceOnUse" x="175" y="32.4" width="62" height="62">
				<feColorMatrix  type="matrix" values="1 0 0 0 0  0 1 0 0 0  0 0 1 0 0  0 0 0 1 0"/>
			</filter>
		</defs>
		<mask maskUnits="userSpaceOnUse" x="175" y="32.4" width="62" height="62" id="SVGID_1_">
			<g filter="url(#Adobe_OpacityMaskFilter_1_)">
				
					<image overflow="visible" enable-background="new    " width="48" height="49" xlink:href="D505F0F7541F932E.jpg"  transform="matrix(1.4222 0 0 1.4222 171.8667 28.4444)">
				</image>
			</g>
		</mask>
		<g opacity="0.3" mask="url(#SVGID_1_)">
			<path d="M237,63.4c0,17.1-13.8,31-31,31c-17.1,0-31-13.8-31-31s13.9-31,31-31S237,46.2,237,63.4z"/>
		</g>
	</g>
</g>
<g>
	<g>
		<g id="XMLID_2_">
			<path fill="#FFA200" d="M201.4,55.6c-5.5,2.1-9.5,7-10.5,12.8c-0.1,0.6,0.3,1,0.9,1.1c0.1,0,0.1,0,0.3,0c0.4,0,0.7-0.4,0.9-0.9
				c0.9-5.1,4.4-9.4,9.2-11.4c0.6-0.1,0.7-0.7,0.6-1.3C202.4,55.8,201.9,55.5,201.4,55.6z"/>
			<path fill="#FFA200" d="M191.9,70c-0.1,0-0.1,0-0.3,0c-0.7-0.1-1.3-0.9-1.1-1.6c1-6,5.1-11,10.8-13.1l0,0c0.3-0.1,0.7-0.1,1,0
				c0.3,0.1,0.6,0.4,0.7,0.7c0.1,0.3,0.1,0.7,0,1c-0.1,0.3-0.4,0.6-0.7,0.7c-4.7,1.8-8.2,6-9.1,11.1c-0.1,0.6-0.6,1-1.1,1.1
				C191.9,70,191.9,70,191.9,70z M201.7,55.9c-0.1,0-0.1,0-0.3,0l0,0c-5.4,2-9.4,6.8-10.2,12.5c0,0.3,0.1,0.7,0.6,0.7h0.1
				c0.3,0,0.4-0.3,0.6-0.6c0.9-5.3,4.6-9.7,9.5-11.7c0.3-0.1,0.4-0.4,0.4-0.9c0-0.1-0.1-0.3-0.3-0.3
				C201.9,55.9,201.9,55.9,201.7,55.9z"/>
		</g>
		<path fill="#FFA200" d="M229.6,76.7h-47.2c-1.1,0-2-0.9-2-2v-0.6c0-1.1,0.9-2,2-2h47.4c1.1,0,2,0.9,2,2v0.6
			C231.7,75.8,230.7,76.7,229.6,76.7z"/>
		<path fill="#FFA200" d="M226.9,69.4c0-0.1-0.7-5-3.4-9.7c-3.4-6.1-10.4-9.5-16.1-9.8v-1c1.4-0.6,3-2.1,3-4c0-2.3-1.8-4.3-4.1-4.3
			s-4.4,1.8-4.4,4.3c0,1.8,1.3,3.4,2.7,4v1c-10,0.4-13.5,5.5-16.1,9.8c-2.8,4.7-3.4,9.5-3.4,9.7c-0.1,1,0.7,2,1.7,2.1s2-0.6,2.1-1.6
			c0.1-0.7,2.4-16.4,17.8-16.4c14.6,0,16.5,15.6,16.6,16.2c0.1,1,0.9,1.7,1.8,1.7h0.1C226.2,71.4,226.9,70.4,226.9,69.4z
			 M204.6,44.8c0-1,0.9-1.8,1.8-1.8s1.8,0.9,1.8,1.8c0,1-0.9,1.8-1.8,1.8C205.4,46.5,204.6,45.8,204.6,44.8z"/>
	</g>
</g>
</svg>
