<?xml version="1.0" encoding="utf-8"?>
<!-- Generator: Adobe Illustrator 18.1.1, SVG Export Plug-In . SVG Version: 6.00 Build 0)  -->
<svg version="1.1" id="Layer_1" xmlns="http://www.w3.org/2000/svg" xmlns:xlink="http://www.w3.org/1999/xlink" x="0px" y="0px"
	 viewBox="158.3 0 128 128" enable-background="new 158.3 0 128 128" xml:space="preserve">
<g>
	<g>
		<g>
			<path fill="#FFA200" d="M258.5,67c0-20.5-17.1-37-37.8-36.1c-18.6,0.9-33.7,16.1-34.4,34.8c-0.6,17.8,11.8,32.9,28.3,36.6
				l2.4,3.7c2.3,4.1,8.2,4.1,10.5,0l2.4-3.7C246.2,98.7,258.5,84.3,258.5,67z"/>
		</g>
		<defs>
			<filter id="Adobe_OpacityMaskFilter" filterUnits="userSpaceOnUse" x="186.2" y="30.8" width="72.3" height="78.2">
				<feColorMatrix  type="matrix" values="1 0 0 0 0  0 1 0 0 0  0 0 1 0 0  0 0 0 1 0"/>
			</filter>
		</defs>
		<mask maskUnits="userSpaceOnUse" x="186.2" y="30.8" width="72.3" height="78.2" id="SVGID_4_">
			<g filter="url(#Adobe_OpacityMaskFilter)">
				
					<image overflow="visible" enable-background="new    " width="56" height="60" xlink:href="82FF186418A20DF0.jpg"  transform="matrix(1.4222 0 0 1.4222 182.2682 26.9585)">
				</image>
			</g>
		</mask>
		<g opacity="0.4" mask="url(#SVGID_4_)">
			<path d="M258.5,67c0-20.5-17.1-37-37.8-36.1c-18.6,0.9-33.7,16.1-34.4,34.8c-0.6,17.8,11.8,32.9,28.3,36.6l2.4,3.7
				c2.3,4.1,8.2,4.1,10.5,0l2.4-3.7C246.2,98.7,258.5,84.3,258.5,67z"/>
		</g>
	</g>
	<g>
		<g>
			<path fill="#FFFFFF" d="M253.8,67.1c0,17.4-14.1,31.4-31.4,31.4s-31.4-14.1-31.4-31.4s14.1-31.3,31.4-31.3S253.8,49.9,253.8,67.1
				z"/>
		</g>
		<defs>
			<filter id="Adobe_OpacityMaskFilter_1_" filterUnits="userSpaceOnUse" x="190.9" y="35.8" width="62.9" height="62.7">
				<feColorMatrix  type="matrix" values="1 0 0 0 0  0 1 0 0 0  0 0 1 0 0  0 0 0 1 0"/>
			</filter>
		</defs>
		<mask maskUnits="userSpaceOnUse" x="190.9" y="35.8" width="62.9" height="62.7" id="SVGID_1_">
			<g filter="url(#Adobe_OpacityMaskFilter_1_)">
				
					<image overflow="visible" enable-background="new    " width="49" height="49" xlink:href="82FF186418A20DF1.jpg"  transform="matrix(1.4222 0 0 1.4222 187.9477 32.6474)">
				</image>
			</g>
		</mask>
		<g opacity="0.3" mask="url(#SVGID_1_)">
			<path d="M253.8,67.1c0,17.4-14.1,31.4-31.4,31.4s-31.4-14.1-31.4-31.4s14.1-31.3,31.4-31.3S253.8,49.9,253.8,67.1z"/>
		</g>
	</g>
</g>
<path fill="#FFA200" d="M217.2,48.6c-3.3-3.3-8.7-3.3-11.8,0c-3.3,3.3-3.3,8.5,0,11.8l22,22c3.3,3.3,8.5,3.3,11.8,0
	c3.3-3.3,3.3-8.5,0-11.8L217.2,48.6z M215.6,53.6L215.6,53.6c0.6-0.6,1.4-0.4,1.8,0.3c0.1,0.3,0.1,0.9,0,1.1
	c-0.4,0.7-1.3,0.9-1.8,0.3C215.2,54.9,215.2,54.2,215.6,53.6L215.6,53.6z M207.8,52.8L207.8,52.8c-0.6-0.6-0.4-1.4,0.3-1.8
	c0.3-0.1,0.9-0.1,1.1,0c0.7,0.4,0.9,1.3,0.3,1.8C209.1,53.2,208.3,53.2,207.8,52.8L207.8,52.8z M209.2,56.6L209.2,56.6
	c-0.6-0.6-0.4-1.4,0.3-1.8c0.3-0.1,0.7-0.1,1.1,0c0.7,0.4,0.7,1.3,0.3,1.8C210.4,57,209.7,57,209.2,56.6L209.2,56.6z M212.1,60.6
	L212.1,60.6c-0.4,0.4-1.1,0.4-1.6,0c-0.6-0.4-0.6-1.1,0-1.6c0.4-0.4,1.1-0.4,1.6,0C212.5,59.3,212.5,60,212.1,60.6L212.1,60.6z
	 M211.8,54L211.8,54c-0.4-0.4-0.4-1.1,0-1.6s1.1-0.4,1.6,0c0.6,0.4,0.6,1.1,0,1.6C212.9,54.5,212.2,54.5,211.8,54L211.8,54z
	 M213.1,57.9L213.1,57.9c-0.4-0.4-0.4-1.1,0-1.6c0.4-0.6,1.1-0.6,1.6,0c0.4,0.4,0.4,1.1,0,1.6C214.2,58.5,213.5,58.5,213.1,57.9
	L213.1,57.9z M219.6,70.7L219.6,70.7l-2.6-2.4c-2.1-2.1-2.1-5.7,0-7.8c2.3-2.1,5.7-2.1,7.8,0l2.6,2.6c2.1,2.1,2.1,5.7,0,7.8
	S221.8,73,219.6,70.7L219.6,70.7z M229.3,77.2L229.3,77.2c-0.4,0.4-1.3,0.4-1.7-0.3c-0.1-0.3-0.1-0.7,0-1c0.4-0.6,1.1-0.7,1.7-0.3
	C229.6,76.2,229.6,76.8,229.3,77.2L229.3,77.2z M230.2,74.8L230.2,74.8c-0.4-0.4-0.4-1.3,0.3-1.7c0.3-0.1,0.7-0.1,1,0
	c0.6,0.4,0.7,1.1,0.3,1.7C231.2,75.2,230.6,75.2,230.2,74.8L230.2,74.8z M232.9,78.5L232.9,78.5c-0.4,0.4-1,0.4-1.6,0
	c-0.4-0.4-0.4-1,0-1.6c0.4-0.4,1.1-0.4,1.6,0S233.3,78.1,232.9,78.5L232.9,78.5z M232.6,72.5L232.6,72.5c-0.4-0.4-0.4-1,0-1.6
	c0.4-0.4,1-0.4,1.4,0c0.4,0.4,0.4,1.1,0,1.6C233.6,73,233,73,232.6,72.5L232.6,72.5z M233.7,76.1L233.7,76.1c-0.4-0.4-0.4-1.1,0-1.6
	c0.4-0.4,1.3-0.4,1.7,0.3c0.1,0.3,0.1,0.7,0,1.1C235,76.5,234.3,76.5,233.7,76.1L233.7,76.1z M236.4,79.6L236.4,79.6
	c-0.4,0.4-1.1,0.4-1.6,0s-0.4-1.3,0.3-1.7c0.3-0.1,0.7-0.1,1.1,0C236.8,78.4,237,79.1,236.4,79.6L236.4,79.6z"/>
<path fill="#FFA200" d="M239.3,60.6c3.3-3.3,3.3-8.7,0-11.8c-3.3-3.3-8.5-3.3-11.8,0l-3,3c-0.4,0.4-0.4,1,0,1.4L235,63.7
	c0.4,0.4,1,0.4,1.4,0L239.3,60.6z"/>
<path fill="#FFA200" d="M205.4,70.7c-3.3,3.3-3.3,8.5,0,11.8c3.3,3.3,8.5,3.3,11.8,0l3.1-3.1c0.3-0.3,0.3-0.9,0-1.1l-10.7-10.7
	c-0.4-0.4-1-0.4-1.4,0L205.4,70.7z"/>
</svg>
