<?xml version="1.0" encoding="utf-8"?>
<!-- Generator: Adobe Illustrator 18.1.1, SVG Export Plug-In . SVG Version: 6.00 Build 0)  -->
<svg version="1.1" id="Layer_1" xmlns="http://www.w3.org/2000/svg" xmlns:xlink="http://www.w3.org/1999/xlink" x="0px" y="0px"
	 viewBox="158.3 0 128 128" enable-background="new 158.3 0 128 128" xml:space="preserve">
<g>
	<g>
		<g>
			<path fill="#FFA200" d="M257.9,63.6c0-20.2-16.8-36.4-37.3-35.6c-18.3,0.9-33.1,15.9-33.8,34.3c-0.6,17.6,11.5,32.4,27.9,36
				l2.4,3.7c2.3,4,8.1,4,10.4,0l2.4-3.7C245.9,94.7,257.9,80.5,257.9,63.6z"/>
		</g>
		<defs>
			<filter id="Adobe_OpacityMaskFilter" filterUnits="userSpaceOnUse" x="186.8" y="28" width="71.1" height="77">
				<feColorMatrix  type="matrix" values="1 0 0 0 0  0 1 0 0 0  0 0 1 0 0  0 0 0 1 0"/>
			</filter>
		</defs>
		<mask maskUnits="userSpaceOnUse" x="186.8" y="28" width="71.1" height="77" id="SVGID_4_">
			<g filter="url(#Adobe_OpacityMaskFilter)">
				
					<image overflow="visible" enable-background="new    " width="56" height="59" xlink:href="41184F2D856C063C.jpg"  transform="matrix(1.4222 0 0 1.4222 182.5111 24.1948)">
				</image>
			</g>
		</mask>
		<g opacity="0.4" mask="url(#SVGID_4_)">
			<path d="M257.9,63.6c0-20.2-16.8-36.4-37.3-35.6c-18.3,0.9-33.1,15.9-33.8,34.3c-0.6,17.6,11.5,32.4,27.9,36l2.4,3.7
				c2.3,4,8.1,4,10.4,0l2.4-3.7C245.9,94.7,257.9,80.5,257.9,63.6z"/>
		</g>
	</g>
	<g>
		<g>
			<path fill="#FFFFFF" d="M253.3,63.7c0,17.1-13.8,31-31,31c-17.1,0-31-13.8-31-31s13.9-31,31-31S253.3,46.5,253.3,63.7z"/>
		</g>
		<defs>
			<filter id="Adobe_OpacityMaskFilter_1_" filterUnits="userSpaceOnUse" x="191.3" y="32.7" width="62" height="62">
				<feColorMatrix  type="matrix" values="1 0 0 0 0  0 1 0 0 0  0 0 1 0 0  0 0 0 1 0"/>
			</filter>
		</defs>
		<mask maskUnits="userSpaceOnUse" x="191.3" y="32.7" width="62" height="62" id="SVGID_1_">
			<g filter="url(#Adobe_OpacityMaskFilter_1_)">
				
					<image overflow="visible" enable-background="new    " width="48" height="48" xlink:href="41184F2D856C063D.jpg"  transform="matrix(1.4222 0 0 1.4222 188.2 29.8667)">
				</image>
			</g>
		</mask>
		<g opacity="0.3" mask="url(#SVGID_1_)">
			<path d="M253.3,63.7c0,17.1-13.8,31-31,31c-17.1,0-31-13.8-31-31s13.9-31,31-31S253.3,46.5,253.3,63.7z"/>
		</g>
	</g>
</g>
<g>
	<path fill="#FFA200" d="M240.5,49.1c-0.1-0.6-0.6-1.1-1.3-1.4c-1.4-0.6-2.7-2-3.3-2.8c-0.4-0.6-1-0.9-1.6-0.9h-12.1l0,0h-12.1
		c-0.7,0-1.3,0.3-1.6,0.9c-0.7,0.9-1.8,2.3-3.3,2.7c-0.6,0.3-1.1,0.7-1.3,1.4C195.3,81.1,222.2,89,222.2,89l0,0
		C222.2,89.2,249.4,81.2,240.5,49.1z M222.2,84.8L222.2,84.8c0,0-22-6.4-14.9-32.3c0.1-0.6,0.6-1,1.1-1.3c1.1-0.4,2-1.4,2.6-2.1
		c0.4-0.4,1-0.7,1.6-0.7h9.7l0,0h9.7c0.6,0,1.1,0.3,1.6,0.7c0.6,0.7,1.4,1.7,2.6,2.1c0.6,0.3,1,0.7,1.1,1.3
		C244.1,78.4,222.2,84.8,222.2,84.8z"/>
	<path fill="#FFA200" d="M229.3,60H228c0-4-2.4-6.3-5.8-6.3s-5.8,2.3-5.8,6.3h-0.9c-1,0-1.8,0.9-1.8,1.7v8.4c0,1.4,1.1,2.6,2.6,2.6
		h12.7c1.1,0,2.1-1,2.1-2.1v-8.8C231.2,60.9,230.3,60,229.3,60z M223,70.3h-1.7c-0.4,0-0.7-0.3-0.6-0.7l0.4-3.6c-0.6-0.3-1-1-1-1.7
		c0-1,0.9-2,2-2c1.1,0,2,0.9,2,1.8c0,0.7-0.4,1.6-1,1.8l0.4,3.4C223.8,70,223.5,70.3,223,70.3z M218.2,60c0-3.7,2-4.6,4-4.6
		c2,0,4,0.9,4,4.6H218.2z"/>
</g>
</svg>
