<?xml version="1.0" encoding="utf-8"?>
<!-- Generator: Adobe Illustrator 18.1.1, SVG Export Plug-In . SVG Version: 6.00 Build 0)  -->
<svg version="1.1" id="Layer_1" xmlns="http://www.w3.org/2000/svg" xmlns:xlink="http://www.w3.org/1999/xlink" x="0px" y="0px"
	 viewBox="160.4 0 128 128" enable-background="new 160.4 0 128 128" xml:space="preserve">
<g>
	<g>
		<g>
			<path fill="#FFA200" d="M260,64c0-20.2-16.8-36.4-37.3-35.6c-18.3,0.9-33.1,15.8-33.8,34.3c-0.6,17.6,11.5,32.4,27.9,36l2.4,3.7
				c2.3,4,8.1,4,10.4,0l2.4-3.7C248.1,95.1,260,80.9,260,64z"/>
		</g>
		<defs>
			<filter id="Adobe_OpacityMaskFilter" filterUnits="userSpaceOnUse" x="188.8" y="28.3" width="71.1" height="77">
				<feColorMatrix  type="matrix" values="1 0 0 0 0  0 1 0 0 0  0 0 1 0 0  0 0 0 1 0"/>
			</filter>
		</defs>
		<mask maskUnits="userSpaceOnUse" x="188.8" y="28.3" width="71.1" height="77" id="SVGID_4_">
			<g filter="url(#Adobe_OpacityMaskFilter)">
				
					<image overflow="visible" enable-background="new    " width="56" height="60" xlink:href="68F392C122D32018.jpg"  transform="matrix(1.4222 0 0 1.4222 184.5974 24.0777)">
				</image>
			</g>
		</mask>
		<g opacity="0.4" mask="url(#SVGID_4_)">
			<path d="M260,63.9c0-20.2-16.8-36.4-37.3-35.6c-18.3,0.9-33.1,15.8-33.8,34.3c-0.6,17.6,11.5,32.4,27.9,36l2.4,3.7
				c2.3,4,8.1,4,10.4,0l2.4-3.7C248,95,260,80.8,260,63.9z"/>
		</g>
	</g>
	<g>
		<g>
			<path fill="#FFFFFF" d="M255.4,64.1c0,17.1-13.8,31-31,31c-17.1,0-31-13.8-31-31s13.9-31,31-31S255.4,46.9,255.4,64.1z"/>
		</g>
		<defs>
			<filter id="Adobe_OpacityMaskFilter_1_" filterUnits="userSpaceOnUse" x="193.4" y="33.1" width="62" height="62">
				<feColorMatrix  type="matrix" values="1 0 0 0 0  0 1 0 0 0  0 0 1 0 0  0 0 0 1 0"/>
			</filter>
		</defs>
		<mask maskUnits="userSpaceOnUse" x="193.4" y="33.1" width="62" height="62" id="SVGID_1_">
			<g filter="url(#Adobe_OpacityMaskFilter_1_)">
				
					<image overflow="visible" enable-background="new    " width="48" height="48" xlink:href="68F392C122D32019.jpg"  transform="matrix(1.4222 0 0 1.4222 190.3111 29.8667)">
				</image>
			</g>
		</mask>
		<g opacity="0.3" mask="url(#SVGID_1_)">
			<path d="M255.4,64.1c0,17.1-13.8,31-31,31c-17.1,0-31-13.8-31-31s13.9-31,31-31S255.4,46.9,255.4,64.1z"/>
		</g>
	</g>
</g>
<g>
	<g>
		<path fill="#FFA200" d="M222.7,84.8c-0.3-0.1-0.6-0.1-1-0.1c-2.1-0.3-4.1-1-6.1-1.8c-1.4-0.7-2.7-1.6-3.8-2.4
			c-1.4-1.1-2.6-2.4-3.6-3.8c-1.3-1.8-2.3-4-2.8-6.3c-0.3-1-0.4-2.1-0.6-3.3c-0.3-2.8,0.1-5.7,1.1-8.4c1-2.8,2.6-5.3,4.8-7.4
			c0.7-0.7,1.4-1.4,2.4-1.8c1.1-0.6,2.8-0.4,3.8,0.7c0.9,1,1,2.1,0.7,3.3c-0.1,0.7-0.7,1.3-1.3,1.7c-1.8,1.4-3.3,3.3-4.1,5.5
			c-0.7,1.7-1,3.4-0.9,5.1c0,2.1,0.6,4.1,1.6,6c1,1.7,2.1,3.1,3.7,4.3c1.6,1.1,3.4,2,5.4,2.3c2.6,0.4,5,0.1,7.4-0.9
			c1.8-0.7,3.4-1.8,4.7-3.3c1.8-2.1,3-4.6,3.3-7.4c0.3-2.6-0.1-5-1.3-7.3c-1-2-2.4-3.4-4.1-4.8c-1.6-1.3-1.6-4,0.4-5.3
			c1.1-0.7,2.6-0.7,3.7,0.1c2.3,1.7,4.3,3.8,5.5,6.5c1.3,2.6,2.1,5.3,2.3,8.1c0.1,3.7-0.6,7.1-2.3,10.2c-1.1,2-2.4,3.8-4.1,5.4
			c-1.4,1.3-3.1,2.4-4.8,3.1c-2.1,1-4.3,1.6-6.5,1.7c0,0-0.1,0-0.1,0.1C224.9,84.8,223.9,84.8,222.7,84.8z"/>
		<path fill="#FFA200" d="M225,42.2c0,0.1,0.1,0.1,0.3,0.1c1.6,0.6,2.4,1.7,2.4,3.4c0,5,0,9.8,0,14.8c0,0.6,0,1.3,0,1.8
			c-0.1,1.3-1.3,2.4-2.6,2.7c-1.3,0.3-2.7-0.3-3.4-1.4c-0.4-0.6-0.6-1.1-0.6-1.8c0-5.4,0-10.8,0-16.1c0-1.6,0.9-2.7,2.4-3.3
			c0.1,0,0.1,0,0.3-0.1C224.2,42.2,224.6,42.2,225,42.2z"/>
	</g>
</g>
</svg>
