<?xml version="1.0" encoding="utf-8"?>
<!-- Generator: Adobe Illustrator 20.1.0, SVG Export Plug-In . SVG Version: 6.00 Build 0)  -->
<svg version="1.1" id="Capa_1" xmlns="http://www.w3.org/2000/svg" xmlns:xlink="http://www.w3.org/1999/xlink" x="0px" y="0px"
	 viewBox="0 0 140 140" enable-background="new 0 0 140 140" xml:space="preserve">
<g>
	<g>
		<path fill="#FFA200" d="M109.3,66.6c0-22.3-18.5-40.3-41.1-39.3c-20.3,1-36.9,17.7-37.4,38c-0.7,19.5,12.8,35.9,30.9,39.8l2.6,4.1
			c2.5,4.4,8.9,4.4,11.5,0l2.6-4.1C96,101.1,109.3,85.5,109.3,66.6z"/>
	</g>
	<defs>
		<filter id="Adobe_OpacityMaskFilter" filterUnits="userSpaceOnUse" x="30.7" y="27.3" width="78.6" height="85.2">
			<feColorMatrix  type="matrix" values="1 0 0 0 0  0 1 0 0 0  0 0 1 0 0  0 0 0 1 0"/>
		</filter>
	</defs>
	<mask maskUnits="userSpaceOnUse" x="30.7" y="27.3" width="78.6" height="85.2" id="SVGID_3_">
		<g filter="url(#Adobe_OpacityMaskFilter)">
		</g>
	</mask>
	<g opacity="0.4" mask="url(#SVGID_3_)">
		<path d="M109.3,66.6c0-22.3-18.5-40.3-41.1-39.3c-20.3,1-36.9,17.7-37.4,38c-0.7,19.5,12.8,35.9,30.9,39.8l2.6,4.1
			c2.5,4.4,8.9,4.4,11.5,0l2.6-4.1C96,101.1,109.3,85.5,109.3,66.6z"/>
	</g>
</g>
<g>
	<g>
		<path fill="#FFFFFF" d="M104.1,66.7c0,18.9-15.3,34.1-34.1,34.1S35.8,85.6,35.8,66.7S51,32.6,69.9,32.6S104.1,47.9,104.1,66.7z"/>
	</g>
	<defs>
		<filter id="Adobe_OpacityMaskFilter_1_" filterUnits="userSpaceOnUse" x="35.8" y="32.6" width="68.4" height="68.2">
			<feColorMatrix  type="matrix" values="1 0 0 0 0  0 1 0 0 0  0 0 1 0 0  0 0 0 1 0"/>
		</filter>
	</defs>
	<mask maskUnits="userSpaceOnUse" x="35.8" y="32.6" width="68.4" height="68.2" id="SVGID_2_">
		<g filter="url(#Adobe_OpacityMaskFilter_1_)">
		</g>
	</mask>
	<g opacity="0.3" mask="url(#SVGID_2_)">
		<path d="M104.1,66.7c0,18.9-15.3,34.1-34.1,34.1S35.8,85.6,35.8,66.7S51,32.6,69.9,32.6S104.1,47.9,104.1,66.7z"/>
	</g>
</g>
<circle fill="#FFA200" cx="58.2" cy="66" r="5.4"/>
<circle fill="#FFA200" cx="69.8" cy="66" r="5.4"/>
<circle fill="#FFA200" cx="81.7" cy="66" r="5.4"/>
</svg>
