<?xml version="1.0" encoding="iso-8859-1"?>
<!-- Generator: Adobe Illustrator 16.0.0, SVG Export Plug-In . SVG Version: 6.00 Build 0)  -->
<!DOCTYPE svg PUBLIC "-//W3C//DTD SVG 1.1//EN" "http://www.w3.org/Graphics/SVG/1.1/DTD/svg11.dtd">
<svg version="1.1" id="Layer_1" xmlns="http://www.w3.org/2000/svg" xmlns:xlink="http://www.w3.org/1999/xlink" x="0px" y="0px"
	 width="267.842px" height="255.802px" viewBox="0 0 267.842 255.802" style="enable-background:new 0 0 267.842 255.802;"
	 xml:space="preserve">
<g>
	<path style="fill:#2A5E9B;" d="M208.738,121.768c0-42.494-35.426-76.714-78.351-74.738c-38.68,1.779-69.92,33.431-71.237,72.129
		c-1.259,36.966,24.321,68.174,58.755,75.688l5.078,7.698c4.861,8.418,17.012,8.417,21.873-0.001l5.079-7.697
		C183.556,187.51,208.738,157.586,208.738,121.768"/>
	<defs>
		<filter id="Adobe_OpacityMaskFilter" filterUnits="userSpaceOnUse" x="59.105" y="46.944" width="149.633" height="161.914">
			
				<feColorMatrix  type="matrix" values="-1 0 0 0 1  0 -1 0 0 1  0 0 -1 0 1  0 0 0 1 0" color-interpolation-filters="sRGB" result="source"/>
		</filter>
	</defs>
	<mask maskUnits="userSpaceOnUse" x="59.105" y="46.944" width="149.633" height="161.914" id="SVGID_1_">
		<g style="filter:url(#Adobe_OpacityMaskFilter);">
			<g style="enable-background:new    ;">
				<g>
					<defs>
						<rect id="SVGID_2_" x="56.707" y="44.218" width="155" height="167"/>
					</defs>
					<clipPath id="SVGID_3_">
						<use xlink:href="#SVGID_2_"  style="overflow:visible;"/>
					</clipPath>
					<g style="clip-path:url(#SVGID_3_);">
						
							<image style="overflow:visible;" width="155" height="167" xlink:href="E1518E3D23C1A5F7.jpg"  transform="matrix(1 0 0 1 56.707 44.2178)">
						</image>
					</g>
				</g>
			</g>
		</g>
	</mask>
	<g style="opacity:0.4;mask:url(#SVGID_1_);">
		<g>
			<defs>
				<rect id="SVGID_4_" x="59.105" y="46.944" width="149.632" height="161.91"/>
			</defs>
			<clipPath id="SVGID_5_">
				<use xlink:href="#SVGID_4_"  style="overflow:visible;"/>
			</clipPath>
			<path style="clip-path:url(#SVGID_5_);" d="M208.738,121.768c0-42.494-35.426-76.714-78.351-74.738
				c-38.68,1.779-69.92,33.431-71.237,72.129c-1.259,36.966,24.321,68.174,58.755,75.688l5.078,7.698
				c4.861,8.418,17.012,8.417,21.873-0.001l5.079-7.697C183.556,187.51,208.738,157.586,208.738,121.768"/>
		</g>
	</g>
	<path style="fill:#FFFFFF;" d="M199.027,122.087c0,35.958-29.152,65.104-65.107,65.104c-35.958,0-65.104-29.146-65.104-65.104
		c0-35.959,29.146-65.104,65.104-65.104C169.875,56.982,199.027,86.128,199.027,122.087"/>
	<defs>
		<filter id="Adobe_OpacityMaskFilter_1_" filterUnits="userSpaceOnUse" x="68.816" y="56.982" width="130.21" height="130.212">
			
				<feColorMatrix  type="matrix" values="-1 0 0 0 1  0 -1 0 0 1  0 0 -1 0 1  0 0 0 1 0" color-interpolation-filters="sRGB" result="source"/>
		</filter>
	</defs>
	<mask maskUnits="userSpaceOnUse" x="68.816" y="56.982" width="130.21" height="130.212" id="SVGID_6_">
		<g style="filter:url(#Adobe_OpacityMaskFilter_1_);">
			<g style="enable-background:new    ;">
				<g>
					<defs>
						<rect id="SVGID_7_" x="66.707" y="54.747" width="135" height="135"/>
					</defs>
					<clipPath id="SVGID_8_">
						<use xlink:href="#SVGID_7_"  style="overflow:visible;"/>
					</clipPath>
					<g style="clip-path:url(#SVGID_8_);">
						
							<image style="overflow:visible;" width="135" height="135" xlink:href="E1518E3D23C1A5F5.jpg"  transform="matrix(1 0 0 1 66.707 54.7471)">
						</image>
					</g>
				</g>
			</g>
		</g>
	</mask>
	<g style="opacity:0.8;mask:url(#SVGID_6_);">
		<g>
			<defs>
				<rect id="SVGID_9_" x="68.816" y="56.984" width="130.208" height="130.21"/>
			</defs>
			<clipPath id="SVGID_10_">
				<use xlink:href="#SVGID_9_"  style="overflow:visible;"/>
			</clipPath>
			<path style="clip-path:url(#SVGID_10_);" d="M199.027,122.087c0,35.958-29.152,65.104-65.107,65.104
				c-35.958,0-65.104-29.146-65.104-65.104c0-35.959,29.146-65.104,65.104-65.104C169.875,56.982,199.027,86.128,199.027,122.087"/>
		</g>
	</g>
</g>
<g>
	<path style="fill-rule:evenodd;clip-rule:evenodd;fill:#2A5E9B;" d="M171.708,99.591l-0.094-0.086l-5.643-5.355l-8.041-7.61v0.002
		l-5.504-5.129l-0.289-0.248c-3.152-2.592-6.661-3.575-8.079-2.174l-41.432,41.067c-0.984,0.977-0.959,2.577,0.057,3.521
		l3.438,3.197l-0.002-0.002l6.029,5.603l0.014-0.015l7.609,7.09l6.133,5.699l-0.004,0.004l2.828,2.627
		c0.916,0.852,2.342,0.828,3.229-0.053l41.438-41.092C174.726,105.318,173.945,102.414,171.708,99.591"/>
	<path style="fill-rule:evenodd;clip-rule:evenodd;fill:#2A5E9B;" d="M119.649,142.972l-9.783-9.331l-9.773-9.323
		c-0.381-0.364-1.014-0.149-1.096,0.373l-3.055,19.771l0.977,0.934l9.77,9.346l0.6,0.573l18.984-3.633
		c0.873-0.168,1.191-1.252,0.549-1.864L119.649,142.972z"/>
	<path style="fill-rule:evenodd;clip-rule:evenodd;fill:#2A5E9B;" d="M106.688,154.74l-3.428-3.279l-0.154-0.146l-2.709-2.593
		l-0.344-0.328l-2.533-2.424l-0.322-0.309l-1.256-1.199l-0.291,2.185l-1.205,7.988v-0.016l-0.371,2.251
		c-0.082,0.495,0.354,0.919,0.846,0.823l2.508-0.484l9.869-1.893L106.688,154.74z"/>
	<path style="fill-rule:evenodd;clip-rule:evenodd;fill:#2A5E9B;" d="M169.488,157.451h-58.864l-16.828,2.899l75.692,1.093
		c0.473,0,0.852-0.312,0.852-0.694v-2.603C170.339,157.763,169.957,157.451,169.488,157.451"/>
	<g style="opacity:0.5;">
		<g>
			<defs>
				<rect id="SVGID_151_" x="106.122" y="126.781" width="24.947" height="21.5"/>
			</defs>
			<clipPath id="SVGID_11_">
				<use xlink:href="#SVGID_151_"  style="overflow:visible;"/>
			</clipPath>
		</g>
	</g>
</g>
</svg>
