<?xml version="1.0" encoding="iso-8859-1"?>
<!-- Generator: Adobe Illustrator 16.0.0, SVG Export Plug-In . SVG Version: 6.00 Build 0)  -->
<!DOCTYPE svg PUBLIC "-//W3C//DTD SVG 1.1//EN" "http://www.w3.org/Graphics/SVG/1.1/DTD/svg11.dtd">
<svg version="1.1" id="Layer_1" xmlns="http://www.w3.org/2000/svg" xmlns:xlink="http://www.w3.org/1999/xlink" x="0px" y="0px"
	 width="267.842px" height="255.802px" viewBox="0 0 267.842 255.802" style="enable-background:new 0 0 267.842 255.802;"
	 xml:space="preserve">
<g>
	<path style="fill:#2A5E9B;" d="M208.738,121.768c0-42.494-35.426-76.714-78.352-74.738c-38.68,1.779-69.92,33.431-71.238,72.129
		c-1.258,36.966,24.322,68.174,58.756,75.688l5.078,7.698c4.861,8.418,17.012,8.417,21.873-0.001l5.078-7.697
		C183.557,187.51,208.738,157.586,208.738,121.768"/>
	<defs>
		<filter id="Adobe_OpacityMaskFilter" filterUnits="userSpaceOnUse" x="59.104" y="46.944" width="149.635" height="161.914">
			
				<feColorMatrix  type="matrix" values="-1 0 0 0 1  0 -1 0 0 1  0 0 -1 0 1  0 0 0 1 0" color-interpolation-filters="sRGB" result="source"/>
		</filter>
	</defs>
	<mask maskUnits="userSpaceOnUse" x="59.104" y="46.944" width="149.635" height="161.914" id="SVGID_1_">
		<g style="filter:url(#Adobe_OpacityMaskFilter);">
			<g style="enable-background:new    ;">
				<g>
					<defs>
						<rect id="SVGID_52_" x="56.707" y="44.218" width="155" height="167"/>
					</defs>
					<clipPath id="SVGID_3_">
						<use xlink:href="#SVGID_52_"  style="overflow:visible;"/>
					</clipPath>
					<g style="clip-path:url(#SVGID_3_);">
						
							<image style="overflow:visible;" width="155" height="167" xlink:href="E24E19BAF16F8685.jpg"  transform="matrix(1 0 0 1 56.707 44.2178)">
						</image>
					</g>
				</g>
			</g>
		</g>
	</mask>
	<g style="opacity:0.4;mask:url(#SVGID_1_);">
		<g>
			<defs>
				<rect id="SVGID_54_" x="59.105" y="46.944" width="149.633" height="161.91"/>
			</defs>
			<clipPath id="SVGID_5_">
				<use xlink:href="#SVGID_54_"  style="overflow:visible;"/>
			</clipPath>
			<path style="clip-path:url(#SVGID_5_);" d="M208.738,121.768c0-42.494-35.426-76.714-78.352-74.738
				c-38.68,1.779-69.92,33.431-71.238,72.129c-1.258,36.966,24.322,68.174,58.756,75.688l5.078,7.698
				c4.861,8.418,17.012,8.417,21.873-0.001l5.078-7.697C183.557,187.51,208.738,157.586,208.738,121.768"/>
		</g>
	</g>
	<path style="fill:#FFFFFF;" d="M199.027,122.087c0,35.958-29.152,65.104-65.107,65.104c-35.959,0-65.104-29.146-65.104-65.104
		c0-35.959,29.145-65.104,65.104-65.104C169.875,56.982,199.027,86.128,199.027,122.087"/>
	<defs>
		<filter id="Adobe_OpacityMaskFilter_1_" filterUnits="userSpaceOnUse" x="68.816" y="56.982" width="130.211" height="130.212">
			
				<feColorMatrix  type="matrix" values="-1 0 0 0 1  0 -1 0 0 1  0 0 -1 0 1  0 0 0 1 0" color-interpolation-filters="sRGB" result="source"/>
		</filter>
	</defs>
	<mask maskUnits="userSpaceOnUse" x="68.816" y="56.982" width="130.211" height="130.212" id="SVGID_6_">
		<g style="filter:url(#Adobe_OpacityMaskFilter_1_);">
			<g style="enable-background:new    ;">
				<g>
					<defs>
						<rect id="SVGID_57_" x="66.707" y="54.747" width="135" height="135"/>
					</defs>
					<clipPath id="SVGID_8_">
						<use xlink:href="#SVGID_57_"  style="overflow:visible;"/>
					</clipPath>
					<g style="clip-path:url(#SVGID_8_);">
						
							<image style="overflow:visible;" width="135" height="135" xlink:href="E24E19BAF16F8687.jpg"  transform="matrix(1 0 0 1 66.707 54.7471)">
						</image>
					</g>
				</g>
			</g>
		</g>
	</mask>
	<g style="opacity:0.8;mask:url(#SVGID_6_);">
		<g>
			<defs>
				<rect id="SVGID_59_" x="68.816" y="56.984" width="130.209" height="130.21"/>
			</defs>
			<clipPath id="SVGID_10_">
				<use xlink:href="#SVGID_59_"  style="overflow:visible;"/>
			</clipPath>
			<path style="clip-path:url(#SVGID_10_);" d="M199.027,122.087c0,35.958-29.152,65.104-65.107,65.104
				c-35.959,0-65.104-29.146-65.104-65.104c0-35.959,29.145-65.104,65.104-65.104C169.875,56.982,199.027,86.128,199.027,122.087"/>
		</g>
	</g>
</g>
<g>
	<defs>
		<rect id="SVGID_153_" x="88.021" y="73.401" width="99.811" height="109"/>
	</defs>
	<clipPath id="SVGID_11_">
		<use xlink:href="#SVGID_153_"  style="overflow:visible;"/>
	</clipPath>
	<path style="clip-path:url(#SVGID_11_);fill:#2A5E9B;" d="M171.947,91.519c-0.354-1.295-1.338-2.377-2.615-2.854
		c-3.079-1.148-5.539-3.559-6.892-5.375c-0.794-1.068-2.063-1.324-3.412-1.324h-25.291h-0.005h-25.287
		c-1.348,0-2.618,0.232-3.413,1.299c-1.352,1.816-3.811,4.398-6.883,5.547c-1.276,0.479-2.26,1.51-2.615,2.805
		c-18.511,67.535,37.946,84.365,37.979,84.365C133.549,175.981,190.459,159.052,171.947,91.519 M133.513,166.673L133.513,166.673
		c-0.026,0-46.253-13.582-31.436-68.014c0.326-1.197,1.198-2.215,2.37-2.678c2.316-0.914,4.192-3.467,5.301-4.902
		c0.773-1.006,1.987-2.113,3.271-2.113h20.296h0.003h20.3c1.283,0,2.496,1.1,3.271,2.104c1.107,1.436,2.984,3.721,5.306,4.637
		c1.173,0.461,2.046,1.627,2.372,2.824C179.384,152.962,133.542,166.673,133.513,166.673"/>
	<path style="clip-path:url(#SVGID_11_);fill:#2A5E9B;" d="M148.14,114.632h-2.623c0-8.387-5.129-13.217-12.195-13.217
		s-12.193,4.83-12.193,13.217h-1.926c-2.086,0-3.775,1.658-3.775,3.703v17.732c0,2.969,2.479,5.4,5.506,5.4h26.508
		c2.535,0,4.59-2.016,4.59-4.5v-18.521C152.03,116.339,150.288,114.632,148.14,114.632 M135.056,136.101h-3.469
		c-0.779,0-1.379-0.676-1.273-1.432l1.031-7.361c-1.262-0.695-2.113-2.182-2.113-3.701c0-2.236,1.848-4.133,4.131-4.133
		c2.281,0,4.131,1.773,4.131,4.01c0,1.549-0.887,3.203-2.189,3.885l1.025,7.301C136.437,135.425,135.835,136.101,135.056,136.101
		 M124.979,114.632c0-7.715,4.189-9.441,8.342-9.441c4.154,0,8.344,1.727,8.344,9.441H124.979z"/>
</g>
</svg>
