<?xml version="1.0" encoding="iso-8859-1"?>
<!-- Generator: Adobe Illustrator 16.0.0, SVG Export Plug-In . SVG Version: 6.00 Build 0)  -->
<!DOCTYPE svg PUBLIC "-//W3C//DTD SVG 1.1//EN" "http://www.w3.org/Graphics/SVG/1.1/DTD/svg11.dtd">
<svg version="1.1" id="Layer_1" xmlns="http://www.w3.org/2000/svg" xmlns:xlink="http://www.w3.org/1999/xlink" x="0px" y="0px"
	 width="267.842px" height="255.802px" viewBox="0 0 267.842 255.802" style="enable-background:new 0 0 267.842 255.802;"
	 xml:space="preserve">
<g>
	<path style="fill:#2A5E9B;" d="M208.738,121.768c0-42.494-35.426-76.714-78.352-74.738c-38.68,1.779-69.92,33.431-71.238,72.129
		c-1.258,36.966,24.322,68.174,58.756,75.688l5.078,7.698c4.861,8.418,17.012,8.417,21.873-0.001l5.078-7.697
		C183.557,187.51,208.738,157.586,208.738,121.768"/>
	<defs>
		<filter id="Adobe_OpacityMaskFilter" filterUnits="userSpaceOnUse" x="59.104" y="46.944" width="149.635" height="161.914">
			
				<feColorMatrix  type="matrix" values="-1 0 0 0 1  0 -1 0 0 1  0 0 -1 0 1  0 0 0 1 0" color-interpolation-filters="sRGB" result="source"/>
		</filter>
	</defs>
	<mask maskUnits="userSpaceOnUse" x="59.104" y="46.944" width="149.635" height="161.914" id="SVGID_1_">
		<g style="filter:url(#Adobe_OpacityMaskFilter);">
			<g style="enable-background:new    ;">
				<g>
					<defs>
						<rect id="SVGID_62_" x="56.707" y="44.218" width="155" height="167"/>
					</defs>
					<clipPath id="SVGID_3_">
						<use xlink:href="#SVGID_62_"  style="overflow:visible;"/>
					</clipPath>
					<g style="clip-path:url(#SVGID_3_);">
						
							<image style="overflow:visible;" width="155" height="167" xlink:href="E25684C7AB7DDACC.jpg"  transform="matrix(1 0 0 1 56.707 44.2178)">
						</image>
					</g>
				</g>
			</g>
		</g>
	</mask>
	<g style="opacity:0.4;mask:url(#SVGID_1_);">
		<g>
			<defs>
				<rect id="SVGID_64_" x="59.105" y="46.944" width="149.633" height="161.91"/>
			</defs>
			<clipPath id="SVGID_5_">
				<use xlink:href="#SVGID_64_"  style="overflow:visible;"/>
			</clipPath>
			<path style="clip-path:url(#SVGID_5_);" d="M208.738,121.768c0-42.494-35.426-76.714-78.352-74.738
				c-38.68,1.779-69.92,33.431-71.238,72.129c-1.258,36.966,24.322,68.174,58.756,75.688l5.078,7.698
				c4.861,8.418,17.012,8.417,21.873-0.001l5.078-7.697C183.557,187.51,208.738,157.586,208.738,121.768"/>
		</g>
	</g>
	<path style="fill:#FFFFFF;" d="M199.027,122.087c0,35.958-29.152,65.104-65.107,65.104c-35.959,0-65.104-29.146-65.104-65.104
		c0-35.959,29.145-65.104,65.104-65.104C169.875,56.982,199.027,86.128,199.027,122.087"/>
	<defs>
		<filter id="Adobe_OpacityMaskFilter_1_" filterUnits="userSpaceOnUse" x="68.816" y="56.982" width="130.211" height="130.212">
			
				<feColorMatrix  type="matrix" values="-1 0 0 0 1  0 -1 0 0 1  0 0 -1 0 1  0 0 0 1 0" color-interpolation-filters="sRGB" result="source"/>
		</filter>
	</defs>
	<mask maskUnits="userSpaceOnUse" x="68.816" y="56.982" width="130.211" height="130.212" id="SVGID_6_">
		<g style="filter:url(#Adobe_OpacityMaskFilter_1_);">
			<g style="enable-background:new    ;">
				<g>
					<defs>
						<rect id="SVGID_67_" x="66.707" y="54.747" width="135" height="135"/>
					</defs>
					<clipPath id="SVGID_8_">
						<use xlink:href="#SVGID_67_"  style="overflow:visible;"/>
					</clipPath>
					<g style="clip-path:url(#SVGID_8_);">
						
							<image style="overflow:visible;" width="135" height="135" xlink:href="E25684C7AB7DDACD.jpg"  transform="matrix(1 0 0 1 66.707 54.7471)">
						</image>
					</g>
				</g>
			</g>
		</g>
	</mask>
	<g style="opacity:0.8;mask:url(#SVGID_6_);">
		<g>
			<defs>
				<rect id="SVGID_69_" x="68.816" y="56.984" width="130.209" height="130.21"/>
			</defs>
			<clipPath id="SVGID_10_">
				<use xlink:href="#SVGID_69_"  style="overflow:visible;"/>
			</clipPath>
			<path style="clip-path:url(#SVGID_10_);" d="M199.027,122.087c0,35.958-29.152,65.104-65.107,65.104
				c-35.959,0-65.104-29.146-65.104-65.104c0-35.959,29.145-65.104,65.104-65.104C169.875,56.982,199.027,86.128,199.027,122.087"/>
		</g>
	</g>
</g>
<g>
	<path style="fill:#2A5E9B;" d="M130.348,165.703c-0.592-0.414-1.303-0.312-1.951-0.396c-4.512-0.588-8.76-1.971-12.83-3.984
		c-2.896-1.434-5.607-3.146-8.09-5.201c-2.873-2.377-5.369-5.117-7.482-8.201c-2.754-4.025-4.783-8.389-6.064-13.088
		c-0.607-2.232-0.99-4.514-1.182-6.824c-0.5-6.049,0.188-11.945,2.254-17.66c2.166-5.986,5.52-11.219,10.119-15.627
		c1.547-1.48,3.129-2.941,5.016-3.998c2.369-1.326,6.117-0.957,8.158,1.434c1.76,2.059,2.178,4.34,1.449,6.861
		c-0.424,1.465-1.41,2.561-2.605,3.49c-3.959,3.074-6.934,6.912-8.812,11.57c-1.408,3.492-2.02,7.121-1.939,10.898
		c0.094,4.457,1.24,8.613,3.342,12.508c1.949,3.609,4.57,6.66,7.91,9.072c3.428,2.477,7.215,4.148,11.375,4.908
		c5.316,0.971,10.5,0.406,15.479-1.684c3.799-1.596,7.135-3.893,9.891-6.994c3.945-4.445,6.318-9.615,6.947-15.514
		c0.568-5.303-0.297-10.395-2.705-15.203c-2.037-4.068-5.055-7.264-8.537-10.129c-3.367-2.77-3.184-8.344,0.873-10.971
		c2.348-1.52,5.439-1.355,7.779,0.379c4.936,3.662,8.855,8.199,11.727,13.646c2.84,5.387,4.416,11.102,4.727,17.193
		c0.389,7.668-1.252,14.852-4.85,21.615c-2.281,4.287-5.197,8.072-8.814,11.314c-3.09,2.77-6.555,4.963-10.307,6.725
		c-4.357,2.047-8.939,3.252-13.727,3.703c-0.145,0.014-0.35-0.078-0.422,0.156H130.348z"/>
	<path style="fill:#2A5E9B;" d="M135.215,76.092c0.092,0.254,0.35,0.209,0.531,0.271c3.281,1.119,5.07,3.584,5.072,7.055
		c0.006,10.354,0.008,20.707-0.002,31.061c-0.002,1.311,0.094,2.623-0.104,3.93c-0.432,2.83-2.559,5.137-5.332,5.77
		c-2.717,0.619-5.664-0.637-7.242-3.059c-0.781-1.203-1.1-2.527-1.1-3.934c-0.006-11.309-0.012-22.615,0.002-33.924
		c0.006-3.301,1.838-5.791,4.945-6.857c0.189-0.066,0.441-0.043,0.508-0.312H135.215z"/>
</g>
</svg>
