<?xml version="1.0" encoding="iso-8859-1"?>
<!-- Generator: Adobe Illustrator 16.0.0, SVG Export Plug-In . SVG Version: 6.00 Build 0)  -->
<!DOCTYPE svg PUBLIC "-//W3C//DTD SVG 1.1//EN" "http://www.w3.org/Graphics/SVG/1.1/DTD/svg11.dtd">
<svg version="1.1" id="Layer_1" xmlns="http://www.w3.org/2000/svg" xmlns:xlink="http://www.w3.org/1999/xlink" x="0px" y="0px"
	 width="267.842px" height="255.802px" viewBox="0 0 267.842 255.802" style="enable-background:new 0 0 267.842 255.802;"
	 xml:space="preserve">
<g>
	<path style="fill:#2A5E9B;" d="M208.738,121.768c0-42.494-35.426-76.714-78.352-74.738c-38.68,1.779-69.92,33.431-71.238,72.129
		c-1.258,36.966,24.322,68.174,58.756,75.688l5.078,7.698c4.861,8.418,17.012,8.417,21.873-0.001l5.078-7.697
		C183.557,187.51,208.738,157.586,208.738,121.768"/>
	<defs>
		<filter id="Adobe_OpacityMaskFilter" filterUnits="userSpaceOnUse" x="59.104" y="46.944" width="149.635" height="161.914">
			
				<feColorMatrix  type="matrix" values="-1 0 0 0 1  0 -1 0 0 1  0 0 -1 0 1  0 0 0 1 0" color-interpolation-filters="sRGB" result="source"/>
		</filter>
	</defs>
	<mask maskUnits="userSpaceOnUse" x="59.104" y="46.944" width="149.635" height="161.914" id="SVGID_1_">
		<g style="filter:url(#Adobe_OpacityMaskFilter);">
			<g style="enable-background:new    ;">
				<g>
					<defs>
						<rect id="SVGID_132_" x="56.707" y="44.218" width="155" height="167"/>
					</defs>
					<clipPath id="SVGID_3_">
						<use xlink:href="#SVGID_132_"  style="overflow:visible;"/>
					</clipPath>
					<g style="clip-path:url(#SVGID_3_);">
						
							<image style="overflow:visible;" width="155" height="167" xlink:href="E2675AE11F9A835E.jpg"  transform="matrix(1 0 0 1 56.707 44.2178)">
						</image>
					</g>
				</g>
			</g>
		</g>
	</mask>
	<g style="opacity:0.4;mask:url(#SVGID_1_);">
		<g>
			<defs>
				<rect id="SVGID_134_" x="59.105" y="46.944" width="149.633" height="161.91"/>
			</defs>
			<clipPath id="SVGID_5_">
				<use xlink:href="#SVGID_134_"  style="overflow:visible;"/>
			</clipPath>
			<path style="clip-path:url(#SVGID_5_);" d="M208.738,121.768c0-42.494-35.426-76.714-78.352-74.738
				c-38.68,1.779-69.92,33.431-71.238,72.129c-1.258,36.966,24.322,68.174,58.756,75.688l5.078,7.698
				c4.861,8.418,17.012,8.417,21.873-0.001l5.078-7.697C183.557,187.51,208.738,157.586,208.738,121.768"/>
		</g>
	</g>
	<path style="fill:#FFFFFF;" d="M199.027,122.087c0,35.958-29.152,65.104-65.107,65.104c-35.959,0-65.104-29.146-65.104-65.104
		c0-35.959,29.145-65.104,65.104-65.104C169.875,56.982,199.027,86.128,199.027,122.087"/>
	<defs>
		<filter id="Adobe_OpacityMaskFilter_1_" filterUnits="userSpaceOnUse" x="68.816" y="56.982" width="130.211" height="130.212">
			
				<feColorMatrix  type="matrix" values="-1 0 0 0 1  0 -1 0 0 1  0 0 -1 0 1  0 0 0 1 0" color-interpolation-filters="sRGB" result="source"/>
		</filter>
	</defs>
	<mask maskUnits="userSpaceOnUse" x="68.816" y="56.982" width="130.211" height="130.212" id="SVGID_6_">
		<g style="filter:url(#Adobe_OpacityMaskFilter_1_);">
			<g style="enable-background:new    ;">
				<g>
					<defs>
						<rect id="SVGID_137_" x="66.707" y="54.747" width="135" height="135"/>
					</defs>
					<clipPath id="SVGID_8_">
						<use xlink:href="#SVGID_137_"  style="overflow:visible;"/>
					</clipPath>
					<g style="clip-path:url(#SVGID_8_);">
						
							<image style="overflow:visible;" width="135" height="135" xlink:href="E2675AE11F9A8362.jpg"  transform="matrix(1 0 0 1 66.707 54.7471)">
						</image>
					</g>
				</g>
			</g>
		</g>
	</mask>
	<g style="opacity:0.8;mask:url(#SVGID_6_);">
		<g>
			<defs>
				<rect id="SVGID_139_" x="68.816" y="56.984" width="130.209" height="130.21"/>
			</defs>
			<clipPath id="SVGID_10_">
				<use xlink:href="#SVGID_139_"  style="overflow:visible;"/>
			</clipPath>
			<path style="clip-path:url(#SVGID_10_);" d="M199.027,122.087c0,35.958-29.152,65.104-65.107,65.104
				c-35.959,0-65.104-29.146-65.104-65.104c0-35.959,29.145-65.104,65.104-65.104C169.875,56.982,199.027,86.128,199.027,122.087"/>
		</g>
	</g>
</g>
<g>
	<path style="fill:#2A5E9B;" d="M169.466,94.71c-1.561-5.502-6.186-12.746-16.27-12.746c-0.691,0-1.246,0.896-2.541-0.973
		c-2.541-3.664-6.381-7.605-16.461-7.605h-0.547c-10.08,0-13.92,3.941-16.463,7.605c-1.293,1.869-1.848,1.773-2.541,1.773
		c-10.082,0-14.709,6.844-16.27,12.346c-0.404,1.422,0.197,2.805,1.268,3.051l1.566,0.258c0.744,0.172,1.451-0.473,1.762-1.447
		c0.9-2.826,3.658-8.174,11.674-8.174c2.781,0,4.486-2.465,5.982-4.627c2.217-3.191,4.969-7.168,13.295-7.168
		c8.324,0,11.078,3.967,13.295,7.16c1.496,2.16,3.199,4.613,5.98,4.613c8.016,0,10.773,5.318,11.674,8.146
		c0.311,0.975,1.018,1.568,1.764,1.396l1.566-0.359C169.269,97.716,169.87,96.132,169.466,94.71"/>
	<path style="fill:#2A5E9B;" d="M171.267,99.386H96.573c-4.91,0-8.764,4.205-8.328,9.234l3.445,39.945
		c0.385,4.436,3.998,9.82,8.326,9.82h2.525c1.307,5,5.457,8.023,10.385,8.023s9.078-3.023,10.385-8.023h19.984
		c1.307,5,5.457,8.023,10.385,8.023c4.926,0,9.078-3.023,10.385-8.023h3.756c4.33,0,7.943-5.449,8.328-9.885l3.445-39.701
		C180.03,103.769,176.177,99.386,171.267,99.386 M112.905,158.394c-1.875,0-3.395-1.562-3.395-3.49s1.52-3.49,3.395-3.49
		c1.873,0,3.395,1.562,3.395,3.49S114.778,158.394,112.905,158.394 M153.767,158.394c-1.875,0-3.395-1.562-3.395-3.49
		s1.52-3.49,3.395-3.49s3.395,1.562,3.395,3.49S155.642,158.394,153.767,158.394 M169.015,145.042
		c-0.268,2.957-2.412,5.068-5.203,5.693c-1.533-4.23-5.484-6.531-10.131-6.531c-4.727,0-8.732,2.182-10.207,8.182h-20.342
		c-1.475-6-5.482-8.182-10.205-8.182c-4.525,0-8.396,2.498-10.012,6.553c-2.23-0.887-3.859-2.984-4.09-5.533l-2.861-29.051
		c-0.363-4.02,2.838-6.787,6.92-6.787h62.072c4.082,0,7.283,2.678,6.922,6.697L169.015,145.042z"/>
</g>
</svg>
