<?xml version="1.0" encoding="iso-8859-1"?>
<!-- Generator: Adobe Illustrator 16.0.0, SVG Export Plug-In . SVG Version: 6.00 Build 0)  -->
<!DOCTYPE svg PUBLIC "-//W3C//DTD SVG 1.1//EN" "http://www.w3.org/Graphics/SVG/1.1/DTD/svg11.dtd">
<svg version="1.1" id="Layer_1" xmlns="http://www.w3.org/2000/svg" xmlns:xlink="http://www.w3.org/1999/xlink" x="0px" y="0px"
	 width="267.842px" height="255.802px" viewBox="0 0 267.842 255.802" style="enable-background:new 0 0 267.842 255.802;"
	 xml:space="preserve">
<g>
	<path style="fill:#2A5E9B;" d="M208.738,121.768c0-42.494-35.426-76.714-78.352-74.738c-38.68,1.779-69.92,33.431-71.238,72.129
		c-1.258,36.966,24.322,68.174,58.756,75.688l5.078,7.698c4.861,8.418,17.012,8.417,21.873-0.001l5.078-7.697
		C183.557,187.51,208.738,157.586,208.738,121.768"/>
	<defs>
		<filter id="Adobe_OpacityMaskFilter" filterUnits="userSpaceOnUse" x="59.104" y="46.944" width="149.635" height="161.914">
			
				<feColorMatrix  type="matrix" values="-1 0 0 0 1  0 -1 0 0 1  0 0 -1 0 1  0 0 0 1 0" color-interpolation-filters="sRGB" result="source"/>
		</filter>
	</defs>
	<mask maskUnits="userSpaceOnUse" x="59.104" y="46.944" width="149.635" height="161.914" id="SVGID_1_">
		<g style="filter:url(#Adobe_OpacityMaskFilter);">
			<g style="enable-background:new    ;">
				<g>
					<defs>
						<rect id="SVGID_122_" x="56.707" y="44.218" width="155" height="167"/>
					</defs>
					<clipPath id="SVGID_3_">
						<use xlink:href="#SVGID_122_"  style="overflow:visible;"/>
					</clipPath>
					<g style="clip-path:url(#SVGID_3_);">
						
							<image style="overflow:visible;" width="155" height="167" xlink:href="E26FC5EDD9A8D7A9.jpg"  transform="matrix(1 0 0 1 56.707 44.2178)">
						</image>
					</g>
				</g>
			</g>
		</g>
	</mask>
	<g style="opacity:0.4;mask:url(#SVGID_1_);">
		<g>
			<defs>
				<rect id="SVGID_124_" x="59.105" y="46.944" width="149.633" height="161.91"/>
			</defs>
			<clipPath id="SVGID_5_">
				<use xlink:href="#SVGID_124_"  style="overflow:visible;"/>
			</clipPath>
			<path style="clip-path:url(#SVGID_5_);" d="M208.738,121.768c0-42.494-35.426-76.714-78.352-74.738
				c-38.68,1.779-69.92,33.431-71.238,72.129c-1.258,36.966,24.322,68.174,58.756,75.688l5.078,7.698
				c4.861,8.418,17.012,8.417,21.873-0.001l5.078-7.697C183.557,187.51,208.738,157.586,208.738,121.768"/>
		</g>
	</g>
	<path style="fill:#FFFFFF;" d="M199.027,122.087c0,35.958-29.152,65.104-65.107,65.104c-35.959,0-65.104-29.146-65.104-65.104
		c0-35.959,29.145-65.104,65.104-65.104C169.875,56.982,199.027,86.128,199.027,122.087"/>
	<defs>
		<filter id="Adobe_OpacityMaskFilter_1_" filterUnits="userSpaceOnUse" x="68.816" y="56.982" width="130.211" height="130.212">
			
				<feColorMatrix  type="matrix" values="-1 0 0 0 1  0 -1 0 0 1  0 0 -1 0 1  0 0 0 1 0" color-interpolation-filters="sRGB" result="source"/>
		</filter>
	</defs>
	<mask maskUnits="userSpaceOnUse" x="68.816" y="56.982" width="130.211" height="130.212" id="SVGID_6_">
		<g style="filter:url(#Adobe_OpacityMaskFilter_1_);">
			<g style="enable-background:new    ;">
				<g>
					<defs>
						<rect id="SVGID_127_" x="66.707" y="54.747" width="135" height="135"/>
					</defs>
					<clipPath id="SVGID_8_">
						<use xlink:href="#SVGID_127_"  style="overflow:visible;"/>
					</clipPath>
					<g style="clip-path:url(#SVGID_8_);">
						
							<image style="overflow:visible;" width="135" height="135" xlink:href="E26FC5EDD9A8D7AB.jpg"  transform="matrix(1 0 0 1 66.707 54.7471)">
						</image>
					</g>
				</g>
			</g>
		</g>
	</mask>
	<g style="opacity:0.8;mask:url(#SVGID_6_);">
		<g>
			<defs>
				<rect id="SVGID_129_" x="68.816" y="56.984" width="130.209" height="130.21"/>
			</defs>
			<clipPath id="SVGID_10_">
				<use xlink:href="#SVGID_129_"  style="overflow:visible;"/>
			</clipPath>
			<path style="clip-path:url(#SVGID_10_);" d="M199.027,122.087c0,35.958-29.152,65.104-65.107,65.104
				c-35.959,0-65.104-29.146-65.104-65.104c0-35.959,29.145-65.104,65.104-65.104C169.875,56.982,199.027,86.128,199.027,122.087"/>
		</g>
	</g>
</g>
<g>
	<path style="fill:#2A5E9B;" d="M124.229,100.425c-11.574,4.42-20.049,14.758-22.119,26.98c-0.191,1.131,0.57,2.205,1.703,2.396
		c0.209,0.037,0.418,0.039,0.619,0.012c0.881-0.115,1.621-0.793,1.777-1.713c1.826-10.779,9.299-19.896,19.502-23.793
		c1.072-0.41,1.611-1.611,1.201-2.684S125.299,100.015,124.229,100.425"/>
	<path style="fill:#2A5E9B;" d="M104.162,130.61c-0.158,0-0.318-0.012-0.479-0.039c-1.557-0.264-2.605-1.742-2.342-3.297
		c2.115-12.492,10.779-23.061,22.607-27.58v0.002c0.713-0.273,1.488-0.252,2.186,0.061c0.699,0.311,1.232,0.877,1.506,1.588
		c0.271,0.715,0.25,1.492-0.061,2.188c-0.312,0.697-0.877,1.232-1.59,1.504c-9.947,3.801-17.232,12.688-19.012,23.193
		c-0.211,1.246-1.193,2.193-2.445,2.357C104.41,130.603,104.287,130.61,104.162,130.61 M124.969,101.065
		c-0.156,0-0.312,0.029-0.463,0.086v0.002c-11.314,4.322-19.604,14.432-21.627,26.381c-0.119,0.707,0.357,1.379,1.064,1.498
		c0.129,0.023,0.26,0.027,0.385,0.01c0.57-0.076,1.016-0.508,1.111-1.072c1.873-11.049,9.533-20.395,19.994-24.391
		c0.67-0.256,1.006-1.008,0.748-1.678c-0.123-0.324-0.365-0.58-0.682-0.721C125.33,101.104,125.15,101.065,124.969,101.065"/>
	<path style="fill:#2A5E9B;" d="M183.182,144.778H84.658c-2.662,0-4.84-2.178-4.84-4.84s2.178-4.84,4.84-4.84h98.523
		c2.662,0,4.842,2.178,4.842,4.84S185.844,144.778,183.182,144.778"/>
	<path style="fill:#2A5E9B;" d="M177.762,129.435c-0.043-0.418-1.236-10.355-6.908-20.379
		c-7.289-12.883-20.477-20.016-33.477-20.762v-1.951c2-1.182,6.152-4.508,6.152-8.436c0-4.918-3.949-8.904-8.867-8.904
		c-4.916,0-9.131,3.986-9.131,8.904c0,3.928,1.846,7.254,5.846,8.436v1.965c-19,1.01-28.576,11.639-34.086,20.631
		c-6.133,10.014-7.336,19.951-7.395,20.369c-0.287,2.133,1.305,4.09,3.434,4.383c2.131,0.301,4.145-1.199,4.441-3.328
		c0.195-1.402,5.176-34.344,37.264-34.344c30.959,0,34.811,32.818,34.957,34.209c0.205,2.008,1.904,3.504,3.881,3.504
		c0.133,0,0.27-0.006,0.404-0.021C176.42,133.491,177.98,131.577,177.762,129.435 M130.969,77.517c0-2.117,1.717-3.834,3.834-3.834
		s3.834,1.717,3.834,3.834s-1.717,3.834-3.834,3.834S130.969,79.634,130.969,77.517"/>
</g>
</svg>
