<?xml version="1.0" encoding="iso-8859-1"?>
<!-- Generator: Adobe Illustrator 16.0.0, SVG Export Plug-In . SVG Version: 6.00 Build 0)  -->
<!DOCTYPE svg PUBLIC "-//W3C//DTD SVG 1.1//EN" "http://www.w3.org/Graphics/SVG/1.1/DTD/svg11.dtd">
<svg version="1.1" id="Layer_1" xmlns="http://www.w3.org/2000/svg" xmlns:xlink="http://www.w3.org/1999/xlink" x="0px" y="0px"
	 width="267.842px" height="255.802px" viewBox="0 0 267.842 255.802" style="enable-background:new 0 0 267.842 255.802;"
	 xml:space="preserve">
<g>
	<path style="fill:#2A5E9B;" d="M208.738,121.768c0-42.494-35.426-76.714-78.352-74.738c-38.68,1.779-69.92,33.431-71.238,72.129
		c-1.258,36.966,24.322,68.174,58.756,75.688l5.078,7.698c4.861,8.418,17.012,8.417,21.873-0.001l5.078-7.697
		C183.557,187.51,208.738,157.586,208.738,121.768"/>
	<defs>
		<filter id="Adobe_OpacityMaskFilter" filterUnits="userSpaceOnUse" x="59.104" y="46.944" width="149.635" height="161.914">
			
				<feColorMatrix  type="matrix" values="-1 0 0 0 1  0 -1 0 0 1  0 0 -1 0 1  0 0 0 1 0" color-interpolation-filters="sRGB" result="source"/>
		</filter>
	</defs>
	<mask maskUnits="userSpaceOnUse" x="59.104" y="46.944" width="149.635" height="161.914" id="SVGID_1_">
		<g style="filter:url(#Adobe_OpacityMaskFilter);">
			<g style="enable-background:new    ;">
				<g>
					<defs>
						<rect id="SVGID_142_" x="56.707" y="44.218" width="155" height="167"/>
					</defs>
					<clipPath id="SVGID_3_">
						<use xlink:href="#SVGID_142_"  style="overflow:visible;"/>
					</clipPath>
					<g style="clip-path:url(#SVGID_3_);">
						
							<image style="overflow:visible;" width="155" height="167" xlink:href="E27830FA93B72BF0.jpg"  transform="matrix(1 0 0 1 56.707 44.2178)">
						</image>
					</g>
				</g>
			</g>
		</g>
	</mask>
	<g style="opacity:0.4;mask:url(#SVGID_1_);">
		<g>
			<defs>
				<rect id="SVGID_144_" x="59.105" y="46.944" width="149.633" height="161.91"/>
			</defs>
			<clipPath id="SVGID_5_">
				<use xlink:href="#SVGID_144_"  style="overflow:visible;"/>
			</clipPath>
			<path style="clip-path:url(#SVGID_5_);" d="M208.738,121.768c0-42.494-35.426-76.714-78.352-74.738
				c-38.68,1.779-69.92,33.431-71.238,72.129c-1.258,36.966,24.322,68.174,58.756,75.688l5.078,7.698
				c4.861,8.418,17.012,8.417,21.873-0.001l5.078-7.697C183.557,187.51,208.738,157.586,208.738,121.768"/>
		</g>
	</g>
	<path style="fill:#FFFFFF;" d="M199.027,122.087c0,35.958-29.152,65.104-65.107,65.104c-35.959,0-65.104-29.146-65.104-65.104
		c0-35.959,29.145-65.104,65.104-65.104C169.875,56.982,199.027,86.128,199.027,122.087"/>
	<defs>
		<filter id="Adobe_OpacityMaskFilter_1_" filterUnits="userSpaceOnUse" x="68.816" y="56.982" width="130.211" height="130.212">
			
				<feColorMatrix  type="matrix" values="-1 0 0 0 1  0 -1 0 0 1  0 0 -1 0 1  0 0 0 1 0" color-interpolation-filters="sRGB" result="source"/>
		</filter>
	</defs>
	<mask maskUnits="userSpaceOnUse" x="68.816" y="56.982" width="130.211" height="130.212" id="SVGID_6_">
		<g style="filter:url(#Adobe_OpacityMaskFilter_1_);">
			<g style="enable-background:new    ;">
				<g>
					<defs>
						<rect id="SVGID_147_" x="66.707" y="54.747" width="135" height="135"/>
					</defs>
					<clipPath id="SVGID_8_">
						<use xlink:href="#SVGID_147_"  style="overflow:visible;"/>
					</clipPath>
					<g style="clip-path:url(#SVGID_8_);">
						
							<image style="overflow:visible;" width="135" height="135" xlink:href="E27830FA93B72BF1.jpg"  transform="matrix(1 0 0 1 66.707 54.7471)">
						</image>
					</g>
				</g>
			</g>
		</g>
	</mask>
	<g style="opacity:0.8;mask:url(#SVGID_6_);">
		<g>
			<defs>
				<rect id="SVGID_149_" x="68.816" y="56.984" width="130.209" height="130.21"/>
			</defs>
			<clipPath id="SVGID_10_">
				<use xlink:href="#SVGID_149_"  style="overflow:visible;"/>
			</clipPath>
			<path style="clip-path:url(#SVGID_10_);" d="M199.027,122.087c0,35.958-29.152,65.104-65.107,65.104
				c-35.959,0-65.104-29.146-65.104-65.104c0-35.959,29.145-65.104,65.104-65.104C169.875,56.982,199.027,86.128,199.027,122.087"/>
		</g>
	</g>
</g>
<g>
	<path style="fill:#2A5E9B;" d="M171.613,141.747l-33.295,9.891c-1.83,0.545-3.754-0.498-4.299-2.328l-5.564-18.729
		c-0.543-1.83,0.498-3.754,2.33-4.299l33.295-9.893c1.83-0.543,3.756,0.5,4.299,2.33l5.564,18.729
		C174.486,139.278,173.443,141.202,171.613,141.747"/>
	<path style="fill:#245086;" d="M150.197,127.56l-2.221,0.66c-0.729,0.217-1.494-0.197-1.709-0.926l-1.531-5.156l4.855-1.443
		l1.531,5.158C151.34,126.579,150.924,127.345,150.197,127.56"/>
	<path style="fill:#245086;" d="M157.125,146.052l-4.855,1.441l-1.975-6.645c-0.148-0.502,0.137-1.029,0.637-1.178l3.041-0.904
		c0.502-0.148,1.029,0.137,1.178,0.639L157.125,146.052z"/>
	<path style="fill:#2A5E9B;" d="M154.65,116.493l-25.123,7.465c-1.676,0.498-3.434-0.455-3.932-2.129l-4.084-13.746
		c-0.498-1.672,0.455-3.432,2.129-3.93l25.125-7.465c1.672-0.496,3.434,0.457,3.93,2.131l4.084,13.744
		C157.277,114.237,156.322,115.997,154.65,116.493"/>
	<path style="fill:#245086;" d="M138.256,105.315l-1.52,0.451c-0.629,0.186-1.289-0.172-1.475-0.799l-1.164-3.922l3.791-1.125
		l1.166,3.92C139.24,104.47,138.883,105.128,138.256,105.315"/>
	<path style="fill:#245086;" d="M143.773,119.726l-3.793,1.127l-1.451-4.887c-0.166-0.559,0.152-1.146,0.711-1.312l1.768-0.525
		c0.559-0.168,1.146,0.152,1.312,0.711L143.773,119.726z"/>
	<path style="fill:#245086;" d="M118.67,158.03c-1.137,0-2-0.922-2-2.061v-35.311c0-1.137,0.863-2.061,2-2.061s2,0.924,2,2.061
		v35.311C120.67,157.108,119.807,158.03,118.67,158.03"/>
	<path style="fill:#2A5E9B;" d="M131.465,160.896c-0.436,0-0.865-0.109-1.252-0.32c-0.613-0.336-1.066-0.902-1.258-1.574
		c-2.365-8.271-4.977-16.703-7.502-24.857c-3.49-11.268-7.1-22.916-10.16-34.477c-0.369-1.393,0.461-2.822,1.854-3.191
		c1.395-0.369,2.822,0.461,3.191,1.855c3.035,11.455,6.627,23.053,10.102,34.266c2.277,7.355,4.625,14.934,6.807,22.439
		c4.877-1.42,9.873-2.76,14.725-4.061c5.648-1.518,11.49-3.084,17.076-4.76c1.381-0.416,2.834,0.371,3.25,1.75
		c0.414,1.381-0.371,2.836-1.75,3.25c-5.66,1.699-11.539,3.275-17.223,4.801c-5.66,1.518-11.514,3.088-17.109,4.768
		C131.969,160.858,131.717,160.896,131.465,160.896"/>
	<path style="fill:#245086;" d="M114.021,102.597c-1.271,0.002-2.424-0.867-2.734-2.156c-1.234-5.139-2.875-8.129-5.162-9.408
		c-2.041-1.143-4.881-1.098-8.686,0.139c-1.473,0.482-3.064-0.328-3.547-1.807c-0.479-1.477,0.33-3.064,1.809-3.545
		c5.379-1.748,9.689-1.65,13.174,0.301c4.93,2.76,6.861,8.744,7.885,13.004c0.363,1.512-0.568,3.031-2.078,3.395
		C114.461,102.571,114.238,102.597,114.021,102.597"/>
	<path style="fill:#2A5E9B;" d="M113.582,159.974c0-6.213,5.037-11.25,11.248-11.25c6.213,0,11.25,5.037,11.25,11.25
		c0,6.211-5.037,11.25-11.25,11.25C118.619,171.224,113.582,166.185,113.582,159.974"/>
	<path style="fill:#245086;" d="M120.336,159.974c0-2.484,2.014-4.496,4.494-4.496c2.484,0,4.498,2.012,4.498,4.496
		c0,2.482-2.014,4.496-4.498,4.496C122.35,164.47,120.336,162.456,120.336,159.974"/>
</g>
</svg>
