<?xml version="1.0" encoding="iso-8859-1"?>
<!-- Generator: Adobe Illustrator 16.0.0, SVG Export Plug-In . SVG Version: 6.00 Build 0)  -->
<!DOCTYPE svg PUBLIC "-//W3C//DTD SVG 1.1//EN" "http://www.w3.org/Graphics/SVG/1.1/DTD/svg11.dtd">
<svg version="1.1" id="Layer_1" xmlns="http://www.w3.org/2000/svg" xmlns:xlink="http://www.w3.org/1999/xlink" x="0px" y="0px"
	 width="267.842px" height="255.802px" viewBox="0 0 267.842 255.802" style="enable-background:new 0 0 267.842 255.802;"
	 xml:space="preserve">
<g>
	<path style="fill:#2A5E9B;" d="M208.738,121.768c0-42.494-35.426-76.714-78.352-74.738c-38.68,1.779-69.92,33.431-71.238,72.129
		c-1.258,36.966,24.322,68.174,58.756,75.688l5.078,7.698c4.861,8.418,17.012,8.417,21.873-0.001l5.078-7.697
		C183.557,187.51,208.738,157.586,208.738,121.768"/>
	<defs>
		<filter id="Adobe_OpacityMaskFilter" filterUnits="userSpaceOnUse" x="59.104" y="46.944" width="149.634" height="161.914">
			
				<feColorMatrix  type="matrix" values="-1 0 0 0 1  0 -1 0 0 1  0 0 -1 0 1  0 0 0 1 0" color-interpolation-filters="sRGB" result="source"/>
		</filter>
	</defs>
	<mask maskUnits="userSpaceOnUse" x="59.104" y="46.944" width="149.634" height="161.914" id="SVGID_1_">
		<g style="filter:url(#Adobe_OpacityMaskFilter);">
			<g style="enable-background:new    ;">
				<g>
					<defs>
						<rect id="SVGID_92_" x="56.707" y="44.218" width="155" height="167"/>
					</defs>
					<clipPath id="SVGID_3_">
						<use xlink:href="#SVGID_92_"  style="overflow:visible;"/>
					</clipPath>
					<g style="clip-path:url(#SVGID_3_);">
						
							<image style="overflow:visible;" width="155" height="167" xlink:href="E159F949DDCFFA3E.jpg"  transform="matrix(1 0 0 1 56.707 44.2178)">
						</image>
					</g>
				</g>
			</g>
		</g>
	</mask>
	<g style="opacity:0.4;mask:url(#SVGID_1_);">
		<g>
			<defs>
				<rect id="SVGID_94_" x="59.105" y="46.944" width="149.633" height="161.91"/>
			</defs>
			<clipPath id="SVGID_5_">
				<use xlink:href="#SVGID_94_"  style="overflow:visible;"/>
			</clipPath>
			<path style="clip-path:url(#SVGID_5_);" d="M208.738,121.768c0-42.494-35.426-76.714-78.352-74.738
				c-38.68,1.779-69.92,33.431-71.238,72.129c-1.258,36.966,24.322,68.174,58.756,75.688l5.078,7.698
				c4.861,8.418,17.012,8.417,21.873-0.001l5.078-7.697C183.557,187.51,208.738,157.586,208.738,121.768"/>
		</g>
	</g>
	<path style="fill:#FFFFFF;" d="M199.027,122.087c0,35.958-29.152,65.104-65.107,65.104c-35.959,0-65.104-29.146-65.104-65.104
		c0-35.959,29.145-65.104,65.104-65.104C169.875,56.982,199.027,86.128,199.027,122.087"/>
	<defs>
		<filter id="Adobe_OpacityMaskFilter_1_" filterUnits="userSpaceOnUse" x="68.816" y="56.982" width="130.211" height="130.212">
			
				<feColorMatrix  type="matrix" values="-1 0 0 0 1  0 -1 0 0 1  0 0 -1 0 1  0 0 0 1 0" color-interpolation-filters="sRGB" result="source"/>
		</filter>
	</defs>
	<mask maskUnits="userSpaceOnUse" x="68.816" y="56.982" width="130.211" height="130.212" id="SVGID_6_">
		<g style="filter:url(#Adobe_OpacityMaskFilter_1_);">
			<g style="enable-background:new    ;">
				<g>
					<defs>
						<rect id="SVGID_97_" x="66.707" y="54.747" width="135" height="135"/>
					</defs>
					<clipPath id="SVGID_8_">
						<use xlink:href="#SVGID_97_"  style="overflow:visible;"/>
					</clipPath>
					<g style="clip-path:url(#SVGID_8_);">
						
							<image style="overflow:visible;" width="135" height="135" xlink:href="E159F949DDCFFA42.jpg"  transform="matrix(1 0 0 1 66.707 54.7471)">
						</image>
					</g>
				</g>
			</g>
		</g>
	</mask>
	<g style="opacity:0.8;mask:url(#SVGID_6_);">
		<g>
			<defs>
				<rect id="SVGID_99_" x="68.816" y="56.984" width="130.209" height="130.21"/>
			</defs>
			<clipPath id="SVGID_10_">
				<use xlink:href="#SVGID_99_"  style="overflow:visible;"/>
			</clipPath>
			<path style="clip-path:url(#SVGID_10_);" d="M199.027,122.087c0,35.958-29.152,65.104-65.107,65.104
				c-35.959,0-65.104-29.146-65.104-65.104c0-35.959,29.145-65.104,65.104-65.104C169.875,56.982,199.027,86.128,199.027,122.087"/>
		</g>
	</g>
</g>
<g>
	<path style="fill:#2A5E9B;" d="M103.917,85.028c3.004-1.396,6.028-1.859,9.171-1.084c6.388,1.58,10.38,6.221,11.169,12.746
		c0.233,1.934-0.041,3.77-0.619,5.576c-0.172,0.539-0.038,0.822,0.3,1.158c3.457,3.447,6.909,6.896,10.36,10.348
		c5.968,5.971,11.938,11.939,17.895,17.922c0.483,0.484,0.863,0.66,1.612,0.436c7.471-2.254,15.421,1.949,17.775,9.379
		c1.112,3.514,0.854,6.959-0.864,10.604c-1.354-1.432-2.579-2.77-3.848-4.064c-1.783-1.818-3.592-3.611-5.402-5.402
		c-2.117-2.094-4.971-2.166-6.968-0.195c-1.892,1.865-1.829,4.855,0.2,6.918c2.86,2.904,5.759,5.773,8.64,8.658
		c0.209,0.211,0.409,0.43,0.666,0.699c-2.722,1.316-5.519,1.729-8.424,1.242c-7.818-1.305-13.086-8.695-11.805-16.527
		c0.106-0.646,0.217-1.316,0.474-1.91c0.246-0.566,0.048-0.889-0.313-1.248c-9.47-9.465-18.937-18.932-28.398-28.404
		c-0.375-0.375-0.69-0.467-1.25-0.283c-8.579,2.832-17.953-3.508-18.551-12.518c-0.175-2.629,0.229-4.771,1.348-7.154
		c0.35,0.08,0.527,0.381,0.756,0.607c2.888,2.879,5.756,5.777,8.662,8.639c1.863,1.834,4.439,2.047,6.374,0.602
		c2.385-1.783,2.588-5.111,0.405-7.322c-2.885-2.922-5.799-5.812-8.701-8.717C104.375,85.524,104.179,85.308,103.917,85.028"/>
	<path style="fill:#2A5E9B;" d="M121.133,124.39c3.468,3.479,6.827,6.85,10.229,10.262c-4.513,4.502-9.051,9.025-13.587,13.555
		c-3.201,3.195-6.402,6.393-9.6,9.592c-2.234,2.234-4.826,3.01-7.883,1.977c-4.459-1.51-6.217-7.416-3.198-11.031
		c2.19-2.623,4.758-4.898,7.164-7.322c5.509-5.551,11.06-11.061,16.589-16.59C120.97,124.708,121.042,124.534,121.133,124.39"/>
	<path style="fill:#2A5E9B;" d="M172.228,88.622c-1.407,2.725-2.899,5.42-4.201,8.207c-0.725,1.547-1.735,2.58-3.284,3.297
		c-2.47,1.143-4.846,2.484-7.283,3.699c-1.388,0.693-2.282,1.922-3.341,2.963c-3.224,3.17-6.397,6.393-9.594,9.594
		c-0.125,0.125-0.274,0.227-0.4,0.328c-1.674-1.67-3.326-3.318-5.09-5.078c1.513-1.479,3.039-2.951,4.543-4.445
		c2.528-2.514,5.06-5.023,7.554-7.57c1.021-1.043,1.442-2.469,2.121-3.727c1.166-2.158,2.274-4.35,3.4-6.531
		c0.112-0.215,0.219-0.41,0.45-0.529c3.375-1.74,6.747-3.486,10.1-5.219C168.89,85.292,170.539,86.938,172.228,88.622"/>
</g>
</svg>
