<?xml version="1.0" encoding="iso-8859-1"?>
<!-- Generator: Adobe Illustrator 16.0.0, SVG Export Plug-In . SVG Version: 6.00 Build 0)  -->
<!DOCTYPE svg PUBLIC "-//W3C//DTD SVG 1.1//EN" "http://www.w3.org/Graphics/SVG/1.1/DTD/svg11.dtd">
<svg version="1.1" id="Layer_1" xmlns="http://www.w3.org/2000/svg" xmlns:xlink="http://www.w3.org/1999/xlink" x="0px" y="0px"
	 width="267.842px" height="255.802px" viewBox="0 0 267.842 255.802" style="enable-background:new 0 0 267.842 255.802;"
	 xml:space="preserve">
<g>
	<path style="fill:#2A5E9B;" d="M208.737,121.768c0-42.494-35.426-76.714-78.352-74.738c-38.68,1.779-69.92,33.431-71.237,72.129
		c-1.259,36.966,24.321,68.174,58.755,75.688l5.078,7.698c4.861,8.418,17.012,8.417,21.873-0.001l5.078-7.697
		C183.556,187.51,208.737,157.586,208.737,121.768"/>
	<defs>
		<filter id="Adobe_OpacityMaskFilter" filterUnits="userSpaceOnUse" x="59.104" y="46.944" width="149.634" height="161.914">
			
				<feColorMatrix  type="matrix" values="-1 0 0 0 1  0 -1 0 0 1  0 0 -1 0 1  0 0 0 1 0" color-interpolation-filters="sRGB" result="source"/>
		</filter>
	</defs>
	<mask maskUnits="userSpaceOnUse" x="59.104" y="46.944" width="149.634" height="161.914" id="SVGID_1_">
		<g style="filter:url(#Adobe_OpacityMaskFilter);">
			<g style="enable-background:new    ;">
				<g>
					<defs>
						<rect id="SVGID_12_" x="56.706" y="44.218" width="155" height="167"/>
					</defs>
					<clipPath id="SVGID_3_">
						<use xlink:href="#SVGID_12_"  style="overflow:visible;"/>
					</clipPath>
					<g style="clip-path:url(#SVGID_3_);">
						
							<image style="overflow:visible;" width="155" height="167" xlink:href="E162645697DE4E89.jpg"  transform="matrix(1 0 0 1 56.7061 44.2178)">
						</image>
					</g>
				</g>
			</g>
		</g>
	</mask>
	<g style="opacity:0.4;mask:url(#SVGID_1_);">
		<g>
			<defs>
				<rect id="SVGID_14_" x="59.104" y="46.944" width="149.633" height="161.91"/>
			</defs>
			<clipPath id="SVGID_5_">
				<use xlink:href="#SVGID_14_"  style="overflow:visible;"/>
			</clipPath>
			<path style="clip-path:url(#SVGID_5_);" d="M208.737,121.768c0-42.494-35.426-76.714-78.352-74.738
				c-38.68,1.779-69.92,33.431-71.237,72.129c-1.259,36.966,24.321,68.174,58.755,75.688l5.078,7.698
				c4.861,8.418,17.012,8.417,21.873-0.001l5.078-7.697C183.556,187.51,208.737,157.586,208.737,121.768"/>
		</g>
	</g>
	<path style="fill:#FFFFFF;" d="M199.026,122.087c0,35.958-29.152,65.104-65.107,65.104c-35.958,0-65.104-29.146-65.104-65.104
		c0-35.959,29.146-65.104,65.104-65.104C169.874,56.982,199.026,86.128,199.026,122.087"/>
	<defs>
		<filter id="Adobe_OpacityMaskFilter_1_" filterUnits="userSpaceOnUse" x="68.815" y="56.982" width="130.211" height="130.212">
			
				<feColorMatrix  type="matrix" values="-1 0 0 0 1  0 -1 0 0 1  0 0 -1 0 1  0 0 0 1 0" color-interpolation-filters="sRGB" result="source"/>
		</filter>
	</defs>
	<mask maskUnits="userSpaceOnUse" x="68.815" y="56.982" width="130.211" height="130.212" id="SVGID_6_">
		<g style="filter:url(#Adobe_OpacityMaskFilter_1_);">
			<g style="enable-background:new    ;">
				<g>
					<defs>
						<rect id="SVGID_17_" x="66.706" y="54.747" width="135" height="135"/>
					</defs>
					<clipPath id="SVGID_8_">
						<use xlink:href="#SVGID_17_"  style="overflow:visible;"/>
					</clipPath>
					<g style="clip-path:url(#SVGID_8_);">
						
							<image style="overflow:visible;" width="135" height="135" xlink:href="E162645697DE4E8B.jpg"  transform="matrix(1 0 0 1 66.7061 54.7471)">
						</image>
					</g>
				</g>
			</g>
		</g>
	</mask>
	<g style="opacity:0.8;mask:url(#SVGID_6_);">
		<g>
			<defs>
				<rect id="SVGID_19_" x="68.815" y="56.984" width="130.209" height="130.21"/>
			</defs>
			<clipPath id="SVGID_10_">
				<use xlink:href="#SVGID_19_"  style="overflow:visible;"/>
			</clipPath>
			<path style="clip-path:url(#SVGID_10_);" d="M199.026,122.087c0,35.958-29.152,65.104-65.107,65.104
				c-35.958,0-65.104-29.146-65.104-65.104c0-35.959,29.146-65.104,65.104-65.104C169.874,56.982,199.026,86.128,199.026,122.087"/>
		</g>
	</g>
</g>
<g>
	<path style="fill:#2A5E9B;" d="M150.294,128.809c5.559,1.445,10.742,3.463,15.342,6.77c3.766,2.707,6.854,5.969,8.25,10.541
		c0.4,1.314,0.605,2.67,0.545,4.037c-0.062,1.385-0.939,2.311-2,3.072c-2.48,1.781-5.348,2.652-8.25,3.367
		c-6.303,1.553-12.732,2.207-19.201,2.596c-6.504,0.391-13.004,0.463-19.508,0.145c-7.281-0.354-14.533-0.965-21.641-2.717
		c-2.305-0.57-4.6-1.227-6.684-2.373c-4.033-2.221-4.221-3.584-3.135-7.957c0.805-3.24,2.756-5.852,5.152-8.125
		c2.861-2.711,6.176-4.723,9.746-6.355c0.701-0.32,1.086-0.186,1.584,0.305c2.381,2.338,5.09,4.217,8.064,5.73
		c2.326,1.186,4.76,2.07,7.285,2.701c0.516,0.129,0.828,0.328,1.105,0.795c2.098,3.553,6.215,4.93,10.145,3.432
		c3.398-1.297,5.602-5.197,4.895-8.941c-0.594-3.15-2.473-5.314-5.539-6.336c-3.061-1.021-5.799-0.311-8.098,1.861
		c-0.656,0.621-1.166,0.621-1.881,0.389c-4.924-1.598-9.055-4.371-12.23-8.463c-4.982-6.422-6.43-13.717-4.586-21.529
		c2.096-8.887,7.684-14.934,16.279-17.914c7.309-2.533,14.463-1.723,21.08,2.342c7.004,4.305,10.934,10.68,11.867,18.826
		c0.479,4.193-0.189,8.295-1.621,12.268c-1.449,4.018-3.564,7.637-6.404,10.83C150.688,128.295,150.538,128.502,150.294,128.809"/>
	<path style="fill:#2A5E9B;" d="M164.321,107.486c0.414,0.006,0.75-0.275,0.74-0.689c-0.002-0.031-0.002-0.121-0.002-0.145
		c-0.18-5.75-1.756-11.086-4.918-15.891c-5.127-7.795-12.311-12.461-21.545-13.988c-3.818-0.633-7.594-0.459-11.334,0.381
		c-6.389,1.434-11.861,4.533-16.24,9.426c-6.969,7.787-9.434,16.885-7.533,27.121c1.082,5.828,3.801,10.889,7.887,15.178
		c4.297,4.51,9.477,7.543,15.58,8.898c1.125,0.25,1.863,0.584,2.389,1.793c1.193,2.748,4.654,3.711,7.203,2.225
		c2.713-1.58,3.494-5.051,1.713-7.605c-1.695-2.432-5.115-2.92-7.506-1.111c-0.674,0.51-1.092,1.207-1.525,1.873
		c-0.141,0.217-0.402,0.328-0.656,0.277c-13.736-2.801-23.041-14.637-22.83-27.9c0.227-14.291,10.502-25.875,24.342-27.76
		c6.967-0.951,13.498,0.445,19.344,4.375c8.186,5.5,12.336,13.334,12.828,23.043c0.014,0.277,0.307,0.498,0.586,0.498
		L164.321,107.486z"/>
</g>
</svg>
