<?xml version="1.0" encoding="iso-8859-1"?>
<!-- Generator: Adobe Illustrator 16.0.0, SVG Export Plug-In . SVG Version: 6.00 Build 0)  -->
<!DOCTYPE svg PUBLIC "-//W3C//DTD SVG 1.1//EN" "http://www.w3.org/Graphics/SVG/1.1/DTD/svg11.dtd">
<svg version="1.1" id="Layer_1" xmlns="http://www.w3.org/2000/svg" xmlns:xlink="http://www.w3.org/1999/xlink" x="0px" y="0px"
	 width="267.842px" height="255.802px" viewBox="0 0 267.842 255.802" style="enable-background:new 0 0 267.842 255.802;"
	 xml:space="preserve">
<g>
	<path style="fill:#2A5E9B;" d="M208.738,121.768c0-42.494-35.426-76.714-78.352-74.738c-38.68,1.779-69.92,33.431-71.238,72.129
		c-1.258,36.966,24.322,68.174,58.756,75.688l5.078,7.698c4.861,8.418,17.012,8.417,21.873-0.001l5.078-7.697
		C183.557,187.51,208.738,157.586,208.738,121.768"/>
	<defs>
		<filter id="Adobe_OpacityMaskFilter" filterUnits="userSpaceOnUse" x="59.104" y="46.944" width="149.635" height="161.914">
			
				<feColorMatrix  type="matrix" values="-1 0 0 0 1  0 -1 0 0 1  0 0 -1 0 1  0 0 0 1 0" color-interpolation-filters="sRGB" result="source"/>
		</filter>
	</defs>
	<mask maskUnits="userSpaceOnUse" x="59.104" y="46.944" width="149.635" height="161.914" id="SVGID_1_">
		<g style="filter:url(#Adobe_OpacityMaskFilter);">
			<g style="enable-background:new    ;">
				<g>
					<defs>
						<rect id="SVGID_22_" x="56.707" y="44.218" width="155" height="167"/>
					</defs>
					<clipPath id="SVGID_3_">
						<use xlink:href="#SVGID_22_"  style="overflow:visible;"/>
					</clipPath>
					<g style="clip-path:url(#SVGID_3_);">
						
							<image style="overflow:visible;" width="155" height="167" xlink:href="E16ACF6351ECA2D0.jpg"  transform="matrix(1 0 0 1 56.707 44.2178)">
						</image>
					</g>
				</g>
			</g>
		</g>
	</mask>
	<g style="opacity:0.4;mask:url(#SVGID_1_);">
		<g>
			<defs>
				<rect id="SVGID_24_" x="59.105" y="46.944" width="149.633" height="161.91"/>
			</defs>
			<clipPath id="SVGID_5_">
				<use xlink:href="#SVGID_24_"  style="overflow:visible;"/>
			</clipPath>
			<path style="clip-path:url(#SVGID_5_);" d="M208.738,121.768c0-42.494-35.426-76.714-78.352-74.738
				c-38.68,1.779-69.92,33.431-71.238,72.129c-1.258,36.966,24.322,68.174,58.756,75.688l5.078,7.698
				c4.861,8.418,17.012,8.417,21.873-0.001l5.078-7.697C183.557,187.51,208.738,157.586,208.738,121.768"/>
		</g>
	</g>
	<path style="fill:#FFFFFF;" d="M199.027,122.087c0,35.958-29.152,65.104-65.107,65.104c-35.959,0-65.104-29.146-65.104-65.104
		c0-35.959,29.145-65.104,65.104-65.104C169.875,56.982,199.027,86.128,199.027,122.087"/>
	<defs>
		<filter id="Adobe_OpacityMaskFilter_1_" filterUnits="userSpaceOnUse" x="68.816" y="56.982" width="130.211" height="130.212">
			
				<feColorMatrix  type="matrix" values="-1 0 0 0 1  0 -1 0 0 1  0 0 -1 0 1  0 0 0 1 0" color-interpolation-filters="sRGB" result="source"/>
		</filter>
	</defs>
	<mask maskUnits="userSpaceOnUse" x="68.816" y="56.982" width="130.211" height="130.212" id="SVGID_6_">
		<g style="filter:url(#Adobe_OpacityMaskFilter_1_);">
			<g style="enable-background:new    ;">
				<g>
					<defs>
						<rect id="SVGID_27_" x="66.707" y="54.747" width="135" height="135"/>
					</defs>
					<clipPath id="SVGID_8_">
						<use xlink:href="#SVGID_27_"  style="overflow:visible;"/>
					</clipPath>
					<g style="clip-path:url(#SVGID_8_);">
						
							<image style="overflow:visible;" width="135" height="135" xlink:href="E16ACF6351ECA2D1.jpg"  transform="matrix(1 0 0 1 66.707 54.7471)">
						</image>
					</g>
				</g>
			</g>
		</g>
	</mask>
	<g style="opacity:0.8;mask:url(#SVGID_6_);">
		<g>
			<defs>
				<rect id="SVGID_29_" x="68.816" y="56.984" width="130.209" height="130.21"/>
			</defs>
			<clipPath id="SVGID_10_">
				<use xlink:href="#SVGID_29_"  style="overflow:visible;"/>
			</clipPath>
			<path style="clip-path:url(#SVGID_10_);" d="M199.027,122.087c0,35.958-29.152,65.104-65.107,65.104
				c-35.959,0-65.104-29.146-65.104-65.104c0-35.959,29.145-65.104,65.104-65.104C169.875,56.982,199.027,86.128,199.027,122.087"/>
		</g>
	</g>
</g>
<g>
	<path style="fill:#2A5E9B;" d="M125.294,134.361l2.607-2.174c0.059,0.109,0.145,0.25,0.26,0.424
		c0.113,0.174,0.369,0.48,0.764,0.924c0.396,0.441,0.818,0.834,1.268,1.176c0.449,0.34,1.037,0.648,1.762,0.924
		s1.477,0.412,2.258,0.412c1.318,0,2.387-0.361,3.209-1.086c0.82-0.723,1.23-1.648,1.23-2.773c0-0.586-0.143-1.119-0.432-1.605
		c-0.287-0.484-0.674-0.906-1.16-1.264c-0.484-0.359-1.039-0.703-1.662-1.033c-0.623-0.328-1.281-0.652-1.979-0.969
		c-0.695-0.316-1.389-0.648-2.084-0.996s-1.355-0.742-1.979-1.186c-0.623-0.441-1.178-0.93-1.662-1.461
		c-0.486-0.533-0.873-1.174-1.16-1.922s-0.432-1.57-0.432-2.467c0-1.709,0.625-3.176,1.879-4.398
		c1.252-1.222,2.887-1.972,4.898-2.249v-3.434h2.68v3.397c0.707,0.086,1.393,0.229,2.059,0.435c0.666,0.204,1.312,0.487,1.941,0.848
		c0.629,0.362,1.133,0.84,1.51,1.436c0.377,0.596,0.566,1.268,0.566,2.014v2.148h-3.379v-1.221c0-0.67-0.375-1.229-1.125-1.678
		c-0.748-0.449-1.65-0.674-2.705-0.674c-1.379,0-2.484,0.318-3.316,0.951c-0.834,0.635-1.25,1.43-1.25,2.387
		c0,0.73,0.23,1.383,0.691,1.957s1.062,1.059,1.799,1.453s1.549,0.781,2.436,1.158s1.771,0.799,2.652,1.266
		c0.883,0.467,1.691,0.99,2.422,1.57c0.734,0.58,1.33,1.334,1.789,2.262c0.459,0.926,0.688,1.982,0.688,3.168
		c0,1.807-0.619,3.396-1.859,4.768s-2.879,2.184-4.918,2.434v3.434h-2.68v-3.396c-0.982-0.121-1.914-0.371-2.795-0.754
		c-0.881-0.385-1.6-0.807-2.158-1.268c-0.557-0.461-1.045-0.918-1.465-1.367c-0.42-0.447-0.719-0.822-0.898-1.123L125.294,134.361z"
		/>
	<path style="fill:#2A5E9B;" d="M173.806,96.875h-16.723c-0.795,0-1.521-0.454-1.865-1.173c-0.373-0.784-0.814-1.595-1.342-2.407
		c-2.717-4.203-8.191-9.264-18.838-9.509c-11.785-0.274-17.902,4.793-20.945,9.09c-0.605,0.853-1.113,1.708-1.541,2.538
		c-0.467,0.905-1.414,1.461-2.434,1.461H94.034c-1.873,0-3.393,1.519-3.393,3.393v35.814c0,0.865,0.701,1.564,1.566,1.564h24.145
		c-2.408-3.566-3.748-7.914-3.562-12.584c0.443-11.061,9.59-19.965,20.66-20.126c11.734-0.17,21.301,9.291,21.301,20.986
		c0,4.344-1.32,8.377-3.578,11.725h24.439c0.875,0,1.586-0.711,1.586-1.586v-35.792C177.198,98.394,175.679,96.875,173.806,96.875
		 M119.013,96.875c-1.039,0-1.629-1.196-0.992-2.016c2.697-3.466,7.52-6.739,16.119-6.739c0.262,0,0.529,0.003,0.799,0.01
		c8.25,0.189,12.719,3.718,15.135,7.273c0.424,0.626-0.023,1.472-0.779,1.472H119.013z"/>
	<path style="fill:#2A5E9B;" d="M133.763,146.785c-5.348,0-10.225-1.924-13.93-5.283c-0.367-0.334-0.85-0.514-1.346-0.514H91.665
		c-0.564,0-1.023,0.459-1.023,1.025v6.611c0,1.873,1.52,3.393,3.393,3.393h79.771c1.875,0,3.393-1.52,3.393-3.393v-5.631
		c0-1.107-0.896-2.006-2.006-2.006h-25.801c-0.725,0-1.42,0.271-1.965,0.748C143.755,144.951,138.983,146.785,133.763,146.785"/>
</g>
</svg>
