<?xml version="1.0" encoding="iso-8859-1"?>
<!-- Generator: Adobe Illustrator 16.0.0, SVG Export Plug-In . SVG Version: 6.00 Build 0)  -->
<!DOCTYPE svg PUBLIC "-//W3C//DTD SVG 1.1//EN" "http://www.w3.org/Graphics/SVG/1.1/DTD/svg11.dtd">
<svg version="1.1" id="Layer_1" xmlns="http://www.w3.org/2000/svg" xmlns:xlink="http://www.w3.org/1999/xlink" x="0px" y="0px"
	 width="267.842px" height="255.802px" viewBox="0 0 267.842 255.802" style="enable-background:new 0 0 267.842 255.802;"
	 xml:space="preserve">
<g>
	<path style="fill:#2A5E9B;" d="M208.738,121.768c0-42.494-35.426-76.714-78.352-74.738c-38.68,1.779-69.92,33.431-71.238,72.129
		c-1.258,36.966,24.322,68.174,58.756,75.688l5.078,7.698c4.861,8.418,17.012,8.417,21.873-0.001l5.078-7.697
		C183.557,187.51,208.738,157.586,208.738,121.768"/>
	<defs>
		<filter id="Adobe_OpacityMaskFilter" filterUnits="userSpaceOnUse" x="59.104" y="46.944" width="149.635" height="161.914">
			
				<feColorMatrix  type="matrix" values="-1 0 0 0 1  0 -1 0 0 1  0 0 -1 0 1  0 0 0 1 0" color-interpolation-filters="sRGB" result="source"/>
		</filter>
	</defs>
	<mask maskUnits="userSpaceOnUse" x="59.104" y="46.944" width="149.635" height="161.914" id="SVGID_1_">
		<g style="filter:url(#Adobe_OpacityMaskFilter);">
			<g style="enable-background:new    ;">
				<g>
					<defs>
						<rect id="SVGID_42_" x="56.707" y="44.218" width="155" height="167"/>
					</defs>
					<clipPath id="SVGID_3_">
						<use xlink:href="#SVGID_42_"  style="overflow:visible;"/>
					</clipPath>
					<g style="clip-path:url(#SVGID_3_);">
						
							<image style="overflow:visible;" width="155" height="167" xlink:href="E1733A700BFAF71B.jpg"  transform="matrix(1 0 0 1 56.707 44.2178)">
						</image>
					</g>
				</g>
			</g>
		</g>
	</mask>
	<g style="opacity:0.4;mask:url(#SVGID_1_);">
		<g>
			<defs>
				<rect id="SVGID_44_" x="59.105" y="46.944" width="149.633" height="161.91"/>
			</defs>
			<clipPath id="SVGID_5_">
				<use xlink:href="#SVGID_44_"  style="overflow:visible;"/>
			</clipPath>
			<path style="clip-path:url(#SVGID_5_);" d="M208.738,121.768c0-42.494-35.426-76.714-78.352-74.738
				c-38.68,1.779-69.92,33.431-71.238,72.129c-1.258,36.966,24.322,68.174,58.756,75.688l5.078,7.698
				c4.861,8.418,17.012,8.417,21.873-0.001l5.078-7.697C183.557,187.51,208.738,157.586,208.738,121.768"/>
		</g>
	</g>
	<path style="fill:#FFFFFF;" d="M199.027,122.087c0,35.958-29.152,65.104-65.107,65.104c-35.959,0-65.104-29.146-65.104-65.104
		c0-35.959,29.145-65.104,65.104-65.104C169.875,56.982,199.027,86.128,199.027,122.087"/>
	<defs>
		<filter id="Adobe_OpacityMaskFilter_1_" filterUnits="userSpaceOnUse" x="68.816" y="56.982" width="130.211" height="130.212">
			
				<feColorMatrix  type="matrix" values="-1 0 0 0 1  0 -1 0 0 1  0 0 -1 0 1  0 0 0 1 0" color-interpolation-filters="sRGB" result="source"/>
		</filter>
	</defs>
	<mask maskUnits="userSpaceOnUse" x="68.816" y="56.982" width="130.211" height="130.212" id="SVGID_6_">
		<g style="filter:url(#Adobe_OpacityMaskFilter_1_);">
			<g style="enable-background:new    ;">
				<g>
					<defs>
						<rect id="SVGID_47_" x="66.707" y="54.747" width="135" height="135"/>
					</defs>
					<clipPath id="SVGID_8_">
						<use xlink:href="#SVGID_47_"  style="overflow:visible;"/>
					</clipPath>
					<g style="clip-path:url(#SVGID_8_);">
						
							<image style="overflow:visible;" width="135" height="135" xlink:href="E1733A700BFAF719.jpg"  transform="matrix(1 0 0 1 66.707 54.7471)">
						</image>
					</g>
				</g>
			</g>
		</g>
	</mask>
	<g style="opacity:0.8;mask:url(#SVGID_6_);">
		<g>
			<defs>
				<rect id="SVGID_49_" x="68.816" y="56.984" width="130.209" height="130.21"/>
			</defs>
			<clipPath id="SVGID_10_">
				<use xlink:href="#SVGID_49_"  style="overflow:visible;"/>
			</clipPath>
			<path style="clip-path:url(#SVGID_10_);" d="M199.027,122.087c0,35.958-29.152,65.104-65.107,65.104
				c-35.959,0-65.104-29.146-65.104-65.104c0-35.959,29.145-65.104,65.104-65.104C169.875,56.982,199.027,86.128,199.027,122.087"/>
		</g>
	</g>
</g>
<g>
	<path style="fill:#2A5E9B;" d="M131.146,165.813h-20.132c-0.078,0-0.395,0.219-0.61,0.145c-3.098-1.088-4.851-3.248-4.887-6.559
		c-0.022-2.242-0.004-4.357-0.004-6.6c0-19.283,0.005-33.303-0.007-52.586c-0.002-2.373,0.738-5.342,2.603-6.881
		c1.36-1.121,2.937-2.52,4.67-2.52h4.093c0,0,1.91,1.164,1.91,3.229s-1.835,2.85-1.835,2.85l-3.84,0.252
		c-1.832-0.08-2.987,1.664-2.983,3.479c0.043,21.406,0.027,37.316,0.027,58.723c0,1.803,0.965,2.629,2.771,2.631
		c6.047,0.002,12.093-0.162,18.139-0.162h5.72c6.046,0,12.093,0.195,18.138,0.193c1.809-0.002,2.772-0.895,2.772-2.697
		c0-21.406-0.017-37.207,0.028-58.613c0.004-1.812-1.151-3.408-2.984-3.328l-3.84,0.008c0,0-1.835-1.275-1.835-3.34
		s1.911-3.223,1.911-3.223h4.092c1.734,0,3.311,1.432,4.67,2.553c1.864,1.537,2.604,4.041,2.602,6.414
		c-0.01,19.283-0.006,33.615-0.006,52.898c0,2.24,0.02,4.607-0.004,6.85c-0.035,3.311-1.789,5.279-4.887,6.367
		c-0.216,0.074-0.532-0.082-0.609-0.082h-20.133H131.146z"/>
	<path style="fill:#2A5E9B;" d="M154.136,117.711c0,1.713-1.39,3.102-3.103,3.102h-33.795c-1.713,0-3.103-1.389-3.103-3.102v-5.795
		c0-1.715,1.39-3.104,3.103-3.104h33.795c1.713,0,3.103,1.389,3.103,3.104V117.711z"/>
	<path style="fill:#2A5E9B;" d="M152.136,151.553c0,1.248-1.013,2.26-2.261,2.26h-1.479c-1.248,0-2.261-1.012-2.261-2.26v-12.48
		c0-1.248,1.013-2.26,2.261-2.26h1.479c1.248,0,2.261,1.012,2.261,2.26V151.553z"/>
	<path style="fill:#2A5E9B;" d="M121.136,139.393c0,1.336-1.084,2.42-2.421,2.42h-2.158c-1.337,0-2.421-1.084-2.421-2.42v-2.16
		c0-1.336,1.084-2.42,2.421-2.42h2.158c1.337,0,2.421,1.084,2.421,2.42V139.393z"/>
	<path style="fill:#2A5E9B;" d="M130.136,139.18c0,1.453-1.179,2.633-2.634,2.633h-1.732c-1.455,0-2.634-1.18-2.634-2.633v-1.734
		c0-1.453,1.179-2.633,2.634-2.633h1.732c1.455,0,2.634,1.18,2.634,2.633V139.18z"/>
	<path style="fill:#2A5E9B;" d="M143.136,139.346c0,1.363-1.104,2.467-2.467,2.467h-2.066c-1.362,0-2.467-1.104-2.467-2.467v-2.066
		c0-1.361,1.104-2.467,2.467-2.467h2.066c1.362,0,2.467,1.105,2.467,2.467V139.346z"/>
	<path style="fill:#2A5E9B;" d="M121.136,127.534c0,1.26-1.021,2.279-2.278,2.279h-2.443c-1.258,0-2.278-1.02-2.278-2.279v-2.441
		c0-1.26,1.021-2.279,2.278-2.279h2.443c1.258,0,2.278,1.02,2.278,2.279V127.534z"/>
	<path style="fill:#2A5E9B;" d="M143.136,149.12c0,1.488-1.206,2.693-2.694,2.693h-1.611c-1.488,0-2.694-1.205-2.694-2.693v-1.613
		c0-1.486,1.206-2.693,2.694-2.693h1.611c1.488,0,2.694,1.207,2.694,2.693V149.12z"/>
	<path style="fill:#2A5E9B;" d="M130.136,127.44c0,1.311-1.062,2.373-2.373,2.373h-2.254c-1.312,0-2.373-1.062-2.373-2.373v-2.254
		c0-1.311,1.062-2.373,2.373-2.373h2.254c1.312,0,2.373,1.062,2.373,2.373V127.44z"/>
	<path style="fill:#2A5E9B;" d="M143.136,127.153c0,1.471-1.19,2.66-2.659,2.66h-1.682c-1.469,0-2.659-1.189-2.659-2.66v-1.682
		c0-1.467,1.19-2.658,2.659-2.658h1.682c1.469,0,2.659,1.191,2.659,2.658V127.153z"/>
	<path style="fill:#2A5E9B;" d="M121.136,149.288c0,1.395-1.13,2.525-2.524,2.525h-1.951c-1.395,0-2.524-1.131-2.524-2.525v-1.949
		c0-1.395,1.13-2.525,2.524-2.525h1.951c1.395,0,2.524,1.131,2.524,2.525V149.288z"/>
	<path style="fill:#2A5E9B;" d="M130.136,149.346c0,1.361-1.104,2.467-2.467,2.467h-2.066c-1.362,0-2.467-1.105-2.467-2.467v-2.066
		c0-1.363,1.104-2.467,2.467-2.467h2.066c1.362,0,2.467,1.104,2.467,2.467V149.346z"/>
	<path style="fill:#2A5E9B;" d="M152.136,127.454c0,1.303-1.058,2.359-2.36,2.359h-0.279c-1.303,0-2.36-1.057-2.36-2.359v-2.281
		c0-1.303,1.058-2.359,2.36-2.359h0.279c1.303,0,2.36,1.057,2.36,2.359V127.454z"/>
	<path style="fill:#2A5E9B;" d="M145.958,103.469h-25.017c-0.26-0.158-0.545-0.285-0.771-0.482
		c-0.386-0.338-0.416-0.816-0.416-1.297c0.002-10.707,0.001-16.979,0.002-27.686c0-0.279-0.002-0.557,0.019-0.834
		c0.037-0.52,0.307-0.898,0.756-1.15c0.131-0.074,0.272-0.133,0.41-0.199h17.176c0.399,0.133,0.8,0.26,1.195,0.402
		c0.69,0.252,1.172,0.789,1.685,1.275c1.585,1.506,3.149,3.033,4.739,4.533c0.898,0.846,1.406,1.85,1.406,3.096
		c0,8.312,0,12.193-0.001,20.506c0,0.164-0.004,0.326-0.017,0.49c-0.041,0.52-0.311,0.895-0.758,1.146
		C146.236,103.344,146.095,103.405,145.958,103.469 M122.773,89.43c0,4.342-0.002,4.248,0.002,8.59c0,0.219,0.004,0.447,0.064,0.654
		c0.214,0.738,0.764,1.107,1.619,1.109c2.977,0,5.955,0,8.932,0c2.959,0,5.917,0,8.875,0c0.371,0,0.723-0.059,1.037-0.279
		c0.521-0.363,0.654-0.885,0.653-1.484c-0.005-4.139-0.003-3.844-0.003-7.982c0-2.719,0.003-5.438,0-8.154
		c-0.002-1.131-0.602-1.725-1.725-1.727c-0.797,0-1.594,0.006-2.392-0.002c-1.028-0.01-1.625-0.609-1.634-1.635
		c-0.008-0.75,0.006-1.5-0.004-2.248c-0.014-1.01-0.615-1.613-1.623-1.615c-4.063-0.004-8.127-0.004-12.189,0.006
		c-0.26,0-0.545,0.055-0.775,0.17c-0.615,0.303-0.843,0.844-0.842,1.516C122.775,80.709,122.773,85.071,122.773,89.43"/>
	<path style="fill:#2A5E9B;" d="M148.792,104.67h-30.687c-0.813,0-1.479-0.664-1.479-1.479c0-0.812,0.665-1.479,1.479-1.479h30.687
		c0.813,0,1.478,0.666,1.478,1.479C150.27,104.006,149.605,104.67,148.792,104.67"/>
</g>
</svg>
