<?xml version="1.0" encoding="iso-8859-1"?>
<!-- Generator: Adobe Illustrator 16.0.0, SVG Export Plug-In . SVG Version: 6.00 Build 0)  -->
<!DOCTYPE svg PUBLIC "-//W3C//DTD SVG 1.1//EN" "http://www.w3.org/Graphics/SVG/1.1/DTD/svg11.dtd">
<svg version="1.1" id="Layer_1" xmlns="http://www.w3.org/2000/svg" xmlns:xlink="http://www.w3.org/1999/xlink" x="0px" y="0px"
	 width="267.842px" height="255.802px" viewBox="0 0 267.842 255.802" style="enable-background:new 0 0 267.842 255.802;"
	 xml:space="preserve">
<g>
	<path style="fill:#2A5E9B;" d="M208.738,121.768c0-42.494-35.426-76.714-78.352-74.738c-38.68,1.779-69.92,33.431-71.238,72.129
		c-1.258,36.966,24.322,68.174,58.756,75.688l5.078,7.698c4.861,8.418,17.012,8.417,21.873-0.001l5.078-7.697
		C183.557,187.51,208.738,157.586,208.738,121.768"/>
	<defs>
		<filter id="Adobe_OpacityMaskFilter" filterUnits="userSpaceOnUse" x="59.104" y="46.944" width="149.635" height="161.914">
			
				<feColorMatrix  type="matrix" values="-1 0 0 0 1  0 -1 0 0 1  0 0 -1 0 1  0 0 0 1 0" color-interpolation-filters="sRGB" result="source"/>
		</filter>
	</defs>
	<mask maskUnits="userSpaceOnUse" x="59.104" y="46.944" width="149.635" height="161.914" id="SVGID_1_">
		<g style="filter:url(#Adobe_OpacityMaskFilter);">
			<g style="enable-background:new    ;">
				<g>
					<defs>
						<rect id="SVGID_32_" x="56.707" y="44.218" width="155" height="167"/>
					</defs>
					<clipPath id="SVGID_3_">
						<use xlink:href="#SVGID_32_"  style="overflow:visible;"/>
					</clipPath>
					<g style="clip-path:url(#SVGID_3_);">
						
							<image style="overflow:visible;" width="155" height="167" xlink:href="E17BA57CC6094B62.jpg"  transform="matrix(1 0 0 1 56.707 44.2178)">
						</image>
					</g>
				</g>
			</g>
		</g>
	</mask>
	<g style="opacity:0.4;mask:url(#SVGID_1_);">
		<g>
			<defs>
				<rect id="SVGID_34_" x="59.105" y="46.944" width="149.633" height="161.91"/>
			</defs>
			<clipPath id="SVGID_5_">
				<use xlink:href="#SVGID_34_"  style="overflow:visible;"/>
			</clipPath>
			<path style="clip-path:url(#SVGID_5_);" d="M208.738,121.768c0-42.494-35.426-76.714-78.352-74.738
				c-38.68,1.779-69.92,33.431-71.238,72.129c-1.258,36.966,24.322,68.174,58.756,75.688l5.078,7.698
				c4.861,8.418,17.012,8.417,21.873-0.001l5.078-7.697C183.557,187.51,208.738,157.586,208.738,121.768"/>
		</g>
	</g>
	<path style="fill:#FFFFFF;" d="M199.027,122.087c0,35.958-29.152,65.104-65.107,65.104c-35.959,0-65.104-29.146-65.104-65.104
		c0-35.959,29.145-65.104,65.104-65.104C169.875,56.982,199.027,86.128,199.027,122.087"/>
	<defs>
		<filter id="Adobe_OpacityMaskFilter_1_" filterUnits="userSpaceOnUse" x="68.816" y="56.982" width="130.211" height="130.212">
			
				<feColorMatrix  type="matrix" values="-1 0 0 0 1  0 -1 0 0 1  0 0 -1 0 1  0 0 0 1 0" color-interpolation-filters="sRGB" result="source"/>
		</filter>
	</defs>
	<mask maskUnits="userSpaceOnUse" x="68.816" y="56.982" width="130.211" height="130.212" id="SVGID_6_">
		<g style="filter:url(#Adobe_OpacityMaskFilter_1_);">
			<g style="enable-background:new    ;">
				<g>
					<defs>
						<rect id="SVGID_37_" x="66.707" y="54.747" width="135" height="135"/>
					</defs>
					<clipPath id="SVGID_8_">
						<use xlink:href="#SVGID_37_"  style="overflow:visible;"/>
					</clipPath>
					<g style="clip-path:url(#SVGID_8_);">
						
							<image style="overflow:visible;" width="135" height="135" xlink:href="E17BA57CC6094B66.jpg"  transform="matrix(1 0 0 1 66.707 54.7471)">
						</image>
					</g>
				</g>
			</g>
		</g>
	</mask>
	<g style="opacity:0.8;mask:url(#SVGID_6_);">
		<g>
			<defs>
				<rect id="SVGID_39_" x="68.816" y="56.984" width="130.209" height="130.21"/>
			</defs>
			<clipPath id="SVGID_10_">
				<use xlink:href="#SVGID_39_"  style="overflow:visible;"/>
			</clipPath>
			<path style="clip-path:url(#SVGID_10_);" d="M199.027,122.087c0,35.958-29.152,65.104-65.107,65.104
				c-35.959,0-65.104-29.146-65.104-65.104c0-35.959,29.145-65.104,65.104-65.104C169.875,56.982,199.027,86.128,199.027,122.087"/>
		</g>
	</g>
</g>
<g>
	<path style="fill:#2A5E9B;" d="M177.096,151.976c-0.711,1.671-1.998,2.151-3.76,2.146c-17.43-0.042-34.857-0.025-52.285-0.026
		c-1.812,0-2.766-0.562-3.232-1.882c-0.168-0.474-0.137-0.962-0.141-1.448c-0.006-0.84-0.018-1.681,0.006-2.521
		c0.045-1.649,1.119-2.727,2.775-2.776c0.893-0.027,1.789-0.001,2.682-0.009c1.836-0.019,2.945-0.999,3.17-2.796
		c0.275-2.178,1.246-3.041,3.424-3.042c11.736,0,23.473,0.027,35.207-0.027c2.02-0.01,3.453,1.275,3.471,3.114
		c0.016,1.605,1.311,2.695,2.959,2.746c0.865,0.025,1.734,0.02,2.602,0.002c1.359-0.028,2.346,0.527,2.912,1.783
		c0.045,0.1,0.068,0.203,0.211,0.181V151.976z"/>
	<path style="fill:#2A5E9B;" d="M99.26,153.596c0.688,0.691,1.803,0.703,2.504,0.027c1.109-1.07,2.643-2.557,3.287-3.211
		c1.504-1.524,1.965-2.279,1.6-3.469c-0.26-0.832-0.027-1.738,0.592-2.354c8.564-8.538,17.129-17.075,25.793-25.71
		c0.98-0.979,2.578-0.957,3.533,0.047c0.994,1.048,2.66,1.071,3.684,0.052c3.799-3.78,7.562-7.523,11.289-11.231
		c1.133-1.128,1.133-2.957,0.002-4.085c-3.393-3.38-6.791-6.765-10.178-10.139c-1.076-1.073-2.822-1.073-3.898,0l-11.639,11.588
		c-0.998,0.995-0.965,2.617,0.074,3.569l0.102,0.093c0.998,0.914,1.029,2.474,0.072,3.429c-8.533,8.503-17.041,16.979-25.549,25.458
		c-0.68,0.676-1.668,0.9-2.594,0.648c-0.998-0.272-1.807,0.081-2.857,1.142c-1.371,1.382-2.66,2.521-3.918,3.879
		c-0.566,0.61-0.545,1.559,0.041,2.149L99.26,153.596z"/>
	<path style="fill:#2A5E9B;" d="M139.398,125.982c-0.008-1.552,0.547-2.561,1.416-3.427c4.318-4.296,8.637-8.592,12.957-12.885
		c1.859-1.846,4.32-1.786,6.154,0.12c0.82,0.853,1.705,1.644,2.506,2.512c1.75,1.898,1.689,4.201-0.148,6.034
		c-4.295,4.283-8.596,8.562-12.904,12.828c-1.959,1.939-4.352,1.901-6.258-0.057c-0.932-0.955-1.879-1.894-2.801-2.856
		C139.639,127.54,139.43,126.641,139.398,125.982"/>
	<path style="fill:#2A5E9B;" d="M119.758,105.909c-1.334,0.021-2.271-0.402-3.051-1.122c-0.941-0.871-1.84-1.79-2.723-2.72
		c-1.869-1.969-1.867-4.201,0.047-6.135c2.959-2.99,5.951-5.946,8.928-8.917c1.283-1.281,2.566-2.562,3.852-3.842
		c2.049-2.038,4.494-1.999,6.49,0.083c0.678,0.708,1.389,1.387,2.098,2.064c2.021,1.924,2.018,4.483,0.045,6.433
		c-3.848,3.801-7.656,7.641-11.506,11.438c-0.816,0.806-1.527,1.741-2.604,2.271C120.752,105.75,120.154,105.894,119.758,105.909"/>
</g>
</svg>
