<?xml version="1.0" encoding="iso-8859-1"?>
<!-- Generator: Adobe Illustrator 16.0.0, SVG Export Plug-In . SVG Version: 6.00 Build 0)  -->
<!DOCTYPE svg PUBLIC "-//W3C//DTD SVG 1.1//EN" "http://www.w3.org/Graphics/SVG/1.1/DTD/svg11.dtd">
<svg version="1.1" id="Layer_1" xmlns="http://www.w3.org/2000/svg" xmlns:xlink="http://www.w3.org/1999/xlink" x="0px" y="0px"
	 width="267.842px" height="255.802px" viewBox="0 0 267.842 255.802" style="enable-background:new 0 0 267.842 255.802;"
	 xml:space="preserve">
<g>
	<path style="fill:#2A5E9B;" d="M208.738,121.768c0-42.494-35.426-76.714-78.352-74.738c-38.68,1.779-69.92,33.431-71.238,72.129
		c-1.258,36.966,24.322,68.174,58.756,75.688l5.078,7.698c4.861,8.418,17.012,8.417,21.873-0.001l5.078-7.697
		C183.557,187.51,208.738,157.586,208.738,121.768"/>
	<defs>
		<filter id="Adobe_OpacityMaskFilter" filterUnits="userSpaceOnUse" x="59.104" y="46.944" width="149.634" height="161.914">
			
				<feColorMatrix  type="matrix" values="-1 0 0 0 1  0 -1 0 0 1  0 0 -1 0 1  0 0 0 1 0" color-interpolation-filters="sRGB" result="source"/>
		</filter>
	</defs>
	<mask maskUnits="userSpaceOnUse" x="59.104" y="46.944" width="149.634" height="161.914" id="SVGID_1_">
		<g style="filter:url(#Adobe_OpacityMaskFilter);">
			<g style="enable-background:new    ;">
				<g>
					<defs>
						<rect id="SVGID_102_" x="56.707" y="44.218" width="155" height="167"/>
					</defs>
					<clipPath id="SVGID_3_">
						<use xlink:href="#SVGID_102_"  style="overflow:visible;"/>
					</clipPath>
					<g style="clip-path:url(#SVGID_3_);">
						
							<image style="overflow:visible;" width="155" height="167" xlink:href="E184108980179FAD.jpg"  transform="matrix(1 0 0 1 56.707 44.2178)">
						</image>
					</g>
				</g>
			</g>
		</g>
	</mask>
	<g style="opacity:0.4;mask:url(#SVGID_1_);">
		<g>
			<defs>
				<rect id="SVGID_104_" x="59.105" y="46.944" width="149.633" height="161.91"/>
			</defs>
			<clipPath id="SVGID_5_">
				<use xlink:href="#SVGID_104_"  style="overflow:visible;"/>
			</clipPath>
			<path style="clip-path:url(#SVGID_5_);" d="M208.738,121.768c0-42.494-35.426-76.714-78.352-74.738
				c-38.68,1.779-69.92,33.431-71.238,72.129c-1.258,36.966,24.322,68.174,58.756,75.688l5.078,7.698
				c4.861,8.418,17.012,8.417,21.873-0.001l5.078-7.697C183.557,187.51,208.738,157.586,208.738,121.768"/>
		</g>
	</g>
	<path style="fill:#FFFFFF;" d="M199.027,122.087c0,35.958-29.152,65.104-65.107,65.104c-35.959,0-65.104-29.146-65.104-65.104
		c0-35.959,29.145-65.104,65.104-65.104C169.875,56.982,199.027,86.128,199.027,122.087"/>
	<defs>
		<filter id="Adobe_OpacityMaskFilter_1_" filterUnits="userSpaceOnUse" x="68.816" y="56.982" width="130.211" height="130.212">
			
				<feColorMatrix  type="matrix" values="-1 0 0 0 1  0 -1 0 0 1  0 0 -1 0 1  0 0 0 1 0" color-interpolation-filters="sRGB" result="source"/>
		</filter>
	</defs>
	<mask maskUnits="userSpaceOnUse" x="68.816" y="56.982" width="130.211" height="130.212" id="SVGID_6_">
		<g style="filter:url(#Adobe_OpacityMaskFilter_1_);">
			<g style="enable-background:new    ;">
				<g>
					<defs>
						<rect id="SVGID_107_" x="66.707" y="54.747" width="135" height="135"/>
					</defs>
					<clipPath id="SVGID_8_">
						<use xlink:href="#SVGID_107_"  style="overflow:visible;"/>
					</clipPath>
					<g style="clip-path:url(#SVGID_8_);">
						
							<image style="overflow:visible;" width="135" height="135" xlink:href="E184108980179FAF.jpg"  transform="matrix(1 0 0 1 66.707 54.7471)">
						</image>
					</g>
				</g>
			</g>
		</g>
	</mask>
	<g style="opacity:0.8;mask:url(#SVGID_6_);">
		<g>
			<defs>
				<rect id="SVGID_109_" x="68.816" y="56.984" width="130.209" height="130.21"/>
			</defs>
			<clipPath id="SVGID_10_">
				<use xlink:href="#SVGID_109_"  style="overflow:visible;"/>
			</clipPath>
			<path style="clip-path:url(#SVGID_10_);" d="M199.027,122.087c0,35.958-29.152,65.104-65.107,65.104
				c-35.959,0-65.104-29.146-65.104-65.104c0-35.959,29.145-65.104,65.104-65.104C169.875,56.982,199.027,86.128,199.027,122.087"/>
		</g>
	</g>
</g>
<g>
	<path style="fill-rule:evenodd;clip-rule:evenodd;fill:#2A5E9B;" d="M138.678,133.677L138.678,133.677
		c0,1.56-1.061,2.918-2.572,3.296l-7.828,1.951c-1.783,0.445-3.034,2.047-3.034,3.885v19.623c0,0.02,0.016,0.034,0.036,0.034h23.734
		c4.215,0,7.889-2.724,8.916-6.81l4.077-15.768c1.386-5.513-1.903-11.026-7.432-12.35l-5.577-1.368
		c-0.988-0.243-1.683-1.128-1.683-2.146v-2.387c0-0.684-0.766-1.086-1.329-0.699c-1.99,1.36-3.979,2.439-5.97,3.144
		c-0.805,0.284-1.339,1.044-1.339,1.897V133.677 M129.083,133.995v-7.544c0-1.136-0.72-2.127-1.782-2.532
		c-1.735-0.662-3.473-1.604-5.209-2.766c-0.703-0.47-1.646,0.021-1.646,0.866v2.034c0,1-0.686,1.869-1.656,2.104l-4.467,1.078
		c-6.229,1.489-10.018,7.782-8.454,13.993l4.174,16.406c0.736,2.924,3.376,4.831,6.39,4.831h6.857c0.019,0,0.035-0.015,0.035-0.034
		V139.69c0-1.255,0.907-2.325,2.145-2.532l1.087-0.182C128.013,136.734,129.083,135.473,129.083,133.995 M128.593,159.63
		c-0.93,0-1.684-0.753-1.684-1.684s0.754-1.685,1.684-1.685c0.932,0,1.686,0.754,1.686,1.685S129.525,159.63,128.593,159.63
		 M128.593,146.346c-0.93,0-1.684-0.754-1.684-1.684c0-0.932,0.754-1.686,1.684-1.686c0.932,0,1.686,0.754,1.686,1.686
		C130.279,145.592,129.525,146.346,128.593,146.346 M138.893,159.63c-0.93,0-1.684-0.753-1.684-1.684s0.754-1.685,1.684-1.685
		c0.932,0,1.686,0.754,1.686,1.685S139.825,159.63,138.893,159.63 M138.893,146.346c-0.93,0-1.684-0.754-1.684-1.684
		c0-0.932,0.754-1.686,1.684-1.686c0.932,0,1.686,0.754,1.686,1.686C140.579,145.592,139.825,146.346,138.893,146.346"/>
	<path style="fill-rule:evenodd;clip-rule:evenodd;fill:#2A5E9B;" d="M142.683,88.747c6.524,2.816,9.166,8.849,8.882,15.074
		c-3.641,0.005-6.969-0.992-9.743-2.623c-3.301-1.942-5.817-4.782-7.142-7.902c-0.169-0.396-0.557-0.632-0.963-0.624V90.84
		L142.683,88.747z M133.717,122.918h0.02c9.638,0,16.36-8.389,17.631-17.049c-3.945-0.032-7.557-1.128-10.58-2.907
		c-3.024-1.777-5.463-4.243-7.064-7.01l-0.006,0.01V122.918z M133.717,92.672c-0.128,0.002-0.256,0.029-0.381,0.083
		c-0.254,0.107-0.441,0.307-0.542,0.541c-1.297,3.055-3.99,5.776-7.583,7.659c-2.678,1.404-5.85,2.337-9.313,2.598
		c-0.104-3.228,0.583-6.393,2.197-9.068l15.622-3.645V92.672z M133.717,95.962c-1.656,2.714-4.277,5.087-7.559,6.807
		c-2.911,1.525-6.349,2.541-10.093,2.825c1.166,8.75,7.923,17.312,17.651,17.324V95.962z"/>
	<path style="fill-rule:evenodd;clip-rule:evenodd;fill:#2A5E9B;" d="M117.244,84.252l20.892-4.872
		c1.034-0.24,2.067,0.401,2.309,1.434l1.102,4.721c0.241,1.033-0.401,2.066-1.436,2.306l-20.895,4.866
		c-1.032,0.24-2.065-0.402-2.308-1.435l-1.099-4.713C115.568,85.524,116.209,84.493,117.244,84.252"/>
</g>
</svg>
