<?xml version="1.0" encoding="iso-8859-1"?>
<!-- Generator: Adobe Illustrator 16.0.0, SVG Export Plug-In . SVG Version: 6.00 Build 0)  -->
<!DOCTYPE svg PUBLIC "-//W3C//DTD SVG 1.1//EN" "http://www.w3.org/Graphics/SVG/1.1/DTD/svg11.dtd">
<svg version="1.1" id="Layer_1" xmlns="http://www.w3.org/2000/svg" xmlns:xlink="http://www.w3.org/1999/xlink" x="0px" y="0px"
	 width="267.842px" height="255.802px" viewBox="0 0 267.842 255.802" style="enable-background:new 0 0 267.842 255.802;"
	 xml:space="preserve">
<g>
	<path style="fill:#2A5E9B;" d="M208.738,121.768c0-42.494-35.426-76.714-78.352-74.738c-38.68,1.779-69.92,33.431-71.238,72.129
		c-1.258,36.966,24.322,68.174,58.756,75.688l5.078,7.698c4.861,8.418,17.012,8.417,21.873-0.001l5.078-7.697
		C183.557,187.51,208.738,157.586,208.738,121.768"/>
	<defs>
		<filter id="Adobe_OpacityMaskFilter" filterUnits="userSpaceOnUse" x="59.104" y="46.944" width="149.634" height="161.914">
			
				<feColorMatrix  type="matrix" values="-1 0 0 0 1  0 -1 0 0 1  0 0 -1 0 1  0 0 0 1 0" color-interpolation-filters="sRGB" result="source"/>
		</filter>
	</defs>
	<mask maskUnits="userSpaceOnUse" x="59.104" y="46.944" width="149.634" height="161.914" id="SVGID_1_">
		<g style="filter:url(#Adobe_OpacityMaskFilter);">
			<g style="enable-background:new    ;">
				<g>
					<defs>
						<rect id="SVGID_82_" x="56.707" y="44.218" width="155" height="167"/>
					</defs>
					<clipPath id="SVGID_3_">
						<use xlink:href="#SVGID_82_"  style="overflow:visible;"/>
					</clipPath>
					<g style="clip-path:url(#SVGID_3_);">
						
							<image style="overflow:visible;" width="155" height="167" xlink:href="E18C7B963A25F3F4.jpg"  transform="matrix(1 0 0 1 56.707 44.2178)">
						</image>
					</g>
				</g>
			</g>
		</g>
	</mask>
	<g style="opacity:0.4;mask:url(#SVGID_1_);">
		<g>
			<defs>
				<rect id="SVGID_84_" x="59.105" y="46.944" width="149.633" height="161.91"/>
			</defs>
			<clipPath id="SVGID_5_">
				<use xlink:href="#SVGID_84_"  style="overflow:visible;"/>
			</clipPath>
			<path style="clip-path:url(#SVGID_5_);" d="M208.738,121.768c0-42.494-35.426-76.714-78.352-74.738
				c-38.68,1.779-69.92,33.431-71.238,72.129c-1.258,36.966,24.322,68.174,58.756,75.688l5.078,7.698
				c4.861,8.418,17.012,8.417,21.873-0.001l5.078-7.697C183.557,187.51,208.738,157.586,208.738,121.768"/>
		</g>
	</g>
	<path style="fill:#FFFFFF;" d="M199.027,122.087c0,35.958-29.152,65.104-65.107,65.104c-35.959,0-65.104-29.146-65.104-65.104
		c0-35.959,29.145-65.104,65.104-65.104C169.875,56.982,199.027,86.128,199.027,122.087"/>
	<defs>
		<filter id="Adobe_OpacityMaskFilter_1_" filterUnits="userSpaceOnUse" x="68.816" y="56.982" width="130.211" height="130.212">
			
				<feColorMatrix  type="matrix" values="-1 0 0 0 1  0 -1 0 0 1  0 0 -1 0 1  0 0 0 1 0" color-interpolation-filters="sRGB" result="source"/>
		</filter>
	</defs>
	<mask maskUnits="userSpaceOnUse" x="68.816" y="56.982" width="130.211" height="130.212" id="SVGID_6_">
		<g style="filter:url(#Adobe_OpacityMaskFilter_1_);">
			<g style="enable-background:new    ;">
				<g>
					<defs>
						<rect id="SVGID_87_" x="66.707" y="54.747" width="135" height="135"/>
					</defs>
					<clipPath id="SVGID_8_">
						<use xlink:href="#SVGID_87_"  style="overflow:visible;"/>
					</clipPath>
					<g style="clip-path:url(#SVGID_8_);">
						
							<image style="overflow:visible;" width="135" height="135" xlink:href="E18C7B963A25F3F5.jpg"  transform="matrix(1 0 0 1 66.707 54.7471)">
						</image>
					</g>
				</g>
			</g>
		</g>
	</mask>
	<g style="opacity:0.8;mask:url(#SVGID_6_);">
		<g>
			<defs>
				<rect id="SVGID_89_" x="68.816" y="56.984" width="130.209" height="130.21"/>
			</defs>
			<clipPath id="SVGID_10_">
				<use xlink:href="#SVGID_89_"  style="overflow:visible;"/>
			</clipPath>
			<path style="clip-path:url(#SVGID_10_);" d="M199.027,122.087c0,35.958-29.152,65.104-65.107,65.104
				c-35.959,0-65.104-29.146-65.104-65.104c0-35.959,29.145-65.104,65.104-65.104C169.875,56.982,199.027,86.128,199.027,122.087"/>
		</g>
	</g>
</g>
<g>
	<path style="fill-rule:evenodd;clip-rule:evenodd;fill:#2A5E9B;" d="M123.402,84.875c-6.867-6.864-17.938-6.864-24.584,0
		c-6.865,6.645-6.865,17.714,0,24.581l45.627,45.627c6.859,6.646,17.717,6.646,24.584,0c6.857-6.867,6.857-17.717,0-24.583
		L123.402,84.875z M120.107,95.292L120.107,95.292c1.076-1.077,2.908-0.894,3.734,0.55c0.416,0.732,0.416,1.671,0,2.402
		c-0.826,1.443-2.658,1.627-3.734,0.551C119.184,97.874,119.184,96.217,120.107,95.292 M103.896,93.452L103.896,93.452
		c-1.076-1.293-0.895-3.09,0.549-3.915c0.73-0.418,1.67-0.418,2.4,0c1.443,0.825,1.627,2.622,0.551,3.915
		C106.475,94.371,104.816,94.371,103.896,93.452 M106.66,101.371L106.66,101.371c-1.068-1.064-0.902-2.864,0.5-3.698
		c0.703-0.419,1.619-0.419,2.32,0.002c1.393,0.834,1.559,2.633,0.494,3.696C109.053,102.291,107.58,102.291,106.66,101.371
		 M112.736,109.473L112.736,109.473c-0.92,0.928-2.393,0.928-3.316,0c-1.104-0.918-1.104-2.392,0-3.312
		c0.924-0.92,2.396-0.92,3.316,0C113.66,107.082,113.66,108.555,112.736,109.473 M112,96.033L112,96.033
		c-0.92-0.926-0.92-2.397,0-3.318c0.922-0.919,2.396-0.919,3.316,0c1.105,0.921,1.105,2.393,0,3.318
		C114.396,96.953,112.922,96.953,112,96.033 M114.764,104.137L114.764,104.137c-0.92-0.921-0.92-2.399,0-3.319
		c0.92-1.104,2.395-1.104,3.314,0c0.922,0.92,0.922,2.398,0,3.319C117.158,105.057,115.684,105.057,114.764,104.137
		 M128.375,130.567L128.375,130.567l-5.244-5.045c-4.436-4.434-4.436-11.696,0-16.338c4.641-4.44,11.902-4.44,16.338,0l5.248,5.245
		c4.432,4.436,4.432,11.697,0,16.138C140.074,135.208,132.812,135.208,128.375,130.567 M148.244,144.119L148.244,144.119
		c-0.98,0.979-2.648,0.826-3.414-0.459c-0.387-0.648-0.387-1.494,0-2.143c0.766-1.286,2.434-1.438,3.414-0.458
		C149.092,141.908,149.092,143.264,148.244,144.119 M150.111,139.193L150.111,139.193c-0.982-0.98-0.828-2.647,0.457-3.415
		c0.648-0.386,1.496-0.386,2.143,0c1.287,0.768,1.441,2.435,0.459,3.415C152.316,140.042,150.959,140.042,150.111,139.193
		 M155.715,146.664L155.715,146.664c-0.848,0.848-2.207,0.848-3.225,0c-0.854-0.85-0.854-2.205,0-3.229
		c1.018-0.848,2.377-0.848,3.225,0C156.564,144.458,156.564,145.814,155.715,146.664 M155.035,134.267L155.035,134.267
		c-0.848-0.848-0.848-2.206,0-3.223c0.848-0.855,2.207-0.855,3.055,0c0.855,1.017,0.855,2.375,0,3.223
		C157.242,135.115,155.883,135.115,155.035,134.267 M157.58,141.738L157.58,141.738c-0.848-0.849-0.848-2.375,0-3.224
		c0.992-0.992,2.691-0.824,3.443,0.506c0.383,0.674,0.383,1.537,0,2.212C160.271,142.561,158.572,142.73,157.58,141.738
		 M163.186,149.039L163.186,149.039c-0.848,1.024-2.375,1.024-3.223,0c-0.992-0.991-0.824-2.682,0.506-3.438
		c0.674-0.383,1.537-0.383,2.211,0C164.01,146.357,164.178,148.047,163.186,149.039"/>
	<path style="fill-rule:evenodd;clip-rule:evenodd;fill:#245086;" d="M169.029,109.457c6.857-6.867,6.857-17.937,0-24.581
		c-6.867-6.864-17.725-6.864-24.584,0l-6.109,6.105c-0.787,0.787-0.787,2.062,0,2.85l21.674,21.67c0.822,0.821,2.154,0.821,2.977,0
		L169.029,109.457z"/>
	<path style="fill-rule:evenodd;clip-rule:evenodd;fill:#2A5E9B;" d="M98.818,130.5c-6.865,6.867-6.865,17.716,0,24.583
		c6.646,6.645,17.717,6.645,24.584,0l6.385-6.385c0.633-0.634,0.633-1.66,0-2.293l-21.996-21.995c-0.795-0.796-2.088-0.796-2.883,0
		L98.818,130.5z"/>
</g>
</svg>
