<?xml version="1.0" encoding="iso-8859-1"?>
<!-- Generator: Adobe Illustrator 16.0.0, SVG Export Plug-In . SVG Version: 6.00 Build 0)  -->
<!DOCTYPE svg PUBLIC "-//W3C//DTD SVG 1.1//EN" "http://www.w3.org/Graphics/SVG/1.1/DTD/svg11.dtd">
<svg version="1.1" id="Layer_1" xmlns="http://www.w3.org/2000/svg" xmlns:xlink="http://www.w3.org/1999/xlink" x="0px" y="0px"
	 width="267.842px" height="255.802px" viewBox="0 0 267.842 255.802" style="enable-background:new 0 0 267.842 255.802;"
	 xml:space="preserve">
<g>
	<path style="fill:#2A5E9B;" d="M208.738,121.768c0-42.494-35.426-76.714-78.352-74.738c-38.68,1.779-69.92,33.431-71.238,72.129
		c-1.258,36.966,24.322,68.174,58.756,75.688l5.078,7.698c4.861,8.418,17.012,8.417,21.873-0.001l5.078-7.697
		C183.557,187.51,208.738,157.586,208.738,121.768"/>
	<defs>
		<filter id="Adobe_OpacityMaskFilter" filterUnits="userSpaceOnUse" x="59.104" y="46.944" width="149.635" height="161.914">
			
				<feColorMatrix  type="matrix" values="-1 0 0 0 1  0 -1 0 0 1  0 0 -1 0 1  0 0 0 1 0" color-interpolation-filters="sRGB" result="source"/>
		</filter>
	</defs>
	<mask maskUnits="userSpaceOnUse" x="59.104" y="46.944" width="149.635" height="161.914" id="SVGID_1_">
		<g style="filter:url(#Adobe_OpacityMaskFilter);">
			<g style="enable-background:new    ;">
				<g>
					<defs>
						<rect id="SVGID_72_" x="56.707" y="44.218" width="155" height="167"/>
					</defs>
					<clipPath id="SVGID_3_">
						<use xlink:href="#SVGID_72_"  style="overflow:visible;"/>
					</clipPath>
					<g style="clip-path:url(#SVGID_3_);">
						
							<image style="overflow:visible;" width="155" height="167" xlink:href="E194E6A2F434483F.jpg"  transform="matrix(1 0 0 1 56.707 44.2178)">
						</image>
					</g>
				</g>
			</g>
		</g>
	</mask>
	<g style="opacity:0.4;mask:url(#SVGID_1_);">
		<g>
			<defs>
				<rect id="SVGID_74_" x="59.105" y="46.944" width="149.633" height="161.91"/>
			</defs>
			<clipPath id="SVGID_5_">
				<use xlink:href="#SVGID_74_"  style="overflow:visible;"/>
			</clipPath>
			<path style="clip-path:url(#SVGID_5_);" d="M208.738,121.768c0-42.494-35.426-76.714-78.352-74.738
				c-38.68,1.779-69.92,33.431-71.238,72.129c-1.258,36.966,24.322,68.174,58.756,75.688l5.078,7.698
				c4.861,8.418,17.012,8.417,21.873-0.001l5.078-7.697C183.557,187.51,208.738,157.586,208.738,121.768"/>
		</g>
	</g>
	<path style="fill:#FFFFFF;" d="M199.027,122.087c0,35.958-29.152,65.104-65.107,65.104c-35.959,0-65.104-29.146-65.104-65.104
		c0-35.959,29.145-65.104,65.104-65.104C169.875,56.982,199.027,86.128,199.027,122.087"/>
	<defs>
		<filter id="Adobe_OpacityMaskFilter_1_" filterUnits="userSpaceOnUse" x="68.816" y="56.982" width="130.211" height="130.212">
			
				<feColorMatrix  type="matrix" values="-1 0 0 0 1  0 -1 0 0 1  0 0 -1 0 1  0 0 0 1 0" color-interpolation-filters="sRGB" result="source"/>
		</filter>
	</defs>
	<mask maskUnits="userSpaceOnUse" x="68.816" y="56.982" width="130.211" height="130.212" id="SVGID_6_">
		<g style="filter:url(#Adobe_OpacityMaskFilter_1_);">
			<g style="enable-background:new    ;">
				<g>
					<defs>
						<rect id="SVGID_77_" x="66.707" y="54.747" width="135" height="135"/>
					</defs>
					<clipPath id="SVGID_8_">
						<use xlink:href="#SVGID_77_"  style="overflow:visible;"/>
					</clipPath>
					<g style="clip-path:url(#SVGID_8_);">
						
							<image style="overflow:visible;" width="135" height="135" xlink:href="E194E6A2F434483D.jpg"  transform="matrix(1 0 0 1 66.707 54.7471)">
						</image>
					</g>
				</g>
			</g>
		</g>
	</mask>
	<g style="opacity:0.8;mask:url(#SVGID_6_);">
		<g>
			<defs>
				<rect id="SVGID_79_" x="68.816" y="56.984" width="130.209" height="130.21"/>
			</defs>
			<clipPath id="SVGID_10_">
				<use xlink:href="#SVGID_79_"  style="overflow:visible;"/>
			</clipPath>
			<path style="clip-path:url(#SVGID_10_);" d="M199.027,122.087c0,35.958-29.152,65.104-65.107,65.104
				c-35.959,0-65.104-29.146-65.104-65.104c0-35.959,29.145-65.104,65.104-65.104C169.875,56.982,199.027,86.128,199.027,122.087"/>
		</g>
	</g>
</g>
<g>
	<path style="fill-rule:evenodd;clip-rule:evenodd;fill:#2A5E9B;" d="M121.025,135.897c-0.357,0-0.723,0.01-1.09,0.01
		c-7.598,0-14.768-0.891-20.197-2.501c-2.797-0.828-5.035-1.821-6.656-2.963c-0.236-0.166-0.453-0.33-0.662-0.496v12.581
		c0,4.505,12.322,8.155,27.516,8.155c0.424,0,0.848-0.003,1.268-0.008c0.514-0.006,0.857-0.51,0.701-1
		c-0.887-2.787-1.332-5.694-1.332-8.665C120.572,139.279,120.721,137.571,121.025,135.897"/>
	<path style="fill-rule:evenodd;clip-rule:evenodd;fill:#2A5E9B;" d="M128.973,119.831c0.609-0.61,1.24-1.189,1.896-1.736
		c0.449-0.375,0.152-1.099-0.43-1.031c-3.305,0.393-6.857,0.598-10.504,0.598c-7.598,0-14.77-0.889-20.197-2.5
		c-2.797-0.829-5.035-1.821-6.656-2.964c-0.236-0.165-0.455-0.33-0.662-0.496v12.53c0,0.364,0.086,0.722,0.244,1.08
		c1.785,3.998,13.314,7.073,27.271,7.073c0.422,0,0.846-0.004,1.264-0.009c0.256-0.004,0.473-0.174,0.545-0.419
		c0.299-1.021,0.662-2.029,1.084-3.013c0.531-1.264,1.15-2.475,1.855-3.633C125.869,123.332,127.307,121.494,128.973,119.831"/>
	<path style="fill-rule:evenodd;clip-rule:evenodd;fill:#2A5E9B;" d="M119.936,100.444c-7.598,0-14.77-0.89-20.197-2.501
		c-2.797-0.827-5.035-1.821-6.656-2.964c-0.236-0.164-0.455-0.33-0.662-0.496v11.51c0,0.349,0.078,0.698,0.217,1.029
		c1.711,4.016,13.279,7.128,27.299,7.128s25.592-3.112,27.299-7.128c0.139-0.341,0.217-0.681,0.217-1.029v-11.51
		c-0.209,0.176-0.426,0.341-0.662,0.496c-1.619,1.134-3.859,2.128-6.658,2.964C134.705,99.554,127.533,100.444,119.936,100.444"/>
	<path style="fill-rule:evenodd;clip-rule:evenodd;fill:#2A5E9B;" d="M147.451,88.776c0-0.443-0.121-0.88-0.359-1.308
		c-0.242-0.452-0.607-0.888-1.086-1.306c-3.678-3.225-13.959-5.542-26.07-5.542s-22.4,2.317-26.068,5.542
		c-0.48,0.418-0.846,0.854-1.09,1.306c-0.236,0.428-0.357,0.864-0.357,1.308c0,4.506,12.322,8.154,27.516,8.154
		C135.131,96.93,147.451,93.282,147.451,88.776"/>
	<path style="fill-rule:evenodd;clip-rule:evenodd;fill:#2A5E9B;" d="M150.066,114.847c-0.27-0.009-0.541-0.019-0.82-0.019
		c-0.166,0-0.332,0-0.488,0.01c-0.436,0.009-0.871,0.025-1.307,0.053c-8.217,0.557-15.396,4.904-19.795,11.317
		c-1.455,2.116-2.613,4.47-3.398,6.979c-0.141,0.436-0.262,0.88-0.375,1.323c-0.113,0.436-0.209,0.881-0.295,1.315
		c-0.342,1.674-0.516,3.406-0.516,5.176c0,3.373,0.637,6.588,1.795,9.541c3.816,9.731,13.297,16.634,24.379,16.634
		c14.455,0,26.176-11.719,26.176-26.175C175.43,126.827,164.145,115.282,150.066,114.847 M156.914,153.61
		c-1.316,1.388-3.109,2.301-5.166,2.667v1.045c0,0.958-0.775,1.734-1.734,1.734h-0.941c-0.959,0-1.734-0.776-1.734-1.734v-1.09
		c-1.131-0.216-2.223-0.583-3.197-1.078c-1.15-0.594-2.154-1.561-2.988-2.866c-0.559-0.872-0.959-1.884-1.203-3.017
		c-0.096-0.426-0.018-0.853,0.184-1.202c0.244-0.435,0.68-0.757,1.211-0.854l0.934-0.166c0.189-0.034,0.381-0.034,0.559,0
		c0.668,0.104,1.234,0.593,1.408,1.282c0.264,1.036,0.619,1.838,1.064,2.404c0.994,1.272,2.629,2.029,4.383,2.029
		c0.295,0,0.592-0.025,0.889-0.069c1.254-0.19,2.379-0.785,3.152-1.673c0.828-0.942,1.248-2.126,1.248-3.521
		c0-1.176-0.287-2.135-0.863-2.839c-1.053-1.29-2.857-1.849-4.486-2.216c-0.76-0.174-1.484-0.339-2.197-0.539
		c-1.186-0.339-2.326-0.758-3.467-1.394c-1.176-0.653-2.092-1.578-2.727-2.737c-0.629-1.148-0.951-2.474-0.951-3.938
		c0-0.173,0.01-0.339,0.01-0.505c0.025-0.497,0.086-0.968,0.174-1.42c0.113-0.54,0.27-1.055,0.479-1.542
		c0.463-1.08,1.166-2.039,2.1-2.858c0.611-0.532,1.342-0.976,2.17-1.315c0.645-0.271,1.352-0.471,2.092-0.61v-1.412
		c0-0.208,0.043-0.417,0.111-0.601c0.211-0.566,0.707-0.984,1.309-1.098c0.104-0.017,0.209-0.027,0.314-0.027h0.994
		c0.932,0.027,1.678,0.793,1.678,1.726v1.438c1.562,0.306,2.947,0.915,3.994,1.777c1.105,0.916,1.906,2.075,2.402,3.469
		c0.365,1.021-0.305,2.126-1.375,2.283l-0.916,0.138c-0.826,0.123-1.629-0.364-1.889-1.148c-0.219-0.646-0.516-1.176-0.881-1.586
		c-0.828-0.925-2.127-1.455-3.564-1.455c-0.434,0-0.863,0.052-1.271,0.14c-0.271,0.062-0.531,0.14-0.785,0.235
		c-0.713,0.279-1.34,0.688-1.82,1.22c-0.227,0.252-0.408,0.513-0.568,0.792c-0.348,0.627-0.52,1.325-0.52,2.101
		c0,1.099,0.305,2.029,0.914,2.771c0.541,0.645,1.221,1.097,1.984,1.428c1.049,0.453,2.232,0.698,3.4,0.935
		c1.176,0.233,2.395,0.479,3.459,0.948c1.123,0.496,2.066,1.116,2.779,1.829c0.723,0.726,1.281,1.587,1.672,2.58
		c0.385,0.984,0.584,2.065,0.584,3.206C159.328,149.793,158.518,151.92,156.914,153.61"/>
</g>
</svg>
