<?xml version="1.0" encoding="utf-8"?>
<!-- Generator: Adobe Illustrator 16.0.0, SVG Export Plug-In . SVG Version: 6.00 Build 0)  -->
<!DOCTYPE svg PUBLIC "-//W3C//DTD SVG 1.1//EN" "http://www.w3.org/Graphics/SVG/1.1/DTD/svg11.dtd">
<svg version="1.1" id="Layer_1" xmlns="http://www.w3.org/2000/svg" xmlns:xlink="http://www.w3.org/1999/xlink" x="0px" y="0px"
	 width="63.4px" height="44px" viewBox="0 0 63.4 44" style="enable-background:new 0 0 63.4 44;" xml:space="preserve">
<style type="text/css">
<![CDATA[
	.st0{fill:none;stroke:#006FB9;stroke-width:1.230900e-002;stroke-miterlimit:2.6131;}
	.st1{fill:none;stroke:#FCD1B6;stroke-width:1.230900e-002;stroke-miterlimit:2.6131;}
	.st2{fill:none;stroke:#003760;stroke-width:1.230900e-002;stroke-miterlimit:2.6131;}
	.st3{fill:#776235;stroke:#776235;stroke-width:0.3151;stroke-miterlimit:10;}
	.st4{fill:#776235;stroke:#776235;stroke-width:0.1589;stroke-miterlimit:10;}
	.st5{fill-rule:evenodd;clip-rule:evenodd;fill:#D71921;}
	.st6{fill:none;stroke:#F89F1B;stroke-width:1.230900e-002;stroke-miterlimit:2.6131;}
	.st7{fill:none;stroke:#FFFFFF;stroke-width:4.445600e-002;stroke-miterlimit:2.6131;}
	.st8{opacity:0.2;fill:#4D4D4D;}
	.st9{fill:none;stroke:#FDDFCC;stroke-width:1.230900e-002;stroke-miterlimit:2.6131;}
	.st10{stroke:#000000;stroke-width:1.8646;stroke-miterlimit:10;}
	.st11{fill:#AEE3F9;}
	.st12{fill:#FFCA05;stroke:#231F20;stroke-width:9.208000e-003;stroke-miterlimit:2.6131;}
	.st13{fill:none;stroke:#F2E900;stroke-width:1.230900e-002;stroke-miterlimit:2.6131;}
	.st14{fill:none;stroke:#F05A22;stroke-width:1.230900e-002;stroke-miterlimit:2.6131;}
	.st15{fill:none;stroke:#FCCDAF;stroke-width:1.230900e-002;stroke-miterlimit:2.6131;}
	.st16{fill:none;stroke:#005284;stroke-width:1.230900e-002;stroke-miterlimit:2.6131;}
	.st17{fill:none;stroke:#B9BD33;stroke-width:0.3262;stroke-miterlimit:10;}
	.st18{fill-rule:evenodd;clip-rule:evenodd;fill:#FFCA05;stroke:#231F20;stroke-width:9.208000e-003;stroke-miterlimit:2.6131;}
	.st19{fill:none;stroke:#FDE4D4;stroke-width:1.230900e-002;stroke-miterlimit:2.6131;}
	.st20{clip-path:url(#XMLID_308_);}
	.st21{fill:none;stroke:#00375F;stroke-width:1.230900e-002;stroke-miterlimit:2.6131;}
	.st22{fill:#005E96;stroke:#231F20;stroke-width:1.230900e-002;stroke-miterlimit:2.6131;}
	.st23{fill:#E4F6FD;}
	.st24{fill:#BF0C0C;stroke:#BF0C0C;stroke-width:0.4406;stroke-miterlimit:10;}
	.st25{clip-path:url(#XMLID_456_);}
	.st26{fill:none;stroke:#0080C6;stroke-width:1.230900e-002;stroke-miterlimit:2.6131;}
	.st27{fill:#4AC7EB;}
	.st28{fill:#17479D;}
	.st29{opacity:0.3;fill:#FFFFFF;}
	.st30{clip-path:url(#XMLID_505_);}
	.st31{clip-path:url(#XMLID_509_);}
	.st32{fill:#FFA200;stroke:#FFA200;stroke-width:0.3151;stroke-miterlimit:10;}
	.st33{fill:none;stroke:#472F91;stroke-width:1.230900e-002;stroke-miterlimit:2.6131;}
	.st34{fill:#FFA200;stroke:#FFA200;stroke-width:0.1589;stroke-miterlimit:10;}
	.st35{fill:#181818;}
	.st36{fill:#E6E6E6;}
	.st37{fill:none;stroke:#F68C1E;stroke-width:1.230900e-002;stroke-miterlimit:2.6131;}
	.st38{fill:none;stroke:#E0E21B;stroke-width:1.230900e-002;stroke-miterlimit:2.6131;}
	.st39{fill:none;stroke:#005A8F;stroke-width:1.230900e-002;stroke-miterlimit:2.6131;}
	.st40{fill-rule:evenodd;clip-rule:evenodd;fill:#005E96;stroke:#231F20;stroke-width:1.230900e-002;stroke-miterlimit:2.6131;}
	.st41{fill:none;stroke:#0095A8;stroke-width:1.230900e-002;stroke-miterlimit:2.6131;}
	.st42{fill:#4D4D4D;}
	.st43{fill:none;stroke:#0083CA;stroke-width:1.230900e-002;stroke-miterlimit:2.6131;}
	.st44{fill:none;stroke:#FFFFFF;stroke-linecap:round;stroke-miterlimit:10;stroke-dasharray:10,10,10,10;}
	.st45{fill:none;stroke:#005780;stroke-width:0.6757;stroke-miterlimit:10;}
	.st46{filter:url(#Adobe_OpacityMaskFilter);}
	.st47{fill:#E9F8FD;}
	.st48{fill:none;stroke:#F47E20;stroke-width:1.230900e-002;stroke-miterlimit:2.6131;}
	.st49{fill:none;stroke:#004573;stroke-width:1.230900e-002;stroke-miterlimit:2.6131;}
	.st50{fill:none;stroke:#FCD5BB;stroke-width:1.230900e-002;stroke-miterlimit:2.6131;}
	.st51{fill:none;stroke:#003D68;stroke-width:1.230900e-002;stroke-miterlimit:2.6131;}
	.st52{fill:none;stroke:#FBC9A9;stroke-width:1.230900e-002;stroke-miterlimit:2.6131;}
	.st53{fill:none;stroke:#FFD200;stroke-width:1.230900e-002;stroke-miterlimit:2.6131;}
	.st54{fill:none;stroke:#FDDEC9;stroke-width:1.230900e-002;stroke-miterlimit:2.6131;}
	.st55{fill:none;stroke:#005B91;stroke-width:1.230900e-002;stroke-miterlimit:2.6131;}
	.st56{fill:none;stroke:#FDE4D5;stroke-width:1.230900e-002;stroke-miterlimit:2.6131;}
	.st57{fill:none;stroke:#FCDAC4;stroke-width:1.230900e-002;stroke-miterlimit:2.6131;}
	.st58{fill:#FFFFFF;stroke:#0C6B40;stroke-width:0.2132;stroke-miterlimit:10;}
	.st59{fill:#83D4F6;}
	.st60{fill:#007932;stroke:#231F20;stroke-width:1.844800e-002;stroke-miterlimit:2.6131;}
	.st61{fill:none;stroke:#004D7E;stroke-width:1.230900e-002;stroke-miterlimit:2.6131;}
	.st62{fill:#B4E5FA;}
	.st63{fill:#FFFFFF;stroke:#BF0C0C;stroke-width:0.8813;stroke-miterlimit:10;}
	.st64{clip-path:url(#XMLID_507_);fill-rule:evenodd;clip-rule:evenodd;fill:#FFFFFF;}
	.st65{fill:none;stroke:#FFF1E9;stroke-width:1.230900e-002;stroke-miterlimit:2.6131;}
	.st66{fill:#86C7EB;}
	.st67{fill:#86CFCF;}
	.st68{fill:#B68F27;}
	.st69{fill-rule:evenodd;clip-rule:evenodd;fill:#007932;stroke:#231F20;stroke-width:1.844800e-002;stroke-miterlimit:2.6131;}
	.st70{fill:none;stroke:#EE4023;stroke-width:1.230900e-002;stroke-miterlimit:2.6131;}
	.st71{fill:none;stroke:#F26F21;stroke-width:1.230900e-002;stroke-miterlimit:2.6131;}
	.st72{fill:none;stroke:#0DB04B;stroke-width:1.230900e-002;stroke-miterlimit:2.6131;}
	.st73{fill:#88D6F6;}
	.st74{fill:none;stroke:#C94846;stroke-width:4.533000e-003;}
	.st75{fill:#EC1C24;}
	.st76{fill:none;stroke:#FCCFB2;stroke-width:1.230900e-002;stroke-miterlimit:2.6131;}
	.st77{fill:none;stroke:#FBC2A1;stroke-width:1.230900e-002;stroke-miterlimit:2.6131;}
	.st78{fill:none;stroke:#FFFFFF;stroke-width:2.461900e-002;stroke-miterlimit:2.6131;}
	.st79{fill:#B9BD33;}
	.st80{fill:#B9E7FA;}
	.st81{fill:none;stroke:#FCD3B8;stroke-width:1.230900e-002;stroke-miterlimit:2.6131;}
	.st82{fill:#EE8222;}
	.st83{stroke:#000000;stroke-width:1.8583;stroke-miterlimit:10;}
	.st84{fill:#FFFFFF;stroke:#FFFFFF;stroke-width:1.0435;stroke-miterlimit:10;}
	.st85{fill:none;stroke:#003962;stroke-width:1.230900e-002;stroke-miterlimit:2.6131;}
	.st86{fill:none;stroke:#F16522;stroke-width:1.230900e-002;stroke-miterlimit:2.6131;}
	.st87{fill:none;stroke:#00A56C;stroke-width:1.230900e-002;stroke-miterlimit:2.6131;}
	.st88{fill:none;stroke:#F7981D;stroke-width:1.230900e-002;stroke-miterlimit:2.6131;}
	.st89{fill:#EFF9FE;}
	.st90{fill:none;stroke:#433694;stroke-width:1.230900e-002;stroke-miterlimit:2.6131;}
	.st91{fill:none;stroke:#004674;stroke-width:1.230900e-002;stroke-miterlimit:2.6131;}
	.st92{fill:none;stroke:#F5851F;stroke-width:1.230900e-002;stroke-miterlimit:2.6131;}
	.st93{fill:none;stroke:#004F80;stroke-width:1.230900e-002;stroke-miterlimit:2.6131;}
	.st94{fill:none;stroke:#008053;stroke-width:9.208000e-003;stroke-miterlimit:2.6131;}
	.st95{fill:none;stroke:#003E69;stroke-width:1.230900e-002;stroke-miterlimit:2.6131;}
	.st96{stroke:#000000;stroke-width:3.645;stroke-miterlimit:10;}
	.st97{fill:none;stroke:#005386;stroke-width:1.230900e-002;stroke-miterlimit:2.6131;}
	.st98{fill:none;stroke:#005C92;stroke-width:1.230900e-002;stroke-miterlimit:2.6131;}
	.st99{fill:#BF0C0C;stroke:#FFFFFF;stroke-width:0.7442;stroke-miterlimit:10;}
	.st100{fill:none;stroke:#FFE000;stroke-width:1.230900e-002;stroke-miterlimit:2.6131;}
	.st101{fill:none;stroke:#008CC0;stroke-width:1.230900e-002;stroke-miterlimit:2.6131;}
	.st102{fill:none;stroke:#F37721;stroke-width:1.230900e-002;stroke-miterlimit:2.6131;}
	.st103{fill:none;stroke:#004E7F;stroke-width:1.230900e-002;stroke-miterlimit:2.6131;}
	.st104{fill:none;stroke:#FCCFB3;stroke-width:1.230900e-002;stroke-miterlimit:2.6131;}
	.st105{fill:none;stroke:#FCD5BD;stroke-width:1.230900e-002;stroke-miterlimit:2.6131;}
	.st106{opacity:0.65;fill:#F2F2F2;}
	.st107{fill:none;stroke:#FDE6D6;stroke-width:1.230900e-002;stroke-miterlimit:2.6131;}
	.st108{fill:none;stroke:#FFFFFF;stroke-width:3.385900e-002;stroke-miterlimit:2.6131;}
	.st109{fill:none;stroke:#FDBD10;stroke-width:1.230900e-002;stroke-miterlimit:2.6131;}
	.st110{fill:none;stroke:#0057A7;stroke-width:1.230900e-002;stroke-miterlimit:2.6131;}
	.st111{fill:none;stroke:#FDEDE3;stroke-width:1.230900e-002;stroke-miterlimit:2.6131;}
	.st112{fill:none;stroke:#0073BC;stroke-width:1.230900e-002;stroke-miterlimit:2.6131;}
	.st113{fill:#8ED8F7;}
	.st114{fill:#BEE9FA;}
	.st115{fill:#231F20;}
	.st116{fill:none;stroke:#FFFFFF;stroke-linecap:round;stroke-miterlimit:10;}
	.st117{fill-rule:evenodd;clip-rule:evenodd;fill:#83D4F6;}
	.st118{fill:#BF0C0C;stroke:#BF0C0C;stroke-width:0.3807;stroke-miterlimit:10;}
	.st119{fill:#002447;stroke:#231F20;stroke-width:1.230900e-002;stroke-miterlimit:2.6131;}
	.st120{fill:#FFFFFF;stroke:#FFFFFF;stroke-width:0.9799;stroke-miterlimit:10;}
	.st121{fill:none;stroke:#FDE8DB;stroke-width:1.230900e-002;stroke-miterlimit:2.6131;}
	.st122{fill:#F4FBFE;}
	.st123{fill:none;stroke:#EF4E23;stroke-width:1.230900e-002;stroke-miterlimit:2.6131;}
	.st124{fill:#FFFFFF;stroke:#0C6B40;stroke-width:0.2525;stroke-miterlimit:10;}
	.st125{fill:none;stroke:#FBCBAD;stroke-width:1.230900e-002;stroke-miterlimit:2.6131;}
	.st126{fill:#F6921E;}
	.st127{opacity:0.4;mask:url(#SVGID_1_);}
	.st128{fill-rule:evenodd;clip-rule:evenodd;fill:#002447;stroke:#231F20;stroke-width:1.230900e-002;stroke-miterlimit:2.6131;}
	.st129{fill:none;stroke:#FFD900;stroke-width:1.230900e-002;stroke-miterlimit:2.6131;}
	.st130{fill:none;stroke:#007CC4;stroke-width:1.230900e-002;stroke-miterlimit:2.6131;}
	.st131{fill:none;stroke:#00578B;stroke-width:1.230900e-002;stroke-miterlimit:2.6131;}
	.st132{fill:none;stroke:#FBC5A2;stroke-width:1.230900e-002;stroke-miterlimit:2.6131;}
	.st133{fill:none;stroke:#EE4623;stroke-width:1.230900e-002;stroke-miterlimit:2.6131;}
	.st134{fill:none;stroke:#CCDB29;stroke-width:1.230900e-002;stroke-miterlimit:2.6131;}
	.st135{fill:none;stroke:#005587;stroke-width:1.230900e-002;stroke-miterlimit:2.6131;}
	.st136{fill:url(#SVGID_117_);}
	.st137{clip-path:url(#SVGID_4_);}
	.st138{fill:#5F682D;}
	.st139{fill:#FFCA05;stroke:#231F20;stroke-width:3.079000e-002;stroke-miterlimit:2.6131;}
	.st140{fill-rule:evenodd;clip-rule:evenodd;fill:#50B748;}
	.st141{fill:#919395;}
	.st142{fill:none;stroke:#00406B;stroke-width:1.230900e-002;stroke-miterlimit:2.6131;}
	.st143{fill-rule:evenodd;clip-rule:evenodd;fill:#52B349;}
	.st144{fill:none;stroke:#004776;stroke-width:1.230900e-002;stroke-miterlimit:2.6131;}
	.st145{fill:none;stroke:#66BB46;stroke-width:1.230900e-002;stroke-miterlimit:2.6131;}
	.st146{fill:url(#SVGID_2_);}
	.st147{fill:none;stroke:#FCD7C0;stroke-width:1.230900e-002;stroke-miterlimit:2.6131;}
	.st148{fill:#C2B59B;}
	.st149{fill:#93DAF7;}
	.st150{fill:none;stroke:#47B549;stroke-width:1.230900e-002;stroke-miterlimit:2.6131;}
	.st151{fill:none;stroke:#005D94;stroke-width:1.230900e-002;stroke-miterlimit:2.6131;}
	.st152{fill:none;stroke:#0091B5;stroke-width:1.230900e-002;stroke-miterlimit:2.6131;}
	.st153{fill:none;stroke:#FDE6D8;stroke-width:1.230900e-002;stroke-miterlimit:2.6131;}
	.st154{fill:none;stroke:#1B51A2;stroke-width:1.230900e-002;stroke-miterlimit:2.6131;}
	.st155{fill:#C4EAFB;}
	.st156{fill:none;stroke:#FFC50A;stroke-width:1.230900e-002;stroke-miterlimit:2.6131;}
	.st157{fill:#2A5E9B;}
	.st158{fill:#EE382C;stroke:#BE112F;stroke-width:4.628000e-003;}
	.st159{fill:none;stroke:#231F20;stroke-width:1.844800e-002;stroke-miterlimit:2.6131;}
	.st160{opacity:0.48;fill-rule:evenodd;clip-rule:evenodd;fill:#FFFFFF;}
	.st161{fill:#FFFFFF;stroke:#FFFFFF;stroke-width:2;stroke-miterlimit:10;}
	.st162{fill:none;stroke:#00578C;stroke-width:1.230900e-002;stroke-miterlimit:2.6131;}
	.st163{fill:none;stroke:#FFEFE6;stroke-width:1.230900e-002;stroke-miterlimit:2.6131;}
	.st164{fill:none;stroke:#FBC5A3;stroke-width:1.230900e-002;stroke-miterlimit:2.6131;}
	.st165{fill:none;stroke:#FFF100;stroke-width:1.230900e-002;stroke-miterlimit:2.6131;}
	.st166{fill:none;stroke:#FDDAC3;stroke-width:1.230900e-002;stroke-miterlimit:2.6131;}
	.st167{fill:#FAFDFF;}
	.st168{fill:none;stroke:#006BB5;stroke-width:1.230900e-002;stroke-miterlimit:2.6131;}
	.st169{fill:none;stroke:#00335A;stroke-width:1.230900e-002;stroke-miterlimit:2.6131;}
	.st170{fill:#99DBF8;}
	.st171{fill:#FCD5BD;}
	.st172{fill:none;stroke:#FFE700;stroke-width:1.230900e-002;stroke-miterlimit:2.6131;}
	.st173{fill:#C9ECFB;}
	.st174{fill:#FDE6D3;}
	.st175{opacity:0.5;}
	.st176{fill:#FFFFFF;stroke:#BF0C0C;stroke-width:0.4508;stroke-miterlimit:10;}
	.st177{fill:none;stroke:#EC1C24;stroke-width:1.230900e-002;stroke-miterlimit:2.6131;}
	.st178{fill:#776235;stroke:#776235;stroke-width:0.1612;stroke-miterlimit:10;}
	.st179{fill:#FFA200;}
	.st180{fill:#FFCA05;}
	.st181{fill:#FFD500;}
	.st182{fill:#FFF100;}
	.st183{fill:#FFF200;}
	.st184{fill:#FFFFC3;}
	.st185{fill:#FFFFFF;}
	.st186{fill:none;stroke:#FDE8DD;stroke-width:1.230900e-002;stroke-miterlimit:2.6131;}
	.st187{fill-rule:evenodd;clip-rule:evenodd;fill:#231F20;}
	.st188{fill:#FFFFFF;stroke:#231F20;stroke-width:2.154900e-002;stroke-miterlimit:2.6131;}
	.st189{fill:none;stroke:#FABE9A;stroke-width:1.230900e-002;stroke-miterlimit:2.6131;}
	.st190{fill:#FFFFFF;stroke:#FFFFFF;stroke-width:9.116300e-002;stroke-miterlimit:10;}
	.st191{fill:none;stroke:#004877;stroke-width:1.230900e-002;stroke-miterlimit:2.6131;}
	.st192{fill:#652B00;}
	.st193{fill:#FFFFFF;stroke:#BF0C0C;stroke-width:0.3807;stroke-miterlimit:10;}
	.st194{fill-rule:evenodd;clip-rule:evenodd;fill:#FFFFFF;stroke:#231F20;stroke-width:2.154900e-002;stroke-miterlimit:2.6131;}
	.st195{fill-rule:evenodd;clip-rule:evenodd;fill:#F4EF86;}
	.st196{fill:none;stroke:#FDE0CE;stroke-width:1.230900e-002;stroke-miterlimit:2.6131;}
	.st197{fill:none;stroke:#005589;stroke-width:1.230900e-002;stroke-miterlimit:2.6131;}
	.st198{fill:none;stroke:#0062AF;stroke-width:1.230900e-002;stroke-miterlimit:2.6131;}
	.st199{fill:none;stroke:#005CAA;stroke-width:1.230900e-002;stroke-miterlimit:2.6131;}
	.st200{fill:none;stroke:#2B4B9F;stroke-width:1.230900e-002;stroke-miterlimit:2.6131;}
	.st201{fill:#9B8579;}
	.st202{fill:none;stroke:#231F20;stroke-width:1.230900e-002;stroke-miterlimit:2.6131;}
	.st203{fill:none;stroke:#FABD96;stroke-width:1.230900e-002;stroke-miterlimit:2.6131;}
	.st204{stroke:#000000;stroke-width:3.6328;stroke-miterlimit:10;}
	.st205{fill:#CC1818;}
	.st206{fill:none;stroke:#003A63;stroke-width:1.230900e-002;stroke-miterlimit:2.6131;}
	.st207{fill:#CCCCCC;}
	.st208{fill:#FFFFFF;stroke:#0C6B40;stroke-width:0.2762;stroke-miterlimit:10;}
	.st209{fill:#CD181F;}
	.st210{fill:#9E002D;}
	.st211{fill:none;stroke:#756238;stroke-miterlimit:10;}
	.st212{fill:none;stroke:#FCD7C2;stroke-width:1.230900e-002;stroke-miterlimit:2.6131;}
	.st213{fill:#9EDDF8;}
	.st214{fill:#CE0A26;}
	.st215{fill:none;stroke:#F06022;stroke-width:1.230900e-002;stroke-miterlimit:2.6131;}
	.st216{fill:none;stroke:#FBCDB1;stroke-width:1.230900e-002;stroke-miterlimit:2.6131;}
	.st217{fill:#FFA200;stroke:#FFA200;stroke-width:0.1612;stroke-miterlimit:10;}
	.st218{fill:#CEEEFB;}
	.st219{fill:none;stroke:#00345B;stroke-width:1.230900e-002;stroke-miterlimit:2.6131;}
	.st220{fill:none;stroke:#231F20;stroke-width:9.208000e-003;stroke-miterlimit:2.6131;}
	.st221{fill:#EC1A3D;stroke:#BE112F;stroke-width:4.533000e-003;}
	.st222{fill:#CFCDBE;}
	.st223{fill:none;stroke:#F6911E;stroke-width:1.230900e-002;stroke-miterlimit:2.6131;}
	.st224{fill:none;stroke:#ED2524;stroke-width:1.230900e-002;stroke-miterlimit:2.6131;}
	.st225{fill:none;stroke:#00416D;stroke-width:1.230900e-002;stroke-miterlimit:2.6131;}
	.st226{fill:none;stroke:#009D8B;stroke-width:1.230900e-002;stroke-miterlimit:2.6131;}
	.st227{fill:none;stroke:#ED3024;stroke-width:1.230900e-002;stroke-miterlimit:2.6131;}
	.st228{fill:none;stroke:#FFFFFF;stroke-linecap:round;stroke-miterlimit:10;stroke-dasharray:10,10,10,10,10,10;}
	.st229{stroke:#000000;stroke-width:1.8384;stroke-miterlimit:10;}
	.st230{fill:none;stroke:#005E96;stroke-width:1.230900e-002;stroke-miterlimit:2.6131;}
	.st231{fill:none;stroke:#F16A22;stroke-width:1.230900e-002;stroke-miterlimit:2.6131;}
	.st232{fill:url(#SVGID_76_);stroke:#BE112F;stroke-width:4.533000e-003;}
	.st233{opacity:0.3;fill:#808080;}
	.st234{fill:#0090B8;stroke:#0090B8;stroke-width:1.844800e-002;stroke-miterlimit:2.6131;}
	.st235{fill:none;stroke:#231F20;stroke-width:2.154900e-002;stroke-miterlimit:2.6131;}
	.st236{fill:#FFFFFF;stroke:#C5C6A1;stroke-width:0.5;stroke-miterlimit:10;}
	.st237{fill:none;stroke:#B3B3B3;stroke-width:1.6866;stroke-miterlimit:10;}
	.st238{stroke:#000000;stroke-width:3.6417;stroke-miterlimit:10;}
	.st239{fill:none;stroke:#003158;stroke-width:1.230900e-002;stroke-miterlimit:2.6131;}
	.st240{fill:#37B34A;}
	.st241{fill:none;stroke:#F9A719;stroke-width:1.230900e-002;stroke-miterlimit:2.6131;}
	.st242{fill:#FFFFFF;stroke:#FFFFFF;stroke-width:9.208000e-003;stroke-miterlimit:2.6131;}
	.st243{fill:none;stroke:#FBC19D;stroke-width:1.230900e-002;stroke-miterlimit:2.6131;}
	.st244{clip-path:url(#SVGID_116_);}
	.st245{clip-path:url(#SVGID_119_);}
	.st246{clip-path:url(#SVGID_121_);}
	.st247{fill:none;stroke:#0088CF;stroke-width:1.230900e-002;stroke-miterlimit:2.6131;}
	.st248{fill:none;stroke:#FCB614;stroke-width:1.230900e-002;stroke-miterlimit:2.6131;}
	.st249{fill:#6D6E71;}
	.st250{fill:none;stroke:#B9D432;stroke-width:1.230900e-002;stroke-miterlimit:2.6131;}
	.st251{fill:#FFFFFF;stroke:#FFFFFF;stroke-width:1.0545;stroke-miterlimit:10;}
	.st252{fill:none;stroke:#0077BF;stroke-width:1.230900e-002;stroke-miterlimit:2.6131;}
	.st253{fill:#003158;}
	.st254{fill:#004CA5;}
	.st255{fill:#004D38;}
	.st256{fill:#005E96;}
	.st257{fill:#0065C2;}
	.st258{fill:#0066B2;}
	.st259{fill:#006838;}
	.st260{fill:#0079C0;}
	.st261{fill:#005780;}
	.st262{fill:#009A00;}
	.st263{fill:none;stroke:#FDEFE7;stroke-width:1.230900e-002;stroke-miterlimit:2.6131;}
	.st264{fill:#EE382C;stroke:#BE112F;stroke-width:4.533000e-003;}
	.st265{fill:none;stroke:#FFCC02;stroke-width:1.230900e-002;stroke-miterlimit:2.6131;}
	.st266{fill:#FFFFFF;stroke:#FFFFFF;stroke-width:0.2132;stroke-miterlimit:10;}
	.st267{fill:none;stroke:#00598E;stroke-width:1.230900e-002;stroke-miterlimit:2.6131;}
	.st268{fill:none;stroke:#005081;stroke-width:1.230900e-002;stroke-miterlimit:2.6131;}
	.st269{fill:none;stroke:#F05623;stroke-width:1.230900e-002;stroke-miterlimit:2.6131;}
	.st270{fill:#BF0C0C;stroke:#BF0C0C;stroke-width:0.7442;stroke-miterlimit:10;}
	.st271{fill:none;stroke:#FDE2D1;stroke-width:1.230900e-002;stroke-miterlimit:2.6131;}
	.st272{fill-rule:evenodd;clip-rule:evenodd;fill:#FFCA05;}
	.st273{fill-rule:evenodd;clip-rule:evenodd;fill:#FFFFFF;}
	.st274{stroke:#000000;stroke-width:1.8629;stroke-miterlimit:10;}
	.st275{fill:#D1D3D4;}
	.st276{fill:none;stroke:#002447;stroke-width:1.230900e-002;stroke-miterlimit:2.6131;}
	.st277{fill:#D30034;}
	.st278{fill:#D31134;}
	.st279{fill:none;stroke:#FABD98;stroke-width:1.230900e-002;stroke-miterlimit:2.6131;}
	.st280{fill:none;stroke:#00426E;stroke-width:1.230900e-002;stroke-miterlimit:2.6131;}
	.st281{fill:none;stroke:#004979;stroke-width:1.230900e-002;stroke-miterlimit:2.6131;}
	.st282{fill:#D4F0FC;}
	.st283{fill:none;stroke:#7DC142;stroke-width:1.230900e-002;stroke-miterlimit:2.6131;}
	.st284{fill:none;stroke:#FBC6A6;stroke-width:1.230900e-002;stroke-miterlimit:2.6131;}
	.st285{fill:none;stroke:#00AB5A;stroke-width:1.230900e-002;stroke-miterlimit:2.6131;}
	.st286{fill:#D5D7D8;}
	.st287{fill:#D71921;}
	.st288{fill:none;stroke:#FABE98;stroke-width:1.230900e-002;stroke-miterlimit:2.6131;}
	.st289{fill:none;stroke:#004370;stroke-width:1.230900e-002;stroke-miterlimit:2.6131;}
	.st290{fill:url(#XMLID_506_);}
	.st291{fill:url(#XMLID_522_);}
	.st292{fill:url(#SVGID_33_);}
	.st293{fill:url(#SVGID_34_);}
	.st294{fill:url(#SVGID_35_);}
	.st295{fill:url(#SVGID_36_);}
	.st296{fill:url(#SVGID_37_);}
	.st297{fill:url(#SVGID_38_);}
	.st298{fill:url(#SVGID_39_);}
	.st299{fill:url(#SVGID_40_);}
	.st300{fill:url(#SVGID_41_);}
	.st301{fill:url(#SVGID_42_);}
	.st302{fill:url(#SVGID_43_);}
	.st303{fill:url(#SVGID_44_);}
	.st304{fill:url(#SVGID_45_);}
	.st305{fill:url(#SVGID_46_);}
	.st306{fill:url(#SVGID_47_);}
	.st307{fill:url(#SVGID_48_);}
	.st308{fill:url(#SVGID_49_);}
	.st309{fill:url(#SVGID_50_);}
	.st310{fill:url(#SVGID_51_);}
	.st311{fill:url(#SVGID_52_);}
	.st312{fill:url(#SVGID_53_);}
	.st313{fill:url(#SVGID_54_);}
	.st314{fill:url(#SVGID_55_);}
	.st315{fill:url(#SVGID_56_);}
	.st316{fill:url(#SVGID_57_);}
	.st317{fill:url(#SVGID_58_);}
	.st318{fill:url(#SVGID_59_);}
	.st319{fill:url(#SVGID_60_);}
	.st320{fill:url(#SVGID_61_);}
	.st321{fill:url(#SVGID_62_);}
	.st322{fill:url(#SVGID_63_);}
	.st323{fill:url(#SVGID_64_);}
	.st324{fill:url(#SVGID_65_);}
	.st325{fill:url(#SVGID_66_);}
	.st326{fill:url(#SVGID_82_);}
	.st327{fill:url(#SVGID_83_);}
	.st328{fill:url(#SVGID_84_);}
	.st329{fill:url(#SVGID_89_);}
	.st330{fill:url(#SVGID_92_);}
	.st331{fill:none;stroke:#FBC9AA;stroke-width:1.230900e-002;stroke-miterlimit:2.6131;}
	.st332{fill:none;stroke:#003B65;stroke-width:1.230900e-002;stroke-miterlimit:2.6131;}
	.st333{fill:none;stroke:#0066B2;stroke-width:1.230900e-002;stroke-miterlimit:2.6131;}
	.st334{fill:none;stroke:#231F20;stroke-width:4.445600e-002;stroke-miterlimit:2.6131;}
	.st335{clip-path:url(#XMLID_508_);fill-rule:evenodd;clip-rule:evenodd;fill:#FFFFFF;}
	.st336{fill:#D9F2FC;}
	.st337{fill:none;stroke:#00355D;stroke-width:1.230900e-002;stroke-miterlimit:2.6131;}
	.st338{fill:#BF0C0C;stroke:#BF0C0C;stroke-width:0.2254;stroke-miterlimit:10;}
	.st339{fill-rule:evenodd;clip-rule:evenodd;fill:url(#SVGID_29_);}
	.st340{fill-rule:evenodd;clip-rule:evenodd;fill:url(#SVGID_30_);}
	.st341{fill-rule:evenodd;clip-rule:evenodd;fill:url(#SVGID_31_);}
	.st342{fill-rule:evenodd;clip-rule:evenodd;fill:url(#SVGID_32_);}
	.st343{fill-rule:evenodd;clip-rule:evenodd;fill:url(#SVGID_67_);}
	.st344{fill-rule:evenodd;clip-rule:evenodd;fill:url(#SVGID_68_);}
	.st345{fill-rule:evenodd;clip-rule:evenodd;fill:url(#SVGID_69_);}
	.st346{clip-path:url(#SVGID_16_);}
	.st347{fill-rule:evenodd;clip-rule:evenodd;fill:url(#SVGID_70_);}
	.st348{fill-rule:evenodd;clip-rule:evenodd;fill:url(#SVGID_71_);}
	.st349{fill-rule:evenodd;clip-rule:evenodd;fill:url(#SVGID_72_);}
	.st350{fill-rule:evenodd;clip-rule:evenodd;fill:url(#SVGID_73_);}
	.st351{fill-rule:evenodd;clip-rule:evenodd;fill:url(#SVGID_74_);}
	.st352{fill-rule:evenodd;clip-rule:evenodd;fill:url(#SVGID_75_);}
	.st353{fill-rule:evenodd;clip-rule:evenodd;fill:url(#SVGID_77_);}
	.st354{fill-rule:evenodd;clip-rule:evenodd;fill:url(#SVGID_78_);}
	.st355{fill-rule:evenodd;clip-rule:evenodd;fill:url(#SVGID_79_);}
	.st356{clip-path:url(#SVGID_22_);}
	.st357{clip-path:url(#SVGID_24_);}
	.st358{clip-path:url(#SVGID_26_);}
	.st359{clip-path:url(#SVGID_28_);}
	.st360{fill-rule:evenodd;clip-rule:evenodd;fill:url(#SVGID_80_);}
	.st361{fill-rule:evenodd;clip-rule:evenodd;fill:url(#SVGID_81_);}
	.st362{clip-path:url(#SVGID_86_);}
	.st363{clip-path:url(#SVGID_88_);}
	.st364{clip-path:url(#SVGID_91_);}
	.st365{fill:#D71921;stroke:#231F20;stroke-width:9.208000e-003;stroke-miterlimit:2.6131;}
	.st366{fill:#FFFFFF;stroke:#B9BD33;stroke-width:0.368;stroke-miterlimit:10;}
	.st367{fill:none;stroke:#004B7B;stroke-width:1.230900e-002;stroke-miterlimit:2.6131;}
	.st368{fill:#734299;}
	.st369{fill:none;stroke:#3C3E98;stroke-width:1.230900e-002;stroke-miterlimit:2.6131;}
	.st370{fill:#A3DFF8;}
	.st371{fill:none;stroke:#FDDBC7;stroke-width:1.230900e-002;stroke-miterlimit:2.6131;}
	.st372{fill:none;stroke:#34449B;stroke-width:1.230900e-002;stroke-miterlimit:2.6131;}
	.st373{fill:none;stroke:#A5CD39;stroke-width:1.230900e-002;stroke-miterlimit:2.6131;}
	.st374{fill-rule:evenodd;clip-rule:evenodd;fill:#D71921;stroke:#231F20;stroke-width:9.208000e-003;stroke-miterlimit:2.6131;}
	.st375{fill:#FFCA05;stroke:#231F20;stroke-width:1.844800e-002;stroke-miterlimit:2.6131;}
	.st376{fill:none;stroke:#FBAE17;stroke-width:1.230900e-002;stroke-miterlimit:2.6131;}
	.st377{opacity:0.3;fill:#F0F1F1;}
	.st378{fill:#BF0C0C;stroke:#FFFFFF;stroke-width:0.3807;stroke-miterlimit:10;}
	.st379{fill:none;stroke:#FDDECB;stroke-width:1.230900e-002;stroke-miterlimit:2.6131;}
	.st380{fill:#0C6B40;}
	.st381{fill:#0D4E91;}
	.st382{fill:none;stroke:#FBC29F;stroke-width:1.230900e-002;stroke-miterlimit:2.6131;}
	.st383{fill:none;stroke:#91C73E;stroke-width:1.230900e-002;stroke-miterlimit:2.6131;}
	.st384{fill-rule:evenodd;clip-rule:evenodd;fill:#FFCA05;stroke:#231F20;stroke-width:1.844800e-002;stroke-miterlimit:2.6131;}
	.st385{opacity:0.1;fill:#CFD2D3;}
	.st386{fill:none;stroke:#ED3724;stroke-width:1.230900e-002;stroke-miterlimit:2.6131;}
	.st387{fill:#0E5682;}
	.st388{fill:#0C6B40;stroke:#0C6B40;stroke-width:0.1263;stroke-miterlimit:10;}
	.st389{fill:#A9E1F9;}
	.st390{fill-rule:evenodd;clip-rule:evenodd;fill:#003158;}
	.st391{fill-rule:evenodd;clip-rule:evenodd;fill:#0054A5;}
	.st392{fill-rule:evenodd;clip-rule:evenodd;fill:#005E96;}
	.st393{fill:none;stroke:#004471;stroke-width:1.230900e-002;stroke-miterlimit:2.6131;}
	.st394{fill:none;stroke:#003C66;stroke-width:1.230900e-002;stroke-miterlimit:2.6131;}
	.st395{fill:none;stroke:#FFF1EB;stroke-width:1.230900e-002;stroke-miterlimit:2.6131;}
	.st396{fill:#414141;}
	.st397{fill:none;stroke:#00999A;stroke-width:1.230900e-002;stroke-miterlimit:2.6131;}
	.st398{fill:none;stroke:#00A17D;stroke-width:1.230900e-002;stroke-miterlimit:2.6131;}
	.st399{fill:none;stroke:#005183;stroke-width:1.230900e-002;stroke-miterlimit:2.6131;}
	.st400{fill:#DFF4FD;}
	.st401{fill:#FFFFFF;stroke:#BF0C0C;stroke-width:0.7442;stroke-miterlimit:10;}
	.st402{fill:none;stroke:#FBC6A8;stroke-width:1.230900e-002;stroke-miterlimit:2.6131;}
	.st403{fill:none;stroke:#FDEADE;stroke-width:1.230900e-002;stroke-miterlimit:2.6131;}
	.st404{fill:none;stroke:#FDEAE0;stroke-width:1.230900e-002;stroke-miterlimit:2.6131;}
	.st405{fill:none;stroke:#004C7C;stroke-width:1.230900e-002;stroke-miterlimit:2.6131;}
	.st406{fill:none;stroke:#FCD3BA;stroke-width:1.230900e-002;stroke-miterlimit:2.6131;}
]]>
</style>
<g id="XMLID_419_">
	<g id="XMLID_451_">
		<polygon id="XMLID_526_" class="st236" points="25.1,14.1 25.1,14.1 26.2,13.8 24.6,30.4 24.6,30.6 21,33.2 21.5,26.7 21.8,23.7 
			22.2,20.5 22.8,14.6 		"/>
		<path id="XMLID_525_" class="st141" d="M10.8,15.2c-0.4,0.5-0.9,1-1.3,1.4c-0.2,0.2,0,0.5,0.2,0.3c0.6-0.6,1.1-1.1,1.6-1.8
			L10.8,15.2z"/>
		<path id="XMLID_523_" class="st185" d="M6.4,15.6c0.1-0.1,0.2-0.2,0.4-0.1L9,15.9c0.1,0,0.3,0.1,0.3,0.3l1,2c0.1,0.1,0,0.3,0,0.4
			l-4.5,5.6c-0.1,0.1-0.2,0.1-0.3,0L3.8,23c-0.1-0.1-0.3-0.2-0.4-0.3l-1.5-1.3c-0.1-0.1-0.1-0.2,0-0.3L6.4,15.6z"/>
		<g id="XMLID_519_">
			
				<ellipse id="XMLID_521_" transform="matrix(0.7781 0.6282 -0.6282 0.7781 12.4767 -1.6002)" class="st222" cx="8.5" cy="16.9" rx="0.5" ry="0.5"/>
			
				<ellipse id="XMLID_520_" transform="matrix(0.7786 0.6275 -0.6275 0.7786 12.4603 -1.6037)" class="st185" cx="8.5" cy="16.9" rx="0.3" ry="0.3"/>
		</g>
		<g id="XMLID_517_">
			<path id="XMLID_518_" class="st380" d="M6.1,17.2c0.1-0.1,0.2-0.1,0.3-0.1l2.4,2c0,0.1,0,0.2,0,0.3l-3.1,3.9
				c-0.1,0.1-0.2,0.1-0.2,0l-1.1-0.9c-0.1-0.1-0.2-0.1-0.2-0.2L3,21.3c-0.1-0.1-0.1-0.2,0-0.2L6.1,17.2z"/>
		</g>
		<g id="XMLID_503_">
			<g>
				<path id="XMLID_599_" class="st185" d="M5,20.7l-0.2-0.3L7,19.2l0.2,0.3L5,20.7z M5.3,18.6c0.1-0.1,0.2-0.2,0.3-0.3
					c0.1,0,0.3,0,0.5,0.1c0.2,0.1,0.3,0.2,0.3,0.4c0,0.1,0,0.3-0.1,0.4l-0.1,0.1c-0.1,0.1-0.2,0.2-0.3,0.3c-0.1,0-0.3,0-0.5-0.1
					c-0.2-0.1-0.3-0.2-0.3-0.4c0-0.1,0-0.3,0.1-0.4L5.3,18.6z M5.6,18.9c0,0.1,0,0.1,0,0.2c0,0.1,0,0.1,0.1,0.1c0.1,0,0.1,0,0.2,0
					s0.1-0.1,0.1-0.1L6,19c0-0.1,0-0.1,0-0.2s0-0.1-0.1-0.1c-0.1,0-0.1,0-0.2,0c-0.1,0-0.1,0.1-0.1,0.1L5.6,18.9z M5.7,20.6
					c0.1-0.1,0.2-0.2,0.3-0.3c0.1,0,0.3,0,0.5,0.1c0.2,0.1,0.3,0.2,0.3,0.4s0,0.3-0.1,0.4l-0.1,0.1c-0.1,0.1-0.2,0.2-0.3,0.3
					c-0.1,0-0.3,0-0.5-0.1c-0.2-0.1-0.3-0.2-0.3-0.4c0-0.1,0-0.3,0.1-0.4L5.7,20.6z M6,20.9C6,21,6,21,6,21.1c0,0.1,0,0.1,0.1,0.1
					c0.1,0,0.1,0,0.2,0c0,0,0.1-0.1,0.1-0.1L6.4,21c0-0.1,0-0.1,0-0.2c0-0.1,0-0.1-0.1-0.1c-0.1,0-0.1,0-0.2,0
					c-0.1,0-0.1,0.1-0.1,0.1L6,20.9z"/>
			</g>
		</g>
		<path id="XMLID_495_" class="st236" d="M22.8,14.6C22.1,20.8,21.5,27,21,33.2c-2.7-1.6-5.7-3.1-8.8-4.5c-0.5-5.1-1-10.3-1.5-15.4
			C14.7,13.7,18.8,14.1,22.8,14.6z"/>
		<g id="XMLID_492_">
			
				<ellipse id="XMLID_494_" transform="matrix(-0.9991 -4.337848e-002 4.337848e-002 -0.9991 38.555 33.5593)" class="st396" cx="19.6" cy="16.4" rx="0.7" ry="0.9"/>
			
				<ellipse id="XMLID_493_" transform="matrix(-0.9991 -4.248356e-002 4.248356e-002 -0.9991 39.3485 32.4036)" class="st79" cx="20" cy="15.8" rx="0.3" ry="0.4"/>
		</g>
		<g id="XMLID_490_">
			<path id="XMLID_491_" class="st79" d="M16.4,23.4c0,0-0.1,0-0.1,0c-1.9-0.1-3.3-2.1-3.2-4.4l0.1-1.5c0-0.2,0.2-0.3,0.4-0.3
				c0.2,0,0.3,0.2,0.3,0.4L13.8,19c-0.1,2,1.1,3.6,2.6,3.7c1.5,0.1,2.8-1.5,2.9-3.5l0.1-1.5c0-0.2,0.2-0.3,0.4-0.3
				c0.2,0,0.3,0.2,0.3,0.4l-0.1,1.5C19.8,21.6,18.3,23.4,16.4,23.4z"/>
		</g>
		<polygon id="XMLID_489_" class="st396" points="10.7,13.3 22.8,14.6 26.2,13.8 12.3,13 		"/>
		<path id="XMLID_488_" class="st79" d="M12,13.6c0-0.1-0.1-0.2-0.1-0.3c0,0-0.1-0.1-0.2-0.2c-0.8-0.4-1.5,0.5-2,1.1
			C9,15.1,8.3,15.9,8.3,17c0,0.3,0.3,0.3,0.3,0c0-0.9,0.5-1.6,1-2.3c0.4-0.4,1.2-1.6,1.8-1.4"/>
		<g id="XMLID_485_">
			<path id="XMLID_487_" class="st222" d="M8.2,17.3C8.1,17.2,8,17.1,8,16.9l0.2,0c0,0.1,0,0.1,0.1,0.2c0.1,0.1,0.3,0.1,0.4-0.1
				c0-0.1,0.1-0.1,0.1-0.2l0.2,0c0,0.1,0,0.2-0.1,0.3C8.7,17.4,8.4,17.4,8.2,17.3z"/>
			<path id="XMLID_486_" class="st222" d="M9,16.8C9,16.8,9,16.8,9,16.8"/>
		</g>
		<path id="XMLID_484_" class="st396" d="M12.6,16.5c0-0.7,0.3-1.1,0.9-1.1c0.5,0,0.8,0.5,0.7,1.1c0,0.7-0.3-0.2-0.8-0.2
			C12.9,16.3,12.6,17.1,12.6,16.5z"/>
		<path id="XMLID_482_" class="st185" d="M21.5,19.7c-1.4,1.1-3.3,0.9-4.4-0.5c-1-1.3-0.8-3.3,0.6-4.3c1.4-1.1,3.3-0.9,4.4,0.5
			C23.1,16.7,22.9,18.6,21.5,19.7z"/>
		<g id="XMLID_467_">
			<defs>
				<path id="XMLID_468_" d="M21.3,19.9C19.9,20.8,18,20.4,17,19c-0.9-1.4-0.5-3.3,0.9-4.3c1.4-0.9,3.4-0.6,4.3,0.8
					C23.2,17,22.8,18.9,21.3,19.9z"/>
			</defs>
			<clipPath id="XMLID_308_">
				<use xlink:href="#XMLID_468_"  style="overflow:visible;"/>
			</clipPath>
			<g id="XMLID_470_" class="st20">
				<g id="XMLID_473_">
					
						<ellipse id="XMLID_481_" transform="matrix(-0.9921 -0.1251 0.1251 -0.9921 37.86 36.248)" class="st396" cx="20.1" cy="16.9" rx="1.1" ry="1.5"/>
					
						<ellipse id="XMLID_478_" transform="matrix(-0.9922 -0.1245 0.1245 -0.9922 38.9729 34.7058)" class="st185" cx="20.6" cy="16.1" rx="0.4" ry="0.5"/>
				</g>
				<g id="XMLID_471_">
					<path id="XMLID_472_" class="st185" d="M15.1,26.1c-0.3,0-0.5,0-0.8-0.1c-2.7-0.5-4.3-3.7-3.6-7l0.4-2.2c0-0.2,0.2-0.3,0.4-0.3
						c0.2,0,0.3,0.2,0.3,0.4l-0.4,2.2c-0.6,3,0.8,5.7,3.1,6.2c2.4,0.5,5-1.7,5.6-4.5l0.3-1.4c0-0.2,0.2-0.3,0.4-0.3
						c0.2,0,0.3,0.2,0.3,0.4L20.6,21C20.1,23.9,17.6,26.1,15.1,26.1z"/>
				</g>
			</g>
		</g>
		<path id="XMLID_466_" class="st385" d="M20.9,17.8c-0.2,0.4-0.7,0.8-1.2,0.6c-0.5-0.2-0.7-0.8-0.7-1.3c0-0.1,0.1-0.1,0.1-0.1
			c0.2,0.2,0.3,0.6,0.7,0.8C20.5,18.1,21.1,17.3,20.9,17.8z"/>
		<g id="XMLID_464_" class="st175">
			<ellipse id="XMLID_465_" class="st29" cx="19.6" cy="17.3" rx="3.2" ry="3.2"/>
		</g>
		<path id="XMLID_458_" class="st381" d="M20.6,13.5c-2.1-0.5-4.2,0.8-4.7,2.9c-0.5,2.1,0.8,4.2,2.9,4.7c2.1,0.5,4.2-0.8,4.7-2.9
			C23.9,16.1,22.7,14,20.6,13.5z M19,20.3c-1.6-0.4-2.7-2-2.3-3.7c0.4-1.6,2-2.7,3.7-2.3c1.6,0.4,2.7,2,2.3,3.7
			C22.3,19.7,20.6,20.7,19,20.3z"/>
		<path id="XMLID_457_" class="st377" d="M17.5,18.7c-0.2,0.1-0.4,0-0.5-0.2c-0.7-1.5,0-3.2,1.5-3.9c0.2-0.1,0.4,0,0.5,0.2
			c0.1,0.2,0,0.4-0.2,0.5c-1.1,0.5-1.6,1.8-1.1,2.9C17.8,18.4,17.7,18.6,17.5,18.7z"/>
		<path id="XMLID_455_" class="st381" d="M22.8,23.8c0.1,0.3-0.1,0.6-0.4,0.7l0,0c-0.3,0.1-0.7,0-0.8-0.3L20.4,21
			c-0.1-0.3,0.1-0.6,0.4-0.7l0,0c0.3-0.1,0.7,0,0.8,0.3L22.8,23.8z"/>
		<g id="XMLID_452_">
			<path id="XMLID_454_" class="st17" d="M22.7,23c0.3,0,1.4,0,1.9-1.2c0.4-0.8,0.1-1.6-0.6-2.6c-0.1-0.1-0.2-0.1-0.1,0.1
				c1.3,2.2-1.4,2.6-1.4,2.6"/>
			<path id="XMLID_453_" class="st366" d="M21.2,22.9c-0.2-0.6,0-1.2,0.4-1.4c0.4-0.2,1,0.2,1.2,0.7c0.2,0.6,0,1.2-0.4,1.4
				C21.9,23.8,21.4,23.5,21.2,22.9z"/>
		</g>
	</g>
	<g id="XMLID_436_">
		<g id="XMLID_449_">
			<polygon id="XMLID_450_" class="st185" points="35.3,12.3 32.3,21.4 30.5,21.7 27.5,13.4 29.5,13.1 31.4,18.9 33.4,12.5 			"/>
		</g>
		<g id="XMLID_445_">
			<path id="XMLID_446_" class="st185" d="M38.5,19.2c0.2-0.2,0.4-0.4,0.4-0.6l1.8-0.3c-0.2,0.7-0.6,1.3-1.1,1.7
				c-0.5,0.4-1.1,0.7-1.8,0.8c-2.2,0.3-3.3-0.7-3.3-3.1c0-0.5,0.1-1,0.2-1.4c0.1-0.4,0.4-0.8,0.6-1.1c0.3-0.3,0.6-0.6,1-0.8
				c0.4-0.2,0.8-0.3,1.4-0.4c1-0.1,1.8,0.1,2.3,0.6c0.5,0.6,0.8,1.5,0.8,2.8l-4.5,0.6c0,0.5,0.2,0.9,0.4,1.1c0.3,0.3,0.6,0.3,1,0.3
				C38,19.4,38.3,19.3,38.5,19.2z M36.8,15.9c-0.3,0.3-0.4,0.7-0.4,1.1l2.7-0.4c0-0.2-0.1-0.4-0.1-0.6c-0.1-0.2-0.2-0.3-0.3-0.4
				c-0.1-0.1-0.3-0.2-0.4-0.2c-0.2,0-0.3,0-0.5,0C37.3,15.4,37,15.6,36.8,15.9"/>
		</g>
		<g id="XMLID_443_">
			<path id="XMLID_444_" class="st185" d="M45.2,13c0.3,0,0.6,0,0.9,0c0.3,0.1,0.5,0.2,0.7,0.3c0.2,0.2,0.3,0.4,0.5,0.6
				c0.1,0.3,0.2,0.6,0.2,0.9l0,4.5l-1.8,0.2l0-3.9c0-0.5-0.1-0.8-0.3-1c-0.2-0.2-0.5-0.2-0.9-0.1c-0.9,0.1-1.4,0.7-1.4,1.7l0,3.7
				l-1.7,0.2l0-6.5l1.7-0.2l0,0.9c0.2-0.4,0.5-0.7,0.8-1C44.2,13.2,44.6,13.1,45.2,13z"/>
		</g>
		<g id="XMLID_441_">
			<path id="XMLID_442_" class="st185" d="M49.8,10.7l0,1.8l3.7-0.5l0,1.2l-3.7,0.5l0,2.7c0,0.4,0.1,0.7,0.2,0.9
				c0.2,0.2,0.4,0.3,0.8,0.2c0.3,0,0.6-0.2,0.8-0.4c0.2-0.2,0.2-0.6,0.3-1l0-1.7l1.6-0.2l0,1.8c0,0.3-0.1,0.7-0.2,1
				c-0.1,0.3-0.3,0.6-0.5,0.9c-0.2,0.3-0.5,0.5-0.8,0.7c-0.3,0.2-0.7,0.3-1.2,0.4c-0.5,0.1-0.9,0.1-1.2,0c-0.3-0.1-0.6-0.2-0.8-0.4
				c-0.2-0.2-0.4-0.5-0.5-0.8c-0.1-0.3-0.1-0.6-0.1-1l0-5.8L49.8,10.7z"/>
		</g>
		<g id="XMLID_437_">
			<path id="XMLID_438_" class="st185" d="M59.7,12.4c0.1,0.3,0.1,0.7,0.1,1.1l0,4.1l-1.6,0.2c-0.1-0.2-0.1-0.3-0.1-0.6
				c-0.2,0.3-0.5,0.5-0.8,0.7c-0.3,0.2-0.7,0.3-1.2,0.4c-0.8,0.1-1.3,0-1.7-0.3c-0.4-0.3-0.5-0.7-0.5-1.2c0-0.5,0.1-0.8,0.2-1.1
				c0.2-0.3,0.4-0.5,0.6-0.7c0.3-0.2,0.6-0.4,1-0.5c0.4-0.1,0.8-0.3,1.2-0.4c0.4-0.1,0.7-0.2,0.9-0.4c0.2-0.1,0.2-0.3,0.2-0.5
				c0-0.2-0.1-0.4-0.3-0.5c-0.2-0.1-0.5-0.1-0.8-0.1c-0.4,0.1-0.7,0.2-0.9,0.4c-0.2,0.2-0.3,0.4-0.3,0.7L54.1,14
				c0-0.3,0.1-0.6,0.2-0.9s0.3-0.6,0.5-0.8c0.2-0.2,0.5-0.4,0.9-0.6c0.4-0.2,0.8-0.3,1.3-0.4c0.5-0.1,1-0.1,1.3,0
				c0.4,0.1,0.7,0.2,0.9,0.4C59.4,11.9,59.6,12.1,59.7,12.4z M58,15.4l0-0.7c-0.1,0.1-0.2,0.2-0.4,0.3c-0.2,0.1-0.4,0.2-0.7,0.3
				c-0.5,0.2-0.8,0.3-1,0.5c-0.2,0.2-0.3,0.4-0.3,0.7c0,0.5,0.3,0.7,0.8,0.6c0.2,0,0.4-0.1,0.6-0.2c0.2-0.1,0.4-0.2,0.5-0.4
				c0.1-0.1,0.3-0.3,0.3-0.5C58,15.7,58,15.5,58,15.4"/>
		</g>
	</g>
	<g id="XMLID_420_">
		<g id="XMLID_431_">
			<path id="XMLID_432_" class="st185" d="M35.2,28.2c0.1,0.2,0.1,0.5,0.1,0.8c0,0.8-0.3,1.5-0.8,2c-0.5,0.5-1.4,0.9-2.5,1.1l-4,0.6
				l0-8.8l4.4-0.6c0.9-0.1,1.5,0,2,0.4c0.5,0.4,0.7,0.9,0.7,1.7c0,0.4-0.1,0.7-0.3,1.1c-0.2,0.3-0.5,0.6-0.8,0.7
				c0.2,0,0.4,0.1,0.5,0.2c0.2,0.1,0.3,0.2,0.4,0.4C35,27.8,35.1,28,35.2,28.2z M33.1,30.1c0.2-0.3,0.4-0.6,0.4-0.9
				c0-0.4-0.1-0.7-0.4-0.8c-0.2-0.1-0.6-0.2-1-0.1l-2.4,0.3l0,2.4l2.4-0.3C32.5,30.5,32.8,30.4,33.1,30.1 M29.7,25.2l0,1.9l2.3-0.3
				c0.8-0.1,1.1-0.5,1.1-1.1c0-0.3-0.1-0.6-0.3-0.7c-0.2-0.1-0.5-0.2-0.9-0.1L29.7,25.2"/>
		</g>
		<g id="XMLID_429_">
			<path id="XMLID_430_" class="st185" d="M41.6,24.3l0,6.5L39.9,31l0-0.9c-0.4,0.8-1.1,1.2-2.1,1.4c-0.3,0-0.6,0-0.9,0
				c-0.3-0.1-0.5-0.2-0.7-0.4s-0.4-0.4-0.5-0.7c-0.1-0.3-0.2-0.6-0.2-1l0-4.3l1.7-0.2l0,4c0,0.8,0.4,1.2,1.1,1.1
				c0.4-0.1,0.8-0.2,1-0.6c0.2-0.3,0.3-0.7,0.3-1.1l0-3.7L41.6,24.3z"/>
		</g>
		<g id="XMLID_427_">
			<path id="XMLID_428_" class="st185" d="M45.1,23.6c0.9-0.1,1.6,0,2.1,0.3c0.4,0.3,0.7,0.8,0.7,1.5l-1.7,0.2
				c0-0.3-0.2-0.5-0.3-0.6c-0.2-0.1-0.5-0.1-0.8-0.1c-0.4,0.1-0.6,0.1-0.8,0.2c-0.2,0.1-0.3,0.3-0.3,0.5c0,0.2,0.1,0.3,0.3,0.4
				c0.2,0.1,0.4,0.1,0.8,0.2c0.6,0.1,1.1,0.1,1.4,0.2c0.4,0.1,0.7,0.1,0.9,0.3c0.2,0.1,0.4,0.3,0.5,0.5c0.1,0.2,0.2,0.5,0.2,0.9
				c0,0.6-0.2,1.1-0.7,1.5s-1.2,0.7-2.2,0.9c-0.5,0.1-0.9,0.1-1.3,0c-0.4-0.1-0.7-0.2-1-0.3c-0.3-0.2-0.5-0.4-0.6-0.6
				c-0.1-0.3-0.2-0.6-0.2-0.9l1.8-0.3c0,0.3,0.1,0.5,0.4,0.7c0.2,0.1,0.6,0.2,1,0.1c0.3,0,0.6-0.1,0.9-0.3c0.2-0.1,0.4-0.3,0.4-0.5
				c0-0.2-0.1-0.4-0.3-0.5c-0.2-0.1-0.4-0.1-0.8-0.2c-0.6,0-1.2-0.1-1.6-0.2c-0.4-0.1-0.7-0.2-0.9-0.4c-0.2-0.2-0.4-0.3-0.4-0.5
				c-0.1-0.2-0.1-0.4-0.1-0.7c0-0.2,0.1-0.5,0.2-0.7c0.1-0.2,0.3-0.5,0.5-0.6c0.2-0.2,0.5-0.4,0.9-0.5
				C44.2,23.8,44.6,23.7,45.1,23.6z"/>
		</g>
		<g id="XMLID_425_">
			<path id="XMLID_426_" class="st185" d="M51.5,22.7c0.4-0.1,0.8-0.1,1.2,0c0.4,0.1,0.7,0.2,0.9,0.4c0.3,0.2,0.5,0.4,0.6,0.7
				c0.2,0.3,0.2,0.6,0.3,1L52.7,25c0-0.3-0.2-0.6-0.4-0.7c-0.2-0.2-0.5-0.2-0.8-0.2c-0.2,0-0.4,0.1-0.5,0.2
				c-0.2,0.1-0.3,0.2-0.4,0.4c-0.1,0.2-0.2,0.4-0.3,0.6c-0.1,0.3-0.1,0.6-0.1,0.9c0,0.7,0.1,1.2,0.4,1.5c0.3,0.3,0.6,0.4,0.9,0.4
				c0.3,0,0.6-0.2,0.9-0.4c0.2-0.2,0.4-0.5,0.4-0.9l1.8-0.2c0,0.4-0.2,0.7-0.3,1.1c-0.2,0.3-0.4,0.6-0.7,0.9
				c-0.3,0.3-0.6,0.5-0.9,0.6c-0.3,0.2-0.7,0.3-1.1,0.3c-0.4,0.1-0.9,0-1.2,0c-0.4-0.1-0.7-0.3-1-0.5c-0.3-0.3-0.5-0.6-0.6-1
				c-0.1-0.4-0.2-0.9-0.2-1.5c0-0.6,0.1-1.1,0.2-1.5c0.1-0.4,0.4-0.8,0.6-1.1c0.3-0.3,0.6-0.6,1-0.7C50.6,22.9,51,22.8,51.5,22.7z"
				/>
		</g>
		<g id="XMLID_421_">
			<path id="XMLID_422_" class="st185" d="M61.3,23.3c0.2,0.4,0.2,0.9,0.2,1.4s-0.1,1-0.2,1.4c-0.2,0.4-0.4,0.8-0.7,1.2
				c-0.3,0.3-0.6,0.6-1.1,0.8c-0.4,0.2-0.9,0.4-1.4,0.4c-0.5,0.1-1,0.1-1.4,0c-0.4-0.1-0.8-0.3-1.1-0.5c-0.3-0.3-0.5-0.6-0.7-1
				c-0.2-0.4-0.2-0.9-0.2-1.4c0-0.5,0.1-1,0.2-1.4c0.2-0.4,0.4-0.8,0.7-1.2c0.3-0.3,0.7-0.6,1.1-0.8c0.4-0.2,0.9-0.4,1.4-0.4
				c0.5-0.1,1-0.1,1.4,0c0.4,0.1,0.8,0.3,1.1,0.5C60.9,22.6,61.1,22.9,61.3,23.3z M58.2,27.1c1.1-0.1,1.6-0.9,1.6-2.2
				c0-1.3-0.5-1.9-1.6-1.7c-1.1,0.2-1.6,0.9-1.6,2.2C56.6,26.7,57.1,27.3,58.2,27.1"/>
		</g>
	</g>
</g>
</svg>
