<?xml version="1.0" encoding="utf-8"?>
<!-- Generator: Adobe Illustrator 16.0.0, SVG Export Plug-In . SVG Version: 6.00 Build 0)  -->
<!DOCTYPE svg PUBLIC "-//W3C//DTD SVG 1.1//EN" "http://www.w3.org/Graphics/SVG/1.1/DTD/svg11.dtd">
<svg version="1.1" id="Layer_1" xmlns="http://www.w3.org/2000/svg" xmlns:xlink="http://www.w3.org/1999/xlink" x="0px" y="0px"
	 width="63.4px" height="44px" viewBox="0 0 63.4 44" style="enable-background:new 0 0 63.4 44;" xml:space="preserve">
<style type="text/css">
<![CDATA[
	.st0{fill:none;stroke:#006FB9;stroke-width:1.230900e-002;stroke-miterlimit:2.6131;}
	.st1{fill:none;stroke:#FCD1B6;stroke-width:1.230900e-002;stroke-miterlimit:2.6131;}
	.st2{fill:none;stroke:#003760;stroke-width:1.230900e-002;stroke-miterlimit:2.6131;}
	.st3{fill:#776235;stroke:#776235;stroke-width:0.3151;stroke-miterlimit:10;}
	.st4{fill:#776235;stroke:#776235;stroke-width:0.1589;stroke-miterlimit:10;}
	.st5{fill-rule:evenodd;clip-rule:evenodd;fill:#D71921;}
	.st6{fill:none;stroke:#F89F1B;stroke-width:1.230900e-002;stroke-miterlimit:2.6131;}
	.st7{fill:none;stroke:#FFFFFF;stroke-width:4.445600e-002;stroke-miterlimit:2.6131;}
	.st8{opacity:0.2;fill:#4D4D4D;}
	.st9{fill:none;stroke:#FDDFCC;stroke-width:1.230900e-002;stroke-miterlimit:2.6131;}
	.st10{stroke:#000000;stroke-width:1.8646;stroke-miterlimit:10;}
	.st11{fill:#AEE3F9;}
	.st12{fill:#FFCA05;stroke:#231F20;stroke-width:9.208000e-003;stroke-miterlimit:2.6131;}
	.st13{fill:none;stroke:#F2E900;stroke-width:1.230900e-002;stroke-miterlimit:2.6131;}
	.st14{fill:none;stroke:#F05A22;stroke-width:1.230900e-002;stroke-miterlimit:2.6131;}
	.st15{fill:none;stroke:#FCCDAF;stroke-width:1.230900e-002;stroke-miterlimit:2.6131;}
	.st16{fill:none;stroke:#005284;stroke-width:1.230900e-002;stroke-miterlimit:2.6131;}
	.st17{fill:none;stroke:#B9BD33;stroke-width:0.3262;stroke-miterlimit:10;}
	.st18{fill-rule:evenodd;clip-rule:evenodd;fill:#FFCA05;stroke:#231F20;stroke-width:9.208000e-003;stroke-miterlimit:2.6131;}
	.st19{fill:none;stroke:#FDE4D4;stroke-width:1.230900e-002;stroke-miterlimit:2.6131;}
	.st20{clip-path:url(#XMLID_308_);}
	.st21{fill:none;stroke:#00375F;stroke-width:1.230900e-002;stroke-miterlimit:2.6131;}
	.st22{fill:#005E96;stroke:#231F20;stroke-width:1.230900e-002;stroke-miterlimit:2.6131;}
	.st23{fill:#E4F6FD;}
	.st24{fill:#BF0C0C;stroke:#BF0C0C;stroke-width:0.4406;stroke-miterlimit:10;}
	.st25{clip-path:url(#XMLID_456_);}
	.st26{fill:none;stroke:#0080C6;stroke-width:1.230900e-002;stroke-miterlimit:2.6131;}
	.st27{fill:#4AC7EB;}
	.st28{fill:#17479D;}
	.st29{opacity:0.3;fill:#FFFFFF;}
	.st30{clip-path:url(#XMLID_505_);}
	.st31{clip-path:url(#XMLID_509_);}
	.st32{fill:#FFA200;stroke:#FFA200;stroke-width:0.3151;stroke-miterlimit:10;}
	.st33{fill:none;stroke:#472F91;stroke-width:1.230900e-002;stroke-miterlimit:2.6131;}
	.st34{fill:#FFA200;stroke:#FFA200;stroke-width:0.1589;stroke-miterlimit:10;}
	.st35{fill:#181818;}
	.st36{fill:#E6E6E6;}
	.st37{fill:none;stroke:#F68C1E;stroke-width:1.230900e-002;stroke-miterlimit:2.6131;}
	.st38{fill:none;stroke:#E0E21B;stroke-width:1.230900e-002;stroke-miterlimit:2.6131;}
	.st39{fill:none;stroke:#005A8F;stroke-width:1.230900e-002;stroke-miterlimit:2.6131;}
	.st40{fill-rule:evenodd;clip-rule:evenodd;fill:#005E96;stroke:#231F20;stroke-width:1.230900e-002;stroke-miterlimit:2.6131;}
	.st41{fill:none;stroke:#0095A8;stroke-width:1.230900e-002;stroke-miterlimit:2.6131;}
	.st42{fill:#4D4D4D;}
	.st43{fill:none;stroke:#0083CA;stroke-width:1.230900e-002;stroke-miterlimit:2.6131;}
	.st44{fill:none;stroke:#FFFFFF;stroke-linecap:round;stroke-miterlimit:10;stroke-dasharray:10,10,10,10;}
	.st45{fill:none;stroke:#005780;stroke-width:0.6757;stroke-miterlimit:10;}
	.st46{filter:url(#Adobe_OpacityMaskFilter);}
	.st47{fill:#E9F8FD;}
	.st48{fill:none;stroke:#F47E20;stroke-width:1.230900e-002;stroke-miterlimit:2.6131;}
	.st49{fill:none;stroke:#004573;stroke-width:1.230900e-002;stroke-miterlimit:2.6131;}
	.st50{fill:none;stroke:#FCD5BB;stroke-width:1.230900e-002;stroke-miterlimit:2.6131;}
	.st51{fill:none;stroke:#003D68;stroke-width:1.230900e-002;stroke-miterlimit:2.6131;}
	.st52{fill:none;stroke:#FBC9A9;stroke-width:1.230900e-002;stroke-miterlimit:2.6131;}
	.st53{fill:none;stroke:#FFD200;stroke-width:1.230900e-002;stroke-miterlimit:2.6131;}
	.st54{fill:none;stroke:#FDDEC9;stroke-width:1.230900e-002;stroke-miterlimit:2.6131;}
	.st55{fill:none;stroke:#005B91;stroke-width:1.230900e-002;stroke-miterlimit:2.6131;}
	.st56{fill:none;stroke:#FDE4D5;stroke-width:1.230900e-002;stroke-miterlimit:2.6131;}
	.st57{fill:none;stroke:#FCDAC4;stroke-width:1.230900e-002;stroke-miterlimit:2.6131;}
	.st58{fill:#FFFFFF;stroke:#0C6B40;stroke-width:0.2132;stroke-miterlimit:10;}
	.st59{fill:#83D4F6;}
	.st60{fill:#007932;stroke:#231F20;stroke-width:1.844800e-002;stroke-miterlimit:2.6131;}
	.st61{fill:none;stroke:#004D7E;stroke-width:1.230900e-002;stroke-miterlimit:2.6131;}
	.st62{fill:#B4E5FA;}
	.st63{fill:#FFFFFF;stroke:#BF0C0C;stroke-width:0.8813;stroke-miterlimit:10;}
	.st64{clip-path:url(#XMLID_507_);fill-rule:evenodd;clip-rule:evenodd;fill:#FFFFFF;}
	.st65{fill:none;stroke:#FFF1E9;stroke-width:1.230900e-002;stroke-miterlimit:2.6131;}
	.st66{fill:#86C7EB;}
	.st67{fill:#86CFCF;}
	.st68{fill:#B68F27;}
	.st69{fill-rule:evenodd;clip-rule:evenodd;fill:#007932;stroke:#231F20;stroke-width:1.844800e-002;stroke-miterlimit:2.6131;}
	.st70{fill:none;stroke:#EE4023;stroke-width:1.230900e-002;stroke-miterlimit:2.6131;}
	.st71{fill:none;stroke:#F26F21;stroke-width:1.230900e-002;stroke-miterlimit:2.6131;}
	.st72{fill:none;stroke:#0DB04B;stroke-width:1.230900e-002;stroke-miterlimit:2.6131;}
	.st73{fill:#88D6F6;}
	.st74{fill:none;stroke:#C94846;stroke-width:4.533000e-003;}
	.st75{fill:#EC1C24;}
	.st76{fill:none;stroke:#FCCFB2;stroke-width:1.230900e-002;stroke-miterlimit:2.6131;}
	.st77{fill:none;stroke:#FBC2A1;stroke-width:1.230900e-002;stroke-miterlimit:2.6131;}
	.st78{fill:none;stroke:#FFFFFF;stroke-width:2.461900e-002;stroke-miterlimit:2.6131;}
	.st79{fill:#B9BD33;}
	.st80{fill:#B9E7FA;}
	.st81{fill:none;stroke:#FCD3B8;stroke-width:1.230900e-002;stroke-miterlimit:2.6131;}
	.st82{fill:#EE8222;}
	.st83{stroke:#000000;stroke-width:1.8583;stroke-miterlimit:10;}
	.st84{fill:#FFFFFF;stroke:#FFFFFF;stroke-width:1.0435;stroke-miterlimit:10;}
	.st85{fill:none;stroke:#003962;stroke-width:1.230900e-002;stroke-miterlimit:2.6131;}
	.st86{fill:none;stroke:#F16522;stroke-width:1.230900e-002;stroke-miterlimit:2.6131;}
	.st87{fill:none;stroke:#00A56C;stroke-width:1.230900e-002;stroke-miterlimit:2.6131;}
	.st88{fill:none;stroke:#F7981D;stroke-width:1.230900e-002;stroke-miterlimit:2.6131;}
	.st89{fill:#EFF9FE;}
	.st90{fill:none;stroke:#433694;stroke-width:1.230900e-002;stroke-miterlimit:2.6131;}
	.st91{fill:none;stroke:#004674;stroke-width:1.230900e-002;stroke-miterlimit:2.6131;}
	.st92{fill:none;stroke:#F5851F;stroke-width:1.230900e-002;stroke-miterlimit:2.6131;}
	.st93{fill:none;stroke:#004F80;stroke-width:1.230900e-002;stroke-miterlimit:2.6131;}
	.st94{fill:none;stroke:#008053;stroke-width:9.208000e-003;stroke-miterlimit:2.6131;}
	.st95{fill:none;stroke:#003E69;stroke-width:1.230900e-002;stroke-miterlimit:2.6131;}
	.st96{stroke:#000000;stroke-width:3.645;stroke-miterlimit:10;}
	.st97{fill:none;stroke:#005386;stroke-width:1.230900e-002;stroke-miterlimit:2.6131;}
	.st98{fill:none;stroke:#005C92;stroke-width:1.230900e-002;stroke-miterlimit:2.6131;}
	.st99{fill:#BF0C0C;stroke:#FFFFFF;stroke-width:0.7442;stroke-miterlimit:10;}
	.st100{fill:none;stroke:#FFE000;stroke-width:1.230900e-002;stroke-miterlimit:2.6131;}
	.st101{fill:none;stroke:#008CC0;stroke-width:1.230900e-002;stroke-miterlimit:2.6131;}
	.st102{fill:none;stroke:#F37721;stroke-width:1.230900e-002;stroke-miterlimit:2.6131;}
	.st103{fill:none;stroke:#004E7F;stroke-width:1.230900e-002;stroke-miterlimit:2.6131;}
	.st104{fill:none;stroke:#FCCFB3;stroke-width:1.230900e-002;stroke-miterlimit:2.6131;}
	.st105{fill:none;stroke:#FCD5BD;stroke-width:1.230900e-002;stroke-miterlimit:2.6131;}
	.st106{opacity:0.65;fill:#F2F2F2;}
	.st107{fill:none;stroke:#FDE6D6;stroke-width:1.230900e-002;stroke-miterlimit:2.6131;}
	.st108{fill:none;stroke:#FFFFFF;stroke-width:3.385900e-002;stroke-miterlimit:2.6131;}
	.st109{fill:none;stroke:#FDBD10;stroke-width:1.230900e-002;stroke-miterlimit:2.6131;}
	.st110{fill:none;stroke:#0057A7;stroke-width:1.230900e-002;stroke-miterlimit:2.6131;}
	.st111{fill:none;stroke:#FDEDE3;stroke-width:1.230900e-002;stroke-miterlimit:2.6131;}
	.st112{fill:none;stroke:#0073BC;stroke-width:1.230900e-002;stroke-miterlimit:2.6131;}
	.st113{fill:#8ED8F7;}
	.st114{fill:#BEE9FA;}
	.st115{fill:#231F20;}
	.st116{fill:none;stroke:#FFFFFF;stroke-linecap:round;stroke-miterlimit:10;}
	.st117{fill-rule:evenodd;clip-rule:evenodd;fill:#83D4F6;}
	.st118{fill:#BF0C0C;stroke:#BF0C0C;stroke-width:0.3807;stroke-miterlimit:10;}
	.st119{fill:#002447;stroke:#231F20;stroke-width:1.230900e-002;stroke-miterlimit:2.6131;}
	.st120{fill:#FFFFFF;stroke:#FFFFFF;stroke-width:0.9799;stroke-miterlimit:10;}
	.st121{fill:none;stroke:#FDE8DB;stroke-width:1.230900e-002;stroke-miterlimit:2.6131;}
	.st122{fill:#F4FBFE;}
	.st123{fill:none;stroke:#EF4E23;stroke-width:1.230900e-002;stroke-miterlimit:2.6131;}
	.st124{fill:#FFFFFF;stroke:#0C6B40;stroke-width:0.2525;stroke-miterlimit:10;}
	.st125{fill:none;stroke:#FBCBAD;stroke-width:1.230900e-002;stroke-miterlimit:2.6131;}
	.st126{fill:#F6921E;}
	.st127{opacity:0.4;mask:url(#SVGID_1_);}
	.st128{fill-rule:evenodd;clip-rule:evenodd;fill:#002447;stroke:#231F20;stroke-width:1.230900e-002;stroke-miterlimit:2.6131;}
	.st129{fill:none;stroke:#FFD900;stroke-width:1.230900e-002;stroke-miterlimit:2.6131;}
	.st130{fill:none;stroke:#007CC4;stroke-width:1.230900e-002;stroke-miterlimit:2.6131;}
	.st131{fill:none;stroke:#00578B;stroke-width:1.230900e-002;stroke-miterlimit:2.6131;}
	.st132{fill:none;stroke:#FBC5A2;stroke-width:1.230900e-002;stroke-miterlimit:2.6131;}
	.st133{fill:none;stroke:#EE4623;stroke-width:1.230900e-002;stroke-miterlimit:2.6131;}
	.st134{fill:none;stroke:#CCDB29;stroke-width:1.230900e-002;stroke-miterlimit:2.6131;}
	.st135{fill:none;stroke:#005587;stroke-width:1.230900e-002;stroke-miterlimit:2.6131;}
	.st136{fill:url(#SVGID_117_);}
	.st137{clip-path:url(#SVGID_4_);}
	.st138{fill:#5F682D;}
	.st139{fill:#FFCA05;stroke:#231F20;stroke-width:3.079000e-002;stroke-miterlimit:2.6131;}
	.st140{fill-rule:evenodd;clip-rule:evenodd;fill:#50B748;}
	.st141{fill:#919395;}
	.st142{fill:none;stroke:#00406B;stroke-width:1.230900e-002;stroke-miterlimit:2.6131;}
	.st143{fill-rule:evenodd;clip-rule:evenodd;fill:#52B349;}
	.st144{fill:none;stroke:#004776;stroke-width:1.230900e-002;stroke-miterlimit:2.6131;}
	.st145{fill:none;stroke:#66BB46;stroke-width:1.230900e-002;stroke-miterlimit:2.6131;}
	.st146{fill:url(#SVGID_2_);}
	.st147{fill:none;stroke:#FCD7C0;stroke-width:1.230900e-002;stroke-miterlimit:2.6131;}
	.st148{fill:#C2B59B;}
	.st149{fill:#93DAF7;}
	.st150{fill:none;stroke:#47B549;stroke-width:1.230900e-002;stroke-miterlimit:2.6131;}
	.st151{fill:none;stroke:#005D94;stroke-width:1.230900e-002;stroke-miterlimit:2.6131;}
	.st152{fill:none;stroke:#0091B5;stroke-width:1.230900e-002;stroke-miterlimit:2.6131;}
	.st153{fill:none;stroke:#FDE6D8;stroke-width:1.230900e-002;stroke-miterlimit:2.6131;}
	.st154{fill:none;stroke:#1B51A2;stroke-width:1.230900e-002;stroke-miterlimit:2.6131;}
	.st155{fill:#C4EAFB;}
	.st156{fill:none;stroke:#FFC50A;stroke-width:1.230900e-002;stroke-miterlimit:2.6131;}
	.st157{fill:#2A5E9B;}
	.st158{fill:#EE382C;stroke:#BE112F;stroke-width:4.628000e-003;}
	.st159{fill:none;stroke:#231F20;stroke-width:1.844800e-002;stroke-miterlimit:2.6131;}
	.st160{opacity:0.48;fill-rule:evenodd;clip-rule:evenodd;fill:#FFFFFF;}
	.st161{fill:#FFFFFF;stroke:#FFFFFF;stroke-width:2;stroke-miterlimit:10;}
	.st162{fill:none;stroke:#00578C;stroke-width:1.230900e-002;stroke-miterlimit:2.6131;}
	.st163{fill:none;stroke:#FFEFE6;stroke-width:1.230900e-002;stroke-miterlimit:2.6131;}
	.st164{fill:none;stroke:#FBC5A3;stroke-width:1.230900e-002;stroke-miterlimit:2.6131;}
	.st165{fill:none;stroke:#FFF100;stroke-width:1.230900e-002;stroke-miterlimit:2.6131;}
	.st166{fill:none;stroke:#FDDAC3;stroke-width:1.230900e-002;stroke-miterlimit:2.6131;}
	.st167{fill:#FAFDFF;}
	.st168{fill:none;stroke:#006BB5;stroke-width:1.230900e-002;stroke-miterlimit:2.6131;}
	.st169{fill:none;stroke:#00335A;stroke-width:1.230900e-002;stroke-miterlimit:2.6131;}
	.st170{fill:#99DBF8;}
	.st171{fill:#FCD5BD;}
	.st172{fill:none;stroke:#FFE700;stroke-width:1.230900e-002;stroke-miterlimit:2.6131;}
	.st173{fill:#C9ECFB;}
	.st174{fill:#FDE6D3;}
	.st175{opacity:0.5;}
	.st176{fill:#FFFFFF;stroke:#BF0C0C;stroke-width:0.4508;stroke-miterlimit:10;}
	.st177{fill:none;stroke:#EC1C24;stroke-width:1.230900e-002;stroke-miterlimit:2.6131;}
	.st178{fill:#776235;stroke:#776235;stroke-width:0.1612;stroke-miterlimit:10;}
	.st179{fill:#FFA200;}
	.st180{fill:#FFCA05;}
	.st181{fill:#FFD500;}
	.st182{fill:#FFF100;}
	.st183{fill:#FFF200;}
	.st184{fill:#FFFFC3;}
	.st185{fill:#FFFFFF;}
	.st186{fill:none;stroke:#FDE8DD;stroke-width:1.230900e-002;stroke-miterlimit:2.6131;}
	.st187{fill-rule:evenodd;clip-rule:evenodd;fill:#231F20;}
	.st188{fill:#FFFFFF;stroke:#231F20;stroke-width:2.154900e-002;stroke-miterlimit:2.6131;}
	.st189{fill:none;stroke:#FABE9A;stroke-width:1.230900e-002;stroke-miterlimit:2.6131;}
	.st190{fill:#FFFFFF;stroke:#FFFFFF;stroke-width:9.116300e-002;stroke-miterlimit:10;}
	.st191{fill:none;stroke:#004877;stroke-width:1.230900e-002;stroke-miterlimit:2.6131;}
	.st192{fill:#652B00;}
	.st193{fill:#FFFFFF;stroke:#BF0C0C;stroke-width:0.3807;stroke-miterlimit:10;}
	.st194{fill-rule:evenodd;clip-rule:evenodd;fill:#FFFFFF;stroke:#231F20;stroke-width:2.154900e-002;stroke-miterlimit:2.6131;}
	.st195{fill-rule:evenodd;clip-rule:evenodd;fill:#F4EF86;}
	.st196{fill:none;stroke:#FDE0CE;stroke-width:1.230900e-002;stroke-miterlimit:2.6131;}
	.st197{fill:none;stroke:#005589;stroke-width:1.230900e-002;stroke-miterlimit:2.6131;}
	.st198{fill:none;stroke:#0062AF;stroke-width:1.230900e-002;stroke-miterlimit:2.6131;}
	.st199{fill:none;stroke:#005CAA;stroke-width:1.230900e-002;stroke-miterlimit:2.6131;}
	.st200{fill:none;stroke:#2B4B9F;stroke-width:1.230900e-002;stroke-miterlimit:2.6131;}
	.st201{fill:#9B8579;}
	.st202{fill:none;stroke:#231F20;stroke-width:1.230900e-002;stroke-miterlimit:2.6131;}
	.st203{fill:none;stroke:#FABD96;stroke-width:1.230900e-002;stroke-miterlimit:2.6131;}
	.st204{stroke:#000000;stroke-width:3.6328;stroke-miterlimit:10;}
	.st205{fill:#CC1818;}
	.st206{fill:none;stroke:#003A63;stroke-width:1.230900e-002;stroke-miterlimit:2.6131;}
	.st207{fill:#CCCCCC;}
	.st208{fill:#FFFFFF;stroke:#0C6B40;stroke-width:0.2762;stroke-miterlimit:10;}
	.st209{fill:#CD181F;}
	.st210{fill:#9E002D;}
	.st211{fill:none;stroke:#756238;stroke-miterlimit:10;}
	.st212{fill:none;stroke:#FCD7C2;stroke-width:1.230900e-002;stroke-miterlimit:2.6131;}
	.st213{fill:#9EDDF8;}
	.st214{fill:#CE0A26;}
	.st215{fill:none;stroke:#F06022;stroke-width:1.230900e-002;stroke-miterlimit:2.6131;}
	.st216{fill:none;stroke:#FBCDB1;stroke-width:1.230900e-002;stroke-miterlimit:2.6131;}
	.st217{fill:#FFA200;stroke:#FFA200;stroke-width:0.1612;stroke-miterlimit:10;}
	.st218{fill:#CEEEFB;}
	.st219{fill:none;stroke:#00345B;stroke-width:1.230900e-002;stroke-miterlimit:2.6131;}
	.st220{fill:none;stroke:#231F20;stroke-width:9.208000e-003;stroke-miterlimit:2.6131;}
	.st221{fill:#EC1A3D;stroke:#BE112F;stroke-width:4.533000e-003;}
	.st222{fill:#CFCDBE;}
	.st223{fill:none;stroke:#F6911E;stroke-width:1.230900e-002;stroke-miterlimit:2.6131;}
	.st224{fill:none;stroke:#ED2524;stroke-width:1.230900e-002;stroke-miterlimit:2.6131;}
	.st225{fill:none;stroke:#00416D;stroke-width:1.230900e-002;stroke-miterlimit:2.6131;}
	.st226{fill:none;stroke:#009D8B;stroke-width:1.230900e-002;stroke-miterlimit:2.6131;}
	.st227{fill:none;stroke:#ED3024;stroke-width:1.230900e-002;stroke-miterlimit:2.6131;}
	.st228{fill:none;stroke:#FFFFFF;stroke-linecap:round;stroke-miterlimit:10;stroke-dasharray:10,10,10,10,10,10;}
	.st229{stroke:#000000;stroke-width:1.8384;stroke-miterlimit:10;}
	.st230{fill:none;stroke:#005E96;stroke-width:1.230900e-002;stroke-miterlimit:2.6131;}
	.st231{fill:none;stroke:#F16A22;stroke-width:1.230900e-002;stroke-miterlimit:2.6131;}
	.st232{fill:url(#SVGID_76_);stroke:#BE112F;stroke-width:4.533000e-003;}
	.st233{opacity:0.3;fill:#808080;}
	.st234{fill:#0090B8;stroke:#0090B8;stroke-width:1.844800e-002;stroke-miterlimit:2.6131;}
	.st235{fill:none;stroke:#231F20;stroke-width:2.154900e-002;stroke-miterlimit:2.6131;}
	.st236{fill:#FFFFFF;stroke:#C5C6A1;stroke-width:0.5;stroke-miterlimit:10;}
	.st237{fill:none;stroke:#B3B3B3;stroke-width:1.6866;stroke-miterlimit:10;}
	.st238{stroke:#000000;stroke-width:3.6417;stroke-miterlimit:10;}
	.st239{fill:none;stroke:#003158;stroke-width:1.230900e-002;stroke-miterlimit:2.6131;}
	.st240{fill:#37B34A;}
	.st241{fill:none;stroke:#F9A719;stroke-width:1.230900e-002;stroke-miterlimit:2.6131;}
	.st242{fill:#FFFFFF;stroke:#FFFFFF;stroke-width:9.208000e-003;stroke-miterlimit:2.6131;}
	.st243{fill:none;stroke:#FBC19D;stroke-width:1.230900e-002;stroke-miterlimit:2.6131;}
	.st244{clip-path:url(#SVGID_116_);}
	.st245{clip-path:url(#SVGID_119_);}
	.st246{clip-path:url(#SVGID_121_);}
	.st247{fill:none;stroke:#0088CF;stroke-width:1.230900e-002;stroke-miterlimit:2.6131;}
	.st248{fill:none;stroke:#FCB614;stroke-width:1.230900e-002;stroke-miterlimit:2.6131;}
	.st249{fill:#6D6E71;}
	.st250{fill:none;stroke:#B9D432;stroke-width:1.230900e-002;stroke-miterlimit:2.6131;}
	.st251{fill:#FFFFFF;stroke:#FFFFFF;stroke-width:1.0545;stroke-miterlimit:10;}
	.st252{fill:none;stroke:#0077BF;stroke-width:1.230900e-002;stroke-miterlimit:2.6131;}
	.st253{fill:#003158;}
	.st254{fill:#004CA5;}
	.st255{fill:#004D38;}
	.st256{fill:#005E96;}
	.st257{fill:#0065C2;}
	.st258{fill:#0066B2;}
	.st259{fill:#006838;}
	.st260{fill:#0079C0;}
	.st261{fill:#005780;}
	.st262{fill:#009A00;}
	.st263{fill:none;stroke:#FDEFE7;stroke-width:1.230900e-002;stroke-miterlimit:2.6131;}
	.st264{fill:#EE382C;stroke:#BE112F;stroke-width:4.533000e-003;}
	.st265{fill:none;stroke:#FFCC02;stroke-width:1.230900e-002;stroke-miterlimit:2.6131;}
	.st266{fill:#FFFFFF;stroke:#FFFFFF;stroke-width:0.2132;stroke-miterlimit:10;}
	.st267{fill:none;stroke:#00598E;stroke-width:1.230900e-002;stroke-miterlimit:2.6131;}
	.st268{fill:none;stroke:#005081;stroke-width:1.230900e-002;stroke-miterlimit:2.6131;}
	.st269{fill:none;stroke:#F05623;stroke-width:1.230900e-002;stroke-miterlimit:2.6131;}
	.st270{fill:#BF0C0C;stroke:#BF0C0C;stroke-width:0.7442;stroke-miterlimit:10;}
	.st271{fill:none;stroke:#FDE2D1;stroke-width:1.230900e-002;stroke-miterlimit:2.6131;}
	.st272{fill-rule:evenodd;clip-rule:evenodd;fill:#FFCA05;}
	.st273{fill-rule:evenodd;clip-rule:evenodd;fill:#FFFFFF;}
	.st274{stroke:#000000;stroke-width:1.8629;stroke-miterlimit:10;}
	.st275{fill:#D1D3D4;}
	.st276{fill:none;stroke:#002447;stroke-width:1.230900e-002;stroke-miterlimit:2.6131;}
	.st277{fill:#D30034;}
	.st278{fill:#D31134;}
	.st279{fill:none;stroke:#FABD98;stroke-width:1.230900e-002;stroke-miterlimit:2.6131;}
	.st280{fill:none;stroke:#00426E;stroke-width:1.230900e-002;stroke-miterlimit:2.6131;}
	.st281{fill:none;stroke:#004979;stroke-width:1.230900e-002;stroke-miterlimit:2.6131;}
	.st282{fill:#D4F0FC;}
	.st283{fill:none;stroke:#7DC142;stroke-width:1.230900e-002;stroke-miterlimit:2.6131;}
	.st284{fill:none;stroke:#FBC6A6;stroke-width:1.230900e-002;stroke-miterlimit:2.6131;}
	.st285{fill:none;stroke:#00AB5A;stroke-width:1.230900e-002;stroke-miterlimit:2.6131;}
	.st286{fill:#D5D7D8;}
	.st287{fill:#D71921;}
	.st288{fill:none;stroke:#FABE98;stroke-width:1.230900e-002;stroke-miterlimit:2.6131;}
	.st289{fill:none;stroke:#004370;stroke-width:1.230900e-002;stroke-miterlimit:2.6131;}
	.st290{fill:url(#XMLID_506_);}
	.st291{fill:url(#XMLID_522_);}
	.st292{fill:url(#SVGID_33_);}
	.st293{fill:url(#SVGID_34_);}
	.st294{fill:url(#SVGID_35_);}
	.st295{fill:url(#SVGID_36_);}
	.st296{fill:url(#SVGID_37_);}
	.st297{fill:url(#SVGID_38_);}
	.st298{fill:url(#SVGID_39_);}
	.st299{fill:url(#SVGID_40_);}
	.st300{fill:url(#SVGID_41_);}
	.st301{fill:url(#SVGID_42_);}
	.st302{fill:url(#SVGID_43_);}
	.st303{fill:url(#SVGID_44_);}
	.st304{fill:url(#SVGID_45_);}
	.st305{fill:url(#SVGID_46_);}
	.st306{fill:url(#SVGID_47_);}
	.st307{fill:url(#SVGID_48_);}
	.st308{fill:url(#SVGID_49_);}
	.st309{fill:url(#SVGID_50_);}
	.st310{fill:url(#SVGID_51_);}
	.st311{fill:url(#SVGID_52_);}
	.st312{fill:url(#SVGID_53_);}
	.st313{fill:url(#SVGID_54_);}
	.st314{fill:url(#SVGID_55_);}
	.st315{fill:url(#SVGID_56_);}
	.st316{fill:url(#SVGID_57_);}
	.st317{fill:url(#SVGID_58_);}
	.st318{fill:url(#SVGID_59_);}
	.st319{fill:url(#SVGID_60_);}
	.st320{fill:url(#SVGID_61_);}
	.st321{fill:url(#SVGID_62_);}
	.st322{fill:url(#SVGID_63_);}
	.st323{fill:url(#SVGID_64_);}
	.st324{fill:url(#SVGID_65_);}
	.st325{fill:url(#SVGID_66_);}
	.st326{fill:url(#SVGID_82_);}
	.st327{fill:url(#SVGID_83_);}
	.st328{fill:url(#SVGID_84_);}
	.st329{fill:url(#SVGID_89_);}
	.st330{fill:url(#SVGID_92_);}
	.st331{fill:none;stroke:#FBC9AA;stroke-width:1.230900e-002;stroke-miterlimit:2.6131;}
	.st332{fill:none;stroke:#003B65;stroke-width:1.230900e-002;stroke-miterlimit:2.6131;}
	.st333{fill:none;stroke:#0066B2;stroke-width:1.230900e-002;stroke-miterlimit:2.6131;}
	.st334{fill:none;stroke:#231F20;stroke-width:4.445600e-002;stroke-miterlimit:2.6131;}
	.st335{clip-path:url(#XMLID_508_);fill-rule:evenodd;clip-rule:evenodd;fill:#FFFFFF;}
	.st336{fill:#D9F2FC;}
	.st337{fill:none;stroke:#00355D;stroke-width:1.230900e-002;stroke-miterlimit:2.6131;}
	.st338{fill:#BF0C0C;stroke:#BF0C0C;stroke-width:0.2254;stroke-miterlimit:10;}
	.st339{fill-rule:evenodd;clip-rule:evenodd;fill:url(#SVGID_29_);}
	.st340{fill-rule:evenodd;clip-rule:evenodd;fill:url(#SVGID_30_);}
	.st341{fill-rule:evenodd;clip-rule:evenodd;fill:url(#SVGID_31_);}
	.st342{fill-rule:evenodd;clip-rule:evenodd;fill:url(#SVGID_32_);}
	.st343{fill-rule:evenodd;clip-rule:evenodd;fill:url(#SVGID_67_);}
	.st344{fill-rule:evenodd;clip-rule:evenodd;fill:url(#SVGID_68_);}
	.st345{fill-rule:evenodd;clip-rule:evenodd;fill:url(#SVGID_69_);}
	.st346{clip-path:url(#SVGID_16_);}
	.st347{fill-rule:evenodd;clip-rule:evenodd;fill:url(#SVGID_70_);}
	.st348{fill-rule:evenodd;clip-rule:evenodd;fill:url(#SVGID_71_);}
	.st349{fill-rule:evenodd;clip-rule:evenodd;fill:url(#SVGID_72_);}
	.st350{fill-rule:evenodd;clip-rule:evenodd;fill:url(#SVGID_73_);}
	.st351{fill-rule:evenodd;clip-rule:evenodd;fill:url(#SVGID_74_);}
	.st352{fill-rule:evenodd;clip-rule:evenodd;fill:url(#SVGID_75_);}
	.st353{fill-rule:evenodd;clip-rule:evenodd;fill:url(#SVGID_77_);}
	.st354{fill-rule:evenodd;clip-rule:evenodd;fill:url(#SVGID_78_);}
	.st355{fill-rule:evenodd;clip-rule:evenodd;fill:url(#SVGID_79_);}
	.st356{clip-path:url(#SVGID_22_);}
	.st357{clip-path:url(#SVGID_24_);}
	.st358{clip-path:url(#SVGID_26_);}
	.st359{clip-path:url(#SVGID_28_);}
	.st360{fill-rule:evenodd;clip-rule:evenodd;fill:url(#SVGID_80_);}
	.st361{fill-rule:evenodd;clip-rule:evenodd;fill:url(#SVGID_81_);}
	.st362{clip-path:url(#SVGID_86_);}
	.st363{clip-path:url(#SVGID_88_);}
	.st364{clip-path:url(#SVGID_91_);}
	.st365{fill:#D71921;stroke:#231F20;stroke-width:9.208000e-003;stroke-miterlimit:2.6131;}
	.st366{fill:#FFFFFF;stroke:#B9BD33;stroke-width:0.368;stroke-miterlimit:10;}
	.st367{fill:none;stroke:#004B7B;stroke-width:1.230900e-002;stroke-miterlimit:2.6131;}
	.st368{fill:#734299;}
	.st369{fill:none;stroke:#3C3E98;stroke-width:1.230900e-002;stroke-miterlimit:2.6131;}
	.st370{fill:#A3DFF8;}
	.st371{fill:none;stroke:#FDDBC7;stroke-width:1.230900e-002;stroke-miterlimit:2.6131;}
	.st372{fill:none;stroke:#34449B;stroke-width:1.230900e-002;stroke-miterlimit:2.6131;}
	.st373{fill:none;stroke:#A5CD39;stroke-width:1.230900e-002;stroke-miterlimit:2.6131;}
	.st374{fill-rule:evenodd;clip-rule:evenodd;fill:#D71921;stroke:#231F20;stroke-width:9.208000e-003;stroke-miterlimit:2.6131;}
	.st375{fill:#FFCA05;stroke:#231F20;stroke-width:1.844800e-002;stroke-miterlimit:2.6131;}
	.st376{fill:none;stroke:#FBAE17;stroke-width:1.230900e-002;stroke-miterlimit:2.6131;}
	.st377{opacity:0.3;fill:#F0F1F1;}
	.st378{fill:#BF0C0C;stroke:#FFFFFF;stroke-width:0.3807;stroke-miterlimit:10;}
	.st379{fill:none;stroke:#FDDECB;stroke-width:1.230900e-002;stroke-miterlimit:2.6131;}
	.st380{fill:#0C6B40;}
	.st381{fill:#0D4E91;}
	.st382{fill:none;stroke:#FBC29F;stroke-width:1.230900e-002;stroke-miterlimit:2.6131;}
	.st383{fill:none;stroke:#91C73E;stroke-width:1.230900e-002;stroke-miterlimit:2.6131;}
	.st384{fill-rule:evenodd;clip-rule:evenodd;fill:#FFCA05;stroke:#231F20;stroke-width:1.844800e-002;stroke-miterlimit:2.6131;}
	.st385{opacity:0.1;fill:#CFD2D3;}
	.st386{fill:none;stroke:#ED3724;stroke-width:1.230900e-002;stroke-miterlimit:2.6131;}
	.st387{fill:#0E5682;}
	.st388{fill:#0C6B40;stroke:#0C6B40;stroke-width:0.1263;stroke-miterlimit:10;}
	.st389{fill:#A9E1F9;}
	.st390{fill-rule:evenodd;clip-rule:evenodd;fill:#003158;}
	.st391{fill-rule:evenodd;clip-rule:evenodd;fill:#0054A5;}
	.st392{fill-rule:evenodd;clip-rule:evenodd;fill:#005E96;}
	.st393{fill:none;stroke:#004471;stroke-width:1.230900e-002;stroke-miterlimit:2.6131;}
	.st394{fill:none;stroke:#003C66;stroke-width:1.230900e-002;stroke-miterlimit:2.6131;}
	.st395{fill:none;stroke:#FFF1EB;stroke-width:1.230900e-002;stroke-miterlimit:2.6131;}
	.st396{fill:#414141;}
	.st397{fill:none;stroke:#00999A;stroke-width:1.230900e-002;stroke-miterlimit:2.6131;}
	.st398{fill:none;stroke:#00A17D;stroke-width:1.230900e-002;stroke-miterlimit:2.6131;}
	.st399{fill:none;stroke:#005183;stroke-width:1.230900e-002;stroke-miterlimit:2.6131;}
	.st400{fill:#DFF4FD;}
	.st401{fill:#FFFFFF;stroke:#BF0C0C;stroke-width:0.7442;stroke-miterlimit:10;}
	.st402{fill:none;stroke:#FBC6A8;stroke-width:1.230900e-002;stroke-miterlimit:2.6131;}
	.st403{fill:none;stroke:#FDEADE;stroke-width:1.230900e-002;stroke-miterlimit:2.6131;}
	.st404{fill:none;stroke:#FDEAE0;stroke-width:1.230900e-002;stroke-miterlimit:2.6131;}
	.st405{fill:none;stroke:#004C7C;stroke-width:1.230900e-002;stroke-miterlimit:2.6131;}
	.st406{fill:none;stroke:#FCD3BA;stroke-width:1.230900e-002;stroke-miterlimit:2.6131;}
]]>
</style>
<g id="XMLID_367_">
	<g id="XMLID_370_">
		<g id="XMLID_372_">
			<g id="XMLID_401_">
				<path id="XMLID_416_" class="st185" d="M6.8,10.1c0,0.8,0.2,1.4,0.4,1.9c0.3,0.5,0.8,0.8,1.4,0.8c0.5,0,0.9-0.2,1.4-0.5
					c0,0,0,0,0,0c0,0,0,0,0,0l0.2,0.4c0,0,0,0.1,0,0.1c-0.7,0.6-1.3,0.8-2,0.8c-0.8,0-1.4-0.3-1.8-0.9c-0.4-0.6-0.6-1.3-0.6-2.3
					c0-1,0.2-1.8,0.6-2.5c0.5-0.7,1.1-1.1,1.8-1.1c0.7,0,1.2,0.2,1.5,0.7c0.3,0.5,0.5,1.1,0.5,2c0,0.2,0,0.3,0,0.5
					c0,0,0,0.1-0.1,0.1H6.8z M8.1,7.5c-0.6,0-1,0.4-1.2,1.3C6.8,9,6.8,9.3,6.8,9.5h2.4C9.2,8.2,8.9,7.5,8.1,7.5z"/>
				<path id="XMLID_414_" class="st185" d="M11.1,7.2L12.5,7c0,0,0.1,0,0.1,0h0.3C13,6.9,13,7,13,7v0.6c0.6-0.5,1.1-0.8,1.7-0.8
					c0.6,0,1,0.3,1.3,0.9c0.6-0.6,1.2-0.9,1.8-0.9c1,0,1.5,0.7,1.5,2.1v3.7c0,0,0,0.1,0.1,0.1l0.8,0.1c0,0,0.1,0,0.1,0.1v0.4
					c0,0,0,0.1-0.1,0.1h-2.5c0,0-0.1,0-0.1-0.1v-0.4c0-0.1,0-0.1,0.1-0.1l0.7-0.1c0,0,0.1,0,0.1-0.1V9.4c0-1-0.4-1.6-1.1-1.6
					c-0.5,0-0.8,0.1-1.2,0.4c0,0.2,0,0.4,0,0.7v3.8c0,0,0,0.1,0.1,0.1l0.7,0.1c0,0,0.1,0,0.1,0.1v0.4c0,0,0,0.1-0.1,0.1h-2.4
					c0,0-0.1,0-0.1-0.1v-0.4c0-0.1,0-0.1,0.1-0.1l0.7-0.1c0,0,0.1,0,0.1-0.1V9.4c0-1-0.3-1.6-1-1.6c-0.4,0-0.8,0.1-1.1,0.3
					c0,0,0,0-0.1,0.1v4.5c0,0,0,0.1,0.1,0.1l0.7,0.1c0,0,0.1,0,0.1,0.1v0.4c0,0,0,0.1-0.1,0.1h-2.6c0,0-0.1,0-0.1-0.1v-0.4
					c0-0.1,0-0.1,0.1-0.1l0.8-0.1c0,0,0.1,0,0.1-0.1V7.9c0,0,0-0.1-0.1-0.1l-0.8-0.1c0,0-0.1,0-0.1-0.1L11.1,7.2
					C11.1,7.3,11.1,7.2,11.1,7.2z"/>
				<path id="XMLID_410_" class="st185" d="M22,7C22,6.9,22,6.9,22,7l0.4,0c0,0,0.1,0,0.1,0.1v0.7c0.5-0.5,1.1-0.8,1.7-0.8
					c0.6,0,1.1,0.3,1.5,0.9c0.3,0.6,0.5,1.2,0.5,2c0,1.1-0.3,2-0.8,2.7c-0.5,0.7-1.2,1.1-2.1,1.1c-0.2,0-0.5,0-0.9-0.1v2.8
					c0,0,0,0.1,0.1,0.1l0.9,0.1c0,0,0.1,0,0.1,0.1v0.4c0,0,0,0.1-0.1,0.1h-2.8c0,0-0.1,0-0.1-0.1v-0.4c0,0,0-0.1,0.1-0.1l0.8-0.1
					c0,0,0.1,0,0.1-0.1V7.9c0,0,0-0.1-0.1-0.1l-0.8-0.1c0,0-0.1,0-0.1-0.1V7.3c0,0,0-0.1,0-0.1L22,7z M22.4,12.6
					c0.2,0.2,0.5,0.3,1,0.3c0.8,0,1.4-0.5,1.6-1.6c0.1-0.3,0.1-0.7,0.1-1.1c0-0.7-0.1-1.2-0.3-1.7c-0.3-0.5-0.6-0.8-1.2-0.8
					c-0.4,0-0.8,0.1-1.1,0.4c0,0-0.1,0-0.1,0.1V12.6z"/>
				<path id="XMLID_408_" class="st185" d="M27.8,4.1C27.8,4.1,27.8,4,27.8,4.1l-1-0.2c0,0-0.1,0-0.1-0.1V3.5c0,0,0-0.1,0-0.1
					l1.5-0.3c0,0,0,0,0.1,0h0.3c0,0,0.1,0,0.1,0.1v9.5c0,0,0,0.1,0.1,0.1l0.9,0.1c0,0,0.1,0,0.1,0.1v0.4c0,0,0,0.1-0.1,0.1h-2.9
					c0,0-0.1,0-0.1-0.1v-0.4c0-0.1,0-0.1,0.1-0.1l0.9-0.1c0,0,0.1,0,0.1-0.1V4.1z"/>
				<path id="XMLID_405_" class="st185" d="M31.3,10.1c0,0.8,0.2,1.4,0.4,1.9c0.3,0.5,0.8,0.8,1.4,0.8c0.5,0,0.9-0.2,1.4-0.5
					c0,0,0,0,0,0c0,0,0,0,0,0l0.2,0.4c0,0,0,0.1,0,0.1c-0.7,0.6-1.3,0.8-2,0.8c-0.8,0-1.4-0.3-1.8-0.9c-0.4-0.6-0.6-1.3-0.6-2.3
					c0-1,0.2-1.8,0.6-2.5c0.5-0.7,1.1-1.1,1.8-1.1c0.7,0,1.2,0.2,1.5,0.7c0.3,0.5,0.5,1.1,0.5,2c0,0.2,0,0.3,0,0.5
					c0,0,0,0.1-0.1,0.1H31.3z M32.6,7.5c-0.6,0-1,0.4-1.2,1.3c-0.1,0.3-0.1,0.5-0.1,0.7h2.4C33.8,8.2,33.4,7.5,32.6,7.5z"/>
				<path id="XMLID_402_" class="st185" d="M38.3,6.9c0.8,0,1.5,0.3,1.9,0.9c0.4,0.6,0.7,1.4,0.7,2.4c0,1-0.2,1.8-0.7,2.4
					c-0.5,0.6-1.1,1-1.9,1c-0.8,0-1.5-0.3-1.9-0.9c-0.4-0.6-0.7-1.4-0.7-2.4c0-1,0.2-1.8,0.7-2.4C36.9,7.2,37.5,6.9,38.3,6.9z
					 M38.2,7.5c-0.5,0-0.9,0.3-1.1,0.8c-0.2,0.4-0.3,1-0.3,1.6c0,1.4,0.3,2.3,0.9,2.8c0.2,0.2,0.5,0.3,0.8,0.3
					c0.9,0,1.4-0.8,1.4-2.5c0-0.8-0.1-1.5-0.3-2C39.2,7.8,38.8,7.5,38.2,7.5z"/>
			</g>
			<g id="XMLID_375_">
				<path id="XMLID_397_" class="st120" d="M9.2,17.4c1.5,0,2.9,0.6,2.9,2.8c0,1.1-0.5,1.9-1.2,2.3c1,0.3,1.7,1.2,1.7,2.7
					c0,2.2-1.2,3.3-3.4,3.3H5.4v-1.4l0.4,0c0.2,0,0.4-0.1,0.4-0.5v-7.8l-0.8,0v-1.4H9.2z M7.8,21.9h1c1.1,0,1.6-0.7,1.6-1.6
					c0-1.2-0.7-1.5-1.5-1.5H7.8V21.9z M7.8,26.9h1.3c1.3,0,1.7-0.8,1.7-1.8c0-1.1-0.6-1.7-1.7-1.7H7.8V26.9z"/>
				<path id="XMLID_386_" class="st120" d="M16.2,24.9c0,1.6,0.7,2.1,1.7,2.1c1.1,0,1.7-0.7,1.7-2v-6.1l-0.8,0v-1.4h3.2v1.4
					l-0.4,0.1c-0.2,0-0.4,0.2-0.4,0.5v6c0,2.2-1.3,3.5-3.3,3.5c-2.2,0-3.3-1.1-3.3-3.7v-6.1l-0.8,0v-1.4h3.2v1.4l-0.4,0.1
					c-0.3,0-0.4,0.1-0.4,0.6V24.9z"/>
				<path id="XMLID_381_" class="st120" d="M28.2,25.4c0-1.1-0.8-1.4-1.7-1.7c-1.3-0.5-2.5-1.1-2.5-3.3c0-2,1.3-3.3,3.1-3.3
					c0.9,0,1.7,0.2,2.5,0.7v2.5l-1.4,0.1v-1c0-0.3,0-0.5-0.3-0.5c-0.3-0.1-0.6-0.1-0.9-0.1c-0.8,0-1.4,0.4-1.4,1.4
					c0,1,0.8,1.3,1.8,1.7c1.2,0.5,2.5,1.2,2.5,3.3c0,2.2-1.4,3.4-3.2,3.4c-1.1,0-1.9-0.2-2.7-0.7v-2.6l1.4-0.1v1
					c0,0.3,0,0.5,0.3,0.5c0.3,0.1,0.6,0.2,1,0.2C27.5,27,28.2,26.6,28.2,25.4z"/>
				<path id="XMLID_376_" class="st120" d="M36.3,18.8c-1.7,0-2.5,1.5-2.5,4c0,2.6,0.7,4.2,2.5,4.2c0.4,0,0.7,0,1-0.2
					c0.2-0.1,0.3-0.2,0.3-0.5V25l1.4,0.1V28c-0.7,0.5-1.8,0.7-2.6,0.7c-2.7,0-4.2-1.9-4.2-5.7c0-4.4,2.1-5.8,4.2-5.8
					c0.8,0,1.7,0.2,2.5,0.7v2.8l-1.4,0.1v-1.3c0-0.3,0-0.5-0.3-0.5C36.9,18.9,36.6,18.8,36.3,18.8z"/>
			</g>
			<path id="XMLID_373_" class="st185" d="M48.7,19.8c0-0.1-0.2-0.7,0.1-1.2c0.3-0.5,1-0.7,1.5-0.6c0.1,0,0.8,0.2,1.1,0.9
				c0.1,0.2,0,1.1,0,1.1c0.1-0.2,0.2-0.2,0.2-0.2c0.1,0,0,1-0.2,1c0,0-0.1-0.1-0.1-0.1c0,0.1-0.1,0.1-0.1,0.2
				C51,21.6,51.2,22,51.2,22c0,0,0,0,0,0c0,0,0.1,0.2-0.3,0.5c0,0,0,0,0,0l-0.6,0.6c0,0,0,0.1,0,0.1c0.1,0.1,0.2,0.2,0.3,0.3
				c0,0,0,0.1,0,0.1c-0.1,0.1-0.2,0.1-0.3,0.2c0,0,0,0.1,0,0.1c0.2,0.2,0.2,1.3,0.4,1.3c0.1,0,0.3-0.6,0.5-1
				c0.1-0.4,0.2-0.7,0.3-1.1c0-0.6-0.1-0.8,0-0.9c0.2-0.2,0.5,0.2,1.4,0.5c0.9,0.4,1.5,0.3,1.6,0.7c0.2,0.5-0.5,1.3-1.1,1.7
				c-1.1,0.9-2.2,1.1-2.5,1.1c-1.6,0.2-2.8-0.3-3.2-0.6c-1.4-0.6-2.1-1.6-1.9-2.2c0.2-0.5,0.8-0.6,1.1-0.7c0,0,1.2-0.2,1.7-0.6
				c0.1,0,0.1,0,0.1,0.1c0,0.6,0.1,2.2,0.7,2.8c0.1,0.1,0.1,0,0.1-0.1c0-0.3,0-1,0.3-1.2c0,0,0-0.1,0-0.1l-0.2-0.2c0,0,0-0.1,0-0.1
				l0.3-0.3c0,0,0-0.1,0-0.1c-0.3-0.2-1.2-0.7-0.9-1.1c0,0,0,0,0,0c0-0.1,0-0.3,0-0.5c0-0.3,0-0.6-0.1-0.8c0,0.1-0.1,0.1-0.1,0.1
				c-0.2,0-0.3-1-0.2-1.1C48.6,19.7,48.7,19.8,48.7,19.8z"/>
		</g>
	</g>
	<g id="XMLID_368_">
		<path id="XMLID_369_" class="st185" d="M46.5,27.9c-3.1-1.7-4.2-5.5-2.5-8.6c1.7-3.1,5.5-4.2,8.6-2.5c1.1,0.6,1.9,1.5,2.5,2.5h3
			c-0.7-2-2.2-3.8-4.2-4.9c-4.4-2.4-9.9-0.8-12.3,3.6c-2.2,4-1,8.9,2.5,11.5l-0.7,1.3l-1.8,0.5l-3.3,5.7l0.5,1.4l3.3,1.8l1.2-0.5
			l3.4-5.7l-0.5-1.9l0.7-1.4c4,1.2,8.5-0.5,10.6-4.3c0.1-0.2,0.2-0.4,0.3-0.7h-3.1C52.8,28.6,49.3,29.4,46.5,27.9z"/>
	</g>
</g>
</svg>
