<?xml version="1.0" encoding="utf-8"?>
<!-- Generator: Adobe Illustrator 18.1.1, SVG Export Plug-In . SVG Version: 6.00 Build 0)  -->
<svg version="1.1" id="Layer_1" xmlns="http://www.w3.org/2000/svg" xmlns:xlink="http://www.w3.org/1999/xlink" x="0px" y="0px"
	 viewBox="0 0 50 50" enable-background="new 0 0 50 50" xml:space="preserve">
<g>
	<path fill="#2A5E9B" d="M37.2,16.7c-0.1-0.5-0.4-1-0.6-1.5C34.2,9.5,29,7.4,24.8,7.4c-5.6,0-11.8,3.8-12.6,11.5v1.6
		c0,0.1,0,0.7,0.1,1c0.5,3.7,3.4,7.6,5.6,11.3c2.3,4,4.8,7.9,7.2,11.8c1.5-2.5,3-5.1,4.4-7.6c0.4-0.7,0.9-1.5,1.3-2.1
		c0.3-0.5,0.8-0.9,1-1.4c2.3-4.3,6.1-8.6,6.1-12.9v-1.8C37.8,18.4,37.2,16.8,37.2,16.7L37.2,16.7z M24.9,24.6
		c-1.7,0-3.5-0.8-4.3-3.1c-0.1-0.4-0.1-1.1-0.1-1.2v-1c0-2.9,2.5-4.2,4.6-4.2c2.6,0,4.7,2.1,4.7,4.8C29.8,22.5,27.6,24.6,24.9,24.6
		L24.9,24.6z M24.9,24.6"/>
</g>
</svg>
