<?xml version="1.0" encoding="utf-8"?>
<!-- Generator: Adobe Illustrator 18.1.1, SVG Export Plug-In . SVG Version: 6.00 Build 0)  -->
<svg version="1.1" id="Layer_1" xmlns="http://www.w3.org/2000/svg" xmlns:xlink="http://www.w3.org/1999/xlink" x="0px" y="0px"
	 viewBox="0 0 50 50" enable-background="new 0 0 50 50" xml:space="preserve">
<path fill="#2A5E9B" d="M14.9,31.3c3.9,2.6,9.1,2.8,12.8,0.1l1.4,1.3l0.1,2.4l7.2,6.6l2.4-0.1l2.6-2.9l-0.1-2.4l-7.2-6.7l-2.4,0
	l-1.4-1.4c3-4.5,2.3-11-1.8-14.8c-3.1-2.9-7.7-4.3-11.4-3.1c0,0,0,0,0,0c-5.8,2-8.6,9-6.7,14.8C11.2,27.6,12.9,30,14.9,31.3z
	 M23.7,30.3c-4.6,1.6-9.7-1-11.4-5.8c-1.6-4.8,0.8-10,5.4-11.5c4.6-1.6,9.7,1,11.4,5.8C30.8,23.5,28.4,28.7,23.7,30.3z"/>
</svg>
