<?xml version="1.0" encoding="utf-8"?>
<!-- Generator: Adobe Illustrator 18.1.1, SVG Export Plug-In . SVG Version: 6.00 Build 0)  -->
<svg version="1.1" id="Layer_1" xmlns="http://www.w3.org/2000/svg" xmlns:xlink="http://www.w3.org/1999/xlink" x="0px" y="0px"
	 viewBox="142.1 0 128 128" enable-background="new 142.1 0 128 128" xml:space="preserve">
<g>
	<g>
		<g>
			<path fill="#FFA200" d="M241.9,63.6c0-20.3-16.9-36.7-37.5-35.8c-18.5,0.9-33.6,16.1-34.1,34.6c-0.6,17.8,11.7,32.7,28.2,36.3
				l2.4,3.7c2.3,4,8.1,4,10.5,0l2.4-3.7C229.8,95.1,241.9,80.8,241.9,63.6z"/>
		</g>
		<defs>
			<filter id="Adobe_OpacityMaskFilter" filterUnits="userSpaceOnUse" x="170.4" y="27.7" width="71.7" height="77.5">
				<feColorMatrix  type="matrix" values="1 0 0 0 0  0 1 0 0 0  0 0 1 0 0  0 0 0 1 0"/>
			</filter>
		</defs>
		<mask maskUnits="userSpaceOnUse" x="170.4" y="27.7" width="71.7" height="77.5" id="SVGID_4_">
			<g filter="url(#Adobe_OpacityMaskFilter)">
				
					<image overflow="visible" enable-background="new    " width="56" height="60" xlink:href="B2EA63A60A2CE691.jpg"  transform="matrix(1.4222 0 0 1.4222 166.409 24.1778)">
				</image>
			</g>
		</mask>
		<g opacity="0.4" mask="url(#SVGID_4_)">
			<path d="M242.1,63.6c0-20.3-16.9-36.7-37.5-35.8C186,28.6,171,43.8,170.4,62.3c-0.6,17.8,11.7,32.7,28.2,36.3l2.4,3.7
				c2.3,4,8.1,4,10.5,0l2.4-3.7C230,95.1,242.1,80.8,242.1,63.6z"/>
		</g>
	</g>
	<g>
		<g>
			<path fill="#FFFFFF" d="M237.2,63.9c0,17.2-13.9,31.1-31.1,31.1s-31.1-13.9-31.1-31.1s13.9-31.3,31.1-31.3S237.2,46.5,237.2,63.9
				z"/>
		</g>
		<defs>
			<filter id="Adobe_OpacityMaskFilter_1_" filterUnits="userSpaceOnUse" x="174.9" y="32.6" width="62.3" height="62.4">
				<feColorMatrix  type="matrix" values="1 0 0 0 0  0 1 0 0 0  0 0 1 0 0  0 0 0 1 0"/>
			</filter>
		</defs>
		<mask maskUnits="userSpaceOnUse" x="174.9" y="32.6" width="62.3" height="62.4" id="SVGID_1_">
			<g filter="url(#Adobe_OpacityMaskFilter_1_)">
				
					<image overflow="visible" enable-background="new    " width="48" height="49" xlink:href="B2EA63A60A2CE693.jpg"  transform="matrix(1.4222 0 0 1.4222 171.9461 28.4444)">
				</image>
			</g>
		</mask>
		<g opacity="0.3" mask="url(#SVGID_1_)">
			<path d="M237.2,63.9c0,17.2-13.9,31.1-31.1,31.1s-31.1-13.9-31.1-31.1s13.9-31.3,31.1-31.3S237.2,46.5,237.2,63.9z"/>
		</g>
	</g>
</g>
<path fill="#FFA200" d="M224.1,71.3l-15.9,4.7c-0.9,0.3-1.8-0.3-2-1.1l-2.7-9c-0.3-0.9,0.3-1.8,1.1-2l15.9-4.7
	c0.9-0.3,1.8,0.3,2,1.1l2.7,9C225.6,70,225,71,224.1,71.3z"/>
<path fill="#D38F22" d="M213.9,64.4l-1,0.3c-0.3,0.1-0.7-0.1-0.9-0.4l-0.7-2.4l2.3-0.7l0.7,2.4C214.5,63.9,214.2,64.3,213.9,64.4z"
	/>
<path fill="#D38F22" d="M217.2,73.2l-2.3,0.7l-1-3.1c-0.1-0.3,0-0.4,0.3-0.6l1.4-0.4c0.3-0.1,0.4,0,0.6,0.3L217.2,73.2z"/>
<path fill="#FFA200" d="M216,59l-12.1,3.6c-0.9,0.3-1.7-0.3-1.8-1l-2-6.5c-0.3-0.9,0.3-1.7,1-1.8l12.1-3.6c0.9-0.3,1.7,0.3,1.8,1
	l2,6.5C217.3,58,216.7,58.9,216,59z"/>
<path fill="#D38F22" d="M208.2,53.8l-0.7,0.3c-0.3,0.1-0.6-0.1-0.7-0.4l-0.6-1.8l1.8-0.6l0.6,1.8C208.6,53.3,208.5,53.6,208.2,53.8z
	"/>
<path fill="#D38F22" d="M210.8,60.6l-1.8,0.6l-0.7-2.3c-0.1-0.3,0.1-0.6,0.3-0.6l0.9-0.3c0.3-0.1,0.6,0.1,0.6,0.3L210.8,60.6z"/>
<g>
	<path fill="#D38F22" d="M198.3,78.9c-0.6,0-0.7-0.4-0.7-1V61c0-0.6,0.1-1,0.7-1s0.7,0.4,0.7,1v16.9C199,78.5,198.8,78.9,198.3,78.9
		z"/>
</g>
<g>
	<path fill="#FFA200" d="M204.9,80.4c-0.1,0-0.4,0-0.6-0.1c-0.3-0.1-0.6-0.4-0.6-0.7c-1.1-4-2.4-8-3.6-11.9
		c-1.7-5.4-3.4-11-4.8-16.5c-0.1-0.7,0.3-1.4,0.9-1.6c0.7-0.1,1.4,0.3,1.6,0.9c1.4,5.5,3.1,11.1,4.8,16.4c1.1,3.6,2.3,7.1,3.3,10.8
		c2.3-0.7,4.7-1.3,7.1-2c2.7-0.7,5.5-1.4,8.2-2.3c0.7-0.1,1.4,0.1,1.6,0.9c0.1,0.7-0.1,1.4-0.9,1.6c-2.7,0.9-5.5,1.6-8.2,2.3
		s-5.5,1.4-8.2,2.3C205.1,80.4,205.1,80.4,204.9,80.4z"/>
</g>
<g>
	<path fill="#D38F22" d="M196.6,52.5c-0.6,0-1.1-0.4-1.3-1c-0.6-2.4-1.4-3.8-2.4-4.6c-1-0.6-2.3-0.6-4.1,0c-0.7,0.3-1.4-0.1-1.7-0.9
		c-0.3-0.7,0.1-1.4,0.9-1.7c2.6-0.9,4.7-0.9,6.3,0.1c2.4,1.3,3.3,4.1,3.8,6.3c0.1,0.7-0.3,1.4-1,1.6
		C196.7,52.5,196.7,52.5,196.6,52.5z"/>
</g>
<circle fill="#FFA200" cx="201.7" cy="79.9" r="5.4"/>
<circle fill="#D38F22" cx="201.7" cy="79.9" r="2.1"/>
</svg>
