<?xml version="1.0" encoding="utf-8"?>
<!-- Generator: Adobe Illustrator 18.1.1, SVG Export Plug-In . SVG Version: 6.00 Build 0)  -->
<svg version="1.1" id="Layer_1" xmlns="http://www.w3.org/2000/svg" xmlns:xlink="http://www.w3.org/1999/xlink" x="0px" y="0px"
	 viewBox="170.4 0 128 128" enable-background="new 170.4 0 128 128" xml:space="preserve">
<g>
	<g>
		<g>
			<g>
				<path fill="#FFA200" d="M270.3,63.9c0-20.3-16.9-36.7-37.5-35.8c-18.5,0.9-33.6,16.1-34.1,34.6c-0.6,17.8,11.7,32.7,28.2,36.3
					l2.4,3.7c2.3,4,8.1,4,10.5,0l2.4-3.7C258.2,95.3,270.3,81.1,270.3,63.9z"/>
			</g>
			<defs>
				<filter id="Adobe_OpacityMaskFilter" filterUnits="userSpaceOnUse" x="198.6" y="28" width="71.7" height="77.5">
					<feColorMatrix  type="matrix" values="1 0 0 0 0  0 1 0 0 0  0 0 1 0 0  0 0 0 1 0"/>
				</filter>
			</defs>
			<mask maskUnits="userSpaceOnUse" x="198.6" y="28" width="71.7" height="77.5" id="SVGID_4_">
				<g filter="url(#Adobe_OpacityMaskFilter)">
					
						<image overflow="visible" enable-background="new    " width="56" height="60" xlink:href="AAD8F5650960B960.jpg"  transform="matrix(1.4222 0 0 1.4222 194.6416 24.1778)">
					</image>
				</g>
			</mask>
			<g opacity="0.4" mask="url(#SVGID_4_)">
				<path d="M270.3,63.9c0-20.3-16.9-36.7-37.5-35.8c-18.5,0.9-33.6,16.1-34.1,34.6c-0.6,17.8,11.7,32.7,28.2,36.3l2.4,3.7
					c2.3,4,8.1,4,10.5,0l2.4-3.7C258.2,95.3,270.3,81.1,270.3,63.9z"/>
			</g>
		</g>
		<g>
			<g>
				<path fill="#FFFFFF" d="M265.6,64c0,17.2-13.9,31.1-31.1,31.1S203.3,81.2,203.3,64s13.9-31.1,31.1-31.1S265.6,46.8,265.6,64z"/>
			</g>
			<defs>
				<filter id="Adobe_OpacityMaskFilter_1_" filterUnits="userSpaceOnUse" x="203.3" y="32.9" width="62.3" height="62.3">
					<feColorMatrix  type="matrix" values="1 0 0 0 0  0 1 0 0 0  0 0 1 0 0  0 0 0 1 0"/>
				</filter>
			</defs>
			<mask maskUnits="userSpaceOnUse" x="203.3" y="32.9" width="62.3" height="62.3" id="SVGID_1_">
				<g filter="url(#Adobe_OpacityMaskFilter_1_)">
					
						<image overflow="visible" enable-background="new    " width="48" height="48" xlink:href="AAD8F5650960B961.jpg"  transform="matrix(1.4222 0 0 1.4222 200.3081 29.8667)">
					</image>
				</g>
			</mask>
			<g opacity="0.3" mask="url(#SVGID_1_)">
				<path d="M265.6,64c0,17.2-13.9,31.1-31.1,31.1S203.3,81.2,203.3,64s13.9-31.1,31.1-31.1S265.6,46.8,265.6,64z"/>
			</g>
		</g>
	</g>
	<g>
		<path fill="#FFA200" d="M229.7,69.7c-0.1,0-0.3,0-0.6,0c-3.7,0-7.1-0.4-9.7-1.1c-1.3-0.4-2.4-0.9-3.1-1.4
			c-0.1-0.1-0.3-0.1-0.3-0.3v6c0,2.1,6,3.8,13.2,3.8c0.1,0,0.4,0,0.6,0c0.3,0,0.4-0.3,0.3-0.4c-0.4-1.3-0.6-2.7-0.6-4.1
			C229.5,71.4,229.6,70.5,229.7,69.7z"/>
		<path fill="#FFA200" d="M233.4,62c0.3-0.3,0.6-0.6,0.9-0.9c0.3-0.1,0.1-0.6-0.1-0.4c-1.6,0.1-3.3,0.3-5,0.3
			c-3.7,0-7.1-0.4-9.7-1.1c-1.3-0.4-2.4-0.9-3.1-1.4c-0.1-0.1-0.3-0.1-0.3-0.3v6c0,0.1,0,0.3,0.1,0.6c0.9,1.8,6.4,3.4,13.1,3.4
			c0.1,0,0.4,0,0.6,0c0.1,0,0.3-0.1,0.3-0.1c0.1-0.4,0.3-1,0.6-1.4c0.3-0.6,0.6-1.1,0.9-1.7C232,63.7,232.7,62.9,233.4,62z"/>
		<path fill="#FFA200" d="M229.2,52.8c-3.7,0-7.1-0.4-9.7-1.1c-1.3-0.4-2.4-0.9-3.1-1.4c-0.1-0.1-0.3-0.1-0.3-0.3v5.5
			c0,0.1,0,0.3,0.1,0.4c0.9,2,6.4,3.4,13.1,3.4c6.7,0,12.2-1.4,13.1-3.4c0-0.1,0.1-0.3,0.1-0.4v-5.5c-0.1,0.1-0.1,0.1-0.3,0.3
			c-0.7,0.6-1.8,1-3.1,1.4C236.3,52.3,232.9,52.8,229.2,52.8z"/>
		<path fill="#FFA200" d="M242.4,47.2c0-0.1,0-0.4-0.1-0.6c-0.1-0.3-0.3-0.4-0.6-0.6c-1.7-1.6-6.7-2.7-12.5-2.7s-10.7,1.1-12.5,2.7
			c-0.3,0.1-0.4,0.4-0.6,0.6c0,0.1-0.1,0.3-0.1,0.6c0,2.1,6,3.8,13.2,3.8C236.4,51.1,242.4,49.4,242.4,47.2z"/>
		<path fill="#FFA200" d="M243.7,59.7c-0.1,0-0.3,0-0.4,0c-0.1,0-0.1,0-0.3,0s-0.4,0-0.6,0c-4,0.3-7.4,2.4-9.5,5.4
			c-0.7,1-1.3,2.1-1.6,3.4c0,0.1-0.1,0.4-0.1,0.6s-0.1,0.4-0.1,0.6c-0.1,0.9-0.3,1.6-0.3,2.4c0,1.6,0.3,3.1,0.9,4.6
			c1.8,4.7,6.4,8,11.7,8c7,0,12.5-5.5,12.5-12.5C255.8,65.4,250.4,59.9,243.7,59.7L243.7,59.7z M247,78.2c-0.6,0.7-1.4,1.1-2.4,1.3
			v0.6c0,0.4-0.4,0.9-0.9,0.9h-0.4c-0.4,0-0.9-0.4-0.9-0.9v-0.6c-0.6-0.1-1-0.3-1.6-0.6c-0.6-0.3-1-0.7-1.4-1.4
			c-0.3-0.4-0.4-0.9-0.6-1.4c0-0.1,0-0.4,0.1-0.6c0.1-0.1,0.3-0.4,0.6-0.4L240,75c0.1,0,0.1,0,0.3,0c0.3,0,0.6,0.3,0.7,0.6
			c0.1,0.4,0.3,0.9,0.6,1.1c0.4,0.6,1.3,1,2.1,1c0.1,0,0.3,0,0.4,0c0.6-0.1,1.1-0.4,1.6-0.9c0.4-0.4,0.6-1,0.6-1.7
			c0-0.6-0.1-1-0.4-1.4c-0.6-0.6-1.4-0.9-2.1-1c-0.4-0.1-0.7-0.1-1-0.3c-0.6-0.1-1.1-0.4-1.7-0.7c-0.6-0.3-1-0.7-1.3-1.3
			c-0.3-0.6-0.4-1.1-0.4-1.8c0-0.1,0-0.1,0-0.3c0-0.3,0-0.4,0.1-0.7c0-0.3,0.1-0.6,0.3-0.7c0.3-0.6,0.6-1,1-1.4
			c0.3-0.3,0.7-0.4,1-0.6c0.3-0.1,0.7-0.3,1-0.3v-0.7c0-0.1,0-0.1,0-0.3c0.1-0.3,0.3-0.4,0.6-0.6h0.1h0.4c0.4,0,0.9,0.4,0.9,0.9v0.7
			c0.7,0.1,1.4,0.4,1.8,0.9c0.6,0.4,0.9,1,1.1,1.7c0.1,0.4-0.1,1-0.7,1.1h-0.4c-0.4,0-0.7-0.1-0.9-0.6c-0.1-0.3-0.3-0.6-0.4-0.7
			c-0.4-0.4-1-0.7-1.7-0.7c-0.1,0-0.4,0-0.6,0s-0.3,0-0.4,0.1c-0.3,0.1-0.7,0.3-0.9,0.6c-0.1,0.1-0.1,0.3-0.3,0.4
			c-0.1,0.3-0.3,0.6-0.3,1c0,0.6,0.1,1,0.4,1.3c0.3,0.3,0.6,0.6,1,0.7c0.6,0.3,1.1,0.3,1.6,0.4c0.6,0.1,1.1,0.3,1.7,0.4
			c0.6,0.3,1,0.6,1.3,0.9c0.3,0.3,0.6,0.7,0.9,1.3c0.1,0.4,0.3,1,0.3,1.6C248.1,76.4,247.7,77.4,247,78.2z"/>
	</g>
</g>
</svg>
