<?xml version="1.0" encoding="utf-8"?>
<!-- Generator: Adobe Illustrator 18.1.1, SVG Export Plug-In . SVG Version: 6.00 Build 0)  -->
<svg version="1.1" id="Capa_1" xmlns="http://www.w3.org/2000/svg" xmlns:xlink="http://www.w3.org/1999/xlink" x="0px" y="0px"
	 viewBox="0 0 140 140" enable-background="new 0 0 140 140" xml:space="preserve">
<g>
	<g>
		<g>
			<g>
				<path fill="#FFA200" d="M109.3,65.8c0-22.3-18.5-40.3-41.1-39.3c-20.3,1-36.9,17.7-37.4,38c-0.7,19.5,12.8,35.9,30.9,39.8
					l2.6,4.1c2.5,4.4,8.9,4.4,11.5,0l2.6-4.1C96,100.3,109.3,84.7,109.3,65.8z"/>
			</g>
			<defs>
				<filter id="Adobe_OpacityMaskFilter" filterUnits="userSpaceOnUse" x="30.7" y="26.5" width="78.6" height="85.2">
					<feColorMatrix  type="matrix" values="1 0 0 0 0  0 1 0 0 0  0 0 1 0 0  0 0 0 1 0"/>
				</filter>
			</defs>
			<mask maskUnits="userSpaceOnUse" x="30.7" y="26.5" width="78.6" height="85.2" id="SVGID_4_">
				<g filter="url(#Adobe_OpacityMaskFilter)">
				</g>
			</mask>
			<g opacity="0.4" mask="url(#SVGID_4_)">
				<path d="M109.3,65.8c0-22.3-18.5-40.3-41.1-39.3c-20.3,1-36.9,17.7-37.4,38c-0.7,19.5,12.8,35.9,30.9,39.8l2.6,4.1
					c2.5,4.4,8.9,4.4,11.5,0l2.6-4.1C96,100.3,109.3,84.7,109.3,65.8z"/>
			</g>
		</g>
		<g>
			<g>
				<path fill="#FFFFFF" d="M104.1,66c0,18.9-15.3,34.1-34.1,34.1S35.8,84.8,35.8,66S51,31.8,69.9,31.8S104.1,47.1,104.1,66z"/>
			</g>
			<defs>
				<filter id="Adobe_OpacityMaskFilter_1_" filterUnits="userSpaceOnUse" x="35.8" y="31.8" width="68.4" height="68.2">
					<feColorMatrix  type="matrix" values="1 0 0 0 0  0 1 0 0 0  0 0 1 0 0  0 0 0 1 0"/>
				</filter>
			</defs>
			<mask maskUnits="userSpaceOnUse" x="35.8" y="31.8" width="68.4" height="68.2" id="SVGID_1_">
				<g filter="url(#Adobe_OpacityMaskFilter_1_)">
				</g>
			</mask>
			<g opacity="0.3" mask="url(#SVGID_1_)">
				<path d="M104.1,66c0,18.9-15.3,34.1-34.1,34.1S35.8,84.8,35.8,66S51,31.8,69.9,31.8S104.1,47.1,104.1,66z"/>
			</g>
		</g>
	</g>
	<g>
		<path fill="#FFA200" d="M96.4,62.9c0.1,3.2-0.6,6.3-1.8,9.3c-0.7,1.8-2,2.4-3.4,1.9c-1.3-0.5-1.9-1.9-1.2-3.5
			c4.6-11.2-1.7-24-13.9-27.5c-12.1-3.5-24.6,3.9-27.1,16.1c-0.8,4.1-0.3,8.1,1.5,11.9c0.3,0.8,0.7,1.5,0.5,2.4
			c-0.2,1.1-1,1.6-2,1.8c-1.3,0.2-2.3-0.4-2.8-1.7c-2.9-6.2-3.3-12.5-1.1-18.9c4-11.4,15.3-18,26.4-17.1c13.2,1,22.7,9.6,24.6,21.9
			C96.3,60.5,96.3,61.7,96.4,62.9z"/>
		<path fill="#FFA200" d="M70.2,45.6c12.4,0,21.3,11.8,17.5,23.4c-0.1,0.4-0.3,0.8-0.4,1.2c-0.5,1.4-1.6,2-3,1.4
			c-1.4-0.5-1.5-1.7-1-2.9c1.3-3.3,1.3-6.6,0.1-9.8c-2.7-7.3-11.3-11-18.7-8c-7.4,2.9-10.8,10.8-7.8,18.1c0.6,1.3,0.8,2.6-0.7,3.4
			c-1.3,0.7-2.5,0-3.2-1.8c-4.7-11.1,2.9-23.7,15-24.7C68.6,45.7,69.3,45.7,70.2,45.6z"/>
		<path fill="#FFA200" d="M68.2,71.5c-0.8-0.4-1.6-0.7-2.2-1.2c-2.8-1.8-4-5-3.1-8.1c1-3.3,4-5.3,7.6-5.1c3.3,0.1,6.2,2.5,6.9,5.6
			c0.7,3.2-0.8,6.6-3.8,8c-1.5,0.7-1.7,1.5-1.7,2.9c0.1,5.5,0,11,0,16.5c0,1.4-0.2,2.6-1.9,2.5c-1.6,0-1.8-1.2-1.8-2.5
			C68.2,83.9,68.2,77.7,68.2,71.5z M70,60.6c-2.1,0-3.9,1.8-3.8,3.8c0.1,1.9,1.9,3.6,3.8,3.7c2,0,3.9-1.8,3.9-3.8
			C73.9,62.3,72.1,60.6,70,60.6z"/>
	</g>
</g>
</svg>
