<?xml version="1.0" encoding="utf-8"?>
<!-- Generator: Adobe Illustrator 18.1.1, SVG Export Plug-In . SVG Version: 6.00 Build 0)  -->
<svg version="1.1" id="Layer_1" xmlns="http://www.w3.org/2000/svg" xmlns:xlink="http://www.w3.org/1999/xlink" x="0px" y="0px"
	 viewBox="152 0 128 128" enable-background="new 152 0 128 128" xml:space="preserve">
<g>
	<g>
		<g>
			<path fill="#FFA200" d="M252.1,64.7c0-20.5-17.1-37-37.8-36.1c-18.6,0.9-33.7,16.1-34.4,34.8c-0.6,17.8,11.8,32.9,28.3,36.6
				l2.4,3.7c2.3,4.1,8.2,4.1,10.5,0l2.4-3.7C239.8,96.4,252.1,81.9,252.1,64.7z"/>
		</g>
		<defs>
			<filter id="Adobe_OpacityMaskFilter" filterUnits="userSpaceOnUse" x="179.8" y="28.6" width="72.3" height="78.2">
				<feColorMatrix  type="matrix" values="1 0 0 0 0  0 1 0 0 0  0 0 1 0 0  0 0 0 1 0"/>
			</filter>
		</defs>
		<mask maskUnits="userSpaceOnUse" x="179.8" y="28.6" width="72.3" height="78.2" id="SVGID_4_">
			<g filter="url(#Adobe_OpacityMaskFilter)">
				
					<image overflow="visible" enable-background="new    " width="56" height="60" xlink:href="88BD6813BF6E0CC7.jpg"  transform="matrix(1.4222 0 0 1.4222 175.8903 25.5363)">
				</image>
			</g>
		</mask>
		<g opacity="0.4" mask="url(#SVGID_4_)">
			<path d="M252.1,64.7c0-20.5-17.1-37-37.8-36.1c-18.6,0.9-33.7,16.1-34.4,34.8c-0.6,17.8,11.8,32.9,28.3,36.6l2.4,3.7
				c2.3,4.1,8.2,4.1,10.5,0l2.4-3.7C239.9,96.4,252.1,81.9,252.1,64.7z"/>
		</g>
	</g>
	<g>
		<g>
			<path fill="#FFFFFF" d="M247.4,64.9c0,17.4-14.1,31.4-31.4,31.4s-31.4-14.1-31.4-31.4s14.1-31.4,31.4-31.4S247.4,47.5,247.4,64.9
				z"/>
		</g>
		<defs>
			<filter id="Adobe_OpacityMaskFilter_1_" filterUnits="userSpaceOnUse" x="184.5" y="33.4" width="62.9" height="62.9">
				<feColorMatrix  type="matrix" values="1 0 0 0 0  0 1 0 0 0  0 0 1 0 0  0 0 0 1 0"/>
			</filter>
		</defs>
		<mask maskUnits="userSpaceOnUse" x="184.5" y="33.4" width="62.9" height="62.9" id="SVGID_1_">
			<g filter="url(#Adobe_OpacityMaskFilter_1_)">
				
					<image overflow="visible" enable-background="new    " width="49" height="49" xlink:href="88BD6813BF6E0CC5.jpg"  transform="matrix(1.4222 0 0 1.4222 181.5698 29.803)">
				</image>
			</g>
		</mask>
		<g opacity="0.3" mask="url(#SVGID_1_)">
			<path d="M247.4,64.9c0,17.4-14.1,31.4-31.4,31.4s-31.4-14.1-31.4-31.4s14.1-31.4,31.4-31.4S247.4,47.5,247.4,64.9z"/>
		</g>
	</g>
</g>
<g>
	<g>
		<path fill="#FFA200" d="M201.4,45.4c1.4-0.7,2.8-0.9,4.4-0.6c3.1,0.7,5,3,5.4,6.1c0.1,1,0,1.8-0.3,2.7c-0.1,0.3,0,0.4,0.1,0.6
			c1.7,1.7,3.3,3.3,5,5c2.8,2.8,5.8,5.8,8.7,8.7c0.3,0.3,0.4,0.3,0.7,0.1c3.6-1.1,7.4,1,8.5,4.6c0.6,1.7,0.4,3.4-0.4,5.1
			c-0.7-0.7-1.3-1.3-1.8-2c-0.9-0.9-1.7-1.7-2.6-2.6c-1-1-2.4-1-3.4-0.1c-0.9,0.9-0.9,2.3,0.1,3.3c1.4,1.4,2.8,2.8,4.1,4.1
			c0.1,0.1,0.1,0.1,0.3,0.3c-1.3,0.6-2.7,0.9-4.1,0.6c-3.8-0.6-6.3-4.1-5.7-8c0-0.3,0.1-0.6,0.3-0.9c0.1-0.3,0-0.4-0.1-0.6
			c-4.6-4.6-9.1-9.1-13.7-13.7c-0.1-0.1-0.3-0.3-0.6-0.1c-4.1,1.4-8.7-1.7-9-6c-0.1-1.3,0.1-2.3,0.7-3.4c0.1,0,0.3,0.1,0.4,0.3
			c1.4,1.4,2.8,2.8,4.1,4.1c0.9,0.9,2.1,1,3.1,0.3c1.1-0.9,1.3-2.4,0.1-3.6c-1.4-1.4-2.8-2.8-4.3-4.3
			C201.7,45.7,201.6,45.5,201.4,45.4z"/>
		<path fill="#FFA200" d="M209.8,64.4c1.7,1.7,3.3,3.3,5,5c-2.1,2.1-4.4,4.4-6.5,6.5c-1.6,1.6-3.1,3.1-4.7,4.7
			c-1.1,1.1-2.3,1.4-3.8,1c-2.1-0.7-3-3.6-1.6-5.3c1-1.3,2.3-2.4,3.4-3.6c2.7-2.7,5.4-5.4,8-8C209.7,64.6,209.7,64.4,209.8,64.4z"/>
		<path fill="#FFA200" d="M234.4,47.2c-0.7,1.3-1.4,2.6-2,4c-0.3,0.7-0.9,1.3-1.6,1.6c-1.1,0.6-2.3,1.1-3.6,1.8
			c-0.7,0.3-1.1,1-1.6,1.4c-1.6,1.6-3.1,3.1-4.7,4.7l-0.1,0.1c-0.9-0.9-1.6-1.6-2.4-2.4c0.7-0.7,1.4-1.4,2.1-2.1
			c1.3-1.3,2.4-2.4,3.7-3.7c0.4-0.6,0.7-1.1,1-1.8c0.6-1,1.1-2.1,1.7-3.1c0-0.1,0.1-0.1,0.3-0.3c1.6-0.9,3.3-1.7,4.8-2.6
			C232.9,45.5,233.6,46.4,234.4,47.2z"/>
	</g>
</g>
</svg>
