<?xml version="1.0" encoding="utf-8"?>
<!-- Generator: Adobe Illustrator 18.1.1, SVG Export Plug-In . SVG Version: 6.00 Build 0)  -->
<svg version="1.1" id="Layer_1" xmlns="http://www.w3.org/2000/svg" xmlns:xlink="http://www.w3.org/1999/xlink" x="0px" y="0px"
	 viewBox="156 0 128 128" enable-background="new 156 0 128 128" xml:space="preserve">
<g>
	<g>
		<g>
			<path fill="#FFA200" d="M255.8,63.4c0-20.3-16.9-36.7-37.5-35.8c-18.5,0.9-33.6,16.1-34.1,34.6c-0.6,17.8,11.7,32.7,28.2,36.3
				l2.4,3.7c2.3,4,8.1,4,10.5,0l2.4-3.7C243.8,94.9,255.8,80.5,255.8,63.4z"/>
		</g>
		<defs>
			<filter id="Adobe_OpacityMaskFilter" filterUnits="userSpaceOnUse" x="184.1" y="27.6" width="71.7" height="77.5">
				<feColorMatrix  type="matrix" values="1 0 0 0 0  0 1 0 0 0  0 0 1 0 0  0 0 0 1 0"/>
			</filter>
		</defs>
		<mask maskUnits="userSpaceOnUse" x="184.1" y="27.6" width="71.7" height="77.5" id="SVGID_4_">
			<g filter="url(#Adobe_OpacityMaskFilter)">
				
					<image overflow="visible" enable-background="new    " width="56" height="59" xlink:href="CCF482B6535365FD.jpg"  transform="matrix(1.4222 0 0 1.4222 180.1778 24.1778)">
				</image>
			</g>
		</mask>
		<g opacity="0.4" mask="url(#SVGID_4_)">
			<path d="M255.8,63.4c0-20.3-16.9-36.7-37.5-35.8c-18.5,0.9-33.6,16.1-34.1,34.6c-0.6,17.8,11.7,32.7,28.2,36.3l2.4,3.7
				c2.3,4,8.1,4,10.5,0l2.4-3.7C243.8,94.9,255.8,80.5,255.8,63.4z"/>
		</g>
	</g>
	<g>
		<g>
			<path fill="#FFFFFF" d="M251.1,63.6c0,17.2-13.9,31.1-31.1,31.1s-31.1-13.9-31.1-31.1s13.9-31.3,31.1-31.3S251.1,46.4,251.1,63.6
				z"/>
		</g>
		<defs>
			<filter id="Adobe_OpacityMaskFilter_1_" filterUnits="userSpaceOnUse" x="188.9" y="32.3" width="62.3" height="62.4">
				<feColorMatrix  type="matrix" values="1 0 0 0 0  0 1 0 0 0  0 0 1 0 0  0 0 0 1 0"/>
			</filter>
		</defs>
		<mask maskUnits="userSpaceOnUse" x="188.9" y="32.3" width="62.3" height="62.4" id="SVGID_1_">
			<g filter="url(#Adobe_OpacityMaskFilter_1_)">
				
					<image overflow="visible" enable-background="new    " width="48" height="49" xlink:href="CCF482B6535365FF.jpg"  transform="matrix(1.4222 0 0 1.4222 185.8667 28.4444)">
				</image>
			</g>
		</mask>
		<g opacity="0.3" mask="url(#SVGID_1_)">
			<path d="M251.1,63.6c0,17.2-13.9,31.1-31.1,31.1s-31.1-13.9-31.1-31.1s13.9-31.3,31.1-31.3S251.1,46.4,251.1,63.6z"/>
		</g>
	</g>
</g>
<g>
	<g>
		<path fill="#FFA200" d="M202.1,79.4c-0.6,0-1-0.4-1-1V47.9c0-0.6,0.4-1,1-1s1,0.4,1,1v30.6C203.1,78.9,202.6,79.4,202.1,79.4
			L202.1,79.4z"/>
		<path fill="#FFA200" d="M239.8,78.5h-39.5c-0.6,0-1-0.4-1-1c0-0.6,0.4-1,1-1h39.5c0.6,0,1,0.4,1,1
			C240.8,78.1,240.3,78.5,239.8,78.5L239.8,78.5z"/>
		<path fill="#FFA200" d="M216.2,75.1h-0.7c-1.4,0-2.7-1.1-2.7-2.7V59.6c0-1.4,1.1-2.7,2.7-2.7h0.7c1.4,0,2.7,1.1,2.7,2.7v12.8
			C218.7,74,217.6,75.1,216.2,75.1z"/>
		<path fill="#FFA200" d="M209.2,75.1h-2c-1,0-1.7-0.7-1.7-1.7v-11c0-1,0.7-1.7,1.7-1.7h2.1c1,0,1.7,0.7,1.7,1.7v11
			C210.9,74.4,210.2,75.1,209.2,75.1z"/>
		<path fill="#FFA200" d="M224.1,75.1h-0.7c-1.4,0-2.7-1.1-2.7-2.7V55.2c0-1.4,1.1-2.7,2.7-2.7h0.7c1.4,0,2.7,1.1,2.7,2.7v17.2
			C226.8,74,225.5,75.1,224.1,75.1z"/>
		<path fill="#FFA200" d="M232.4,75.1h-0.7c-1.4,0-2.7-1.1-2.7-2.7V48.2c0-1.4,1.1-2.7,2.7-2.7h0.7c1.4,0,2.7,1.1,2.7,2.7v24.3
			C235.1,74,233.8,75.1,232.4,75.1z"/>
	</g>
</g>
</svg>
