<?xml version="1.0" encoding="utf-8"?>
<!-- Generator: Adobe Illustrator 18.1.1, SVG Export Plug-In . SVG Version: 6.00 Build 0)  -->
<svg version="1.1" id="Layer_1" xmlns="http://www.w3.org/2000/svg" xmlns:xlink="http://www.w3.org/1999/xlink" x="0px" y="0px"
	 viewBox="142 0 128 128" enable-background="new 142 0 128 128" xml:space="preserve">
<g>
	<g>
		<g>
			<g>
				<path fill="#FFA200" d="M241.8,62.4c0-20.3-16.9-36.7-37.5-35.8c-18.5,0.9-33.6,16.1-34.1,34.6c-0.6,17.8,11.7,32.7,28.2,36.4
					l2.4,3.7c2.3,4,8.1,4,10.5,0l2.4-3.7C229.8,94,241.8,79.6,241.8,62.4z"/>
			</g>
			<defs>
				<filter id="Adobe_OpacityMaskFilter" filterUnits="userSpaceOnUse" x="170.2" y="26.6" width="71.7" height="77.7">
					<feColorMatrix  type="matrix" values="1 0 0 0 0  0 1 0 0 0  0 0 1 0 0  0 0 0 1 0"/>
				</filter>
			</defs>
			<mask maskUnits="userSpaceOnUse" x="170.2" y="26.6" width="71.7" height="77.7" id="SVGID_4_">
				<g filter="url(#Adobe_OpacityMaskFilter)">
					
						<image overflow="visible" enable-background="new    " width="56" height="60" xlink:href="16EB539B3AAD2C72.jpg"  transform="matrix(1.4222 0 0 1.4222 166.2584 22.7556)">
					</image>
				</g>
			</mask>
			<g opacity="0.4" mask="url(#SVGID_4_)">
				<path d="M241.9,62.4c0-20.3-16.9-36.7-37.5-35.8c-18.5,0.9-33.6,16.1-34.1,34.6c-0.6,17.8,11.7,32.7,28.2,36.4l2.4,3.7
					c2.3,4,8.1,4,10.5,0l2.4-3.7C229.8,94,241.9,79.6,241.9,62.4z"/>
			</g>
		</g>
		<g>
			<g>
				<path fill="#FFFFFF" d="M237.1,62.7c0,17.2-13.9,31.1-31.1,31.1s-31.1-13.9-31.1-31.1s13.9-31.3,31.1-31.3
					S237.1,45.4,237.1,62.7z"/>
			</g>
			<defs>
				<filter id="Adobe_OpacityMaskFilter_1_" filterUnits="userSpaceOnUse" x="174.9" y="31.4" width="62.3" height="62.4">
					<feColorMatrix  type="matrix" values="1 0 0 0 0  0 1 0 0 0  0 0 1 0 0  0 0 0 1 0"/>
				</filter>
			</defs>
			<mask maskUnits="userSpaceOnUse" x="174.9" y="31.4" width="62.3" height="62.4" id="SVGID_1_">
				<g filter="url(#Adobe_OpacityMaskFilter_1_)">
					
						<image overflow="visible" enable-background="new    " width="48" height="48" xlink:href="16EB539B3AAD2C76.jpg"  transform="matrix(1.4222 0 0 1.4222 171.8667 28.4444)">
					</image>
				</g>
			</mask>
			<g opacity="0.3" mask="url(#SVGID_1_)">
				<path d="M237.1,62.7c0,17.2-13.9,31.1-31.1,31.1s-31.1-13.9-31.1-31.1s13.9-31.3,31.1-31.3S237.1,45.4,237.1,62.7z"/>
			</g>
		</g>
	</g>
	<g>
		<g>
			<g>
				<path fill="#FFA200" d="M201.9,67.6l1.3-1c0,0,0,0.1,0.1,0.1c0,0.1,0.1,0.3,0.4,0.4c0.1,0.1,0.4,0.4,0.6,0.6
					c0.3,0.1,0.4,0.3,0.9,0.4c0.3,0.1,0.7,0.1,1.1,0.1c0.6,0,1.1-0.1,1.6-0.6c0.4-0.3,0.6-0.9,0.6-1.3c0-0.3,0-0.6-0.1-0.7
					c-0.1-0.3-0.3-0.4-0.6-0.6c-0.3-0.1-0.6-0.3-0.9-0.4c-0.3-0.1-0.6-0.3-1-0.4c-0.3-0.1-0.7-0.3-1-0.4c-0.3-0.1-0.7-0.3-1-0.6
					c-0.3-0.1-0.6-0.4-0.9-0.7c-0.3-0.3-0.4-0.6-0.6-0.9c-0.1-0.4-0.1-0.7-0.1-1.1c0-0.9,0.3-1.6,0.9-2.1c0.6-0.6,1.4-1,2.4-1.1
					v-1.8h1.3V57c0.3,0,0.7,0.1,1,0.1c0.3,0.1,0.6,0.3,1,0.4s0.6,0.4,0.7,0.7c0.1,0.3,0.3,0.6,0.3,1v1h-1.6v-0.6
					c0-0.3-0.1-0.6-0.6-0.9c-0.4-0.3-0.9-0.3-1.3-0.3c-0.7,0-1.1,0.1-1.6,0.4c-0.4,0.3-0.6,0.7-0.6,1.1c0,0.3,0.1,0.7,0.3,1
					c0.3,0.3,0.6,0.6,0.9,0.7c0.3,0.1,0.7,0.4,1.1,0.6c0.4,0.1,0.9,0.4,1.3,0.6c0.4,0.3,0.9,0.4,1.1,0.7c0.3,0.3,0.6,0.6,0.9,1.1
					c0.3,0.4,0.3,1,0.3,1.6c0,0.9-0.3,1.6-0.9,2.3c-0.6,0.7-1.4,1-2.4,1.1v1.7h-1.3V70c-0.4,0-0.9-0.1-1.3-0.4
					c-0.4-0.1-0.7-0.4-1-0.6c-0.3-0.3-0.6-0.4-0.7-0.7c-0.1-0.3-0.3-0.4-0.4-0.6L201.9,67.6z"/>
			</g>
			<g>
				<path fill="#FFA200" d="M225.1,49.5h-8c-0.4,0-0.7-0.3-0.9-0.6c-0.1-0.4-0.4-0.7-0.7-1.1c-1.3-2-4-4.4-9-4.6
					c-5.7-0.1-8.5,2.3-10.1,4.4c-0.3,0.4-0.6,0.9-0.7,1.3c-0.3,0.4-0.7,0.7-1.1,0.7h-7.7c-0.9,0-1.6,0.7-1.6,1.6v17.2
					c0,0.4,0.3,0.7,0.7,0.7h11.5c-1.1-1.7-1.8-3.8-1.7-6c0.1-5.3,4.6-9.5,10-9.7c5.7-0.1,10.2,4.4,10.2,10.1c0,2.1-0.6,4-1.7,5.7
					h11.7c0.4,0,0.7-0.3,0.7-0.7V51.2C226.6,50.2,225.9,49.5,225.1,49.5z M198.7,49.5c-0.6,0-0.7-0.6-0.4-1c1.3-1.7,3.6-3.3,7.7-3.3
					c0.1,0,0.3,0,0.4,0c4,0.1,6.1,1.8,7.3,3.6c0.1,0.3,0,0.7-0.4,0.7H198.7z"/>
				<path fill="#FFA200" d="M205.9,73.4c-2.6,0-4.8-0.9-6.7-2.6c-0.1-0.1-0.4-0.3-0.7-0.3h-12.8c-0.3,0-0.4,0.3-0.4,0.4v3.1
					c0,0.9,0.7,1.6,1.6,1.6h38.3c0.9,0,1.6-0.7,1.6-1.6v-2.7c0-0.6-0.4-1-1-1h-12.4c-0.3,0-0.7,0.1-1,0.4
					C210.7,72.5,208.4,73.4,205.9,73.4z"/>
			</g>
		</g>
	</g>
</g>
</svg>
